<svg width="20" height="20" viewBox="0 0 20 20" fill="none" xmlns="http://www.w3.org/2000/svg">
<g id="bxs:copy">
<path id="Vector" d="M11.6665 6.66675H3.33317C2.414 6.66675 1.6665 7.41425 1.6665 8.33341V16.6667C1.6665 17.5859 2.414 18.3334 3.33317 18.3334H11.6665C12.5857 18.3334 13.3332 17.5859 13.3332 16.6667V8.33341C13.3332 7.41425 12.5857 6.66675 11.6665 6.66675Z" fill="#FFDD2E"/>
<path id="Vector_2" d="M16.6665 1.66675H8.33317C7.89114 1.66675 7.46722 1.84234 7.15466 2.1549C6.8421 2.46746 6.6665 2.89139 6.6665 3.33341V5.00008H13.3332C13.7752 5.00008 14.1991 5.17568 14.5117 5.48824C14.8242 5.8008 14.9998 6.22472 14.9998 6.66675V13.3334H16.6665C17.1085 13.3334 17.5325 13.1578 17.845 12.8453C18.1576 12.5327 18.3332 12.1088 18.3332 11.6667V3.33341C18.3332 2.89139 18.1576 2.46746 17.845 2.1549C17.5325 1.84234 17.1085 1.66675 16.6665 1.66675Z" fill="#FFDD2E"/>
</g>
</svg>
