<svg width="17" height="16" viewBox="0 0 17 16" fill="none" xmlns="http://www.w3.org/2000/svg">
<g id="Group 855130">
<path id="Vector" d="M11.1851 10.9764C11.3268 11.1187 11.5171 11.2023 11.7179 11.2104C11.8227 11.2135 11.9271 11.1958 12.025 11.1585C12.123 11.1212 12.2127 11.0649 12.2889 10.9929C12.3651 10.9209 12.4263 10.8345 12.4691 10.7388C12.5119 10.6431 12.5354 10.5399 12.5383 10.4351L12.7949 4.24118C12.8031 4.02958 12.7269 3.82337 12.5831 3.66793C12.4393 3.51249 12.2396 3.42054 12.028 3.41232C11.8164 3.40409 11.6102 3.48026 11.4548 3.62407C11.2993 3.76788 11.2074 3.96755 11.1991 4.17916L10.9511 10.3815C10.9469 10.4915 10.9656 10.6011 11.0058 10.7034C11.0461 10.8058 11.1071 10.8988 11.1851 10.9764Z" fill="#FFDD2E"/>
<path id="Vector_2" d="M5.23056 5.0224C5.30821 5.10032 5.40114 5.16134 5.50352 5.20161C5.60589 5.24188 5.71549 5.26054 5.82542 5.2564L12.0278 5.0083C12.2394 5.00008 12.4391 4.90813 12.5829 4.75269C12.7267 4.59724 12.8029 4.39104 12.7946 4.17944C12.7864 3.96783 12.6945 3.76816 12.539 3.62435C12.3836 3.48054 12.1774 3.40437 11.9658 3.4126L5.77186 3.66915C5.66704 3.67309 5.56402 3.69767 5.46872 3.74148C5.37341 3.78529 5.28769 3.84747 5.21646 3.92447C5.14522 4.00147 5.08988 4.09176 5.0536 4.19018C5.01731 4.2886 5.00081 4.39321 5.00502 4.49801C5.01291 4.69465 5.09325 4.88142 5.23056 5.0224Z" fill="#FFDD2E"/>
<path id="Vector_3" d="M4.38449 11.822C4.53404 11.9716 4.74399 12.0485 4.96816 12.0358C5.19234 12.0231 5.41237 11.9219 5.57986 11.7544L12.2108 5.12346C12.3783 4.95597 12.4795 4.73594 12.4922 4.51176C12.5049 4.28759 12.428 4.07763 12.2784 3.92809C12.1289 3.77855 11.9189 3.70166 11.6948 3.71435C11.4706 3.72704 11.2506 3.82826 11.0831 3.99575L4.45216 10.6267C4.28467 10.7941 4.18344 11.0142 4.17076 11.2384C4.15807 11.4625 4.23495 11.6725 4.38449 11.822Z" fill="#FFDD2E"/>
</g>
</svg>
