<svg width="14" height="15" viewBox="0 0 14 15" fill="none" xmlns="http://www.w3.org/2000/svg">
<g id="Group 855130">
<path id="Vector" d="M1.71993 7.72131C1.46797 7.7218 1.22511 7.62716 1.03993 7.45631C0.944278 7.3661 0.867359 7.2579 0.813573 7.13792C0.759787 7.01795 0.730189 6.88854 0.726474 6.75711C0.722758 6.62568 0.744998 6.4948 0.79192 6.37198C0.838843 6.24915 0.909527 6.13679 0.999926 6.04131L6.26493 0.321312C6.44527 0.126378 6.69567 0.0110709 6.96104 0.000756352C7.2264 -0.00955815 7.48499 0.0859655 7.67993 0.266313C7.87486 0.44666 7.99017 0.697057 8.00048 0.962421C8.0108 1.22779 7.91527 1.48638 7.73493 1.68131L2.45493 7.40131C2.36111 7.50247 2.24739 7.58311 2.1209 7.63819C1.9944 7.69326 1.85789 7.72156 1.71993 7.72131Z" fill="black"/>
<path id="Vector_2" d="M12.2798 7.72131C12.1419 7.72156 12.0054 7.69326 11.8789 7.63819C11.7524 7.58311 11.6387 7.50247 11.5448 7.40131L6.26485 1.68131C6.0845 1.48638 5.98898 1.22779 5.99929 0.962421C6.00961 0.697057 6.12491 0.44666 6.31985 0.266313C6.51478 0.0859655 6.77337 -0.00955815 7.03874 0.000756352C7.3041 0.0110709 7.5545 0.126378 7.73485 0.321312L12.9998 6.04131C13.0893 6.13775 13.1589 6.2509 13.2045 6.37426C13.2502 6.49762 13.2711 6.62878 13.2659 6.76022C13.2608 6.89167 13.2298 7.02081 13.1747 7.14026C13.1196 7.25971 13.0415 7.36711 12.9448 7.45631C12.7635 7.62368 12.5266 7.71806 12.2798 7.72131Z" fill="black"/>
<path id="Vector_3" d="M7 14.5013C6.73478 14.5013 6.48043 14.3833 6.29289 14.1733C6.10536 13.9633 6 13.6784 6 13.3813V1.62134C6 1.3243 6.10536 1.03942 6.29289 0.829383C6.48043 0.619343 6.73478 0.501343 7 0.501343C7.26522 0.501343 7.51957 0.619343 7.70711 0.829383C7.89464 1.03942 8 1.3243 8 1.62134V13.3813C8 13.6784 7.89464 13.9633 7.70711 14.1733C7.51957 14.3833 7.26522 14.5013 7 14.5013Z" fill="black"/>
</g>
</svg>
