<svg width="21" height="20" viewBox="0 0 21 20" fill="none" xmlns="http://www.w3.org/2000/svg">
<g id="coins 1">
<g id="Group">
<path id="Vector" fill-rule="evenodd" clip-rule="evenodd" d="M7.65869 8.76672V12.1001C7.65869 12.8709 8.10369 13.6184 8.95036 14.1959C9.95702 14.8826 11.5762 15.3501 13.4087 15.3501C15.2412 15.3501 16.8604 14.8826 17.867 14.1959C18.7137 13.6184 19.1587 12.8709 19.1587 12.1001V8.76672C19.1587 8.35256 18.8229 8.01672 18.4087 8.01672C17.9945 8.01672 17.6587 8.35256 17.6587 8.76672V12.1001C17.6587 12.4342 17.3887 12.7067 17.0212 12.9567C16.2079 13.5117 14.8895 13.8501 13.4087 13.8501C11.9279 13.8501 10.6095 13.5117 9.79619 12.9567C9.42869 12.7067 9.15869 12.4342 9.15869 12.1001V8.76672C9.15869 8.35256 8.82286 8.01672 8.40869 8.01672C7.99452 8.01672 7.65869 8.35256 7.65869 8.76672Z" fill="white"/>
<path id="Vector_2" fill-rule="evenodd" clip-rule="evenodd" d="M7.65869 12.1V15.4333C7.65869 16.2041 8.10369 16.9516 8.95036 17.5291C9.95702 18.2158 11.5762 18.6833 13.4087 18.6833C15.2412 18.6833 16.8604 18.2158 17.867 17.5291C18.7137 16.9516 19.1587 16.2041 19.1587 15.4333V12.1C19.1587 11.6858 18.8229 11.35 18.4087 11.35C17.9945 11.35 17.6587 11.6858 17.6587 12.1V15.4333C17.6587 15.7675 17.3887 16.04 17.0212 16.29C16.2079 16.845 14.8895 17.1833 13.4087 17.1833C11.9279 17.1833 10.6095 16.845 9.79619 16.29C9.42869 16.04 9.15869 15.7675 9.15869 15.4333V12.1C9.15869 11.6858 8.82286 11.35 8.40869 11.35C7.99452 11.35 7.65869 11.6858 7.65869 12.1Z" fill="white"/>
<path id="Vector_3" fill-rule="evenodd" clip-rule="evenodd" d="M13.4087 5.51672C11.577 5.51672 9.95786 5.98422 8.95119 6.67089C8.10452 7.24839 7.65869 7.99589 7.65869 8.76672C7.65869 9.53756 8.10452 10.2851 8.95119 10.8626C9.95786 11.5492 11.577 12.0167 13.4087 12.0167C15.2404 12.0167 16.8595 11.5492 17.8662 10.8626C18.7129 10.2851 19.1587 9.53756 19.1587 8.76672C19.1587 7.99589 18.7129 7.24839 17.8662 6.67089C16.8595 5.98422 15.2404 5.51672 13.4087 5.51672ZM13.4087 7.01672C14.8887 7.01672 16.207 7.35589 17.0212 7.91006C17.3887 8.16089 17.6587 8.43256 17.6587 8.76672C17.6587 9.10089 17.3887 9.37256 17.0212 9.62339C16.207 10.1776 14.8887 10.5167 13.4087 10.5167C11.9287 10.5167 10.6104 10.1776 9.79619 9.62339C9.42869 9.37256 9.15869 9.10089 9.15869 8.76672C9.15869 8.43256 9.42869 8.16089 9.79619 7.91006C10.6104 7.35589 11.9287 7.01672 13.4087 7.01672Z" fill="white"/>
<path id="Vector_4" fill-rule="evenodd" clip-rule="evenodd" d="M0.991699 4.16663V7.49996C0.991699 8.12996 1.28253 8.73663 1.84753 9.25246C2.51503 9.86246 3.60503 10.3575 4.93087 10.5941C5.33837 10.6666 5.72753 10.395 5.80087 9.98746C5.87337 9.57913 5.60087 9.18996 5.19337 9.11746C4.34837 8.96663 3.6192 8.69829 3.10503 8.33996C2.75087 8.09413 2.4917 7.82663 2.4917 7.49996V4.16663C2.4917 3.75246 2.15587 3.41663 1.7417 3.41663C1.32753 3.41663 0.991699 3.75246 0.991699 4.16663Z" fill="white"/>
<path id="Vector_5" fill-rule="evenodd" clip-rule="evenodd" d="M0.991699 7.49996V10.8333C0.991699 11.5375 1.3592 12.2183 2.0667 12.7708C2.90253 13.4241 4.25837 13.9133 5.8492 14.0466C6.2617 14.0808 6.6242 13.7741 6.65836 13.3616C6.69336 12.9491 6.3867 12.5858 5.9742 12.5516C4.7242 12.4475 3.6467 12.1016 2.9892 11.5883C2.70087 11.3633 2.4917 11.1208 2.4917 10.8333V7.49996C2.4917 7.08579 2.15587 6.74996 1.7417 6.74996C1.32753 6.74996 0.991699 7.08579 0.991699 7.49996ZM5.9642 5.88413C4.71836 5.77829 3.64337 5.43246 2.98837 4.91996C2.70003 4.69496 2.4917 4.45329 2.4917 4.16663C2.4917 3.83246 2.7617 3.56079 3.1292 3.30996C3.94337 2.75579 5.2617 2.41663 6.7417 2.41663C8.2217 2.41663 9.54003 2.75579 10.3542 3.30996C10.7217 3.56079 10.9917 3.83246 10.9917 4.16663C10.9917 4.58079 11.3275 4.91663 11.7417 4.91663C12.1559 4.91663 12.4917 4.58079 12.4917 4.16663C12.4917 3.39579 12.0459 2.64829 11.1992 2.07079C10.1925 1.38413 8.57336 0.916626 6.7417 0.916626C4.91003 0.916626 3.29087 1.38413 2.2842 2.07079C1.43753 2.64829 0.991699 3.39579 0.991699 4.16663C0.991699 4.86996 1.35837 5.54996 2.0642 6.10163C2.89837 6.75413 4.2517 7.24413 5.83753 7.37829C6.25003 7.41329 6.61337 7.10746 6.64837 6.69496C6.68337 6.28246 6.3767 5.91913 5.9642 5.88413Z" fill="white"/>
</g>
</g>
</svg>
