<svg width="20" height="20" viewBox="0 0 20 20" fill="none" xmlns="http://www.w3.org/2000/svg">
<g id="wpf:key-security" clip-path="url(#clip0_2537_30)">
<path id="Vector" d="M6.1538 0.144568C5.35888 0.135574 4.57008 0.284375 3.83307 0.582353C3.09607 0.88033 2.4255 1.32156 1.8602 1.8805C1.2949 2.43944 0.846113 3.10497 0.539817 3.83856C0.233521 4.57215 0.0758057 5.35922 0.0758057 6.15418C0.0758057 6.94915 0.233521 7.73622 0.539817 8.46981C0.846113 9.2034 1.2949 9.86893 1.8602 10.4279C2.4255 10.9868 3.09607 11.428 3.83307 11.726C4.57008 12.024 5.35888 12.1728 6.1538 12.1638C7.74775 12.1638 9.27642 11.5306 10.4035 10.4035C11.5306 9.27642 12.1638 7.74775 12.1638 6.1538C12.1638 4.55985 11.5306 3.03118 10.4035 1.90409C9.27642 0.776993 7.74775 0.144568 6.1538 0.144568ZM4.23072 2.23457C4.49297 2.23406 4.75273 2.28535 4.9951 2.3855C5.23747 2.48564 5.45767 2.63267 5.64307 2.81814C5.82847 3.00362 5.97542 3.22388 6.07547 3.46629C6.17552 3.70869 6.22671 3.96848 6.22611 4.23072C6.22682 4.49296 6.17569 4.75275 6.07566 4.99516C5.97564 5.23757 5.82869 5.45783 5.64326 5.64326C5.45783 5.82869 5.23757 5.97564 4.99516 6.07566C4.75275 6.17569 4.49296 6.22682 4.23072 6.22611C3.96848 6.22682 3.70869 6.17569 3.46628 6.07566C3.22387 5.97564 3.00362 5.82869 2.81819 5.64326C2.63276 5.45783 2.4858 5.23757 2.38578 4.99516C2.28575 4.75275 2.23463 4.49296 2.23534 4.23072C2.23483 3.96854 2.2861 3.70884 2.38619 3.46652C2.48629 3.2242 2.63325 3.00403 2.81864 2.81864C3.00403 2.63325 3.2242 2.48629 3.46652 2.38619C3.70884 2.2861 3.96854 2.23406 4.23072 2.23457ZM12.7646 8.94149C12.5535 9.43486 12.2872 9.90272 11.9707 10.3361L17.9807 16.3453C18.1071 16.4734 18.1779 16.6462 18.1779 16.8261C18.1779 17.0061 18.1071 17.1788 17.9807 17.3069C17.8524 17.4329 17.6798 17.5035 17.5 17.5035C17.3201 17.5035 17.1475 17.4329 17.0192 17.3069L11.0815 11.3453C10.3316 12.0557 9.43824 12.5971 8.46149 12.933V13.9907C8.46149 14.3292 8.74687 14.6153 9.08687 14.6153H10.7692V16.2984C10.7692 16.6369 11.0546 16.923 11.3946 16.923H13.0769V18.6061C13.0769 18.9446 13.363 19.2307 13.7023 19.2307H15.4084L15.8415 19.6638C16.1046 19.9261 18.74 20.0576 19.3992 19.3992C20.0584 18.7392 19.9253 16.1038 19.663 15.8415L12.7646 8.94149Z" fill="#FFDD2E"/>
</g>
<defs>
<clipPath id="clip0_2537_30">
<rect width="20" height="20" fill="white"/>
</clipPath>
</defs>
</svg>
