<?xml version="1.0" encoding="UTF-8"?>
<svg xmlns="http://www.w3.org/2000/svg" xmlns:xlink="http://www.w3.org/1999/xlink" width="33px" height="33px" viewBox="0 0 33 33" version="1.1">
<defs>
<clipPath id="clip1">
  <path d="M 0 0 L 32.976562 0 L 32.976562 33 L 0 33 Z M 0 0 "/>
</clipPath>
</defs>
<g id="surface1">
<path style=" stroke:none;fill-rule:nonzero;fill:rgb(100%,100%,100%);fill-opacity:1;" d="M 26.660156 5.660156 L 6.296875 5.660156 L 6.296875 24.179688 L 26.660156 24.179688 Z M 26.660156 5.660156 "/>
<g clip-path="url(#clip1)" clip-rule="nonzero">
<path style=" stroke:none;fill-rule:evenodd;fill:rgb(90.980392%,25.490196%,25.882353%);fill-opacity:1;" d="M 32.96875 16.5 C 32.96875 25.601562 25.589844 32.976562 16.488281 32.976562 C 7.386719 32.976562 0.0117188 25.601562 0.0117188 16.5 C 0.0117188 7.398438 7.386719 0.0234375 16.488281 0.0234375 C 25.589844 0.0234375 32.96875 7.398438 32.96875 16.5 Z M 11.820312 23.058594 L 8.621094 23.058594 C 7.949219 23.058594 7.617188 23.058594 7.414062 22.929688 C 7.195312 22.785156 7.0625 22.550781 7.046875 22.292969 C 7.035156 22.054688 7.199219 21.761719 7.53125 21.179688 L 15.429688 7.261719 C 15.765625 6.671875 15.933594 6.375 16.148438 6.265625 C 16.378906 6.148438 16.65625 6.148438 16.886719 6.265625 C 17.101562 6.375 17.269531 6.671875 17.605469 7.261719 L 19.230469 10.09375 L 19.238281 10.109375 C 19.601562 10.742188 19.785156 11.066406 19.867188 11.402344 C 19.953125 11.769531 19.953125 12.160156 19.867188 12.527344 C 19.785156 12.867188 19.601562 13.191406 19.234375 13.835938 L 15.085938 21.167969 L 15.078125 21.1875 C 14.710938 21.824219 14.527344 22.148438 14.269531 22.394531 C 13.988281 22.660156 13.652344 22.855469 13.285156 22.964844 C 12.949219 23.058594 12.570312 23.058594 11.820312 23.058594 Z M 19.894531 23.058594 L 24.476562 23.058594 C 25.152344 23.058594 25.492188 23.058594 25.695312 22.921875 C 25.914062 22.78125 26.050781 22.542969 26.066406 22.285156 C 26.074219 22.054688 25.914062 21.773438 25.59375 21.222656 C 25.585938 21.207031 25.574219 21.1875 25.5625 21.167969 L 23.269531 17.242188 L 23.242188 17.195312 C 22.917969 16.652344 22.753906 16.375 22.546875 16.269531 C 22.316406 16.152344 22.042969 16.152344 21.816406 16.269531 C 21.601562 16.378906 21.433594 16.664062 21.097656 17.242188 L 18.8125 21.171875 L 18.800781 21.183594 C 18.46875 21.761719 18.300781 22.050781 18.3125 22.289062 C 18.328125 22.546875 18.464844 22.785156 18.679688 22.929688 C 18.878906 23.058594 19.21875 23.058594 19.894531 23.058594 Z M 19.894531 23.058594 "/>
</g>
</g>
</svg>
