<svg width="315" height="50" viewBox="0 0 315 50" fill="none" xmlns="http://www.w3.org/2000/svg">
<mask id="mask0_2462_28" style="mask-type:alpha" maskUnits="userSpaceOnUse" x="0" y="0" width="315" height="50">
<rect width="315" height="50" rx="5" fill="#FFDD2E"/>
</mask>
<g mask="url(#mask0_2462_28)">
<rect width="335" height="50" rx="5" fill="#FFDD2E"/>
<mask id="mask1_2462_28" style="mask-type:luminance" maskUnits="userSpaceOnUse" x="232" y="-48" width="89" height="89">
<path d="M276.703 40.348C301.099 40.348 320.877 20.5707 320.877 -3.82598C320.877 -28.2226 301.099 -48 276.703 -48C252.306 -48 232.529 -28.2226 232.529 -3.82598C232.529 20.5707 252.306 40.348 276.703 40.348Z" fill="white"/>
</mask>
<g mask="url(#mask1_2462_28)">
<path d="M392.753 -86.9351C392.753 -86.9351 388.016 -86.9351 379.898 -86.9273C353.159 -82.584 328.261 -89.641 301.6 -95.9145C271.214 -102.775 238.083 -98.267 217.107 -73.1736C199.071 -52.0012 198.091 -23.1829 208.677 0.930061C196.914 -3.57915 191.229 -17.6941 186.524 -28.8679C180.839 -42.0032 178.486 -55.7257 173.585 -69.0572C171.037 -75.7227 166.528 -81.0149 160.059 -84.5441C159.275 -84.9364 159.667 -86.3084 159.863 -87.2889C167.312 -84.7402 172.606 -78.859 175.35 -71.6058C182.8 -51.6089 183.388 -28.4764 199.071 -12.5971C199.855 -11.8133 200.444 -13.9691 200.247 -14.9496C196.719 -42.7875 206.129 -70.822 230.83 -87.0927C267.293 -111.206 306.306 -94.9345 344.73 -88.4656C356.688 -86.505 368.059 -89.2499 379.896 -89.3049C388.016 -89.3049 392.753 -89.3049 392.753 -89.3049L392.753 -86.9351Z" fill="black"/>
<path d="M392.753 -80.3592C392.753 -80.3592 388.016 -80.3592 379.925 -80.2747C364.53 -78.0747 349.043 -78.8586 333.948 -83.7597C299.052 -95.326 257.687 -105.324 226.321 -78.6624C208.285 -63.1755 200.639 -38.8664 207.109 -16.3212C213.382 5.43931 232.202 19.7504 252.394 27.396C220.439 27.5917 193.385 1.51778 181.819 -27.2997C174.958 -43.9628 173.389 -63.1755 159.275 -76.3103C158.883 -76.7027 159.079 -79.0552 159.275 -78.859C166.528 -74.9383 170.645 -67.6843 172.801 -59.6472C181.623 -25.7315 196.915 11.5154 232.986 21.5143C233.182 19.5538 231.418 18.9657 230.242 18.1818C211.029 3.08682 199.463 -19.2626 204.952 -43.9633C209.069 -62.7836 220.243 -77.6823 236.711 -87.0927C270.626 -106.305 307.286 -92.19 342.181 -83.564C354.924 -80.2314 367.47 -81.6043 379.961 -82.561C388.016 -82.7294 392.752 -82.7294 392.752 -82.7294L392.753 -80.3592Z" fill="black"/>
<path d="M392.753 -73.7837C392.753 -73.7837 388.016 -73.7837 379.982 -73.5239C366.098 -71.4091 352.179 -73.1735 338.848 -78.0747C304.149 -91.0129 263.568 -104.148 230.045 -78.6623C209.265 -62.5869 201.227 -34.5533 211.617 -11.0285C218.675 5.43935 232.79 17.7899 250.63 22.4944C265.725 26.6121 277.095 16.0251 289.25 9.94769C280.428 27.0036 260.236 35.4335 241.22 30.7285C201.031 20.5347 179.859 -14.7529 168.292 -51.413C166.332 -57.2942 162.607 -62.195 158.686 -67.4876C158.098 -68.2728 158.686 -69.4482 158.686 -70.6248C161.823 -67.2923 164.959 -63.567 166.528 -59.2539C179.271 -25.1434 193.974 12.1049 231.025 26.2198C247.297 32.2972 269.057 33.8653 279.84 18.1823C269.058 22.2991 257.295 26.8074 245.925 22.1029C229.261 15.2412 214.95 2.49831 209.069 -14.9491C202.796 -33.9647 207.304 -54.9413 220.439 -70.2325C252.394 -107.677 302.972 -92.5815 342.377 -78.6623C354.531 -74.3493 367.47 -74.3493 379.957 -75.9673C388.015 -76.1535 392.752 -76.1535 392.752 -76.1535L392.753 -73.7837Z" fill="black"/>
<path d="M392.752 -67.2087C392.752 -67.2087 388.017 -67.2018 380.014 -66.7418C367.274 -65.3317 354.923 -67.8804 342.965 -72.3896C314.343 -83.3682 284.152 -97.0903 252.786 -87.6803C236.123 -82.5838 222.008 -71.4096 214.362 -55.9218C199.659 -26.7119 215.734 8.9681 245.729 19.5538C267.489 27.1994 292.386 9.3596 295.523 -12.597C298.66 -11.2242 299.052 -6.91203 299.052 -3.97099C299.052 1.71404 296.503 7.20374 292.974 11.9083C283.76 23.6707 271.998 33.2772 257.099 34.0611C237.887 35.2369 220.439 26.6117 204.756 14.6531C183.387 -1.61851 175.741 -25.5348 164.175 -48.2758C162.411 -51.6083 160.254 -54.7456 158.49 -58.0785C157.902 -59.059 158.294 -60.2348 158.294 -61.4111C168.684 -47.4915 172.997 -30.6322 181.427 -15.1453C197.698 14.4569 229.457 39.3542 264.744 31.7082C274.155 29.7485 281.408 24.0635 287.485 16.8094C292.583 11.1244 300.032 2.49834 296.307 -5.14722C288.465 8.77235 274.547 21.1225 258.667 21.5148C228.869 22.2991 204.756 -8.8717 208.677 -38.6705C210.049 -48.8648 213.774 -58.0785 220.243 -66.3122C249.061 -103.952 298.463 -92.7772 335.515 -76.7026C349.435 -70.6252 364.725 -66.8999 380.024 -69.1645C388.016 -69.5772 392.752 -69.5781 392.752 -69.5781V-67.2087Z" fill="black"/>
<path d="M392.753 -60.6338C392.753 -60.6338 388.027 -60.5879 379.842 -60.1439C370.607 -59.6468 361.393 -61.2149 352.767 -64.7437C316.304 -80.0352 274.547 -102.972 235.731 -77.4866C217.891 -65.7242 208.48 -46.3157 210.833 -25.7311C213.578 -1.81432 233.966 20.1423 258.079 20.1423C270.822 20.1423 281.996 11.5163 289.642 0.342407C295.719 -8.67516 289.838 -17.8902 284.349 -25.3396C283.761 -26.1239 282.976 -27.6921 283.761 -27.4959C293.759 -25.7315 301.209 -15.9297 301.404 -6.3231C301.601 13.0849 284.349 28.768 266.901 33.8653C232.79 43.6672 199.267 20.3385 180.839 -8.67558C172.409 -21.8109 167.508 -34.5538 158.882 -47.6882C157.902 -49.0602 158.882 -50.6292 158.294 -52.0012C166.528 -39.0621 172.409 -25.1434 180.251 -11.42C196.522 16.6132 226.125 37.0021 258.079 35.0411C276.703 34.0615 292.975 19.1618 299.836 1.51822C301.601 -2.99013 301.209 -8.08746 299.052 -12.5967C297.091 -16.9097 293.366 -22.7909 288.073 -22.7909C292.582 -15.1453 295.327 -5.73499 289.25 2.30209C277.879 17.2017 259.255 25.6316 241.808 17.2017C216.323 4.85076 202.404 -26.1239 214.166 -52.5889C223.969 -74.5455 246.317 -88.2689 269.646 -89.249C297.876 -90.621 323.361 -77.4866 349.043 -67.4877C359.041 -63.7632 369.431 -61.6065 379.93 -62.5055C388.022 -62.9758 392.752 -63.0027 392.752 -63.0027L392.753 -60.6338Z" fill="black"/>
<path d="M392.752 -54.0583C392.752 -54.0583 388.043 -53.9253 379.535 -53.7564C373.547 -53.9621 367.47 -54.9413 361.784 -57.0985C332.575 -68.4685 304.933 -86.3083 272.782 -86.8965C241.807 -87.2888 211.42 -62.5873 212.205 -30.4373C212.597 -6.12772 231.809 17.3971 256.51 19.1619C268.861 20.1424 279.839 11.5163 287.289 1.91065C291.994 -3.97056 291.798 -11.4199 287.289 -17.4973C282.191 -24.5552 272.39 -28.2797 271.605 -35.5333C271.41 -37.6896 278.859 -35.9248 282.387 -33.5728C291.013 -28.2793 300.031 -22.2019 302.384 -11.8123C307.481 10.5371 286.7 29.16 267.292 35.8263C247.688 42.4918 227.692 34.4535 210.44 23.6716C201.03 17.9865 193.384 11.5168 186.327 3.28308C175.349 -9.85176 168.096 -24.1628 159.274 -38.8667C158.686 -39.8464 159.078 -41.023 158.882 -42.1993C167.116 -29.2602 173.192 -16.1258 182.603 -3.18668C199.658 20.3382 224.752 36.2174 252.786 37.1979C276.899 38.1784 302.972 16.4179 302.58 -8.4802C302.58 -13.3809 299.835 -17.4978 296.503 -20.8307C290.818 -26.9081 283.172 -35.9257 274.938 -33.3775C274.546 -33.3775 275.526 -31.8093 276.114 -31.025C282.584 -23.5756 292.778 -16.9101 290.622 -6.32348C286.897 12.496 264.744 24.4546 246.905 17.9857C229.261 11.5159 215.734 -3.97099 212.401 -23.1832C207.892 -50.041 225.144 -75.134 250.041 -83.5639C285.132 -95.5225 319.44 -77.0946 350.807 -62.7839C360.02 -58.6671 369.822 -55.9222 379.766 -55.9053C388.039 -56.3324 392.752 -56.4281 392.752 -56.4281V-54.0583Z" fill="black"/>
<path d="M392.755 -47.4735C380.997 -46.5116 369.431 -48.2764 359.04 -53.9619C319.048 -75.33 264.156 -105.716 226.712 -64.7438C212.793 -49.6488 208.873 -27.2994 218.871 -8.87144C227.105 6.42013 242.984 21.3189 261.804 17.9864C275.135 15.6339 290.426 4.65576 288.858 -9.26382C287.682 -20.6339 275.919 -28.4756 264.157 -30.6319C262.784 -31.0243 261.608 -31.2205 260.628 -32.2001C259.452 -33.9645 260.628 -36.3178 262 -36.9055C280.036 -45.3354 300.229 -28.2794 304.149 -11.0282C309.05 10.9285 289.054 28.7687 270.43 36.8058C256.119 43.0794 240.24 39.3545 226.125 33.8656C195.738 22.299 172.997 -4.16692 159.862 -32.7891C179.859 4.65533 214.166 42.6866 260.236 38.3744C282.388 36.4139 303.953 15.8288 304.345 -6.91177C304.737 -20.2424 292.975 -29.2603 281.997 -35.9254C277.488 -38.6703 271.998 -39.6508 266.705 -38.0817C264.941 -37.494 262.197 -35.1416 263.569 -34.3573C274.547 -26.9079 290.426 -20.6339 289.446 -6.12746C289.054 2.89097 280.625 8.96836 272.979 14.0648C263.373 20.3384 252.395 20.1422 242.592 15.2415C223.969 6.02776 211.422 -13.7722 213.186 -34.9449C214.559 -50.2365 222.008 -63.9595 234.751 -73.1732C276.116 -103.167 321.597 -73.5647 359.826 -54.9406C370.02 -49.8437 381.39 -49.0594 392.754 -49.8485L392.755 -47.4735Z" fill="black"/>
<path d="M392.75 -40.8646C368.646 -39.4545 349.63 -56.118 329.045 -66.7038C302.972 -80.2306 272.194 -90.0333 244.159 -76.7027C224.163 -67.2928 212.205 -45.7276 215.341 -23.7714C218.086 -3.97061 232.593 13.4768 252.981 17.2017C268.665 19.9457 283.76 9.35998 288.268 -4.9511C289.641 -9.85182 286.7 -14.1648 283.564 -18.0855C277.095 -25.9277 267.685 -27.1039 258.275 -25.7311C256.51 -25.5349 254.942 -27.6916 254.942 -29.2598C254.942 -34.7486 259.843 -39.0617 264.94 -40.6298C274.154 -43.3747 282.78 -39.2579 290.23 -33.5728C299.247 -26.3188 308.069 -16.9093 306.697 -4.75449C304.344 16.8098 286.701 34.4534 266.116 39.7469C238.475 47.0001 211.813 32.4937 191.229 14.2611C178.878 3.47878 167.508 -9.46032 161.234 -23.9667C182.014 11.1243 217.498 45.04 261.215 39.9427C285.328 37.0017 311.206 13.0849 304.736 -13.5772C302.188 -24.1629 293.366 -30.6322 284.348 -36.9058C275.134 -43.1785 261.607 -42.787 256.51 -32.3966C255.726 -30.6322 257.098 -27.8882 258.863 -27.8882C268.861 -28.0836 278.663 -25.5349 285.133 -16.9097C287.877 -13.381 289.446 -9.26413 288.465 -4.75491C285.721 5.43932 277.095 11.9086 268.077 15.8289C260.431 19.3576 251.217 18.9661 243.572 14.8493C226.908 6.22319 215.146 -9.85226 214.361 -28.2802C213.577 -50.2368 227.301 -71.4096 248.08 -79.0552C287.681 -93.5616 325.125 -69.6448 359.432 -51.0211C365.313 -47.6886 371.391 -45.1399 378.252 -43.9633C383.153 -42.9836 387.858 -43.1794 392.753 -43.2452L392.75 -40.8646Z" fill="black"/>
<path d="M392.727 -34.2822C380.409 -33.9652 369.43 -38.6706 359.236 -45.9238C320.42 -73.1739 263.372 -103.56 226.908 -60.431C214.558 -45.7272 212.009 -24.9472 221.419 -7.89124C227.889 3.4788 237.494 12.301 249.845 16.2217C261.02 19.5542 272.39 14.6535 280.428 6.61516C285.133 1.91062 289.838 -4.95107 286.505 -11.6166C281.8 -21.4185 270.43 -25.7311 260.04 -20.438C258.079 -19.4583 255.727 -21.2231 254.55 -22.9866C252.002 -26.712 251.61 -31.6127 254.158 -35.1414C259.648 -42.787 269.253 -44.5518 277.683 -41.8069C294.347 -36.1219 312.187 -20.8303 307.677 -1.22617C302.188 23.8668 278.663 44.2557 252.982 42.8829C215.342 41.1185 181.035 15.8289 162.607 -15.9296C185.544 17.5933 224.164 50.9208 267.685 39.9427C289.641 34.453 308.854 13.8692 307.482 -9.65561C306.501 -23.1824 294.935 -32.0046 283.957 -38.6701C275.331 -43.7675 264.352 -44.3552 257.099 -37.4935C253.962 -34.3571 252.59 -29.2598 254.158 -24.7506C254.943 -23.1824 256.903 -22.2019 258.471 -22.2019C263.765 -22.2019 268.861 -25.9272 274.155 -23.3786C280.82 -20.046 288.858 -14.361 287.485 -6.32264C284.545 11.1248 263.568 22.2995 246.905 15.4378C223.772 6.02747 209.853 -20.4375 217.891 -44.9428C224.164 -64.7436 241.612 -78.2704 262 -81.2106C284.741 -84.3469 305.913 -76.7022 325.91 -66.8995C348.062 -55.921 367.079 -36.513 392.737 -36.6481L392.727 -34.2822Z" fill="black"/>
<path d="M392.698 -27.7341C378.644 -28.8674 366.882 -36.1215 355.512 -44.7476C320.421 -71.6054 269.646 -97.8742 232.005 -64.1551C214.362 -48.472 211.421 -21.2227 226.32 -2.01007C232.397 5.83082 239.847 11.7125 249.061 15.045C255.923 17.5937 263.372 16.6132 269.841 13.2806C278.075 8.77229 286.897 1.91059 286.309 -7.89128C285.917 -14.753 278.467 -21.0266 271.214 -19.6537C265.529 -18.4779 259.06 -13.381 254.159 -19.2622C249.454 -24.9472 249.454 -33.1809 254.943 -38.0816C260.04 -42.9832 267.293 -45.1395 274.351 -43.5713C292.387 -39.4545 311.403 -24.751 309.638 -5.14729C307.482 19.5542 285.525 41.5109 261.019 43.8633C222.203 47.5882 184.956 22.6906 164.175 -8.47984C186.916 21.1228 221.223 46.6082 259.843 43.471C286.113 41.3147 312.971 15.634 308.266 -12.7929C305.913 -27.4955 292.19 -36.9058 279.055 -42.0027C272.194 -44.7476 263.961 -44.3552 257.687 -39.6502C253.962 -37.1016 251.021 -33.5728 251.021 -29.2598C250.629 -23.3786 255.334 -15.9292 262 -17.8898C266.705 -19.2618 271.41 -22.5943 276.311 -20.2422C281.408 -17.6936 286.701 -13.9687 286.897 -8.08746C287.093 1.91058 278.271 8.96847 269.841 13.4768C252.59 22.8872 234.554 10.5366 224.556 -4.16681C209.461 -26.3188 215.734 -55.9214 238.083 -70.0363C281.996 -97.8742 326.693 -66.5085 364.137 -40.4345C372.959 -34.161 382.369 -30.4365 392.708 -30.0896L392.698 -27.7341Z" fill="black"/>
<path d="M392.668 -21.2314C384.526 -22.791 376.488 -25.3396 370.019 -30.8285C331.791 -61.9993 275.135 -101.991 231.222 -61.215C214.166 -45.3357 213.578 -18.0856 229.065 -0.0504379C236.907 9.16331 247.494 17.0055 260.236 15.4373C266.509 14.653 272.195 11.9086 276.9 7.39894C281.409 2.89059 287.682 -3.1868 284.545 -10.0485C282.585 -14.3615 277.487 -18.2822 272.979 -16.1259C265.137 -12.5967 254.746 -11.2243 250.63 -20.0465C248.865 -23.9672 248.081 -28.4764 249.649 -32.3971C252.394 -38.6707 258.471 -43.5718 265.529 -44.5519C272.978 -45.5324 280.232 -44.1595 286.701 -40.0426C300.228 -31.6128 315.128 -20.0465 311.402 -2.20673C306.502 20.7304 289.642 39.5498 266.901 44.2552C226.909 52.6847 188.093 27.984 165.548 -2.20631C193.19 30.3365 243.376 64.4471 285.525 34.6496C301.6 23.2786 315.715 5.24352 309.834 -14.9488C306.893 -25.3392 298.268 -31.8085 289.642 -38.0812C277.291 -47.0997 258.863 -48.2755 250.826 -33.7691C249.061 -30.2403 248.865 -25.9273 250.434 -22.0067C254.355 -11.8124 264.941 -14.7526 273.566 -17.3013C279.448 -19.2618 286.505 -12.7929 285.721 -6.5189C284.152 6.61551 269.841 15.8293 257.099 15.6339C240.435 15.4378 226.909 1.71436 221.027 -13.3806C214.166 -30.6319 218.479 -51.0203 232.397 -63.1755C274.743 -100.228 328.654 -64.9399 365.706 -35.3377C373.743 -28.8679 382.761 -24.9473 392.679 -23.5675L392.668 -21.2314Z" fill="black"/>
<path d="M392.634 -14.8145C372.371 -19.6537 358.845 -35.7292 342.573 -48.6683C310.618 -74.1541 260.628 -92.3854 229.849 -57.4896C219.263 -45.7272 216.323 -28.8675 222.008 -13.9687C227.301 -0.441933 238.083 10.7319 252.59 14.0645C266.509 17.2017 282.781 7.39895 283.565 -6.71595C283.76 -11.029 279.252 -13.9691 274.939 -13.1853C270.038 -12.2048 266.117 -9.65655 261.019 -10.4404C252.786 -11.6171 247.493 -19.2627 247.689 -26.7121C248.277 -43.3756 268.273 -49.6492 282.192 -43.5718C294.543 -38.0821 306.306 -29.2607 310.814 -16.5178C320.421 10.9277 294.151 37.5893 269.254 45.6272C249.061 52.0966 227.889 45.4311 209.265 36.0207C193.189 28.1794 176.722 17.7889 166.527 3.47786C193.581 31.1195 234.946 57.7811 274.154 42.6858C296.503 34.2559 319.048 9.16288 310.618 -16.1267C306.697 -28.0845 295.915 -35.5347 285.132 -41.8079C277.094 -46.3171 267.293 -47.2976 259.059 -42.9845C253.178 -40.0435 248.08 -34.1623 248.08 -27.3006C247.885 -19.8512 253.178 -12.0099 261.215 -11.2252C265.724 -10.8337 269.645 -13.1857 273.958 -14.3624C279.643 -15.7344 285.524 -10.637 284.348 -4.95202C282.584 3.87022 274.742 9.75143 266.9 13.2797C257.883 17.2013 248.472 14.4564 240.239 9.16288C226.319 0.145325 218.478 -14.5577 218.87 -30.4378C219.458 -51.4144 234.553 -69.4495 255.334 -74.7431C285.72 -82.3886 313.362 -69.8423 338.651 -52.394C357.275 -39.4558 370.802 -21.8122 392.645 -17.1202L392.634 -14.8145Z" fill="black"/>
<path d="M392.609 -8.44305C384.33 -10.8328 376.684 -14.3615 370.803 -20.6342C336.495 -56.5104 279.84 -99.0509 233.77 -59.4506C220.439 -48.0806 216.714 -28.4764 223.968 -12.009C228.672 -1.22623 237.298 7.59559 248.081 12.1048C261.215 17.7898 277.487 10.1443 281.996 -2.99059C283.173 -6.32313 280.036 -10.44 276.507 -9.46034C263.764 -4.95113 247.885 -9.85184 246.512 -24.5553C245.924 -31.8085 249.845 -39.6503 256.315 -42.9832C279.055 -54.7456 305.129 -35.9253 312.187 -14.9492C321.597 12.4963 294.739 39.1588 269.449 47.392C255.334 52.0966 240.435 49.3517 226.32 44.8434C204.168 37.7859 181.427 25.6316 167.116 8.37946C193.974 33.2771 230.045 56.0181 268.273 46.6077C294.935 40.138 322.38 11.1239 311.206 -16.714C304.541 -33.3775 286.897 -47.1005 267.685 -46.3166C256.315 -45.9243 246.316 -36.5139 246.905 -25.1439C247.885 -10.0489 264.352 -6.12824 277.095 -10.6366C279.84 -11.6171 282.781 -8.67604 282.781 -5.53925C282.584 1.91013 276.311 7.00747 270.233 10.7315C264.157 14.4568 256.903 15.6331 250.237 13.2802C241.024 10.1438 233.77 3.87068 227.889 -4.16726C215.146 -21.6147 217.89 -44.748 232.397 -59.4506C252.002 -79.4467 282.388 -78.4662 306.893 -68.4682C332.379 -57.8824 351.199 -39.0621 371.979 -21.0266C378.056 -15.9297 385.114 -12.9882 392.615 -10.7384L392.609 -8.44305Z" fill="black"/>
<path d="M392.609 -2.05726C385.898 -4.55829 379.233 -7.30314 374.136 -12.5967C343.553 -43.7675 309.246 -80.6229 261.216 -72.193C243.768 -69.0567 229.261 -57.4896 223.576 -40.6298C216.126 -18.4779 230.242 7.00795 252.982 12.1053C263.764 14.654 276.703 9.16425 279.447 -2.2058C280.232 -4.75446 277.095 -6.12733 275.135 -5.73453C260.432 -2.40199 244.748 -11.4195 245.336 -26.9073C245.728 -37.8858 255.53 -46.3153 266.313 -47.2958C287.289 -48.864 307.285 -33.769 313.363 -14.9487C323.165 15.0454 293.758 44.8439 264.352 50.5289C251.218 52.8814 238.867 50.9213 226.516 47.0002C204.952 40.1385 181.623 29.1603 167.312 12.8892C194.562 35.4339 228.477 56.0186 265.725 49.3522C290.818 44.8439 310.226 24.4554 314.931 -0.638054C316.499 -8.28362 315.127 -15.5368 310.422 -22.007C299.836 -36.5134 284.545 -48.6686 266.117 -46.9038C254.746 -45.7272 244.944 -35.9253 245.924 -24.3591C247.297 -8.47981 263.568 -4.16679 277.487 -6.91164C278.86 -7.10696 280.428 -5.73495 280.428 -4.16678C280.428 5.43977 270.234 10.9282 262 12.8892C253.374 14.8497 245.14 11.1248 238.475 5.63509C224.948 -5.34259 217.891 -22.5947 222.792 -39.6502C230.633 -66.7033 259.844 -77.8776 286.113 -72.9769C323.165 -66.3114 347.474 -40.4341 372.959 -15.5364C378.449 -10.0476 385.31 -6.9112 392.606 -4.36253L392.609 -2.05726Z" fill="black"/>
<path d="M392.631 4.38952C382.173 0.733902 373.548 -5.53924 366.49 -14.1653C344.73 -41.2193 320.029 -64.7441 284.545 -71.4096C254.943 -76.898 221.224 -57.0981 223.184 -25.7311C223.969 -12.0086 232.006 -0.0499649 243.964 7.98797C248.669 11.1243 253.767 11.9086 259.06 11.7124C265.333 11.3209 271.018 8.37991 274.939 3.08725C275.919 1.5182 276.115 -1.22578 274.351 -1.22578C258.275 -1.61815 241.416 -11.8124 244.356 -29.8479C245.337 -35.9253 249.257 -40.4345 254.354 -43.5709C265.529 -50.4326 278.86 -49.4521 289.838 -42.3942C301.796 -34.7487 313.559 -26.1235 315.912 -11.8124C321.009 20.1423 291.994 48.7645 261.608 52.6851C248.865 54.2542 236.515 52.0975 224.164 48.373C203.187 41.9032 184.76 32.1014 166.92 18.378C166.724 18.378 166.92 17.5937 166.92 17.006C194.169 37.3944 226.516 55.6262 262 51.7055C292.19 48.373 323.557 17.3975 314.343 -14.1649C308.853 -32.9852 289.446 -47.2962 269.645 -47.8839C258.667 -48.2754 247.689 -41.6104 245.336 -30.2403C241.219 -11.8124 259.059 -1.22578 275.33 -2.99014C276.311 -3.18633 277.291 -1.81433 277.095 -0.833847C276.899 3.67537 272.782 7.00792 269.057 9.16422C262.98 12.4968 255.726 13.4772 249.649 11.1248C227.497 2.30208 214.754 -25.3396 227.301 -47.2962C238.672 -66.7038 261.02 -74.9379 282.584 -71.9969C319.832 -66.8995 345.71 -40.6299 369.235 -13.1844C375.704 -5.93118 383.742 -1.22578 392.621 2.05609L392.631 4.38952Z" fill="black"/>
<path d="M392.67 10.9407C380.606 7.39896 371.391 -1.03091 364.138 -11.8128C338.064 -50.4331 291.995 -86.7008 246.513 -63.176C236.123 -57.8824 229.065 -48.2763 225.928 -37.2978C220.243 -17.694 232.79 3.0868 251.61 9.55612C257.687 11.7124 264.353 10.1438 269.057 5.83079C270.43 4.45879 270.43 2.10631 268.47 1.71394C253.963 -1.81522 241.024 -13.1848 243.376 -29.0641C244.749 -38.4745 251.61 -45.1395 260.432 -47.6882C286.702 -54.7461 315.716 -31.8089 317.48 -6.51932C319.441 24.6515 289.446 52.8809 258.668 54.6452C243.181 55.6257 227.889 52.8809 213.383 46.9997C197.111 40.3342 177.899 32.6886 166.333 21.1224C198.483 42.0989 239.064 64.6433 277.88 49.3521C295.72 42.099 309.247 26.6121 315.716 8.37988C319.832 -3.18635 318.264 -15.9292 310.031 -25.5349C299.052 -38.8664 284.545 -50.6288 266.509 -48.6683C255.335 -47.4916 243.964 -39.4545 243.376 -27.2993C242.592 -11.0285 258.471 -3.57915 271.214 2.3025C274.351 3.87154 266.705 8.77225 263.176 10.1442C259.648 11.5162 255.727 11.1247 252.002 9.94806C234.162 5.04734 222.596 -13.3806 224.36 -31.4161C226.713 -57.6858 254.354 -73.3689 279.447 -71.0164C319.44 -67.2919 346.102 -37.2973 369.823 -6.91169C375.9 0.733879 383.742 5.2431 392.655 8.56654L392.67 10.9407Z" fill="black"/>
<path d="M392.71 17.6037C369.627 10.9283 360.805 -12.7932 346.102 -30.4368C323.557 -57.6861 287.29 -78.4661 252.786 -64.744C233.574 -57.0984 220.635 -34.3575 228.869 -14.5567C232.397 -6.12768 238.279 0.930206 246.316 5.43941C249.649 7.3991 253.374 8.37959 257.295 7.79189C259.059 7.59571 262.784 6.22372 261.412 5.04704C250.238 -5.34251 236.319 -18.2816 243.376 -34.357C248.473 -46.3156 262 -52.0007 274.743 -49.8439C293.955 -46.9038 310.618 -32.9851 316.696 -15.3414C327.674 17.3976 296.503 51.3128 264.157 56.214C247.493 58.5665 231.613 55.4297 215.931 50.3328C197.895 44.6473 181.819 36.4141 165.156 26.416C165.156 26.416 165.352 25.6317 165.548 25.2393C198.679 44.2558 238.476 66.2116 277.095 51.509C303.365 41.3148 328.066 10.3401 315.324 -18.0854C309.247 -32.005 296.504 -42.5907 281.997 -47.8843C267.685 -53.1778 249.062 -48.0804 243.572 -33.1808C237.887 -17.8901 249.846 -3.57902 263.373 2.69456C264.157 3.08693 265.137 3.87124 264.941 4.85086C263.373 10.1444 256.315 9.55626 251.806 8.37959C242.2 5.83092 235.143 -1.61847 230.242 -10.0483C222.988 -22.7912 224.948 -38.2781 233.966 -50.4329C244.16 -64.1554 260.236 -70.2328 276.507 -69.4485C304.541 -67.8804 329.046 -52.0011 347.082 -30.6321C361.393 -13.7724 370.607 8.57577 392.697 15.1928L392.71 17.6037Z" fill="black"/>
<path d="M392.741 24.318C381.781 21.9066 373.547 15.0449 367.078 5.63456C352.571 -15.1454 343.749 -35.7296 322.38 -50.4331C300.816 -65.528 274.546 -73.9579 250.825 -61.9993C235.142 -53.9618 224.36 -35.5343 230.241 -18.086C232.593 -11.029 235.73 -4.75543 242.199 -0.442398C244.355 1.12578 246.512 2.49777 249.061 2.89014C250.041 3.08633 251.413 2.49777 251.021 1.51729C247.492 -6.7164 240.827 -13.3815 239.847 -22.5957C238.866 -34.7496 247.1 -45.7281 258.47 -49.4535C268.861 -52.786 280.231 -51.6098 289.837 -46.1209C305.912 -36.7097 320.812 -22.0071 320.616 -2.79445C320.028 18.5736 306.697 36.6096 288.662 48.9602C278.467 55.8219 267.489 58.5659 255.922 58.9582C241.023 59.3506 226.32 56.2134 212.009 51.705C195.346 46.2153 180.055 38.7659 164.175 30.7284C164.175 30.7284 164.371 29.9441 164.567 29.3556C199.658 47.1954 241.415 69.152 280.624 52.0965C307.873 40.3341 333.555 5.24262 313.166 -24.3596C300.424 -42.7875 279.055 -57.2948 257.099 -48.2764C249.257 -44.9438 242.788 -38.4745 240.827 -30.0446C237.691 -16.1259 249.061 -6.91216 254.943 4.06638C255.53 5.43924 252.394 5.63456 250.826 5.24306C246.513 4.26257 242.984 1.91051 239.651 -1.03052C232.985 -7.10704 229.065 -15.1454 228.085 -23.5753C225.34 -47.6882 247.493 -66.9 270.429 -67.8805C299.247 -69.0572 325.713 -52.9818 344.141 -30.6323C359.628 -11.6167 367.665 15.0449 392.731 21.8945L392.741 24.318Z" fill="black"/>
<path d="M392.757 31.0663C379.037 29.1599 368.451 19.1618 362.962 7.00749C344.337 -33.7695 303.953 -78.6624 255.138 -61.8026C239.847 -56.51 229.261 -40.826 231.222 -24.5553C231.81 -19.6537 233.77 -15.3415 236.907 -11.2238C237.495 -10.6361 239.456 -9.65564 239.064 -10.8323C234.947 -26.5154 240.24 -44.159 256.315 -50.2364C279.84 -58.8625 301.601 -43.3747 315.128 -24.3591C323.165 -13.1844 323.557 0.733917 319.049 13.2806C310.619 37.0016 290.623 56.6063 264.745 60.3307C251.414 62.0951 239.064 60.7231 225.733 57.9782C202.992 53.0775 183.78 43.8633 163.196 35.2373C163.196 35.2373 163.392 34.453 163.588 33.8653C195.151 47.1959 227.497 63.6633 263.373 59.5464C291.407 56.4101 313.951 33.6691 320.421 6.41981C323.362 -5.73498 320.421 -17.694 312.58 -27.4954C298.661 -44.7476 277.293 -58.2735 255.335 -49.4521C237.692 -42.3942 234.555 -21.0261 243.965 -5.5388C244.749 -4.1668 242.984 -3.77443 242.005 -4.36298C235.143 -8.87133 231.419 -16.3207 230.438 -24.1629C228.478 -38.6702 236.319 -52.0008 248.67 -59.4501C271.999 -73.3689 298.269 -65.3314 319.833 -50.8241C342.574 -35.5334 351.788 -12.9882 365.903 8.96848C372.176 18.9665 380.998 26.8074 392.753 28.632L392.757 31.0663Z" fill="black"/>
<path d="M392.762 37.8128C364.922 34.8453 357.668 4.45879 345.906 -16.9097C331.203 -43.7675 303.953 -63.9598 273.371 -63.7636C258.079 -63.5675 240.24 -54.9414 236.907 -38.6706C247.493 -51.4135 264.745 -58.0786 281.017 -52.5894C301.405 -45.7277 320.616 -28.6726 322.773 -6.51975C325.126 17.7894 310.619 39.746 290.034 52.8804C262.197 70.5241 229.85 63.0747 201.228 53.6647C188.093 49.3517 175.546 44.8434 162.411 40.3342C162.215 40.3342 162.411 39.1583 162.607 38.5698C173.585 42.4913 184.564 46.6082 195.542 50.5284C224.556 61.1141 257.687 70.3283 286.505 54.0571C309.442 41.118 327.87 15.6331 321.205 -11.2243C315.323 -35.5343 291.21 -54.5499 266.117 -53.5694C250.826 -52.9813 238.475 -41.2189 234.358 -26.7116C230.437 -37.8863 238.672 -50.0402 248.278 -56.7058C272.195 -72.7812 300.425 -62.9793 321.597 -47.1001C342.377 -31.4161 350.807 -9.06798 362.373 12.4963C368.843 24.2587 379.233 33.8653 392.761 35.3836L392.762 37.8128Z" fill="black"/>
<path d="M392.759 44.5017C376.293 44.6472 364.138 32.2967 357.865 17.9856C350.023 0.145782 344.73 -18.4783 331.007 -33.1809C315.52 -50.0407 292.779 -64.5479 269.45 -59.2544C289.446 -54.5499 306.502 -43.5713 317.872 -25.3396C335.908 3.87113 317.284 39.1588 290.622 55.2334C254.747 76.7985 214.166 60.9193 177.702 49.9407C172.409 48.3726 167.116 46.9997 161.627 46.0192C162.019 45.4315 161.823 44.6472 161.823 44.0595C167.116 45.2353 172.409 46.6082 177.702 48.3726C209.853 58.7621 243.572 71.505 276.899 60.7231C306.698 50.9212 331.203 18.1822 321.989 -13.5772C313.755 -42.0032 283.76 -60.8226 254.55 -55.7253C263.176 -63.1755 276.115 -62.7831 287.289 -60.8226C297.288 -59.0591 305.521 -54.7461 314.147 -49.4525C339.633 -33.7695 348.454 -6.51929 360.217 18.7699C366.294 31.5128 378.057 41.5109 392.761 42.1011L392.759 44.5017Z" fill="black"/>
<path d="M392.755 51.1255C374.92 52.4888 359.825 39.9426 354.14 23.2781C345.318 -3.18687 335.908 -36.1221 307.09 -45.9239C307.09 -45.5324 306.894 -45.1396 307.09 -44.7481C315.324 -32.5933 324.929 -22.0072 326.105 -7.30371C328.262 18.966 313.951 44.4509 291.21 57.7815C252.59 80.3271 211.421 61.703 170.645 53.4693C167.312 52.6842 164.371 52.6842 161.235 51.705C161.038 51.705 161.235 49.9406 161.43 49.9406C166.724 50.1368 172.017 51.5088 177.31 52.8808C215.93 62.8788 257.687 79.9348 294.738 54.449C314.343 40.9222 325.713 19.9456 325.713 -2.7945C325.909 -23.9673 309.441 -38.8669 295.718 -52.9818C329.438 -46.3163 344.73 -10.8324 354.728 18.9664C360.217 35.63 374.136 49.9406 392.756 48.7423L392.755 51.1255Z" fill="black"/>
</g>
<path d="M210.734 14.551L205.886 0.62333L196 13.9102L210.734 14.551Z" fill="black"/>
<path d="M240.046 80.6364L206.33 46.923C206.201 47.2149 206.051 47.499 205.928 47.7969L239.173 81.0392C239.468 80.9188 239.754 80.7685 240.046 80.6364Z" fill="black"/>
<path d="M243.544 78.75L208.217 43.4255C208.047 43.6875 207.905 43.9617 207.744 44.2267L242.741 79.2273C243.009 79.0649 243.283 78.922 243.544 78.75Z" fill="black"/>
<path d="M246.572 76.3937L210.574 40.3966C210.374 40.6218 210.159 40.8383 209.969 41.0692L245.898 77.0021C246.13 76.8099 246.346 76.5959 246.572 76.3937Z" fill="black"/>
<path d="M249.231 73.6708L213.298 37.7396C213.068 37.9297 212.851 38.145 212.629 38.3442L248.624 74.3421C248.823 74.1174 249.038 73.8999 249.231 73.6708Z" fill="black"/>
<path d="M251.454 70.5116L216.458 35.514C216.191 35.6738 215.915 35.8168 215.655 35.9896L250.978 71.3149C251.152 71.0512 251.293 70.7796 251.454 70.5116Z" fill="black"/>
<path d="M253.267 66.943L220.025 33.7017C219.73 33.819 219.445 33.9723 219.151 34.1018L252.866 67.817C252.997 67.5242 253.15 67.2397 253.267 66.943Z" fill="black"/>
<path d="M254.519 62.8109L224.156 32.4482C223.814 32.5245 223.473 32.6124 223.131 32.6994L254.268 63.8395C254.358 63.4961 254.443 63.1561 254.519 62.8109Z" fill="black"/>
<path d="M255.095 58.0038L228.966 31.8735C228.558 31.8844 228.153 31.9013 227.746 31.932L255.039 59.2237C255.068 58.8175 255.085 58.4117 255.095 58.0038Z" fill="black"/>
<path d="M254.556 52.0853L234.886 32.4115C234.376 32.3032 233.861 32.2235 233.346 32.1477L254.822 53.6241C254.747 53.1087 254.666 52.5946 254.556 52.0853Z" fill="black"/>
<path d="M250.198 42.3428L244.627 36.7713C243.536 35.9744 242.409 35.2563 241.233 34.6539L252.316 45.7347C251.714 44.5597 250.994 43.4324 250.198 42.3428Z" fill="black"/>
<path d="M224.993 29.1131L225.338 25.4271L229.023 25.7715L229.124 24.6947L225.439 24.3494L225.783 20.6635L224.706 20.563L224.362 24.2493L220.676 23.9043L220.575 24.981L224.261 25.3258L223.917 29.013L224.993 29.1131Z" fill="black"/>
</g>
</svg>
