<?xml version="1.0" standalone="no"?>
<!DOCTYPE svg PUBLIC "-//W3C//DTD SVG 20010904//EN"
 "http://www.w3.org/TR/2001/REC-SVG-20010904/DTD/svg10.dtd">
<svg version="1.0" xmlns="http://www.w3.org/2000/svg"
 width="700.000000pt" height="700.000000pt" viewBox="0 0 700.000000 700.000000"
 preserveAspectRatio="xMidYMid meet">
<metadata>
Created by potrace 1.14, written by Peter Selinger 2001-2017
</metadata>
<g transform="translate(0.000000,700.000000) scale(0.100000,-0.100000)"
fill="#000000" stroke="none">
<path d="M3510 6406 c0 -2 7 -7 16 -10 8 -3 12 -2 9 4 -6 10 -25 14 -25 6z"/>
<path d="M3695 6391 c-3 -5 -2 -12 3 -15 5 -3 9 1 9 9 0 17 -3 19 -12 6z"/>
<path d="M3790 6379 c0 -5 5 -7 10 -4 6 3 10 8 10 11 0 2 -4 4 -10 4 -5 0 -10
-5 -10 -11z"/>
<path d="M3020 6366 c0 -2 8 -10 18 -17 15 -13 16 -12 3 4 -13 16 -21 21 -21
13z"/>
<path d="M3840 6360 c-9 -6 -10 -10 -3 -10 6 0 15 5 18 10 8 12 4 12 -15 0z"/>
<path d="M2995 6351 c-3 -5 -2 -12 3 -15 5 -3 9 1 9 9 0 17 -3 19 -12 6z"/>
<path d="M4150 6316 c0 -2 8 -10 18 -17 15 -13 16 -12 3 4 -13 16 -21 21 -21
13z"/>
<path d="M2756 6302 c-3 -5 1 -9 9 -9 8 0 12 4 9 9 -3 4 -7 8 -9 8 -2 0 -6 -4
-9 -8z"/>
<path d="M2696 6273 c-6 -14 -5 -15 5 -6 7 7 10 15 7 18 -3 3 -9 -2 -12 -12z"/>
<path d="M4293 6275 c0 -8 4 -12 9 -9 5 3 6 10 3 15 -9 13 -12 11 -12 -6z"/>
<path d="M4336 6267 c3 -10 9 -15 12 -12 3 3 0 11 -7 18 -10 9 -11 8 -5 -6z"/>
<path d="M4390 6256 c0 -2 8 -10 18 -17 15 -13 16 -12 3 4 -13 16 -21 21 -21
13z"/>
<path d="M2550 6240 c0 -5 5 -10 11 -10 5 0 7 5 4 10 -3 6 -8 10 -11 10 -2 0
-4 -4 -4 -10z"/>
<path d="M4476 6218 c3 -5 10 -6 15 -3 13 9 11 12 -6 12 -8 0 -12 -4 -9 -9z"/>
<path d="M4516 6198 c3 -5 10 -6 15 -3 13 9 11 12 -6 12 -8 0 -12 -4 -9 -9z"/>
<path d="M2350 6166 c0 -2 7 -7 16 -10 8 -3 12 -2 9 4 -6 10 -25 14 -25 6z"/>
<path d="M2205 6080 c-3 -6 1 -7 9 -4 18 7 21 14 7 14 -6 0 -13 -4 -16 -10z"/>
<path d="M2076 6018 c3 -5 10 -6 15 -3 13 9 11 12 -6 12 -8 0 -12 -4 -9 -9z"/>
<path d="M4906 6022 c-3 -5 1 -9 9 -9 8 0 12 4 9 9 -3 4 -7 8 -9 8 -2 0 -6 -4
-9 -8z"/>
<path d="M1984 5958 l-19 -23 23 19 c12 11 22 21 22 23 0 8 -8 2 -26 -19z"/>
<path d="M1933 5929 c-2 -23 3 -25 10 -4 4 8 3 16 -1 19 -4 3 -9 -4 -9 -15z"/>
<path d="M5035 5939 c-3 -4 2 -6 10 -5 21 3 28 13 10 13 -9 0 -18 -4 -20 -8z"/>
<path d="M3307 5882 c-10 -2 -14 -9 -11 -15 5 -9 3 -8 -6 0 -11 10 -16 9 -27
-5 -14 -16 -14 -16 -9 1 5 17 -5 23 -18 10 -6 -6 -54 -13 -103 -13 -12 0 -25
-4 -28 -9 -3 -5 -17 -8 -30 -5 -14 2 -25 0 -25 -6 0 -5 -3 -9 -7 -8 -5 1 -33
-2 -63 -7 -30 -4 -59 -7 -64 -6 -5 1 -5 -6 -2 -16 6 -14 4 -15 -4 -7 -8 8 -23
9 -48 2 -66 -17 -68 -18 -52 -28 8 -6 10 -10 4 -10 -5 0 -14 4 -20 10 -12 12
-73 -8 -92 -30 -12 -13 -13 -13 -6 0 6 12 4 13 -7 3 -7 -7 -23 -13 -36 -13
-13 0 -23 -4 -23 -8 0 -4 -20 -13 -46 -20 -28 -8 -43 -16 -38 -23 4 -7 0 -9
-14 -5 -13 4 -22 1 -25 -9 -4 -8 -13 -12 -22 -9 -9 4 -15 0 -15 -9 0 -9 -4
-19 -10 -22 -5 -3 -7 0 -4 9 5 12 0 11 -30 -2 -19 -10 -35 -21 -36 -25 0 -5 4
-6 9 -2 5 3 12 1 16 -4 6 -11 82 25 103 49 8 8 11 9 7 2 -4 -8 5 -7 29 5 20 9
36 24 37 32 0 12 2 11 8 -3 7 -17 8 -17 23 -2 9 9 26 16 37 16 12 0 21 4 21
10 0 5 7 7 15 4 8 -4 15 -1 15 5 0 7 6 11 13 10 26 -3 37 1 37 15 0 20 17 29
26 15 4 -8 3 -9 -4 -5 -7 4 -12 2 -12 -5 0 -7 8 -9 23 -4 12 3 28 7 35 7 7 1
10 8 7 17 -5 12 -3 13 5 5 13 -13 50 -7 50 7 0 5 7 6 16 2 11 -4 22 1 30 12 9
12 14 14 14 6 0 -9 8 -11 28 -6 15 4 33 8 40 8 6 0 12 4 12 8 0 4 11 6 24 3
14 -2 27 0 30 5 3 5 15 7 26 4 12 -3 20 0 20 6 0 7 -5 9 -12 5 -7 -5 -8 -3 -3
5 5 9 10 10 18 2 14 -14 50 -15 42 -1 -3 6 -1 10 4 10 6 0 11 -4 11 -9 0 -5 8
-8 18 -6 9 2 17 4 17 5 0 1 18 3 40 5 58 4 57 4 49 18 -6 9 -5 9 7 1 16 -13
117 -13 137 -1 6 5 12 4 12 -1 0 -12 130 -10 149 2 9 6 12 5 8 -1 -4 -7 8 -12
32 -15 32 -3 41 0 44 14 3 10 1 18 -4 18 -5 0 -9 -6 -9 -12 0 -10 -2 -10 -8
-1 -9 15 -72 25 -72 12 0 -5 -5 -9 -11 -9 -5 0 -8 3 -5 8 9 15 -94 7 -105 -8
-9 -13 -10 -13 -6 2 4 12 0 16 -14 15 -10 -1 -19 -5 -19 -9 0 -4 -5 -8 -11 -8
-5 0 -8 4 -5 8 6 11 -66 8 -83 -3 -7 -4 -16 -3 -20 2 -3 5 -14 7 -24 5z m223
-12 c0 -5 -4 -10 -10 -10 -5 0 -10 5 -10 10 0 6 5 10 10 10 6 0 10 -4 10 -10z
m-780 -124 c0 -3 -4 -8 -10 -11 -5 -3 -10 -1 -10 4 0 6 5 11 10 11 6 0 10 -2
10 -4z"/>
<path d="M3717 5873 c-13 -12 -7 -29 11 -30 39 -2 138 -15 157 -20 11 -4 31
-8 45 -9 47 -4 89 -12 100 -19 14 -9 13 4 -3 19 -18 19 -70 30 -62 14 4 -7 1
-6 -7 3 -7 8 -22 15 -33 16 -11 0 -29 3 -40 6 -53 13 -115 17 -115 7 0 -5 -5
-10 -11 -10 -5 0 -8 4 -5 9 3 5 -1 12 -10 15 -19 7 -19 7 -27 -1z"/>
<path d="M5150 5865 c0 -7 30 -13 34 -7 3 4 -4 9 -15 9 -10 1 -19 0 -19 -2z"/>
<path d="M1775 5821 c-3 -5 -2 -12 3 -15 5 -3 9 1 9 9 0 17 -3 19 -12 6z"/>
<path d="M4043 5806 c10 -20 15 -22 26 -13 12 10 13 9 6 -2 -6 -11 -4 -13 8
-8 10 3 17 2 17 -3 0 -6 9 -10 21 -10 13 0 18 4 13 13 -4 6 3 2 15 -10 25 -26
41 -29 60 -10 10 10 11 8 5 -8 -4 -11 -4 -17 1 -13 4 4 13 3 20 -2 6 -5 21
-11 33 -13 12 -2 25 -6 28 -10 4 -4 15 -7 25 -7 9 0 19 -4 21 -9 2 -5 14 -11
28 -13 14 -1 28 -7 31 -11 3 -5 12 -9 20 -11 8 -1 28 -9 45 -19 24 -12 34 -13
43 -4 10 9 11 9 7 -3 -4 -10 6 -21 30 -33 19 -9 33 -13 29 -7 -3 5 -1 10 4 10
6 0 11 -7 11 -16 0 -8 5 -12 10 -9 6 3 10 3 10 -2 0 -8 54 -36 66 -33 4 1 10
-3 14 -9 3 -6 36 -31 73 -55 48 -32 69 -40 77 -32 8 8 10 7 5 -4 -6 -18 28
-42 50 -34 8 3 13 10 10 15 -3 4 -12 6 -19 3 -8 -3 -17 0 -22 7 -4 8 -3 10 4
5 24 -15 11 1 -19 23 l-31 23 6 -23 c5 -23 5 -23 -6 1 -9 22 -87 80 -105 79
-3 0 -9 4 -12 9 -3 6 -41 28 -84 51 -43 23 -75 37 -72 31 3 -5 1 -10 -4 -10
-6 0 -11 6 -11 13 0 16 -47 38 -66 30 -8 -3 -14 1 -14 11 0 9 -3 15 -7 15 -5
-1 -11 0 -15 1 -5 1 -11 3 -15 4 -5 1 -18 7 -30 14 -20 11 -23 10 -24 -5 0
-14 -2 -13 -9 5 -5 12 -16 23 -25 23 -23 2 -28 4 -53 17 -12 7 -36 14 -52 15
-17 1 -30 5 -30 8 0 3 -26 11 -57 18 -32 7 -66 17 -75 22 -26 13 -27 12 -15
-15z m381 -122 c3 -8 2 -12 -4 -9 -6 3 -10 10 -10 16 0 14 7 11 14 -7z m73
-30 c-3 -3 -12 -4 -19 -1 -8 3 -5 6 6 6 11 1 17 -2 13 -5z m228 -114 c3 -5 1
-10 -4 -10 -6 0 -11 5 -11 10 0 6 2 10 4 10 3 0 8 -4 11 -10z"/>
<path d="M1735 5801 c-3 -5 -2 -12 3 -15 5 -3 9 1 9 9 0 17 -3 19 -12 6z"/>
<path d="M5340 5726 c0 -2 8 -10 18 -17 15 -13 16 -12 3 4 -13 16 -21 21 -21
13z"/>
<path d="M5395 5680 c3 -5 8 -10 11 -10 2 0 4 5 4 10 0 6 -5 10 -11 10 -5 0
-7 -4 -4 -10z"/>
<path d="M2299 5561 c-55 -32 -75 -50 -71 -61 5 -13 3 -13 -11 -1 -14 11 -18
11 -23 -3 -3 -9 -9 -14 -14 -11 -4 2 -25 -11 -48 -30 -22 -19 -46 -35 -52 -35
-10 0 -10 -3 0 -15 10 -12 8 -14 -9 -10 -14 2 -33 -8 -56 -29 -19 -18 -35 -32
-35 -30 0 2 -12 -9 -27 -23 -16 -14 -27 -30 -25 -35 1 -5 -3 -8 -11 -6 -18 4
-132 -109 -133 -132 -2 -25 -1 -25 32 5 22 20 24 25 8 20 -10 -3 -7 0 8 7 40
20 68 49 68 72 0 13 3 17 8 9 5 -8 13 -6 30 7 15 13 18 20 10 23 -7 3 -3 6 10
6 12 1 25 8 29 17 3 8 17 20 30 25 16 6 23 15 19 24 -3 8 -1 15 4 15 6 0 10
-5 10 -11 0 -6 15 2 34 18 18 15 31 32 28 37 -3 5 1 7 9 4 19 -6 42 19 33 34
-6 9 -3 9 9 -1 14 -11 18 -11 23 3 3 9 11 13 17 9 6 -4 8 0 4 9 -4 12 -1 14
14 11 11 -3 19 0 19 6 0 7 5 9 12 5 7 -5 9 -2 5 9 -4 11 -2 14 9 10 8 -3 25 4
38 16 12 12 26 18 31 14 4 -5 5 1 1 11 -5 15 -4 17 7 7 11 -9 17 -8 26 2 6 8
8 16 5 20 -3 3 3 3 15 0 13 -3 21 -1 21 8 0 7 -3 9 -7 6 -3 -4 -11 -3 -17 2
-7 5 -40 -9 -87 -38z m-159 -121 c0 -5 -5 -10 -11 -10 -5 0 -7 5 -4 10 3 6 8
10 11 10 2 0 4 -4 4 -10z m-255 -220 c-3 -5 -12 -10 -18 -10 -7 0 -6 4 3 10
19 12 23 12 15 0z"/>
<path d="M1450 5539 c0 -5 5 -7 10 -4 6 3 10 8 10 11 0 2 -4 4 -10 4 -5 0 -10
-5 -10 -11z"/>
<path d="M5546 5519 c2 -4 13 -7 24 -6 23 2 17 10 -10 12 -10 1 -17 -2 -14 -6z"/>
<path d="M1370 5459 c0 -5 5 -7 10 -4 6 3 10 8 10 11 0 2 -4 4 -10 4 -5 0 -10
-5 -10 -11z"/>
<path d="M4902 5411 c-18 -11 12 -35 34 -27 14 5 15 4 5 -8 -9 -11 -8 -15 4
-20 11 -4 14 -2 9 6 -4 7 -3 8 4 4 7 -4 12 -14 12 -22 0 -17 16 -19 26 -3 8
13 -44 61 -57 53 -5 -3 -9 2 -9 10 0 18 -8 20 -28 7z"/>
<path d="M5656 5398 c3 -5 10 -6 15 -3 13 9 11 12 -6 12 -8 0 -12 -4 -9 -9z"/>
<path d="M1276 5362 c-3 -5 1 -9 9 -9 8 0 12 4 9 9 -3 4 -7 8 -9 8 -2 0 -6 -4
-9 -8z"/>
<path d="M5002 5337 c-9 -11 -6 -19 14 -36 14 -12 29 -19 35 -15 5 3 16 0 24
-6 9 -7 15 -8 15 -2 0 10 -29 26 -43 23 -5 -1 -6 3 -3 7 3 5 -3 17 -13 26 -15
14 -20 14 -29 3z m28 -17 c0 -5 -4 -10 -10 -10 -5 0 -10 5 -10 10 0 6 5 10 10
10 6 0 10 -4 10 -10z"/>
<path d="M5092 5235 c25 -25 52 -44 60 -42 7 2 10 2 6 0 -18 -10 -6 -24 15
-19 12 3 16 3 10 0 -17 -8 -17 -27 0 -21 8 3 20 1 28 -5 11 -8 10 -9 -3 -4
-27 8 -22 -7 15 -41 48 -45 107 -114 107 -125 0 -5 10 -7 23 -4 12 3 16 3 10
0 -19 -9 -16 -24 11 -49 14 -13 22 -26 18 -31 -4 -4 -1 -4 6 0 7 4 12 2 12 -7
0 -7 9 -23 20 -35 11 -12 20 -26 20 -32 0 -6 5 -8 10 -5 6 3 10 -3 10 -14 0
-26 16 -36 24 -14 4 9 1 20 -6 25 -7 4 -9 8 -4 8 5 0 -1 9 -13 19 -12 11 -22
23 -23 28 0 4 -4 7 -10 5 -5 -1 -6 3 -2 9 4 7 0 17 -8 23 -8 6 -17 19 -21 29
-3 9 -13 17 -21 17 -10 0 -13 6 -9 16 4 10 -1 17 -15 21 -14 3 -19 10 -15 21
4 10 2 13 -5 8 -7 -4 -12 -1 -12 6 -1 7 -17 31 -37 53 -20 22 -32 34 -28 26 5
-9 4 -12 -3 -7 -7 4 -12 13 -12 19 0 7 -25 37 -56 67 -31 30 -53 49 -49 41 5
-9 4 -12 -3 -7 -7 4 -12 12 -12 17 0 11 -25 39 -35 39 -3 0 -3 -6 1 -12 4 -7
-2 -5 -13 5 -42 37 -36 14 9 -28z m143 -115 c3 -6 -1 -7 -9 -4 -18 7 -21 14
-7 14 6 0 13 -4 16 -10z"/>
<path d="M1170 5219 c0 -5 5 -7 10 -4 6 3 10 8 10 11 0 2 -4 4 -10 4 -5 0 -10
-5 -10 -11z"/>
<path d="M5867 5159 c7 -7 15 -10 18 -7 3 3 -2 9 -12 12 -14 6 -15 5 -6 -5z"/>
<path d="M1726 5096 c-22 -25 -40 -54 -41 -65 -1 -12 -5 -24 -10 -28 -4 -5 -5
0 -2 10 4 9 2 17 -3 17 -10 0 -14 -15 -10 -35 1 -5 -2 -7 -6 -2 -11 11 -44
-23 -44 -46 0 -11 -3 -17 -7 -14 -6 7 -38 -31 -38 -46 0 -4 -7 -12 -15 -17 -8
-5 -11 -10 -6 -10 6 0 1 -7 -10 -15 -10 -8 -16 -15 -12 -15 4 0 -4 -11 -17
-24 -15 -15 -22 -31 -18 -44 2 -11 0 -23 -6 -26 -7 -5 -8 -1 -4 11 4 14 3 15
-6 7 -7 -6 -13 -20 -14 -32 0 -11 -5 -18 -10 -15 -4 2 -13 -9 -20 -26 -6 -17
-16 -31 -22 -31 -5 0 -3 -5 5 -10 13 -9 13 -10 0 -10 -21 -1 -83 -130 -70
-145 5 -7 7 -15 3 -18 -3 -4 -2 -7 4 -7 6 0 13 9 16 20 3 11 1 18 -4 14 -5 -3
-9 0 -9 5 0 6 6 11 13 11 7 0 25 26 40 58 35 75 82 157 114 199 14 18 21 33
17 33 -5 0 0 7 10 15 11 8 16 15 10 15 -5 0 0 7 10 15 11 8 16 15 12 15 -4 0
-1 6 6 13 7 8 29 33 48 57 19 24 60 74 91 110 31 36 56 73 56 83 0 25 -8 21
-51 -27z m-76 -126 c-8 -5 -19 -10 -25 -10 -5 0 -3 5 5 10 8 5 20 10 25 10 6
0 3 -5 -5 -10z m-140 -190 c0 -5 -5 -10 -11 -10 -5 0 -7 5 -4 10 3 6 8 10 11
10 2 0 4 -4 4 -10z m-60 -114 c0 -3 -4 -8 -10 -11 -5 -3 -10 -1 -10 4 0 6 5
11 10 11 6 0 10 -2 10 -4z"/>
<path d="M1055 5049 c-4 -6 -5 -12 -2 -15 2 -3 7 2 10 11 7 17 1 20 -8 4z"/>
<path d="M6035 4881 c-3 -5 -2 -12 3 -15 5 -3 9 1 9 9 0 17 -3 19 -12 6z"/>
<path d="M4080 4797 c-180 -169 -333 -312 -349 -326 -23 -20 -234 -216 -276
-256 -28 -27 -181 -170 -339 -315 -33 -30 -71 -66 -86 -80 -15 -14 -85 -79
-156 -145 -70 -66 -165 -155 -209 -197 -92 -88 -92 -90 10 -126 253 -87 412
-146 423 -156 10 -9 6 -30 -18 -101 -16 -49 -30 -95 -30 -102 0 -26 36 -12 85
34 309 285 345 321 339 336 -2 7 -68 34 -147 61 -158 55 -197 72 -197 87 0 11
6 17 181 180 214 199 226 209 243 209 22 0 21 -9 -15 -123 -26 -83 -29 -101
-17 -113 7 -7 84 -38 171 -68 176 -62 177 -62 177 -81 0 -10 -128 -137 -279
-274 -57 -53 -162 -150 -281 -261 -69 -64 -147 -138 -175 -163 -27 -25 -87
-80 -132 -124 l-82 -78 -75 -236 c-42 -129 -76 -243 -76 -252 0 -36 33 -17
130 73 17 15 271 255 393 370 109 103 134 126 292 275 82 77 186 175 230 217
44 42 90 85 103 96 25 22 253 236 399 376 51 49 93 93 93 97 0 12 -26 22 -295
118 -126 45 -235 88 -241 94 -9 9 -7 26 6 67 10 30 57 177 105 325 48 149 108
338 135 420 69 213 65 195 38 195 -14 0 -45 -21 -78 -53z"/>
<path d="M6070 4806 c0 -2 7 -7 16 -10 8 -3 12 -2 9 4 -6 10 -25 14 -25 6z"/>
<path d="M5496 4774 c-9 -23 -8 -24 17 -25 19 0 20 -1 4 -8 -16 -6 -17 -9 -5
-18 7 -6 31 -48 53 -92 35 -74 55 -98 55 -70 0 5 4 8 9 5 5 -4 4 5 -2 19 -15
31 -30 33 -23 3 6 -21 5 -21 -6 1 -10 19 -10 25 0 29 9 3 6 12 -8 32 -11 15
-20 32 -20 38 0 5 -10 17 -22 26 -13 9 -17 14 -10 10 11 -5 12 -2 3 15 -7 11
-16 21 -22 21 -6 0 -8 4 -4 9 3 5 1 12 -4 15 -5 3 -12 -1 -15 -10z"/>
<path d="M836 4662 c-3 -5 1 -9 9 -9 8 0 12 4 9 9 -3 4 -7 8 -9 8 -2 0 -6 -4
-9 -8z"/>
<path d="M826 4618 c3 -5 10 -6 15 -3 13 9 11 12 -6 12 -8 0 -12 -4 -9 -9z"/>
<path d="M806 4578 c3 -5 10 -6 15 -3 13 9 11 12 -6 12 -8 0 -12 -4 -9 -9z"/>
<path d="M6173 4575 c0 -8 4 -12 9 -9 5 3 6 10 3 15 -9 13 -12 11 -12 -6z"/>
<path d="M5617 4544 c-9 -9 4 -35 14 -28 5 3 6 -2 3 -10 -3 -9 -1 -16 5 -16 6
0 11 -11 11 -24 0 -14 5 -28 12 -32 7 -5 8 -3 3 6 -5 8 -4 11 3 6 6 -4 9 -12
7 -19 -7 -17 40 -129 50 -119 4 4 4 -4 0 -17 -5 -18 -4 -22 5 -16 8 5 11 4 6
-3 -11 -18 5 -62 23 -63 10 0 11 -2 4 -6 -18 -7 -16 -30 3 -37 13 -5 14 -9 4
-21 -10 -12 -9 -15 4 -15 9 0 16 -8 16 -17 0 -16 -2 -16 -11 -3 -9 13 -10 13
-6 -1 3 -9 13 -48 22 -85 9 -38 19 -80 22 -94 3 -14 5 -35 4 -47 -2 -16 2 -21
12 -18 8 4 14 0 14 -9 0 -8 -4 -13 -8 -10 -5 3 -7 -14 -6 -36 2 -23 9 -45 16
-49 10 -7 11 -9 1 -13 -10 -3 -10 -9 0 -27 7 -15 8 -21 1 -17 -6 4 -11 2 -11
-3 0 -6 4 -11 8 -11 5 0 7 -16 6 -35 -2 -24 0 -33 8 -29 7 5 8 3 2 -7 -13 -21
-14 -110 -1 -102 6 4 7 1 1 -8 -5 -8 -10 -47 -10 -86 -1 -40 -4 -80 -8 -88 -3
-9 -2 -13 3 -10 5 3 12 1 16 -5 3 -5 0 -10 -7 -10 -10 0 -14 -12 -13 -37 1
-21 -1 -42 -4 -48 -12 -22 -11 -55 1 -55 9 0 10 -2 2 -8 -19 -12 -35 -104 -21
-121 9 -11 9 -13 1 -8 -16 10 -25 -18 -11 -33 9 -10 9 -11 0 -6 -8 4 -14 -3
-18 -21 -4 -15 -13 -51 -21 -79 -8 -28 -12 -59 -8 -69 6 -14 4 -16 -6 -10 -8
5 -11 4 -6 -3 3 -6 2 -13 -3 -16 -14 -9 -46 -116 -44 -146 1 -14 0 -19 -4 -12
-3 9 -12 -2 -24 -28 -23 -51 -23 -49 -3 -46 22 3 36 29 21 38 -8 5 -7 8 4 8
11 0 23 20 37 63 11 34 24 70 27 80 6 13 3 16 -11 11 -11 -3 -8 1 6 10 14 8
21 15 16 16 -5 0 -3 7 4 15 10 12 10 18 0 31 -8 8 -9 14 -4 13 21 -4 28 2 14
11 -13 9 -13 10 0 10 21 0 30 58 15 95 l-8 20 17 -20 c11 -13 16 -15 13 -5 -2
8 2 34 9 58 7 23 9 40 4 37 -6 -4 -10 -1 -10 4 0 6 4 11 8 11 11 0 30 100 20
106 -4 3 -8 15 -7 27 0 21 1 21 10 2 l9 -20 -1 20 c-1 11 0 22 1 25 1 3 4 28
5 55 2 28 5 67 9 88 3 22 1 37 -5 37 -6 0 -7 5 -2 13 12 18 10 161 -2 170 -7
4 -7 10 0 15 12 9 16 42 5 42 -5 0 -7 16 -6 35 2 24 -2 39 -13 46 -14 9 -13
10 3 5 14 -5 17 -2 12 10 -3 8 -6 20 -6 25 0 6 -6 7 -12 3 -9 -5 -9 -2 1 9 11
14 11 20 1 32 -7 8 -8 15 -3 15 7 0 7 17 0 50 -6 32 -14 47 -21 43 -8 -4 -8
-3 0 6 11 12 7 61 -5 61 -3 0 -7 10 -7 23 -2 46 -15 111 -24 122 -5 6 -12 26
-15 45 -3 19 -16 43 -28 53 -16 12 -17 15 -4 11 9 -3 17 -1 17 5 0 6 -4 11
-10 11 -5 0 -10 9 -10 19 0 27 -11 52 -20 46 -4 -2 -5 6 -3 19 3 13 0 27 -6
30 -6 4 -11 16 -11 27 0 10 -4 19 -10 19 -5 0 -9 3 -9 8 4 21 -3 32 -18 33
-12 0 -13 2 -5 6 8 3 10 9 3 16 -5 7 -10 15 -11 19 -9 38 -14 48 -24 48 -7 0
-15 -3 -19 -6z m193 -458 c0 -3 -4 -8 -10 -11 -5 -3 -10 -1 -10 4 0 6 5 11 10
11 6 0 10 -2 10 -4z m-7 -1171 c-3 -9 -8 -14 -10 -11 -3 3 -2 9 2 15 9 16 15
13 8 -4z m-76 -234 c0 -11 -5 -18 -9 -15 -4 3 -5 11 -1 19 7 21 12 19 10 -4z"/>
<path d="M790 4500 c0 -5 5 -10 11 -10 5 0 7 5 4 10 -3 6 -8 10 -11 10 -2 0
-4 -4 -4 -10z"/>
<path d="M1306 4435 c-10 -24 -16 -46 -14 -47 1 -2 -5 -14 -15 -28 -20 -29
-22 -46 -4 -34 7 5 6 2 -3 -6 -21 -20 -34 -53 -17 -45 6 4 3 -1 -7 -9 -15 -12
-16 -16 -5 -16 11 0 11 -2 1 -8 -7 -5 -16 -22 -21 -38 -5 -16 -12 -37 -16 -47
-6 -14 -3 -16 11 -11 18 6 18 6 0 -8 -11 -9 -21 -21 -22 -29 -2 -8 -7 -28 -12
-46 -8 -25 -7 -33 5 -37 8 -3 16 -6 17 -6 1 0 3 10 4 23 4 36 7 51 14 63 4 6
9 21 12 35 2 13 8 33 12 43 5 12 4 17 -3 13 -5 -3 -10 0 -10 7 0 9 7 12 16 8
9 -3 13 -2 9 2 -3 4 0 19 7 33 8 15 11 31 8 36 -3 5 -1 12 4 16 15 10 63 135
61 159 -3 34 -14 27 -32 -23z m5 -42 c-12 -20 -14 -14 -5 12 4 9 9 14 11 11 3
-2 0 -13 -6 -23z"/>
<path d="M6210 4466 c0 -2 7 -7 16 -10 8 -3 12 -2 9 4 -6 10 -25 14 -25 6z"/>
<path d="M6280 4260 c-9 -6 -10 -10 -3 -10 6 0 15 5 18 10 8 12 4 12 -15 0z"/>
<path d="M6295 4201 c-3 -5 -2 -12 3 -15 5 -3 9 1 9 9 0 17 -3 19 -12 6z"/>
<path d="M680 4180 c-9 -6 -10 -10 -3 -10 6 0 15 5 18 10 8 12 4 12 -15 0z"/>
<path d="M666 4058 c3 -5 10 -6 15 -3 13 9 11 12 -6 12 -8 0 -12 -4 -9 -9z"/>
<path d="M1164 4007 c-7 -20 -2 -50 11 -59 6 -5 3 -8 -6 -8 -16 0 -27 -49 -35
-150 -4 -61 -14 -134 -19 -139 -3 -2 0 -10 6 -18 6 -7 8 -13 3 -13 -5 0 -9
-41 -10 -90 -1 -76 1 -90 15 -91 13 0 12 -2 -2 -8 -22 -8 -24 -20 -5 -32 8 -6
9 -12 3 -16 -17 -13 -16 -33 2 -34 11 0 13 -3 6 -6 -7 -2 -13 -9 -13 -14 0 -6
6 -7 13 -3 9 6 9 4 -1 -8 -16 -20 -11 -79 8 -96 11 -10 11 -12 1 -6 -11 6 -13
1 -7 -27 4 -19 9 -50 12 -69 2 -19 7 -46 11 -60 3 -14 7 -34 8 -46 1 -12 5
-30 9 -40 5 -10 9 -34 11 -53 1 -21 10 -40 25 -51 17 -13 20 -19 10 -25 -9 -5
-11 -4 -6 3 4 7 2 12 -4 12 -11 0 -4 -40 9 -50 4 -3 8 -18 9 -34 1 -17 7 -33
13 -37 6 -3 10 -9 10 -13 -3 -24 1 -36 10 -30 7 4 9 0 5 -14 -4 -11 -2 -23 4
-27 6 -3 8 -10 5 -15 -3 -5 1 -15 9 -23 8 -8 12 -17 9 -21 -3 -3 -1 -11 4 -18
5 -7 20 -39 33 -70 12 -32 26 -58 31 -58 5 0 9 -7 9 -16 0 -9 8 -23 18 -31 9
-8 11 -12 5 -8 -9 4 -11 1 -7 -9 3 -9 10 -16 15 -16 5 0 9 -9 9 -20 0 -11 4
-20 9 -20 5 0 11 -10 15 -22 5 -20 8 -21 17 -8 8 12 9 11 4 -6 -3 -13 2 -30
13 -45 11 -13 27 -39 37 -58 9 -19 26 -44 37 -55 11 -12 28 -36 39 -53 12 -18
25 -33 30 -33 5 0 8 -5 7 -11 -2 -6 3 -14 11 -17 9 -3 11 0 6 8 -5 9 -4 11 4
6 6 -4 9 -16 6 -27 -7 -21 10 -27 19 -6 3 6 3 1 0 -12 -5 -20 -3 -23 11 -17
13 4 16 2 11 -9 -3 -9 0 -15 9 -15 8 0 12 -6 9 -14 -4 -11 0 -13 18 -9 15 3
19 2 10 -4 -10 -7 -8 -14 6 -31 21 -24 38 -30 26 -9 -5 8 -2 8 9 -2 18 -15 23
-26 7 -16 -26 16 -4 -15 45 -63 33 -33 59 -51 66 -46 8 5 9 3 5 -5 -9 -14 24
-42 38 -34 5 4 6 1 3 -4 -4 -6 15 -28 41 -49 26 -21 49 -42 50 -46 2 -5 10 -8
17 -8 8 0 18 -6 22 -13 16 -26 95 -76 112 -70 9 4 13 3 9 -2 -4 -4 -3 -14 3
-22 10 -11 15 -11 27 -1 9 7 13 8 9 2 -3 -6 3 -18 13 -27 13 -11 20 -12 24 -4
2 7 5 5 5 -5 1 -10 27 -29 69 -50 37 -18 69 -36 70 -40 2 -5 10 -8 19 -8 8 0
21 -7 29 -15 8 -8 22 -11 31 -8 11 4 14 3 9 -5 -5 -8 1 -12 18 -12 14 0 26 -3
26 -8 0 -12 77 -41 99 -37 12 2 20 -1 18 -8 -1 -7 4 -11 12 -9 8 2 17 -2 21
-7 3 -6 15 -12 25 -14 11 -2 31 -9 45 -14 29 -13 51 0 32 19 -7 7 -12 8 -12 4
0 -5 -6 -4 -12 1 -20 15 -50 24 -43 13 3 -6 -1 -7 -9 -4 -9 3 -13 11 -9 17 4
6 -2 8 -15 5 -12 -4 -22 -3 -22 1 0 7 -44 31 -55 31 -3 0 -5 -5 -5 -11 0 -5 5
-7 12 -3 7 4 8 3 4 -5 -9 -15 -26 -5 -26 16 0 10 -6 14 -20 10 -11 -3 -23 0
-27 5 -4 7 -1 8 7 3 9 -6 11 -4 6 4 -5 7 -14 10 -22 7 -8 -3 -14 -1 -14 5 0 6
-4 7 -10 4 -6 -3 -10 -1 -10 6 0 7 -3 10 -6 6 -4 -3 -13 1 -21 9 -8 8 -18 12
-23 9 -4 -3 -13 2 -20 10 -7 8 -23 15 -37 15 -14 0 -21 4 -18 10 3 6 0 10 -9
10 -8 0 -17 6 -19 13 -4 10 -6 10 -6 0 -1 -7 -6 -13 -12 -13 -5 0 -8 4 -5 9 7
11 -20 34 -33 27 -5 -3 -11 1 -15 9 -3 8 -13 15 -21 15 -9 0 -13 4 -10 10 3 5
2 10 -3 10 -11 0 -99 56 -131 84 -13 12 -21 15 -17 9 4 -7 2 -13 -3 -13 -6 0
-11 7 -11 16 0 10 -5 14 -16 10 -8 -3 -12 -2 -9 4 3 5 -4 17 -16 27 -12 10
-38 32 -57 48 -20 17 -33 24 -28 18 4 -7 2 -13 -3 -13 -6 0 -11 9 -11 19 0 10
-7 22 -16 25 -10 4 -13 2 -8 -6 4 -7 3 -8 -4 -4 -7 4 -12 13 -12 19 0 21 -148
159 -162 151 -10 -5 -10 -4 -2 5 9 10 6 19 -15 39 -15 15 -44 50 -66 77 -21
28 -52 63 -69 79 -17 16 -25 25 -17 21 17 -9 16 -8 -47 85 -51 74 -58 82 -49
57 4 -11 3 -16 -4 -12 -5 4 -9 14 -8 23 2 23 -21 82 -32 82 -5 0 -9 7 -9 16 0
8 -4 12 -10 9 -6 -3 -10 4 -10 17 0 13 -5 29 -12 36 -6 6 -13 17 -14 24 -5 29
-46 108 -53 103 -5 -2 -15 3 -22 13 -13 16 -12 16 4 3 17 -14 18 -13 15 5 -1
10 -6 21 -10 24 -4 3 -9 15 -11 25 -6 31 -19 58 -36 79 -9 11 -11 16 -4 13 8
-5 8 2 0 28 -6 19 -14 35 -18 35 -4 0 -5 10 -1 22 4 16 2 19 -8 13 -10 -6 -12
-4 -7 8 4 10 1 30 -5 45 -6 15 -13 43 -15 62 -2 19 -10 47 -18 63 -8 17 -9 27
-3 27 7 0 6 5 -1 14 -6 7 -9 21 -5 30 4 11 1 16 -12 16 -11 0 -15 4 -9 8 11 8
16 52 5 52 -3 0 -6 16 -5 36 1 22 -3 38 -11 41 -8 3 -14 9 -14 15 0 5 5 6 10
3 17 -11 11 17 -7 31 -16 13 -16 15 -3 27 17 13 15 47 -4 59 -8 6 -7 8 2 8 6
0 12 9 12 19 0 11 -6 22 -12 24 -10 4 -10 6 0 6 15 1 16 31 1 31 -6 0 -7 5 -2
13 13 20 9 61 -7 75 -13 11 -13 11 1 7 11 -4 15 2 15 22 0 15 -4 31 -10 35 -7
5 -7 8 2 8 7 0 12 14 12 38 0 27 -3 33 -10 22 -7 -10 -10 -11 -10 -2 0 7 7 15
15 18 13 5 13 9 3 22 -10 12 -10 14 0 8 7 -4 12 -1 12 9 0 10 -5 14 -12 9 -7
-4 -5 1 4 11 16 17 16 19 0 32 -9 8 -12 12 -6 9 7 -3 14 4 18 17 8 31 7 39 -3
33 -13 -9 -7 19 8 38 7 9 11 25 8 36 -3 11 -1 20 4 20 11 0 12 33 2 44 -11 10
-12 37 -2 30 5 -3 7 -10 4 -15 -4 -5 -1 -9 5 -9 15 0 9 32 -7 38 -7 2 -16 -3
-19 -11z m41 -1076 c3 -5 2 -12 -3 -15 -5 -3 -9 1 -9 9 0 17 3 19 12 6z m50
-171 c3 -5 1 -10 -4 -10 -6 0 -11 5 -11 10 0 6 2 10 4 10 3 0 8 -4 11 -10z
m35 -100 c0 -5 -2 -10 -4 -10 -3 0 -8 5 -11 10 -3 6 -1 10 4 10 6 0 11 -4 11
-10z m60 -140 c0 -5 -2 -10 -4 -10 -3 0 -8 5 -11 10 -3 6 -1 10 4 10 6 0 11
-4 11 -10z m15 -29 c3 -5 0 -13 -6 -17 -7 -4 -9 -3 -5 4 3 5 0 13 -6 15 -9 4
-10 6 -1 6 6 1 14 -3 18 -8z m85 -163 c0 -6 -6 -5 -15 2 -8 7 -15 14 -15 16 0
2 7 1 15 -2 8 -4 15 -11 15 -16z m75 -128 c3 -5 1 -10 -4 -10 -6 0 -11 5 -11
10 0 6 2 10 4 10 3 0 8 -4 11 -10z m45 -57 c0 -1 -5 -5 -12 -9 -6 -4 -8 -3 -5
3 4 6 0 13 -8 17 -8 3 -15 10 -15 16 0 5 9 2 20 -7 11 -10 20 -18 20 -20z m55
-83 c3 -6 -1 -7 -9 -4 -18 7 -21 14 -7 14 6 0 13 -4 16 -10z m215 -240 c6 -11
8 -20 6 -20 -3 0 -10 9 -16 20 -6 11 -8 20 -6 20 3 0 10 -9 16 -20z m170 -160
c0 -5 -2 -10 -4 -10 -3 0 -8 5 -11 10 -3 6 -1 10 4 10 6 0 11 -4 11 -10z m34
-26 c5 -14 4 -15 -9 -4 -17 14 -19 20 -6 20 5 0 12 -7 15 -16z m86 -69 c7 -8
22 -16 34 -16 17 -1 17 -2 4 -6 -10 -2 -30 5 -44 16 -15 12 -22 21 -17 21 6 0
16 -7 23 -15z"/>
<path d="M630 3936 c0 -2 8 -10 18 -17 15 -13 16 -12 3 4 -13 16 -21 21 -21
13z"/>
<path d="M6356 3922 c-3 -5 1 -9 9 -9 8 0 12 4 9 9 -3 4 -7 8 -9 8 -2 0 -6 -4
-9 -8z"/>
<path d="M633 3875 c0 -8 4 -12 9 -9 5 3 6 10 3 15 -9 13 -12 11 -12 -6z"/>
<path d="M1165 3860 c-3 -5 -1 -10 4 -10 6 0 11 5 11 10 0 6 -2 10 -4 10 -3 0
-8 -4 -11 -10z"/>
<path d="M627 3819 c7 -7 15 -10 18 -7 3 3 -2 9 -12 12 -14 6 -15 5 -6 -5z"/>
<path d="M6375 3700 c3 -5 8 -10 11 -10 2 0 4 5 4 10 0 6 -5 10 -11 10 -5 0
-7 -4 -4 -10z"/>
<path d="M606 3662 c-3 -5 1 -9 9 -9 8 0 12 4 9 9 -3 4 -7 8 -9 8 -2 0 -6 -4
-9 -8z"/>
<path d="M6376 3527 c3 -10 9 -15 12 -12 3 3 0 11 -7 18 -10 9 -11 8 -5 -6z"/>
<path d="M606 3338 c3 -5 10 -6 15 -3 13 9 11 12 -6 12 -8 0 -12 -4 -9 -9z"/>
<path d="M1140 3290 c0 -5 5 -10 11 -10 5 0 7 5 4 10 -3 6 -8 10 -11 10 -2 0
-4 -4 -4 -10z"/>
<path d="M615 3211 c-3 -5 -2 -12 3 -15 5 -3 9 1 9 9 0 17 -3 19 -12 6z"/>
<path d="M625 3140 c-3 -6 1 -7 9 -4 18 7 21 14 7 14 -6 0 -13 -4 -16 -10z"/>
<path d="M640 3080 c-9 -6 -10 -10 -3 -10 6 0 15 5 18 10 8 12 4 12 -15 0z"/>
<path d="M630 3046 c0 -2 7 -7 16 -10 8 -3 12 -2 9 4 -6 10 -25 14 -25 6z"/>
<path d="M6326 2938 c3 -5 10 -6 15 -3 13 9 11 12 -6 12 -8 0 -12 -4 -9 -9z"/>
<path d="M6315 2901 c-3 -5 -2 -12 3 -15 5 -3 9 1 9 9 0 17 -3 19 -12 6z"/>
<path d="M695 2780 c3 -5 8 -10 11 -10 2 0 4 5 4 10 0 6 -5 10 -11 10 -5 0 -7
-4 -4 -10z"/>
<path d="M6286 2758 c3 -5 10 -6 15 -3 13 9 11 12 -6 12 -8 0 -12 -4 -9 -9z"/>
<path d="M6266 2698 c3 -5 10 -6 15 -3 13 9 11 12 -6 12 -8 0 -12 -4 -9 -9z"/>
<path d="M5664 2552 c-5 -4 -26 -41 -46 -82 -21 -41 -49 -94 -63 -117 -26 -42
-21 -63 8 -40 27 21 87 143 75 155 -6 6 -6 12 3 17 8 5 10 4 5 -3 -4 -7 -3
-12 2 -12 9 0 24 40 21 56 0 4 5 10 11 14 7 4 8 10 3 13 -5 3 -13 3 -19 -1z
m-54 -152 c0 -5 -5 -10 -11 -10 -5 0 -7 5 -4 10 3 6 8 10 11 10 2 0 4 -4 4
-10z"/>
<path d="M5531 2284 c11 -13 10 -15 -6 -12 -10 1 -20 -3 -22 -9 -7 -19 28 -15
43 5 18 23 17 27 -7 29 -17 2 -19 0 -8 -13z"/>
<path d="M890 2240 c0 -5 5 -10 11 -10 5 0 7 5 4 10 -3 6 -8 10 -11 10 -2 0
-4 -4 -4 -10z"/>
<path d="M5484 2235 c-3 -8 -3 -19 1 -24 3 -7 0 -8 -9 -5 -11 4 -16 0 -16 -10
0 -9 -4 -16 -10 -16 -5 0 -9 -11 -8 -25 2 -25 9 -31 21 -18 4 3 1 13 -6 21
-10 13 -9 15 5 9 10 -3 20 -2 23 3 4 6 0 10 -7 11 -7 0 -2 5 11 10 20 8 22 11
10 26 -12 15 -12 16 3 10 10 -3 20 -2 23 2 2 5 -4 11 -16 14 -12 3 -22 0 -25
-8z"/>
<path d="M5415 2130 c-3 -11 -11 -20 -16 -20 -5 0 -9 -5 -9 -10 0 -6 -11 -23
-25 -38 -14 -15 -23 -33 -20 -39 2 -7 1 -12 -4 -10 -9 2 -121 -114 -121 -126
0 -5 5 -5 12 -1 7 4 2 -7 -11 -24 -26 -38 -39 -43 -15 -7 9 15 12 25 5 25 -5
0 -17 -12 -25 -27 -8 -16 -15 -24 -16 -19 0 4 -24 -14 -52 -42 -29 -27 -75
-69 -103 -93 -27 -24 -51 -47 -53 -51 -2 -5 -10 -8 -18 -8 -8 0 -14 -5 -14
-11 0 -5 4 -7 10 -4 6 4 7 -1 3 -11 -5 -14 -3 -15 16 -4 14 7 20 17 17 26 -3
8 -2 12 4 9 10 -6 50 15 50 27 0 4 -8 4 -17 1 -15 -6 -16 -5 -3 9 11 11 17 13
23 4 5 -7 20 2 44 29 20 22 32 33 28 25 -4 -8 40 33 99 92 58 60 106 115 106
124 0 8 4 13 9 10 5 -3 14 1 21 9 7 8 10 15 7 15 -3 0 8 14 24 31 16 17 29 38
29 46 0 8 4 12 9 9 11 -7 24 20 26 52 1 27 -11 29 -20 2z m-45 -90 c0 -5 -5
-10 -11 -10 -5 0 -7 5 -4 10 3 6 8 10 11 10 2 0 4 -4 4 -10z m-80 -104 c0 -3
-4 -8 -10 -11 -5 -3 -10 -1 -10 4 0 6 5 11 10 11 6 0 10 -2 10 -4z m-162 -160
c-7 -8 -15 -12 -17 -11 -5 6 10 25 20 25 5 0 4 -6 -3 -14z"/>
<path d="M950 2126 c0 -2 7 -7 16 -10 8 -3 12 -2 9 4 -6 10 -25 14 -25 6z"/>
<path d="M5979 2028 c-5 -18 -6 -38 -1 -34 7 8 12 36 6 36 -2 0 -4 -1 -5 -2z"/>
<path d="M1030 1979 c0 -5 5 -7 10 -4 6 3 10 8 10 11 0 2 -4 4 -10 4 -5 0 -10
-5 -10 -11z"/>
<path d="M5905 1920 c-3 -6 1 -7 9 -4 18 7 21 14 7 14 -6 0 -13 -4 -16 -10z"/>
<path d="M5896 1873 c-6 -14 -5 -15 5 -6 7 7 10 15 7 18 -3 3 -9 -2 -12 -12z"/>
<path d="M1136 1847 c3 -10 9 -15 12 -12 3 3 0 11 -7 18 -10 9 -11 8 -5 -6z"/>
<path d="M5855 1841 c-3 -5 -2 -12 3 -15 5 -3 9 1 9 9 0 17 -3 19 -12 6z"/>
<path d="M1190 1765 c0 -5 5 -17 10 -25 5 -8 10 -10 10 -5 0 6 -5 17 -10 25
-5 8 -10 11 -10 5z"/>
<path d="M5735 1689 c-4 -6 -5 -12 -2 -15 2 -3 7 2 10 11 7 17 1 20 -8 4z"/>
<path d="M1255 1660 c-3 -5 -1 -10 4 -10 6 0 11 5 11 10 0 6 -2 10 -4 10 -3 0
-8 -4 -11 -10z"/>
<path d="M1290 1645 c0 -5 5 -17 10 -25 5 -8 10 -10 10 -5 0 6 -5 17 -10 25
-5 8 -10 11 -10 5z"/>
<path d="M5690 1619 c0 -5 5 -7 10 -4 6 3 10 8 10 11 0 2 -4 4 -10 4 -5 0 -10
-5 -10 -11z"/>
<path d="M4909 1613 c-1 -5 -1 -12 0 -16 1 -5 -4 -7 -11 -4 -7 2 -29 -8 -48
-23 -19 -15 -45 -32 -57 -39 -15 -7 -20 -17 -17 -29 4 -12 3 -13 -3 -4 -8 10
-16 9 -41 -5 -34 -19 -43 -36 -14 -27 14 5 14 4 2 -4 -8 -7 -19 -7 -25 -2 -12
10 -78 -27 -70 -40 3 -4 -4 -6 -15 -3 -12 3 -20 0 -20 -6 0 -7 4 -10 9 -6 5 3
12 1 16 -5 3 -6 21 0 43 13 20 13 44 26 52 29 8 4 42 25 75 48 33 23 79 53
103 68 23 15 42 35 42 44 0 17 -19 26 -21 11z m-9 -37 c0 -2 -7 -7 -16 -10 -8
-3 -12 -2 -9 4 6 10 25 14 25 6z m-140 -90 c0 -3 -4 -8 -10 -11 -5 -3 -10 -1
-10 4 0 6 5 11 10 11 6 0 10 -2 10 -4z m-71 -39 c-2 -1 -13 -9 -24 -17 -19
-14 -19 -14 -6 3 7 9 18 17 24 17 6 0 8 -1 6 -3z"/>
<path d="M1413 1495 c0 -8 4 -12 9 -9 5 3 6 10 3 15 -9 13 -12 11 -12 -6z"/>
<path d="M1435 1471 c-3 -5 -2 -12 3 -15 5 -3 9 1 9 9 0 17 -3 19 -12 6z"/>
<path d="M4551 1394 c-22 -11 -39 -44 -23 -44 15 0 82 36 82 44 0 5 -3 6 -7 3
-3 -4 -11 -3 -17 1 -6 5 -22 3 -35 -4z"/>
<path d="M4473 1358 c-13 -6 -23 -15 -23 -21 0 -5 -6 -7 -14 -4 -7 3 -22 0
-32 -7 -11 -7 -38 -18 -62 -25 -23 -6 -40 -16 -36 -22 3 -6 -4 -7 -20 -3 -18
4 -28 2 -32 -9 -3 -9 -13 -13 -25 -10 -11 3 -21 -1 -25 -11 -3 -9 -10 -16 -16
-16 -5 0 -7 4 -4 9 8 13 -34 2 -74 -18 -8 -4 -23 -7 -32 -5 -11 1 -16 -4 -15
-17 1 -13 6 -18 17 -13 8 3 22 7 30 9 8 2 33 8 55 14 22 6 45 11 50 12 6 0 19
6 30 12 11 6 23 10 28 9 4 -1 7 2 7 8 0 5 6 7 14 4 8 -3 17 0 21 5 3 6 11 8
17 5 8 -5 9 -1 5 10 -4 9 -3 15 2 11 5 -3 11 -2 14 2 2 5 2 2 1 -4 -5 -18 11
-16 30 3 9 8 21 12 28 8 8 -5 9 -2 5 9 -3 9 -1 19 5 23 6 4 8 3 4 -4 -3 -6 -2
-13 4 -17 5 -3 10 -1 10 5 0 6 5 8 10 5 6 -3 10 2 10 12 0 11 3 14 8 7 10 -15
45 -1 48 19 3 19 -11 21 -43 5z"/>
<path d="M5406 1338 c3 -5 10 -6 15 -3 13 9 11 12 -6 12 -8 0 -12 -4 -9 -9z"/>
<path d="M2807 1235 c-7 -17 -3 -20 43 -30 19 -4 41 -12 49 -19 12 -9 13 -7 8
9 -6 17 -5 18 6 5 13 -16 19 -18 80 -30 21 -4 40 -3 43 2 8 12 3 17 -22 21
-10 2 -26 6 -34 9 -17 6 -108 29 -127 32 -7 1 -16 5 -19 9 -11 11 -21 8 -27
-8z m74 -23 c-7 -2 -18 1 -23 6 -8 8 -4 9 13 5 13 -4 18 -8 10 -11z m94 -30
c-3 -3 -11 0 -18 7 -9 10 -8 11 6 5 10 -3 15 -9 12 -12z"/>
<path d="M4033 1204 c3 -5 -11 -9 -31 -8 -21 0 -45 -3 -55 -8 -10 -5 -36 -10
-57 -11 -22 -1 -40 -4 -40 -7 0 -3 -15 -5 -32 -5 -18 1 -39 -3 -45 -8 -7 -5
-13 -6 -13 -1 0 5 -5 2 -10 -6 -6 -10 -10 -11 -10 -3 0 15 -50 13 -50 -2 0 -5
-4 -4 -9 3 -7 11 -9 11 -14 -2 -4 -9 -12 -16 -19 -16 -9 0 -8 3 2 10 12 8 9
10 -12 10 -16 0 -28 -6 -28 -12 0 -9 -3 -9 -8 -2 -12 17 -145 12 -160 -6 -10
-13 -11 -12 -5 5 6 18 5 19 -12 5 -11 -9 -16 -10 -11 -3 5 10 -2 12 -26 10
-18 -2 -39 1 -45 6 -9 6 -13 5 -13 -2 0 -7 -4 -10 -8 -7 -22 14 -76 16 -83 4
-15 -22 -10 -24 51 -23 33 1 60 -1 60 -5 0 -3 9 -6 20 -6 11 0 20 4 20 8 0 5
8 5 18 -1 20 -11 93 -10 86 1 -3 4 0 8 5 8 6 0 11 -4 11 -8 0 -5 7 -9 15 -9 8
0 12 4 9 9 -3 4 0 8 5 8 6 0 11 -4 11 -8 0 -16 30 -9 31 7 0 14 1 14 7 1 9
-19 32 -24 32 -8 0 9 3 9 12 0 6 -6 18 -8 27 -3 9 4 36 7 61 6 29 0 49 5 57
15 9 10 12 11 13 2 0 -8 9 -10 28 -6 15 3 36 6 46 5 11 0 26 8 33 17 8 9 12
11 8 5 -9 -18 30 -16 48 2 11 11 17 11 19 3 3 -9 14 -9 43 2 37 15 48 31 24
39 -6 2 -9 0 -6 -5z m-303 -64 c0 -5 -2 -10 -4 -10 -3 0 -8 5 -11 10 -3 6 -1
10 4 10 6 0 11 -4 11 -10z"/>
<path d="M3050 1179 c0 -5 0 -12 0 -16 0 -5 10 -9 22 -11 13 -1 41 -5 63 -8
76 -10 90 -9 90 5 0 9 -14 15 -40 18 -22 2 -45 5 -52 8 -7 2 -10 -2 -7 -13 5
-16 4 -16 -9 0 -8 10 -17 15 -20 11 -4 -3 -7 -2 -7 3 0 5 -9 10 -20 11 -11 1
-20 -2 -20 -8z"/>
<path d="M5215 1181 c-3 -5 -2 -12 3 -15 5 -3 9 1 9 9 0 17 -3 19 -12 6z"/>
<path d="M1784 1162 c4 -3 14 -7 22 -8 9 -1 13 0 10 4 -4 3 -14 7 -22 8 -9 1
-13 0 -10 -4z"/>
<path d="M5176 1162 c-3 -5 1 -9 9 -9 8 0 12 4 9 9 -3 4 -7 8 -9 8 -2 0 -6 -4
-9 -8z"/>
<path d="M1955 1061 c-3 -5 -2 -12 3 -15 5 -3 9 1 9 9 0 17 -3 19 -12 6z"/>
<path d="M1990 1040 c0 -5 5 -10 10 -10 6 0 10 5 10 10 0 6 -4 10 -10 10 -5 0
-10 -4 -10 -10z"/>
<path d="M4893 965 c0 -8 4 -12 9 -9 5 3 6 10 3 15 -9 13 -12 11 -12 -6z"/>
<path d="M2116 958 c3 -5 10 -6 15 -3 13 9 11 12 -6 12 -8 0 -12 -4 -9 -9z"/>
<path d="M4816 918 c3 -5 10 -6 15 -3 13 9 11 12 -6 12 -8 0 -12 -4 -9 -9z"/>
<path d="M2306 880 c5 -8 9 -18 9 -22 0 -3 3 -9 7 -13 3 -4 5 0 4 9 -1 9 -8
22 -16 29 -10 10 -11 9 -4 -3z"/>
<path d="M4713 875 c0 -8 4 -12 9 -9 5 3 6 10 3 15 -9 13 -12 11 -12 -6z"/>
<path d="M4515 801 c-3 -5 -2 -12 3 -15 5 -3 9 1 9 9 0 17 -3 19 -12 6z"/>
<path d="M2650 740 c0 -5 5 -10 11 -10 5 0 7 5 4 10 -3 6 -8 10 -11 10 -2 0
-4 -4 -4 -10z"/>
<path d="M4270 725 c0 -7 30 -13 34 -7 3 4 -4 9 -15 9 -10 1 -19 0 -19 -2z"/>
<path d="M4213 705 c0 -8 4 -12 9 -9 5 3 6 10 3 15 -9 13 -12 11 -12 -6z"/>
<path d="M4173 695 c0 -8 4 -12 9 -9 5 3 6 10 3 15 -9 13 -12 11 -12 -6z"/>
<path d="M4133 685 c0 -8 4 -12 9 -9 5 3 6 10 3 15 -9 13 -12 11 -12 -6z"/>
<path d="M2867 679 c7 -7 15 -10 18 -7 3 3 -2 9 -12 12 -14 6 -15 5 -6 -5z"/>
<path d="M4010 660 c0 -5 5 -10 11 -10 5 0 7 5 4 10 -3 6 -8 10 -11 10 -2 0
-4 -4 -4 -10z"/>
<path d="M3935 649 c-4 -6 -5 -12 -2 -15 2 -3 7 2 10 11 7 17 1 20 -8 4z"/>
<path d="M3113 635 c0 -8 4 -12 9 -9 5 3 6 10 3 15 -9 13 -12 11 -12 -6z"/>
<path d="M3147 639 c7 -7 15 -10 18 -7 3 3 -2 9 -12 12 -14 6 -15 5 -6 -5z"/>
<path d="M3896 633 c-6 -14 -5 -15 5 -6 7 7 10 15 7 18 -3 3 -9 -2 -12 -12z"/>
<path d="M3250 619 c0 -5 5 -7 10 -4 6 3 10 8 10 11 0 2 -4 4 -10 4 -5 0 -10
-5 -10 -11z"/>
<path d="M3420 620 c-9 -6 -10 -10 -3 -10 6 0 15 5 18 10 8 12 4 12 -15 0z"/>
<path d="M3633 615 c0 -8 4 -12 9 -9 5 3 6 10 3 15 -9 13 -12 11 -12 -6z"/>
<path d="M3695 620 c-3 -5 -1 -10 4 -10 6 0 11 5 11 10 0 6 -2 10 -4 10 -3 0
-8 -4 -11 -10z"/>
</g>
</svg>
