<svg width="22" height="22" viewBox="0 0 22 22" fill="none" xmlns="http://www.w3.org/2000/svg">
<g id="Group 855130">
<path id="Vector" d="M6.7993 6.72203C6.60311 6.52508 6.33981 6.40945 6.06204 6.39826C5.91703 6.39402 5.77262 6.41842 5.63705 6.47006C5.50148 6.5217 5.37743 6.59957 5.272 6.69921C5.16656 6.79885 5.08181 6.9183 5.02259 7.05073C4.96337 7.18316 4.93086 7.32597 4.92689 7.47099L4.57192 16.0411C4.56054 16.3339 4.66593 16.6192 4.86491 16.8343C5.06389 17.0494 5.34017 17.1766 5.63295 17.188C5.92573 17.1994 6.21104 17.094 6.42612 16.895C6.64119 16.696 6.76842 16.4197 6.7798 16.127L7.12307 7.5451C7.1288 7.393 7.10299 7.24135 7.04727 7.0997C6.99155 6.95805 6.90712 6.82947 6.7993 6.72203Z" fill="black"/>
<path id="Vector_2" d="M15.0382 14.9604C14.9307 14.8526 14.8022 14.7682 14.6605 14.7124C14.5189 14.6567 14.3672 14.6309 14.2151 14.6366L5.63325 14.9799C5.34046 14.9913 5.06419 15.1185 4.86521 15.3336C4.66623 15.5487 4.56084 15.834 4.57222 16.1268C4.5836 16.4196 4.71082 16.6958 4.92589 16.8948C5.14097 17.0938 5.42628 17.1992 5.71906 17.1878L14.2892 16.8328C14.4343 16.8274 14.5768 16.7934 14.7087 16.7328C14.8405 16.6721 14.9591 16.5861 15.0577 16.4796C15.1563 16.373 15.2328 16.2481 15.283 16.1119C15.3332 15.9757 15.3561 15.831 15.3502 15.686C15.3393 15.4139 15.2282 15.1555 15.0382 14.9604Z" fill="black"/>
<path id="Vector_3" d="M16.2089 5.55202C16.002 5.3451 15.7115 5.23873 15.4013 5.25628C15.0911 5.27384 14.7867 5.4139 14.5549 5.64564L5.38014 14.8204C5.14839 15.0522 5.00834 15.3566 4.99078 15.6668C4.97322 15.977 5.0796 16.2675 5.28652 16.4744C5.49343 16.6813 5.78393 16.7877 6.09411 16.7701C6.40428 16.7526 6.70873 16.6125 6.94047 16.3808L16.1153 7.20598C16.347 6.97423 16.4871 6.66979 16.5046 6.35961C16.5222 6.04943 16.4158 5.75893 16.2089 5.55202Z" fill="black"/>
</g>
</svg>
