<svg width="13" height="15" viewBox="0 0 13 15" fill="none" xmlns="http://www.w3.org/2000/svg">
<path d="M0.993852 7.72131C0.741895 7.7218 0.49904 7.62716 0.313852 7.45631C0.218203 7.3661 0.141285 7.2579 0.0874984 7.13792C0.0337123 7.01795 0.00411469 6.88854 0.000399342 6.75711C-0.003316 6.62568 0.0189238 6.4948 0.0658462 6.37198C0.112769 6.24915 0.183453 6.13679 0.273852 6.04131L5.53885 0.321312C5.7192 0.126378 5.9696 0.0110709 6.23496 0.000756352C6.50033 -0.00955815 6.75892 0.0859655 6.95385 0.266313C7.14879 0.44666 7.26409 0.697057 7.27441 0.962421C7.28472 1.22779 7.1892 1.48638 7.00885 1.68131L1.72885 7.40131C1.63504 7.50247 1.52131 7.58311 1.39482 7.63819C1.26833 7.69326 1.13181 7.72156 0.993852 7.72131Z" fill="black"/>
<path d="M11.5538 7.72131C11.4158 7.72156 11.2793 7.69326 11.1528 7.63819C11.0263 7.58311 10.9126 7.50247 10.8188 7.40131L5.53877 1.68131C5.35843 1.48638 5.2629 1.22779 5.27322 0.962421C5.28353 0.697057 5.39884 0.44666 5.59377 0.266313C5.78871 0.0859655 6.0473 -0.00955815 6.31266 0.000756352C6.57803 0.0110709 6.82843 0.126378 7.00877 0.321312L12.2738 6.04131C12.3632 6.13775 12.4328 6.2509 12.4784 6.37426C12.5241 6.49762 12.545 6.62878 12.5399 6.76022C12.5348 6.89167 12.5038 7.02081 12.4487 7.14026C12.3936 7.25971 12.3154 7.36711 12.2188 7.45631C12.0374 7.62368 11.8005 7.71806 11.5538 7.72131Z" fill="black"/>
<path d="M6.27393 14.5015C6.00871 14.5015 5.75436 14.3835 5.56682 14.1734C5.37928 13.9634 5.27393 13.6785 5.27393 13.3815V1.62146C5.27393 1.32442 5.37928 1.03955 5.56682 0.829505C5.75436 0.619465 6.00871 0.501465 6.27393 0.501465C6.53914 0.501465 6.7935 0.619465 6.98103 0.829505C7.16857 1.03955 7.27393 1.32442 7.27393 1.62146V13.3815C7.27393 13.6785 7.16857 13.9634 6.98103 14.1734C6.7935 14.3835 6.53914 14.5015 6.27393 14.5015Z" fill="black"/>
</svg>
