<svg width="20" height="20" viewBox="0 0 20 20" fill="none" xmlns="http://www.w3.org/2000/svg">
<path d="M6.66651 9.16655C6.66651 8.94554 6.75431 8.73358 6.91059 8.5773C7.06687 8.42102 7.27883 8.33322 7.49985 8.33322H12.4998C12.7209 8.33322 12.9328 8.42102 13.0891 8.5773C13.2454 8.73358 13.3332 8.94554 13.3332 9.16655C13.3332 9.38757 13.2454 9.59953 13.0891 9.75581C12.9328 9.91209 12.7209 9.99989 12.4998 9.99989H7.49985C7.27883 9.99989 7.06687 9.91209 6.91059 9.75581C6.75431 9.59953 6.66651 9.38757 6.66651 9.16655ZM7.49985 11.6666C7.27883 11.6666 7.06687 11.7543 6.91059 11.9106C6.75431 12.0669 6.66651 12.2789 6.66651 12.4999C6.66651 12.7209 6.75431 12.9329 6.91059 13.0891C7.06687 13.2454 7.27883 13.3332 7.49985 13.3332H10.8332C11.0542 13.3332 11.2662 13.2454 11.4224 13.0891C11.5787 12.9329 11.6665 12.7209 11.6665 12.4999C11.6665 12.2789 11.5787 12.0669 11.4224 11.9106C11.2662 11.7543 11.0542 11.6666 10.8332 11.6666H7.49985ZM1.66651 9.99989C1.66693 8.17289 2.26775 6.39665 3.3765 4.94455C4.48525 3.49244 6.04048 2.44495 7.80285 1.96328C9.56521 1.48161 11.437 1.59246 13.1302 2.27877C14.8234 2.96507 16.2442 4.1888 17.1738 5.76161C18.1034 7.33442 18.4904 9.16915 18.2752 10.9834C18.0599 12.7977 17.2545 14.491 15.9827 15.8027C14.7109 17.1143 13.0433 17.9717 11.2365 18.2429C9.42975 18.514 7.58395 18.1838 5.98318 17.3032L2.74318 18.2899C2.59866 18.3339 2.4449 18.3378 2.29834 18.3012C2.15177 18.2646 2.01792 18.1888 1.91109 18.082C1.80427 17.9751 1.72849 17.8413 1.69187 17.6947C1.65525 17.5482 1.65916 17.3944 1.70318 17.2499L2.68985 14.0049C2.01644 12.7776 1.66441 11.3998 1.66651 9.99989ZM9.99985 3.33322C8.81641 3.33312 7.65428 3.64804 6.63281 4.24565C5.61135 4.84325 4.76737 5.70199 4.18756 6.73366C3.60775 7.76533 3.31302 8.93274 3.33363 10.116C3.35425 11.2993 3.68946 12.4557 4.30485 13.4666C4.36593 13.567 4.40509 13.6792 4.41974 13.7958C4.43439 13.9124 4.4242 14.0308 4.38985 14.1432L3.75151 16.2416L5.84651 15.6032C5.95928 15.5689 6.07805 15.5588 6.19498 15.5738C6.31191 15.5887 6.42434 15.6283 6.52485 15.6899C7.40348 16.2263 8.3944 16.552 9.41996 16.6414C10.4455 16.7308 11.4778 16.5814 12.436 16.2051C13.3942 15.8287 14.2522 15.2356 14.9428 14.4721C15.6334 13.7087 16.1378 12.7957 16.4165 11.8047C16.6952 10.8137 16.7406 9.77162 16.5492 8.76013C16.3577 7.74864 15.9347 6.79523 15.3131 5.97462C14.6915 5.154 13.8883 4.48848 12.9665 4.03021C12.0447 3.57194 11.0293 3.33338 9.99985 3.33322Z" fill="black"/>
</svg>
