<svg width="14" height="15" viewBox="0 0 14 15" fill="none" xmlns="http://www.w3.org/2000/svg">
<g id="Group 855131">
<path id="Vector" d="M1.71993 6.78003C1.46797 6.77954 1.22511 6.87419 1.03993 7.04503C0.944278 7.13525 0.867359 7.24344 0.813573 7.36342C0.759787 7.4834 0.730189 7.61281 0.726474 7.74424C0.722758 7.87567 0.744998 8.00654 0.79192 8.12936C0.838843 8.25219 0.909527 8.36455 0.999926 8.46003L6.26493 14.18C6.44527 14.375 6.69567 14.4903 6.96104 14.5006C7.2264 14.5109 7.48499 14.4154 7.67993 14.235C7.87486 14.0547 7.99017 13.8043 8.00048 13.5389C8.0108 13.2736 7.91527 13.015 7.73493 12.82L2.45493 7.10003C2.36111 6.99888 2.24739 6.91823 2.1209 6.86316C1.9944 6.80809 1.85789 6.77978 1.71993 6.78003Z" fill="black"/>
<path id="Vector_2" d="M12.2798 6.78003C12.1419 6.77978 12.0054 6.80809 11.8789 6.86316C11.7524 6.91823 11.6387 6.99888 11.5448 7.10003L6.26485 12.82C6.0845 13.015 5.98898 13.2736 5.99929 13.5389C6.00961 13.8043 6.12491 14.0547 6.31985 14.235C6.51478 14.4154 6.77337 14.5109 7.03874 14.5006C7.3041 14.4903 7.5545 14.375 7.73485 14.18L12.9998 8.46003C13.0893 8.36359 13.1589 8.25045 13.2045 8.12708C13.2502 8.00372 13.2711 7.87256 13.2659 7.74112C13.2608 7.60968 13.2298 7.48053 13.1747 7.36108C13.1196 7.24164 13.0415 7.13424 12.9448 7.04503C12.7635 6.87766 12.5266 6.78328 12.2798 6.78003Z" fill="black"/>
<path id="Vector_3" d="M7 0C6.73478 0 6.48043 0.117999 6.29289 0.328039C6.10536 0.53808 6 0.822957 6 1.12V12.88C6 13.177 6.10536 13.4619 6.29289 13.672C6.48043 13.882 6.73478 14 7 14C7.26522 14 7.51957 13.882 7.70711 13.672C7.89464 13.4619 8 13.177 8 12.88V1.12C8 0.822957 7.89464 0.53808 7.70711 0.328039C7.51957 0.117999 7.26522 0 7 0Z" fill="black"/>
</g>
</svg>
