<svg width="29" height="30" viewBox="0 0 29 30" fill="none" xmlns="http://www.w3.org/2000/svg">
<g id="Group 855147">
<path id="Vector" d="M14.4018 0H14.4253C22.3779 0 28.8271 6.53524 28.8271 14.5938V15.4062C28.8271 23.4648 22.3779 30 14.4253 30H14.4018C6.44925 30 0 23.4648 0 15.4062V14.5938C0 6.53524 6.44925 0 14.4018 0Z" fill="#232323"/>
<path id="Vector_2" d="M20.574 11.2904C20.5268 11.3441 20.4678 11.386 20.403 11.4099C20.3382 11.4397 20.2674 11.4517 20.1967 11.4517H6.84424C6.37263 11.4517 6.13093 10.8543 6.46106 10.4959L8.65404 8.13626C8.7012 8.08249 8.76015 8.04068 8.83089 8.01081C8.89574 7.98094 8.96648 7.96899 9.03722 7.96899H22.4427C22.9202 7.96899 23.156 8.57234 22.82 8.93076L20.574 11.2904ZM20.574 21.84C20.4737 21.9415 20.3382 22.0013 20.1967 22.0013H6.84424C6.37263 22.0013 6.13093 21.4158 6.46106 21.0694L8.65404 18.7635C8.7012 18.7097 8.76605 18.6679 8.83089 18.644C8.89574 18.6142 8.96648 18.6022 9.03722 18.6022H22.4427C22.9202 18.6022 23.156 19.1936 22.82 19.5401L20.574 21.84ZM20.574 13.4469C20.4737 13.3453 20.3382 13.2856 20.1967 13.2856H6.84424C6.37263 13.2856 6.13093 13.871 6.46106 14.2175L8.65404 16.5234C8.7012 16.5771 8.76605 16.6189 8.83089 16.6428C8.89574 16.6727 8.96648 16.6846 9.03722 16.6846H22.4427C22.9202 16.6846 23.156 16.0932 22.82 15.7468L20.574 13.4469Z" fill="url(#paint0_linear_2591_1280)"/>
</g>
<defs>
<linearGradient id="paint0_linear_2591_1280" x1="7.32788" y1="22.1764" x2="22.1024" y2="7.98144" gradientUnits="userSpaceOnUse">
<stop stop-color="#CF41E8"/>
<stop offset="1" stop-color="#10F2B0"/>
</linearGradient>
</defs>
</svg>
