<?xml version="1.0" encoding="UTF-8"?>
<svg xmlns="http://www.w3.org/2000/svg" xmlns:xlink="http://www.w3.org/1999/xlink" width="70px" height="70px" viewBox="0 0 70 70" version="1.1">
<g id="surface1">
<path style=" stroke:none;fill-rule:nonzero;fill:rgb(96.862745%,57.647059%,10.196078%);fill-opacity:1;" d="M 68.953125 43.46875 C 64.277344 62.21875 45.285156 73.628906 26.53125 68.953125 C 7.785156 64.277344 -3.628906 45.285156 1.046875 26.535156 C 5.722656 7.785156 24.714844 -3.628906 43.460938 1.046875 C 62.214844 5.722656 73.625 24.714844 68.953125 43.46875 Z M 68.953125 43.46875 "/>
<path style=" stroke:none;fill-rule:nonzero;fill:rgb(100%,100%,100%);fill-opacity:1;" d="M 50.433594 30.015625 C 51.128906 25.355469 47.582031 22.851562 42.734375 21.183594 L 44.308594 14.875 L 40.464844 13.917969 L 38.933594 20.058594 C 37.925781 19.808594 36.886719 19.570312 35.859375 19.335938 L 37.402344 13.152344 L 33.5625 12.195312 L 31.988281 18.503906 C 31.152344 18.3125 30.332031 18.125 29.535156 17.925781 L 29.539062 17.90625 L 24.242188 16.582031 L 23.222656 20.683594 C 23.222656 20.683594 26.070312 21.339844 26.011719 21.378906 C 27.566406 21.765625 27.847656 22.796875 27.800781 23.613281 L 26.007812 30.800781 C 26.117188 30.828125 26.253906 30.867188 26.410156 30.925781 C 26.28125 30.894531 26.144531 30.859375 26.003906 30.828125 L 23.492188 40.894531 C 23.300781 41.367188 22.816406 42.074219 21.730469 41.804688 C 21.769531 41.863281 18.941406 41.109375 18.941406 41.109375 L 17.03125 45.503906 L 22.03125 46.75 C 22.960938 46.984375 23.871094 47.226562 24.769531 47.457031 L 23.179688 53.839844 L 27.015625 54.796875 L 28.589844 48.484375 C 29.636719 48.765625 30.65625 49.03125 31.648438 49.277344 L 30.082031 55.558594 L 33.921875 56.515625 L 35.511719 50.148438 C 42.058594 51.386719 46.984375 50.886719 49.058594 44.964844 C 50.726562 40.195312 48.972656 37.445312 45.527344 35.652344 C 48.039062 35.074219 49.929688 33.421875 50.433594 30.015625 Z M 41.65625 42.316406 C 40.472656 47.085938 32.441406 44.507812 29.835938 43.863281 L 31.945312 35.40625 C 34.550781 36.058594 42.898438 37.34375 41.65625 42.316406 Z M 42.84375 29.945312 C 41.761719 34.28125 35.078125 32.078125 32.910156 31.539062 L 34.824219 23.871094 C 36.992188 24.410156 43.972656 25.421875 42.84375 29.945312 Z M 42.84375 29.945312 "/>
</g>
</svg>
