<svg width="70" height="70" viewBox="0 0 70 70" fill="none" xmlns="http://www.w3.org/2000/svg">
<g clip-path="url(#clip0_1041_3774)">
<path fill-rule="evenodd" clip-rule="evenodd" d="M35 0C54.3313 0 70 15.6687 70 35C70 54.3313 54.3313 70 35 70C15.6687 70 0 54.3313 0 35C0 15.6687 15.6687 0 35 0Z" fill="#F0B90B"/>
<path d="M19.236 35L19.2612 44.2548L27.125 48.8822V54.3005L14.6591 46.9892V32.2937L19.236 35ZM19.236 25.7452V31.1382L14.6562 28.4291V23.036L19.236 20.3269L23.8381 23.036L19.236 25.7452ZM30.4091 23.036L34.9888 20.3269L39.5909 23.036L34.9888 25.7452L30.4091 23.036Z" fill="white"/>
<path d="M22.5449 42.3365V36.9183L27.1246 39.6274V45.0204L22.5449 42.3365ZM30.4087 50.8229L34.9884 53.532L39.5906 50.8229V56.2159L34.9884 58.9251L30.4087 56.2159V50.8229ZM46.1587 23.036L50.7384 20.3269L55.3406 23.036V28.4291L50.7384 31.1382V25.7452L46.1587 23.036ZM50.7384 44.2548L50.7637 35L55.3434 32.2908V46.9864L42.8775 54.2977V48.8794L50.7384 44.2548Z" fill="white"/>
<path d="M47.4547 42.3365L42.875 45.0204V39.6273L47.4547 36.9182V42.3365Z" fill="white"/>
<path d="M47.4544 27.6635L47.4796 33.0818L39.5934 37.7092V46.9864L35.0137 49.6703L30.4339 46.9864V37.7092L22.5477 33.0818V27.6635L27.1471 24.9544L34.9856 29.6042L42.8718 24.9544L47.474 27.6635H47.4544ZM22.5449 18.4115L34.9884 11.075L47.4544 18.4115L42.8747 21.1206L34.9884 16.4708L27.1246 21.1206L22.5449 18.4115Z" fill="white"/>
</g>
<defs>
<clipPath id="clip0_1041_3774">
<rect width="70" height="70" fill="white"/>
</clipPath>
</defs>
</svg>
