<?xml version="1.0" encoding="UTF-8"?>
<svg xmlns="http://www.w3.org/2000/svg" xmlns:xlink="http://www.w3.org/1999/xlink" width="70px" height="70px" viewBox="0 0 70 70" version="1.1">
<g id="surface1">
<path style=" stroke:none;fill-rule:nonzero;fill:rgb(0%,20%,67.843137%);fill-opacity:1;" d="M 70 35 C 70 54.328125 54.328125 70 35 70 C 15.671875 70 0 54.328125 0 35 C 0 15.671875 15.671875 0 35 0 C 54.328125 0 70 15.671875 70 35 Z M 70 35 "/>
<path style=" stroke:none;fill-rule:nonzero;fill:rgb(100%,100%,100%);fill-opacity:1;" d="M 34.449219 14.289062 C 35.429688 13.777344 36.625 14.964844 36.105469 15.945312 C 35.800781 16.742188 34.65625 16.957031 34.070312 16.347656 C 33.449219 15.761719 33.648438 14.609375 34.449219 14.289062 Z M 23.898438 15.425781 C 24.496094 15.179688 25.25 15.726562 25.1875 16.375 C 25.25 17.082031 24.390625 17.601562 23.78125 17.265625 C 22.976562 16.953125 23.070312 15.648438 23.898438 15.425781 Z M 45.503906 17.285156 C 44.574219 17.171875 44.425781 15.710938 45.324219 15.414062 C 46.019531 15.074219 46.65625 15.710938 46.757812 16.371094 C 46.613281 16.933594 46.140625 17.449219 45.503906 17.285156 Z M 26.300781 19.917969 C 27.296875 19.285156 28.714844 20.226562 28.5625 21.382812 C 28.511719 22.550781 26.960938 23.226562 26.085938 22.4375 C 25.238281 21.816406 25.367188 20.394531 26.300781 19.917969 Z M 41.503906 20.585938 C 41.949219 19.441406 43.75 19.40625 44.253906 20.519531 C 44.753906 21.386719 44.140625 22.460938 43.25 22.757812 C 42.070312 22.976562 40.949219 21.703125 41.503906 20.585938 Z M 33.175781 22.691406 C 33.167969 21.707031 34.066406 20.972656 35 20.90625 C 35.621094 21.03125 36.296875 21.296875 36.5625 21.921875 C 37.058594 22.785156 36.617188 23.976562 35.722656 24.371094 C 35.3125 24.601562 34.828125 24.515625 34.382812 24.488281 C 33.699219 24.152344 33.125 23.496094 33.175781 22.691406 Z M 17.488281 24.125 C 18.398438 23.566406 19.625 24.589844 19.28125 25.578125 C 19.09375 26.429688 17.945312 26.777344 17.285156 26.234375 C 16.585938 25.722656 16.695312 24.492188 17.488281 24.125 Z M 51.175781 24.125 C 51.949219 23.523438 53.222656 24.214844 53.132812 25.1875 C 53.183594 26.078125 52.082031 26.746094 51.316406 26.289062 C 50.472656 25.910156 50.386719 24.609375 51.175781 24.125 Z M 37.589844 25.894531 C 38.863281 25.4375 40.375 25.984375 41.101562 27.121094 C 42.058594 28.507812 41.550781 30.625 40.0625 31.417969 C 38.523438 32.363281 36.277344 31.5625 35.707031 29.84375 C 35.0625 28.304688 36 26.378906 37.589844 25.894531 Z M 30.113281 26.046875 C 31.527344 25.378906 33.425781 25.9375 34.109375 27.382812 C 34.910156 28.789062 34.289062 30.746094 32.855469 31.472656 C 31.417969 32.289062 29.394531 31.667969 28.699219 30.160156 C 27.917969 28.699219 28.609375 26.71875 30.113281 26.046875 Z M 22.628906 28.605469 C 22.738281 27.695312 23.597656 27.101562 24.460938 27.042969 C 25.394531 27.152344 26.140625 27.878906 26.242188 28.824219 C 26.179688 29.757812 25.457031 30.671875 24.46875 30.664062 C 23.378906 30.757812 22.421875 29.675781 22.628906 28.605469 Z M 44.738281 27.238281 C 45.855469 26.589844 47.410156 27.535156 47.359375 28.820312 C 47.4375 30.183594 45.714844 31.144531 44.601562 30.34375 C 43.445312 29.679688 43.535156 27.804688 44.738281 27.238281 Z M 27.074219 32.039062 C 28.382812 31.679688 29.878906 32.296875 30.519531 33.496094 C 31.222656 34.707031 30.933594 36.390625 29.84375 37.277344 C 28.441406 38.582031 25.859375 38.058594 25.117188 36.28125 C 24.257812 34.652344 25.300781 32.46875 27.074219 32.039062 Z M 41.25 32.03125 C 42.523438 31.667969 44.015625 32.160156 44.699219 33.316406 C 45.605469 34.640625 45.171875 36.617188 43.828125 37.472656 C 42.417969 38.464844 40.234375 37.945312 39.457031 36.394531 C 38.515625 34.789062 39.464844 32.519531 41.25 32.03125 Z M 18.65625 33.542969 C 19.789062 33.117188 21.039062 34.363281 20.582031 35.484375 C 20.304688 36.503906 18.863281 36.882812 18.121094 36.128906 C 17.25 35.421875 17.574219 33.851562 18.65625 33.542969 Z M 49.292969 35.171875 C 49.257812 34.234375 49.945312 33.402344 50.90625 33.351562 C 51.679688 33.476562 52.429688 34.097656 52.371094 34.941406 C 52.441406 36.054688 51.101562 36.8125 50.152344 36.289062 C 49.707031 36.0625 49.480469 35.605469 49.292969 35.171875 Z M 13.101562 34.09375 C 13.78125 33.796875 14.621094 34.386719 14.464844 35.140625 C 14.429688 35.996094 13.167969 36.324219 12.703125 35.609375 C 12.292969 35.113281 12.539062 34.347656 13.101562 34.09375 Z M 55.972656 34.078125 C 56.453125 33.734375 57.21875 33.980469 57.410156 34.539062 C 57.730469 35.152344 57.140625 35.988281 56.453125 35.882812 C 55.488281 35.972656 55.175781 34.5 55.972656 34.078125 Z M 30.765625 38.179688 C 32.554688 37.714844 34.480469 39.207031 34.488281 41.050781 C 34.605469 42.910156 32.710938 44.5625 30.882812 44.132812 C 29.464844 43.90625 28.355469 42.539062 28.402344 41.109375 C 28.398438 39.742188 29.429688 38.46875 30.765625 38.179688 Z M 37.851562 38.175781 C 39.667969 37.667969 41.648438 39.1875 41.621094 41.074219 C 41.714844 42.898438 39.878906 44.496094 38.085938 44.132812 C 36.398438 43.914062 35.15625 42.0625 35.625 40.421875 C 35.863281 39.332031 36.773438 38.445312 37.851562 38.175781 Z M 24.191406 39.3125 C 25.445312 39.097656 26.625 40.5 26.117188 41.691406 C 25.742188 42.964844 23.894531 43.308594 23.074219 42.269531 C 22.117188 41.273438 22.832031 39.449219 24.191406 39.3125 Z M 44.96875 39.367188 C 46.089844 38.898438 47.464844 39.867188 47.378906 41.082031 C 47.425781 42.421875 45.726562 43.34375 44.632812 42.5625 C 43.390625 41.863281 43.617188 39.796875 44.96875 39.367188 Z M 50.777344 45.191406 C 50.339844 44.375 51.136719 43.289062 52.042969 43.441406 C 52.496094 43.433594 52.8125 43.789062 53.101562 44.089844 C 53.160156 44.574219 53.261719 45.152344 52.859375 45.527344 C 52.3125 46.21875 51.074219 46.019531 50.777344 45.191406 Z M 17.484375 43.667969 C 18.335938 43.105469 19.554688 43.949219 19.363281 44.941406 C 19.261719 45.816406 18.15625 46.320312 17.429688 45.820312 C 16.648438 45.367188 16.675781 44.082031 17.484375 43.667969 Z M 34.253906 45.507812 C 35.363281 45.015625 36.777344 45.984375 36.675781 47.207031 C 36.757812 48.558594 35.003906 49.496094 33.917969 48.683594 C 32.710938 47.988281 32.914062 45.9375 34.253906 45.507812 Z M 26.488281 47.320312 C 27.433594 46.820312 28.703125 47.679688 28.617188 48.738281 C 28.644531 49.609375 27.796875 50.351562 26.9375 50.222656 C 26.226562 50.207031 25.765625 49.570312 25.535156 48.964844 C 25.546875 48.304688 25.820312 47.566406 26.488281 47.320312 Z M 42.21875 47.332031 C 43.191406 46.730469 44.574219 47.597656 44.480469 48.730469 C 44.507812 49.914062 42.945312 50.671875 42.039062 49.894531 C 41.160156 49.285156 41.265625 47.820312 42.21875 47.332031 Z M 44.953125 54.097656 C 44.519531 53.441406 45.03125 52.652344 45.734375 52.503906 C 46.296875 52.617188 46.894531 53.042969 46.777344 53.699219 C 46.695312 54.585938 45.398438 54.855469 44.953125 54.097656 Z M 23.238281 53.527344 C 23.410156 53.007812 23.828125 52.492188 24.4375 52.628906 C 25.328125 52.691406 25.59375 54.035156 24.816406 54.449219 C 24.113281 54.921875 23.300781 54.273438 23.238281 53.527344 Z M 33.714844 54.125 C 33.882812 53.355469 34.878906 52.980469 35.535156 53.390625 C 35.96875 53.574219 36.09375 54.058594 36.203125 54.472656 C 36.144531 54.6875 36.09375 54.902344 36.039062 55.117188 C 35.773438 55.433594 35.425781 55.75 34.980469 55.738281 C 34.152344 55.835938 33.402344 54.898438 33.714844 54.125 Z M 33.714844 54.125 "/>
</g>
</svg>
