<?xml version="1.0" encoding="UTF-8"?>
<svg xmlns="http://www.w3.org/2000/svg" xmlns:xlink="http://www.w3.org/1999/xlink" width="70px" height="70px" viewBox="0 0 70 70" version="1.1">
<g id="surface1">
<path style=" stroke:none;fill-rule:nonzero;fill:rgb(2.745098%,3.921569%,5.490196%);fill-opacity:1;" d="M 35 70 C 54.332031 70 70 54.332031 70 35 C 70 15.667969 54.332031 0 35 0 C 15.667969 0 0 15.667969 0 35 C 0 54.332031 15.667969 70 35 70 Z M 35 70 "/>
<path style=" stroke:none;fill-rule:evenodd;fill:rgb(0%,82.745098%,58.431373%);fill-opacity:1;" d="M 20.21875 46.734375 C 19.171875 46.09375 18.53125 44.957031 18.53125 43.734375 L 18.53125 36.894531 C 18.53125 36.082031 19.195312 35.421875 20.007812 35.425781 C 20.265625 35.425781 20.519531 35.496094 20.746094 35.625 L 36.175781 44.625 C 37.078125 45.148438 37.636719 46.117188 37.636719 47.164062 L 37.636719 54.246094 C 37.640625 55.21875 36.851562 56.011719 35.878906 56.011719 C 35.554688 56.011719 35.230469 55.917969 34.953125 55.75 Z M 43.222656 33.753906 C 44.125 34.277344 44.675781 35.25 44.679688 36.292969 L 44.679688 50.667969 C 44.679688 51.09375 44.453125 51.484375 44.082031 51.691406 L 40.703125 53.59375 C 40.664062 53.617188 40.617188 53.632812 40.570312 53.648438 L 40.570312 45.664062 C 40.570312 44.632812 40.027344 43.671875 39.136719 43.140625 L 25.585938 35.035156 L 25.585938 26.023438 C 25.585938 25.210938 26.246094 24.550781 27.058594 24.554688 C 27.316406 24.554688 27.574219 24.625 27.796875 24.753906 Z M 49.976562 23.136719 C 50.882812 23.660156 51.441406 24.628906 51.441406 25.675781 L 51.441406 46.675781 C 51.4375 47.105469 51.199219 47.503906 50.820312 47.707031 L 47.617188 49.4375 L 47.617188 34.816406 C 47.617188 33.785156 47.074219 32.828125 46.191406 32.296875 L 32.339844 23.988281 L 32.339844 15.441406 C 32.339844 15.183594 32.410156 14.925781 32.535156 14.703125 C 32.945312 14.003906 33.84375 13.765625 34.546875 14.171875 Z M 49.976562 23.136719 "/>
</g>
</svg>
