<?xml version="1.0" encoding="UTF-8"?>
<svg xmlns="http://www.w3.org/2000/svg" xmlns:xlink="http://www.w3.org/1999/xlink" width="70px" height="70px" viewBox="0 0 70 70" version="1.1">
<g id="surface1">
<path style=" stroke:none;fill-rule:nonzero;fill:rgb(96.470588%,96.470588%,96.470588%);fill-opacity:1;" d="M 70 35 C 70 54.328125 54.328125 70 35 70 C 15.671875 70 0 54.328125 0 35 C 0 15.671875 15.671875 0 35 0 C 54.328125 0 70 15.671875 70 35 Z M 70 35 "/>
<path style=" stroke:none;fill-rule:nonzero;fill:rgb(20.392157%,20.392157%,20.392157%);fill-opacity:1;" d="M 34.996094 12.5 L 34.6875 13.527344 L 34.6875 43.28125 L 34.996094 43.582031 L 49.15625 35.417969 Z M 34.996094 12.5 "/>
<path style=" stroke:none;fill-rule:nonzero;fill:rgb(54.901961%,54.901961%,54.901961%);fill-opacity:1;" d="M 34.996094 12.5 L 20.832031 35.417969 L 34.996094 43.582031 Z M 34.996094 12.5 "/>
<path style=" stroke:none;fill-rule:nonzero;fill:rgb(23.529412%,23.529412%,23.137255%);fill-opacity:1;" d="M 34.996094 46.195312 L 34.824219 46.402344 L 34.824219 57.003906 L 34.996094 57.5 L 49.167969 38.035156 Z M 34.996094 46.195312 "/>
<path style=" stroke:none;fill-rule:nonzero;fill:rgb(54.901961%,54.901961%,54.901961%);fill-opacity:1;" d="M 34.996094 57.5 L 34.996094 46.195312 L 20.832031 38.035156 Z M 34.996094 57.5 "/>
<path style=" stroke:none;fill-rule:nonzero;fill:rgb(7.843137%,7.843137%,7.843137%);fill-opacity:1;" d="M 34.992188 43.582031 L 49.152344 35.417969 L 34.992188 29.140625 Z M 34.992188 43.582031 "/>
<path style=" stroke:none;fill-rule:nonzero;fill:rgb(22.352941%,22.352941%,22.352941%);fill-opacity:1;" d="M 20.832031 35.417969 L 34.996094 43.582031 L 34.996094 29.140625 Z M 20.832031 35.417969 "/>
</g>
</svg>
