<?xml version="1.0" encoding="UTF-8"?>
<!DOCTYPE svg PUBLIC "-//W3C//DTD SVG 1.1//EN" "http://www.w3.org/Graphics/SVG/1.1/DTD/svg11.dtd">
<svg xmlns="http://www.w3.org/2000/svg" version="1.1" width="296px" height="296px" style="shape-rendering:geometricPrecision; text-rendering:geometricPrecision; image-rendering:optimizeQuality; fill-rule:evenodd; clip-rule:evenodd" xmlns:xlink="http://www.w3.org/1999/xlink">
<g><path style="opacity:0.99" fill="#01a550" d="M 131.5,-0.5 C 142.167,-0.5 152.833,-0.5 163.5,-0.5C 238.04,12.3738 282.04,56.0404 295.5,130.5C 295.5,141.833 295.5,153.167 295.5,164.5C 282.161,238.506 238.494,282.173 164.5,295.5C 153.167,295.5 141.833,295.5 130.5,295.5C 56.5,282.167 12.8333,238.5 -0.5,164.5C -0.5,153.167 -0.5,141.833 -0.5,130.5C 12.9505,56.0495 56.9505,12.3828 131.5,-0.5 Z"/></g>
<g><path style="opacity:1" fill="#fdfefd" d="M 90.5,48.5 C 128.501,48.3333 166.501,48.5 204.5,49C 223.374,81.9151 242.374,114.748 261.5,147.5C 242.374,180.252 223.374,213.085 204.5,246C 166.5,246.667 128.5,246.667 90.5,246C 71.6263,213.085 52.6263,180.252 33.5,147.5C 52.7645,114.636 71.7645,81.6358 90.5,48.5 Z"/></g>
<g><path style="opacity:1" fill="#04a551" d="M 113.5,69.5 C 136.663,68.3369 159.996,68.1703 183.5,69C 178.25,76.8318 173.25,84.8318 168.5,93C 154.833,93.6667 141.167,93.6667 127.5,93C 122.97,84.9965 118.303,77.1631 113.5,69.5 Z"/></g>
<g><path style="opacity:1" fill="#08a652" d="M 95.5,79.5 C 101.203,87.2089 106.203,95.5422 110.5,104.5C 104.545,115.58 98.2118,126.413 91.5,137C 81.8333,137.667 72.1667,137.667 62.5,137C 73.6382,117.887 84.6382,98.7208 95.5,79.5 Z"/></g>
<g><path style="opacity:1" fill="#09a652" d="M 199.5,80.5 C 210.6,99.1883 221.6,118.022 232.5,137C 223.167,137.667 213.833,137.667 204.5,137C 197.654,126.31 191.321,115.31 185.5,104C 189.979,96.0288 194.646,88.1955 199.5,80.5 Z"/></g>
<g><path style="opacity:1" fill="#03a550" d="M 127.5,113.5 C 141.183,113.167 154.85,113.501 168.5,114.5C 174.707,125.748 181.04,136.915 187.5,148C 181.085,159.498 174.419,170.831 167.5,182C 154.154,182.833 140.821,182.666 127.5,181.5C 121.293,170.252 114.96,159.085 108.5,148C 115.239,136.687 121.572,125.187 127.5,113.5 Z"/></g>
<g><path style="opacity:1" fill="#09a652" d="M 62.5,158.5 C 72.008,157.177 81.6746,157.177 91.5,158.5C 98.22,169.439 104.553,180.606 110.5,192C 106.218,200.065 101.551,207.898 96.5,215.5C 84.9036,196.638 73.5702,177.638 62.5,158.5 Z"/></g>
<g><path style="opacity:1" fill="#0ca653" d="M 204.5,157.5 C 213.839,157.334 223.173,157.5 232.5,158C 221.626,176.915 210.626,195.749 199.5,214.5C 194.641,206.782 190.308,198.782 186.5,190.5C 192.518,179.489 198.518,168.489 204.5,157.5 Z"/></g>
<g><path style="opacity:1" fill="#03a550" d="M 127.5,202.5 C 141.504,202.333 155.504,202.5 169.5,203C 174.212,210.255 178.546,217.755 182.5,225.5C 159.507,226.666 136.507,226.833 113.5,226C 118.818,218.524 123.485,210.691 127.5,202.5 Z"/></g>
</svg>
