<?xml version="1.0" encoding="UTF-8"?>
<svg xmlns="http://www.w3.org/2000/svg" xmlns:xlink="http://www.w3.org/1999/xlink" width="70px" height="70px" viewBox="0 0 70 70" version="1.1">
<g id="surface1">
<path style=" stroke:none;fill-rule:nonzero;fill:rgb(0%,0%,0%);fill-opacity:1;" d="M 52.050781 51.996094 C 52.050781 51.996094 44.351562 43.007812 41.804688 40.011719 C 41.523438 39.675781 41.410156 39.199219 41.523438 38.78125 C 41.609375 38.554688 41.777344 38.277344 41.945312 38.109375 L 43.121094 36.792969 L 56.253906 51.96875 L 52.078125 51.96875 Z M 43.933594 51.996094 L 34.410156 40.878906 L 33.9375 40.265625 C 33.488281 39.730469 33.488281 38.949219 33.964844 38.414062 L 51.714844 17.722656 L 56.113281 17.722656 L 38.246094 38.136719 C 37.773438 38.640625 37.773438 39.453125 38.21875 39.957031 L 48.523438 51.941406 L 43.933594 51.941406 Z M 32.84375 35.671875 C 29.175781 39.929688 18.84375 51.996094 18.84375 51.996094 L 14.253906 51.996094 L 28.308594 35.699219 C 28.757812 35.167969 28.757812 34.410156 28.308594 33.878906 L 14.363281 17.722656 L 18.789062 17.722656 L 32.816406 34.019531 C 33.179688 34.496094 33.234375 35.195312 32.84375 35.644531 Z M 32.675781 44.910156 L 31.304688 46.507812 L 26.601562 51.996094 L 22.34375 51.996094 L 31.359375 41.496094 C 31.359375 41.496094 32.367188 42.699219 32.703125 43.09375 C 33.152344 43.625 33.152344 44.40625 32.675781 44.910156 Z M 26.542969 17.753906 C 26.542969 17.753906 34.105469 26.796875 36.847656 29.597656 C 37.296875 30.042969 37.210938 30.605469 36.820312 31.078125 C 35.363281 32.789062 35.335938 32.816406 35.335938 32.816406 L 22.34375 17.753906 L 26.601562 17.753906 Z M 37.882812 24.835938 L 39.257812 23.238281 L 43.960938 17.753906 L 48.214844 17.753906 L 39.199219 28.253906 C 39.199219 28.253906 38.191406 27.046875 37.855469 26.65625 C 37.40625 26.125 37.40625 25.339844 37.882812 24.835938 Z M 35.027344 -0.0273438 C 15.707031 -0.0273438 0.0273438 15.652344 0.0273438 34.972656 C 0.0273438 54.292969 15.707031 69.972656 35.027344 69.972656 C 54.347656 69.972656 70.027344 54.292969 70.027344 34.972656 C 70.027344 15.652344 54.347656 -0.0273438 35.027344 -0.0273438 Z M 35.027344 -0.0273438 "/>
</g>
</svg>
