<?xml version="1.0" standalone="no"?>
<!DOCTYPE svg PUBLIC "-//W3C//DTD SVG 20010904//EN"
 "http://www.w3.org/TR/2001/REC-SVG-20010904/DTD/svg10.dtd">
<svg version="1.0" xmlns="http://www.w3.org/2000/svg"
 width="2000.000000pt" height="2000.000000pt" viewBox="0 0 2000.000000 2000.000000"
 preserveAspectRatio="xMidYMid meet">

<g transform="translate(0.000000,2000.000000) scale(0.100000,-0.100000)"
fill="#000000" stroke="none">
<path d="M1895 19979 c-535 -58 -1045 -330 -1386 -738 -286 -341 -454 -740
-499 -1180 -14 -144 -14 -15978 0 -16122 103 -1021 898 -1816 1919 -1919 545
-54 1112 118 1549 472 103 83 246 228 325 330 100 129 4335 6421 4365 6486 24
51 27 68 27 167 0 104 -2 114 -32 176 -124 253 -422 345 -641 198 -24 -16
-970 -831 -2103 -1812 -1133 -980 -2079 -1792 -2102 -1805 -74 -41 -152 -19
-205 58 l-22 33 2 5636 c3 5618 3 5636 23 5663 45 60 144 86 210 56 15 -7
2717 -3232 6273 -7487 3436 -4111 6276 -7506 6312 -7544 321 -343 809 -576
1309 -627 133 -13 718 -13 852 0 1021 103 1818 900 1919 1919 14 145 14 15979
0 16122 -114 1128 -1075 1969 -2200 1926 -658 -25 -1257 -333 -1639 -842 -112
-148 -4321 -6404 -4342 -6451 -30 -72 -42 -162 -30 -230 43 -232 251 -398 478
-381 133 10 173 37 538 354 176 154 1069 931 1985 1728 916 797 1710 1488
1765 1536 56 49 113 93 129 98 69 27 142 3 190 -62 l21 -28 3 -5643 2 -5643
-22 -33 c-13 -18 -35 -42 -50 -53 -37 -27 -125 -34 -165 -13 -20 10 -2354
2795 -6284 7498 -3607 4317 -6293 7523 -6348 7578 -302 299 -690 493 -1131
566 -84 13 -185 17 -510 20 -223 1 -441 -2 -485 -7z"/>
</g>
</svg>
