<?xml version="1.0" encoding="UTF-8"?>
<svg xmlns="http://www.w3.org/2000/svg" xmlns:xlink="http://www.w3.org/1999/xlink" width="70px" height="70px" viewBox="0 0 70 70" version="1.1">
<defs>
<clipPath id="clip1">
  <path d="M 14.167969 16.667969 L 56.195312 16.667969 L 56.195312 53.332031 L 14.167969 53.332031 Z M 14.167969 16.667969 "/>
</clipPath>
</defs>
<g id="surface1">
<path style=" stroke:none;fill-rule:nonzero;fill:rgb(100%,100%,100%);fill-opacity:1;" d="M 70 35 C 70 54.328125 54.328125 70 35 70 C 15.671875 70 0 54.328125 0 35 C 0 15.671875 15.671875 0 35 0 C 54.328125 0 70 15.671875 70 35 Z M 70 35 "/>
<g clip-path="url(#clip1)" clip-rule="nonzero">
<path style=" stroke:none;fill-rule:nonzero;fill:rgb(50.980392%,27.843137%,89.803922%);fill-opacity:1;" d="M 45.90625 27.832031 C 45.140625 27.394531 44.15625 27.394531 43.28125 27.832031 L 37.152344 31.441406 L 32.992188 33.742188 L 26.972656 37.351562 C 26.207031 37.789062 25.222656 37.789062 24.347656 37.351562 L 19.640625 34.507812 C 18.875 34.070312 18.324219 33.195312 18.324219 32.207031 L 18.324219 26.738281 C 18.324219 25.859375 18.761719 24.984375 19.640625 24.4375 L 24.347656 21.703125 C 25.113281 21.261719 26.097656 21.261719 26.972656 21.703125 L 31.679688 24.546875 C 32.445312 24.984375 32.992188 25.859375 32.992188 26.847656 L 32.992188 30.457031 L 37.152344 28.050781 L 37.152344 24.328125 C 37.152344 23.453125 36.714844 22.578125 35.839844 22.03125 L 27.082031 16.886719 C 26.316406 16.449219 25.332031 16.449219 24.457031 16.886719 L 15.480469 22.140625 C 14.605469 22.578125 14.167969 23.453125 14.167969 24.328125 L 14.167969 34.617188 C 14.167969 35.492188 14.605469 36.367188 15.480469 36.914062 L 24.347656 42.058594 C 25.113281 42.496094 26.097656 42.496094 26.972656 42.058594 L 32.992188 38.558594 L 37.152344 36.148438 L 43.171875 32.648438 C 43.9375 32.207031 44.921875 32.207031 45.796875 32.648438 L 50.503906 35.382812 C 51.269531 35.820312 51.820312 36.695312 51.820312 37.679688 L 51.820312 43.152344 C 51.820312 44.03125 51.378906 44.90625 50.503906 45.453125 L 45.90625 48.1875 C 45.140625 48.625 44.15625 48.625 43.28125 48.1875 L 38.574219 45.453125 C 37.808594 45.015625 37.261719 44.140625 37.261719 43.152344 L 37.261719 39.652344 L 33.101562 42.058594 L 33.101562 45.671875 C 33.101562 46.546875 33.539062 47.421875 34.414062 47.96875 L 43.28125 53.113281 C 44.046875 53.550781 45.03125 53.550781 45.90625 53.113281 L 54.773438 47.96875 C 55.539062 47.53125 56.085938 46.65625 56.085938 45.671875 L 56.085938 35.273438 C 56.085938 34.398438 55.648438 33.523438 54.773438 32.976562 Z M 45.90625 27.832031 "/>
</g>
</g>
</svg>
