<?xml version="1.0" encoding="UTF-8"?>
<svg xmlns="http://www.w3.org/2000/svg" xmlns:xlink="http://www.w3.org/1999/xlink" width="70px" height="70px" viewBox="0 0 70 70" version="1.1">
<g id="surface1">
<path style=" stroke:none;fill-rule:evenodd;fill:rgb(0%,57.647059%,57.647059%);fill-opacity:1;" d="M 15.136719 5.984375 L 55.589844 5.984375 C 56.601562 5.984375 57.472656 6.5625 57.90625 7.289062 L 69.648438 27.730469 C 70.230469 28.746094 70.085938 30.195312 69.214844 31.066406 L 36.882812 63.253906 C 35.871094 64.269531 34.128906 64.269531 33.117188 63.253906 L 0.785156 31.210938 C -0.0859375 30.339844 -0.230469 28.894531 0.351562 27.875 L 12.964844 7.289062 C 13.398438 6.421875 14.265625 5.984375 15.136719 5.984375 Z M 50.371094 15.121094 L 50.371094 20.917969 L 38.914062 20.917969 L 38.914062 24.832031 C 47.035156 25.265625 53.121094 27.007812 53.121094 29.039062 L 53.121094 33.386719 C 53.121094 35.417969 47.03125 37.300781 38.914062 37.59375 L 38.914062 47.453125 L 31.230469 47.453125 L 31.230469 37.882812 C 23.109375 37.445312 17.019531 35.707031 17.019531 33.675781 L 17.019531 29.328125 C 17.019531 27.296875 23.109375 25.414062 31.230469 25.121094 L 31.230469 21.0625 L 19.777344 21.0625 L 19.777344 15.261719 L 50.371094 15.261719 Z M 35.144531 34.835938 C 43.84375 34.835938 50.949219 33.386719 52.832031 31.355469 C 51.382812 29.617188 45.871094 28.3125 39.058594 28.023438 L 39.058594 32.226562 C 37.753906 32.226562 36.597656 32.375 35.292969 32.375 C 33.988281 32.375 32.679688 32.375 31.523438 32.226562 L 31.523438 28.023438 C 24.707031 28.3125 19.199219 29.761719 17.75 31.355469 C 19.195312 33.386719 26.445312 34.835938 35.144531 34.835938 Z M 35.144531 34.835938 "/>
</g>
</svg>
