<?xml version="1.0" encoding="UTF-8"?>
<svg xmlns="http://www.w3.org/2000/svg" xmlns:xlink="http://www.w3.org/1999/xlink" width="70px" height="70px" viewBox="0 0 70 70" version="1.1">
<g id="surface1">
<path style=" stroke:none;fill-rule:evenodd;fill:rgb(100%,100%,100%);fill-opacity:1;" d="M 64.507812 35 C 64.507812 51.296875 51.296875 64.507812 35 64.507812 C 18.703125 64.507812 5.492188 51.296875 5.492188 35 C 5.492188 18.703125 18.703125 5.492188 35 5.492188 C 51.296875 5.492188 64.507812 18.703125 64.507812 35 Z M 64.507812 35 "/>
<path style=" stroke:none;fill-rule:evenodd;fill:rgb(15.294118%,45.882353%,79.215686%);fill-opacity:1;" d="M 35 0 C 54.328125 0 70 15.667969 70 35 C 70 54.328125 54.328125 70 35 70 C 15.667969 70 0 54.328125 0 35 C 0 15.667969 15.667969 0 35 0 Z M 42.996094 10.355469 C 42.207031 10.101562 41.5625 10.570312 41.5625 11.398438 L 41.5625 13.4375 C 41.5625 13.996094 41.984375 14.625 42.503906 14.816406 C 50.882812 17.882812 56.875 25.9375 56.875 35.363281 C 56.875 44.792969 50.882812 52.84375 42.503906 55.910156 C 41.933594 56.121094 41.5625 56.679688 41.5625 57.289062 L 41.5625 59.328125 C 41.5625 60.15625 42.210938 60.621094 42.996094 60.371094 C 53.582031 56.988281 61.25 47.070312 61.25 35.359375 C 61.25 23.652344 53.582031 13.738281 42.996094 10.355469 Z M 28.4375 11.398438 C 28.4375 10.570312 27.792969 10.101562 27.003906 10.355469 C 16.417969 13.738281 8.75 23.65625 8.75 35.363281 C 8.75 47.074219 16.417969 56.992188 27.003906 60.375 C 27.792969 60.625 28.4375 60.15625 28.4375 59.328125 L 28.4375 57.289062 C 28.4375 56.738281 28.015625 56.105469 27.496094 55.914062 C 19.117188 52.84375 13.125 44.792969 13.125 35.367188 C 13.125 25.941406 19.117188 17.886719 27.496094 14.816406 C 28.015625 14.628906 28.4375 13.996094 28.4375 13.441406 Z M 36.09375 17.863281 L 33.90625 17.863281 C 33.304688 17.863281 32.8125 18.355469 32.8125 18.957031 L 32.8125 22.347656 C 28.476562 22.960938 25.671875 25.847656 25.671875 29.550781 C 25.671875 34.34375 28.570312 36.203125 34.6875 37.027344 C 38.835938 37.707031 40.015625 38.601562 40.015625 40.960938 C 40.015625 43.320312 38.011719 44.894531 35.1875 44.894531 C 31.367188 44.894531 30.109375 43.222656 29.648438 41.0625 C 29.539062 40.550781 29.101562 40.175781 28.578125 40.175781 L 26.082031 40.175781 C 25.453125 40.175781 24.960938 40.738281 25.070312 41.359375 C 25.707031 45 28.042969 47.671875 32.816406 48.316406 L 32.816406 51.773438 C 32.816406 52.375 33.304688 52.867188 33.910156 52.867188 L 36.097656 52.867188 C 36.703125 52.867188 37.191406 52.375 37.191406 51.773438 L 37.191406 48.316406 C 41.707031 47.601562 44.59375 44.457031 44.59375 40.566406 C 44.59375 35.453125 41.484375 33.738281 35.476562 32.914062 C 31.039062 32.269531 30.183594 31.234375 30.183594 29.160156 C 30.183594 27.195312 31.683594 25.800781 34.582031 25.800781 C 37.203125 25.800781 38.710938 26.714844 39.332031 28.824219 C 39.472656 29.292969 39.890625 29.625 40.382812 29.625 L 42.683594 29.625 C 43.324219 29.625 43.824219 29.035156 43.6875 28.410156 C 42.957031 25.078125 40.710938 23.078125 37.191406 22.449219 L 37.191406 18.957031 C 37.1875 18.355469 36.695312 17.863281 36.09375 17.863281 Z M 36.09375 17.863281 "/>
</g>
</svg>
