<svg width="81" height="70" viewBox="0 0 81 70" fill="none" xmlns="http://www.w3.org/2000/svg">
<g clip-path="url(#clip0_1043_2032)">
<path fill-rule="evenodd" clip-rule="evenodd" d="M15.1819 0.343799L0.50954 31.163C0.453708 31.2777 0.436015 31.4072 0.459049 31.5326C0.482083 31.658 0.544635 31.7727 0.637558 31.86L40.264 69.8317C40.3766 69.9397 40.5265 69.9999 40.6824 69.9999C40.8384 69.9999 40.9883 69.9397 41.1009 69.8317L80.7273 31.8624C80.8202 31.7751 80.8828 31.6604 80.9058 31.5349C80.9289 31.4095 80.9112 31.2801 80.8553 31.1654L66.183 0.34617C66.1357 0.242666 66.0595 0.154985 65.9636 0.0936056C65.8678 0.0322266 65.7563 -0.0002539 65.6425 4.58789e-05H15.7271C15.6128 -0.00137693 15.5004 0.0303212 15.4037 0.0913165C15.3069 0.152312 15.2299 0.239999 15.1819 0.343799Z" fill="#50AF95"/>
<path fill-rule="evenodd" clip-rule="evenodd" d="M45.7735 34.3279C45.489 34.3492 44.0192 34.4369 40.7405 34.4369C38.1327 34.4369 36.2812 34.3587 35.6316 34.3279C25.5537 33.8846 18.0314 32.1302 18.0314 30.0298C18.0314 27.9293 25.5537 26.1774 35.6316 25.7269V32.5807C36.2906 32.6281 38.1777 32.7395 40.7855 32.7395C43.9148 32.7395 45.4819 32.6091 45.764 32.583V25.7317C55.8206 26.1797 63.3262 27.9341 63.3262 30.0298C63.3262 32.1255 55.8229 33.8798 45.764 34.3255L45.7735 34.3279ZM45.7735 25.0228V18.8898H59.8081V9.53735H21.597V18.8898H35.6292V25.0205C24.2237 25.5444 15.6465 27.8037 15.6465 30.511C15.6465 33.2184 24.2237 35.4753 35.6292 36.0016V55.6548H45.7711V35.9945C57.1505 35.4706 65.7135 33.2137 65.7135 30.5087C65.7135 27.8037 57.1576 25.5468 45.7711 25.0205L45.7735 25.0228Z" fill="white"/>
</g>
<defs>
<clipPath id="clip0_1043_2032">
<rect width="80.4691" height="70" fill="white" transform="translate(0.448242)"/>
</clipPath>
</defs>
</svg>
