<svg width="74" height="70" viewBox="0 0 74 70" fill="none" xmlns="http://www.w3.org/2000/svg">
<path d="M37.0699 70C57.0369 70 73.2232 54.3297 73.2232 34.9998C73.2232 15.67 57.0369 0 37.0699 0C17.1033 0 0.916992 15.67 0.916992 34.9998C0.916992 54.3297 17.1033 70 37.0699 70Z" fill="black"/>
<path d="M47.0677 1.36133L28.1182 28.3446L26.6757 30.3905L25.233 28.3446L19.7509 20.4744H12.754L18.2433 28.3446L23.1844 35.3836L19.0656 41.2216L8.44043 56.375C9.64859 57.8738 10.9802 59.2747 12.4222 60.5649L26.0697 41.2216L26.6612 40.3836L27.2455 41.2216L33.5859 50.2998H51.4028C53.4017 50.3004 55.3461 49.6673 56.938 48.4966C58.5296 47.3262 59.6823 45.6832 60.2179 43.8187C60.7535 41.9544 60.6437 39.9712 59.9053 38.173C59.1663 36.3746 57.8393 34.8604 56.1275 33.8612C56.961 32.5184 57.4108 30.9852 57.431 29.4188C57.4512 27.8524 57.0413 26.3089 56.2428 24.9461C55.4443 23.5835 54.2862 22.4506 52.8869 21.6638C51.4878 20.8768 49.8977 20.464 48.2794 20.4675H40.6839L52.7589 3.43536C50.9246 2.59201 49.0209 1.89827 47.0677 1.36133ZM48.2721 26.089C49.1619 26.089 50.015 26.4311 50.644 27.04C51.2729 27.6489 51.6265 28.475 51.6265 29.3361C51.6265 30.1974 51.2729 31.0232 50.644 31.6324C50.015 32.2413 49.1619 32.5834 48.2721 32.5834H35.2883L33.283 35.4254L35.2306 38.2189H51.3955C52.2852 38.2189 53.1384 38.561 53.7673 39.1699C54.3963 39.7788 54.7498 40.6048 54.7498 41.4659C54.7498 42.3273 54.3963 43.1531 53.7673 43.7622C53.1384 44.3711 52.2852 44.7133 51.3955 44.7133H36.6588L34.2351 41.2216L32.1215 38.2189L30.167 35.4254L32.1434 32.6322L35.1296 28.3934L36.7165 26.1378H48.2578L48.2721 26.089Z" fill="white"/>
</svg>
