<?xml version="1.0" encoding="UTF-8"?>
<svg xmlns="http://www.w3.org/2000/svg" xmlns:xlink="http://www.w3.org/1999/xlink" width="70px" height="70px" viewBox="0 0 70 70" version="1.1">
<defs>
<linearGradient id="linear0" gradientUnits="userSpaceOnUse" x1="1588.3021" y1="420.8846" x2="816.3022" y2="1724.8846" gradientTransform="matrix(0.028,0,0,-0.028,0,69.940917)">
<stop offset="0" style="stop-color:rgb(1.960784%,43.921569%,49.411765%);stop-opacity:1;"/>
<stop offset="0.5216" style="stop-color:rgb(16.862745%,57.254902%,59.215686%);stop-opacity:1;"/>
<stop offset="1" style="stop-color:rgb(30.196078%,73.333333%,72.941176%);stop-opacity:1;"/>
</linearGradient>
<linearGradient id="linear1" gradientUnits="userSpaceOnUse" x1="702.8157" y1="2000.6702" x2="1803.8157" y2="1595.6702" gradientTransform="matrix(0.028,0,0,-0.028,0,69.940917)">
<stop offset="0" style="stop-color:rgb(1.960784%,43.921569%,49.411765%);stop-opacity:1;"/>
<stop offset="0.5216" style="stop-color:rgb(16.862745%,57.254902%,59.215686%);stop-opacity:1;"/>
<stop offset="1" style="stop-color:rgb(30.196078%,73.333333%,72.941176%);stop-opacity:1;"/>
</linearGradient>
<linearGradient id="linear2" gradientUnits="userSpaceOnUse" x1="1590" y1="1456.8899" x2="1830" y2="1456.8899" gradientTransform="matrix(0.028,0,0,-0.028,0,69.940917)">
<stop offset="0" style="stop-color:rgb(1.960784%,43.921569%,49.411765%);stop-opacity:1;"/>
<stop offset="0.5216" style="stop-color:rgb(16.862745%,57.254902%,59.215686%);stop-opacity:1;"/>
<stop offset="1" style="stop-color:rgb(30.196078%,73.333333%,72.941176%);stop-opacity:1;"/>
</linearGradient>
<linearGradient id="linear3" gradientUnits="userSpaceOnUse" x1="1712" y1="1332.8899" x2="1712" y2="434.8898" gradientTransform="matrix(0.028,0,0,-0.028,0,69.940917)">
<stop offset="0" style="stop-color:rgb(1.960784%,43.921569%,49.411765%);stop-opacity:1;"/>
<stop offset="0.5216" style="stop-color:rgb(16.862745%,57.254902%,59.215686%);stop-opacity:1;"/>
<stop offset="1" style="stop-color:rgb(30.196078%,73.333333%,72.941176%);stop-opacity:1;"/>
</linearGradient>
</defs>
<g id="surface1">
<path style=" stroke:none;fill-rule:evenodd;fill:rgb(0%,0%,0%);fill-opacity:1;" d="M 35 0 C 54.320312 0 70 15.679688 70 35 C 70 54.320312 54.320312 70 35 70 C 15.679688 70 0 54.320312 0 35 C 0 15.679688 15.679688 0 35 0 Z M 35 0 "/>
<path style=" stroke:none;fill-rule:nonzero;fill:url(#linear0);" d="M 44.519531 33.992188 L 26.769531 42.757812 L 44.519531 51.15625 L 44.519531 57.960938 L 18.648438 45.695312 L 18.648438 38.976562 L 36.652344 30.128906 L 18.648438 21.617188 L 18.648438 14.8125 L 44.519531 27.074219 Z M 44.519531 33.992188 "/>
<path style=" stroke:none;fill-rule:nonzero;fill:url(#linear1);" d="M 18.648438 14.8125 L 25.480469 12.039062 L 51.351562 24.304688 L 44.519531 27.074219 Z M 18.648438 14.8125 "/>
<path style=" stroke:none;fill-rule:nonzero;fill:url(#linear2);" d="M 44.519531 33.992188 L 51.351562 31.21875 L 51.351562 24.304688 L 44.519531 27.074219 Z M 44.519531 33.992188 "/>
<path style=" stroke:none;fill-rule:nonzero;fill:url(#linear3);" d="M 44.519531 51.15625 L 44.519531 37.574219 L 51.351562 34.410156 L 51.351562 55.1875 L 44.519531 57.960938 Z M 44.519531 51.15625 "/>
</g>
</svg>
