<svg width="48" height="48" viewBox="0 0 48 48" fill="none" xmlns="http://www.w3.org/2000/svg">
<g id="Group 855146">
<circle id="Ellipse 20" cx="24" cy="24" r="22.5" stroke="#FFDD2E" stroke-width="3"/>
<path id="eew" d="M24.4851 19.7948C24.3971 19.8212 24.3163 19.8683 24.2494 19.9323C22.8963 21.2219 21.6471 22.4084 20.5019 23.4916C20.476 23.5163 20.4555 23.5463 20.4417 23.5796C20.4279 23.613 20.4212 23.6489 20.4219 23.6851C20.4261 23.8255 20.5026 23.9222 20.6513 23.9752C21.68 24.3392 22.6772 24.6974 23.6429 25.0499C23.6759 25.0622 23.7052 25.0828 23.7282 25.1099C23.7512 25.137 23.767 25.1697 23.7741 25.2047C23.7813 25.2398 23.7796 25.2762 23.7692 25.3104C23.7587 25.3446 23.7399 25.3755 23.7145 25.4002C22.468 26.6024 21.2195 27.791 19.9691 28.966C19.9032 29.0275 19.8154 29.0225 19.706 28.951C19.6735 28.9294 19.6491 28.8974 19.6365 28.86C19.6239 28.8226 19.6239 28.782 19.6365 28.7446L20.167 27.139C20.2386 26.9241 20.1699 26.7786 19.9607 26.7027L15.3565 25.0307C15.3186 25.0171 15.2846 24.9937 15.2581 24.9629C15.2315 24.932 15.2132 24.8946 15.205 24.8544C15.1967 24.8142 15.1988 24.7725 15.211 24.7333C15.2231 24.6942 15.245 24.6589 15.2745 24.6309L30.0832 10.5225C30.1515 10.4569 30.2386 10.4155 30.3316 10.4043C30.5352 10.3799 30.6074 10.4602 30.5485 10.645C29.5703 13.7429 28.573 16.9011 27.5569 20.1193C27.4895 20.3314 27.5583 20.474 27.7632 20.547C29.4488 21.1588 31.0461 21.7449 32.5548 22.3052C32.6363 22.3342 32.7084 22.3855 32.7634 22.4535C32.7894 22.486 32.8024 22.5274 32.7997 22.5693C32.7969 22.6112 32.7787 22.6504 32.7486 22.6791C27.5541 27.6686 22.4417 32.59 17.4113 37.4432C17.278 37.5721 17.1496 37.6216 17.026 37.5915C16.9067 37.5628 16.866 37.4898 16.9039 37.3723L18.3418 32.807C18.3987 32.6262 18.5002 32.4633 18.6365 32.3341L27.5483 23.8528C27.5791 23.8232 27.602 23.7862 27.6148 23.7451C27.6276 23.704 27.6299 23.6603 27.6215 23.618C27.6131 23.576 27.5942 23.5369 27.5667 23.5046C27.5391 23.4722 27.5038 23.4478 27.4642 23.4335L24.2978 22.2839C24.2264 22.2581 24.1676 22.2047 24.1342 22.1352C24.1008 22.0657 24.0952 21.9857 24.1188 21.9121L24.7125 20.0357C24.723 20.003 24.7246 19.9681 24.7171 19.9345C24.7096 19.901 24.6932 19.8702 24.6698 19.8454C24.6465 19.8207 24.6169 19.8029 24.5844 19.794C24.5518 19.7851 24.5175 19.7855 24.4851 19.795V19.7948Z" fill="#FFDD2E"/>
</g>
</svg>
