<svg width="80" height="80" viewBox="0 0 80 80" fill="none" xmlns="http://www.w3.org/2000/svg">
<g id="Group 855146">
<circle id="Ellipse 20" cx="40" cy="40" r="38.5" stroke="#FFDD2E" stroke-width="3"/>
<path id="eew" d="M40.8085 32.9914C40.6617 33.0353 40.5271 33.1138 40.4155 33.2206C38.1604 35.3699 36.0785 37.3473 34.1698 39.1527C34.1266 39.1939 34.0923 39.2438 34.0694 39.2994C34.0464 39.355 34.0352 39.4148 34.0364 39.4751C34.0435 39.7092 34.1709 39.8704 34.4187 39.9587C36.1332 40.5653 37.7953 41.1623 39.4047 41.7498C39.4597 41.7703 39.5086 41.8047 39.5469 41.8499C39.5852 41.8951 39.6115 41.9494 39.6235 42.0079C39.6354 42.0664 39.6326 42.127 39.6152 42.184C39.5978 42.241 39.5664 42.2925 39.5241 42.3337C37.4466 44.3374 35.3658 46.3184 33.2818 48.2767C33.1718 48.3792 33.0256 48.3708 32.8432 48.2516C32.7891 48.2156 32.7484 48.1623 32.7274 48.1C32.7064 48.0377 32.7064 47.97 32.7274 47.9077L33.6116 45.2317C33.7309 44.8735 33.6163 44.6311 33.2678 44.5044L25.5941 41.7178C25.5308 41.6952 25.4743 41.6562 25.43 41.6048C25.3858 41.5533 25.3553 41.4911 25.3415 41.424C25.3278 41.357 25.3312 41.2875 25.3515 41.2222C25.3718 41.1569 25.4082 41.0981 25.4573 41.0514L50.1386 17.5375C50.2523 17.4282 50.3975 17.3591 50.5526 17.3405C50.8918 17.2999 51.0123 17.4336 50.9141 17.7416C49.2837 22.9049 47.6216 28.1684 45.9281 33.5322C45.8158 33.8857 45.9304 34.1233 46.2719 34.245C49.0813 35.2647 51.7433 36.2415 54.258 37.1753C54.3937 37.2237 54.5139 37.3092 54.6055 37.4225C54.6489 37.4766 54.6705 37.5456 54.666 37.6155C54.6614 37.6853 54.631 37.7507 54.581 37.7985C45.9234 46.1143 37.4027 54.3166 29.0188 62.4053C28.7966 62.6202 28.5825 62.7026 28.3766 62.6525C28.1778 62.6047 28.1099 62.4829 28.1731 62.2871L30.5696 54.6784C30.6644 54.377 30.8336 54.1056 31.0608 53.8902L45.9138 39.7546C45.9651 39.7054 46.0032 39.6436 46.0245 39.5752C46.0459 39.5067 46.0497 39.4338 46.0357 39.3634C46.0218 39.2934 45.9903 39.2282 45.9443 39.1743C45.8984 39.1204 45.8395 39.0796 45.7735 39.0559L40.4963 37.1399C40.3772 37.0968 40.2793 37.0078 40.2236 36.892C40.1678 36.7762 40.1586 36.6428 40.1979 36.5202L41.1874 33.3929C41.2049 33.3384 41.2075 33.2801 41.195 33.2242C41.1825 33.1683 41.1553 33.117 41.1163 33.0757C41.0773 33.0345 41.0281 33.0049 40.9738 32.99C40.9196 32.9752 40.8624 32.9758 40.8085 32.9917V32.9914Z" fill="#FFDD2E"/>
</g>
</svg>
