<svg width="23" height="23" viewBox="0 0 23 23" fill="none" xmlns="http://www.w3.org/2000/svg">
<path fill-rule="evenodd" clip-rule="evenodd" d="M3.42528 9.45097H16.8329C17.0007 9.45097 17.1545 9.52087 17.2803 9.6467L19.4054 11.8277C19.7969 12.2332 19.5173 12.9182 18.958 12.9182H5.55037C5.3826 12.9182 5.22881 12.8483 5.10299 12.7225L2.97789 10.5415C2.58643 10.136 2.86605 9.45097 3.42528 9.45097ZM2.97789 6.55693L5.10299 4.37591C5.21483 4.25008 5.3826 4.18018 5.55037 4.18018H18.9441C19.5033 4.18018 19.7829 4.86524 19.3914 5.27068L17.2803 7.4517C17.1685 7.57753 17.0007 7.64743 16.8329 7.64743H3.42528C2.86605 7.64743 2.58643 6.96237 2.97789 6.55693ZM19.3914 15.7983L17.2664 17.9793C17.1405 18.1051 16.9867 18.175 16.819 18.175H3.42528C2.86605 18.175 2.58643 17.49 2.97789 17.0845L5.10299 14.9035C5.21483 14.7777 5.3826 14.7078 5.55037 14.7078H18.9441C19.5033 14.7078 19.7829 15.3928 19.3914 15.7983Z" fill="black"/>
</svg>
