<svg width="56" height="56" viewBox="0 0 56 56" fill="none" xmlns="http://www.w3.org/2000/svg">
<path d="M14.8748 2.73535C13.0701 2.73535 11.4513 3.10723 10.3587 3.6541C9.27586 4.20098 8.86023 4.81348 8.86023 5.25098C8.86023 5.67754 9.27586 6.30207 10.3587 6.83691C11.4513 7.38379 13.0701 7.7666 14.8748 7.7666C16.6794 7.7666 18.2982 7.38379 19.381 6.83691C20.4748 6.30207 20.8904 5.67754 20.8904 5.25098C20.8904 4.81348 20.4748 4.20098 19.381 3.6541C18.2982 3.10723 16.6795 2.73535 14.8748 2.73535ZM32.3748 6.23535C30.5701 6.23535 28.9513 6.60723 27.8685 7.1541C26.7748 7.70098 26.3591 8.31348 26.3591 8.75098C26.3591 9.17754 26.7748 9.80207 27.8685 10.3369C28.9513 10.8838 30.5701 11.2655 32.3748 11.2655C32.8779 11.2655 33.3591 11.2327 33.8185 11.178C34.2888 10.5775 34.956 10.0449 35.7326 9.69051C36.6295 9.28582 37.6685 8.9577 38.3904 8.75098C38.3904 8.31348 37.9748 7.70098 36.881 7.1541C35.7982 6.60723 34.1795 6.23535 32.3748 6.23535ZM8.86023 8.24676C8.81648 9.8502 10.5534 10.5043 11.6482 10.828C13.606 11.3968 16.1435 11.3968 18.1013 10.828C19.5013 10.4277 20.8794 9.65551 20.8904 8.24676C19.1294 9.40941 16.5591 9.72223 14.8748 9.73426C12.7419 9.55598 10.502 9.33504 8.86023 8.24676ZM41.1248 10.5338C39.3201 10.5338 37.7013 10.9057 36.6185 11.4624C35.5248 11.9983 35.1091 12.6218 35.1091 13.0483C35.1091 13.4858 35.5248 14.0983 36.6185 14.6452C37.7013 15.1921 39.3201 15.5639 41.1248 15.5639C42.9295 15.5639 44.5482 15.1921 45.631 14.6452C46.7248 14.0983 47.1404 13.4858 47.1404 13.0483C47.1404 12.6218 46.7248 11.9983 45.631 11.4624C44.5482 10.9057 42.9295 10.5338 41.1248 10.5338ZM26.3591 11.7468L26.3591 12.0093C26.6763 12.1186 26.9826 12.2499 27.267 12.3921C28.2513 12.8843 29.1045 13.5733 29.542 14.4374C30.6576 14.7108 31.9154 14.8093 33.1404 14.7327L33.1404 13.2124C32.8888 13.2233 32.6373 13.2343 32.3748 13.2343C30.3076 13.2343 28.4263 12.8296 26.9826 12.1077C26.7638 11.9983 26.556 11.878 26.3591 11.7468ZM8.86023 11.7577C8.82304 13.3546 10.5577 14.0108 11.6482 14.3389C12.392 14.5468 13.2232 14.6889 14.0763 14.7327C14.2951 14.1639 14.6888 13.6608 15.1919 13.2343C13.7919 13.2671 12.381 13.0921 11.1013 12.7311C10.2493 12.4796 9.49461 12.1624 8.86023 11.7577ZM21.8748 13.2343C20.0701 13.2343 18.4513 13.6171 17.3685 14.153C16.2748 14.6999 15.8591 15.3124 15.8591 15.7499C15.8591 16.1874 16.2748 16.7999 17.3685 17.3468C18.4513 17.8936 20.0701 18.2655 21.8748 18.2655C23.6795 18.2655 25.2982 17.8936 26.381 17.3468C27.4748 16.7999 27.8904 16.1874 27.8904 15.7499C27.8904 15.3124 27.4748 14.6999 26.381 14.153C25.2982 13.6171 23.6795 13.2343 21.8748 13.2343ZM8.86023 15.2577C8.82304 16.8546 10.5577 17.5108 11.6482 17.8389C12.3373 18.0358 13.1029 18.1671 13.8904 18.2218L13.8904 16.7124C12.9279 16.6468 11.9873 16.4827 11.1013 16.2311C10.2493 15.9796 9.49461 15.6624 8.86023 15.2577ZM35.1091 16.0561C35.0873 17.6639 36.7935 18.3093 37.8982 18.6374C39.856 19.2061 42.3935 19.2061 44.3513 18.6374C45.7404 18.2327 47.1295 17.4671 47.1404 16.0561C46.9435 16.1764 46.7357 16.2968 46.517 16.4061C45.0732 17.128 43.192 17.5327 41.1248 17.5327C39.0576 17.5327 37.1763 17.128 35.7326 16.4061C35.5138 16.2968 35.306 16.1764 35.1091 16.0561ZM29.8591 16.5155L29.8591 18.0139C30.8873 18.2218 32.0357 18.2983 33.1404 18.2327L33.1404 16.7233C32.0357 16.778 30.9201 16.7124 29.8591 16.5155ZM15.8591 18.7468C15.8044 19.403 16.0998 19.9389 16.4607 20.2561C16.9201 20.6499 17.6638 21.0546 18.6482 21.3389C20.606 21.8968 23.1435 21.8968 25.1013 21.3389C26.0857 21.0546 26.8295 20.6499 27.2888 20.2561C27.8248 19.8077 27.8904 19.3702 27.8904 18.7468C27.6935 18.878 27.4857 18.9983 27.267 19.1077C25.8232 19.8296 23.9419 20.2343 21.8748 20.2343C19.8076 20.2343 17.9263 19.8296 16.4826 19.1077C16.2638 18.9983 16.056 18.878 15.8591 18.7468ZM8.86023 18.7577C8.82304 20.3546 10.5577 21.0108 11.6482 21.3389C12.3373 21.5358 13.1029 21.6671 13.8904 21.7218L13.8904 20.2124C12.9279 20.1468 11.9873 19.9827 11.1013 19.7311C10.2493 19.4796 9.49461 19.1624 8.86023 18.7577ZM35.1091 19.5561C35.0873 21.1639 36.7935 21.8093 37.8982 22.1374C39.856 22.7061 42.3935 22.7061 44.3513 22.1374C45.7404 21.7327 47.1295 20.9671 47.1404 19.5561C46.506 19.9608 45.7513 20.278 44.8982 20.5296C42.5248 21.2186 39.7248 21.2186 37.3513 20.5296C36.4982 20.278 35.7435 19.9608 35.1091 19.5561ZM29.8591 20.0155L29.8591 21.5139C30.8873 21.7218 32.0357 21.7983 33.1404 21.7327L33.1404 20.2233C32.0357 20.278 30.9201 20.2124 29.8591 20.0155ZM8.86023 22.2577C8.82304 23.8546 10.5577 24.5108 11.6482 24.8389C12.3373 25.0358 13.1029 25.1671 13.8904 25.2218L13.8904 23.7124C12.9279 23.6468 11.9873 23.4827 11.1013 23.2311C10.2493 22.9796 9.49461 22.6624 8.86023 22.2577ZM15.8591 22.2577C15.8044 22.9139 16.0998 23.4389 16.4607 23.7561C16.9201 24.1499 17.6638 24.5546 18.6482 24.8389C20.606 25.3968 23.1435 25.3968 25.1013 24.8389C26.0857 24.5546 26.8295 24.1499 27.2888 23.7561C27.8248 23.3077 27.8904 22.8811 27.8904 22.2577C27.256 22.6624 26.5013 22.9796 25.6482 23.2311C23.2748 23.9093 20.4748 23.9093 18.1013 23.2311C17.2482 22.9796 16.4935 22.6624 15.8591 22.2577ZM35.1091 23.0561C35.0873 24.6639 36.7935 25.3093 37.8982 25.6374C39.856 26.2061 42.3935 26.2061 44.3513 25.6374C45.7404 25.2327 47.1295 24.4671 47.1404 23.0561C46.506 23.4608 45.7513 23.778 44.8982 24.0296C42.5248 24.7186 39.7248 24.7186 37.3513 24.0296C36.4982 23.778 35.7435 23.4608 35.1091 23.0561ZM29.8591 23.5155L29.8591 25.0139C30.8873 25.2218 32.0357 25.2983 33.1404 25.2327L33.1404 23.7233C32.0357 23.778 30.9201 23.7124 29.8591 23.5155ZM15.8591 25.7577L15.8591 26.0093C16.1763 26.1186 16.4826 26.2499 16.767 26.3921C17.7513 26.8843 18.6045 27.5733 19.042 28.4374C20.9341 28.8968 23.2748 28.8639 25.1013 28.3389C26.0857 28.0546 26.8295 27.6499 27.2888 27.2561C27.8248 26.8077 27.8904 26.3811 27.8904 25.7577C27.256 26.1624 26.5013 26.4796 25.6482 26.7311C23.2748 27.4093 20.4748 27.4093 18.1013 26.7311C17.2482 26.4796 16.4935 26.1624 15.8591 25.7577ZM35.1091 26.5561C35.0873 28.1639 36.7935 28.8093 37.8982 29.1374C39.856 29.7061 42.3935 29.7061 44.3513 29.1374C45.7404 28.7327 47.1295 27.9671 47.1404 26.5561C46.506 26.9608 45.7513 27.278 44.8982 27.5296C42.5248 28.2186 39.7248 28.2186 37.3513 27.5296C36.4982 27.278 35.7435 26.9608 35.1091 26.5561ZM29.8591 27.0155L29.8591 28.5139C30.8873 28.7218 32.0357 28.7983 33.1404 28.7327L33.1404 27.2233C32.0357 27.278 30.9201 27.2124 29.8591 27.0155ZM11.3748 27.2343C9.57117 27.2343 7.95242 27.6171 6.85867 28.153C5.77586 28.6999 5.36023 29.3124 5.36023 29.7499C5.36023 30.1874 5.77586 30.7999 6.85867 31.3468C7.95242 31.8936 9.57117 32.2655 11.3748 32.2655C13.1794 32.2655 14.7982 31.8936 15.881 31.3468C16.9748 30.7999 17.3904 30.1874 17.3904 29.7499C17.3904 29.3124 16.9748 28.6999 15.881 28.153C14.7982 27.6171 13.1794 27.2343 11.3748 27.2343ZM27.8904 29.2577C27.256 29.6624 26.5013 29.9796 25.6482 30.2311C23.6795 30.7889 21.4263 30.8874 19.3591 30.5155L19.3591 32.0139C21.1966 32.3968 23.3732 32.3311 25.1013 31.8389C26.4794 31.4343 27.8794 30.6577 27.8904 29.2577ZM35.1091 30.0561C35.0763 31.6093 36.717 32.2764 37.7998 32.6046C38.4123 32.1124 38.9701 31.7405 39.6263 31.4671C38.8388 31.3796 38.0732 31.2374 37.3513 31.0296C36.4982 30.778 35.7435 30.4608 35.1091 30.0561ZM47.1404 30.0561C46.8341 30.253 46.4951 30.428 46.1232 30.5921C46.4623 30.6249 46.8013 30.6686 47.1185 30.7233C47.1623 30.5046 47.1404 30.2858 47.1404 30.0561ZM29.8591 30.5155L29.8591 32.003C31.0513 32.2327 32.0466 32.2874 33.1404 32.2436L33.1404 30.7233C32.0357 30.778 30.9201 30.7124 29.8591 30.5155ZM44.6248 32.4843C42.8201 32.4843 41.2013 32.8671 40.1185 33.403C39.0248 33.9499 38.6091 34.5624 38.6091 34.9999C38.6091 35.4374 39.0248 36.0499 40.1185 36.5968C41.2013 37.1436 42.8201 37.5155 44.6248 37.5155C46.4295 37.5155 48.0482 37.1436 49.131 36.5968C50.2248 36.0499 50.6404 35.4374 50.6404 34.9999C50.6404 34.5624 50.2248 33.9499 49.131 33.403C48.0482 32.8671 46.4295 32.4843 44.6248 32.4843ZM5.36023 32.7468C5.32851 34.3655 7.03476 35.0108 8.14929 35.3389C10.1071 35.8968 12.6435 35.8968 14.6013 35.3389C15.9904 34.9343 17.3794 34.1577 17.3904 32.7468C17.1935 32.878 16.9857 32.9983 16.767 33.1077C15.3232 33.8296 13.4419 34.2343 11.3748 34.2343C9.22992 34.0593 7.01289 33.8405 5.36023 32.7468ZM27.8904 32.7577C27.256 33.1624 26.5013 33.4796 25.6482 33.7311C23.6795 34.2889 21.4263 34.3874 19.3591 34.0155L19.3591 35.5139C21.1966 35.8968 23.3732 35.8311 25.1013 35.3389C26.4794 34.9343 27.8794 34.1577 27.8904 32.7577ZM35.1091 33.5561C35.0654 34.6827 35.9841 35.3171 36.6185 35.6452C36.6185 35.6452 36.6295 35.6561 36.6404 35.6561L36.6404 34.2999C36.0716 34.0921 35.5576 33.8405 35.1091 33.5561ZM5.36023 36.2577C5.32304 37.8546 7.05773 38.5108 8.14929 38.8389C10.1071 39.3968 12.6435 39.3968 14.6013 38.8389C15.9794 38.4343 17.3794 37.6577 17.3904 36.2577C16.756 36.6624 16.0013 36.9796 15.1482 37.2311C12.7748 37.9093 9.97586 37.9093 7.60242 37.2311C6.74929 36.9796 5.99461 36.6624 5.36023 36.2577ZM19.3591 37.5155L19.3591 39.003C19.8951 39.1233 20.4748 39.1999 21.0763 39.2436C21.2951 38.6639 21.6888 38.1608 22.1919 37.7343C21.2404 37.7561 20.2779 37.6796 19.3591 37.5155ZM28.8748 37.7343C27.0701 37.7343 25.4513 38.1171 24.3685 38.653C23.2748 39.1999 22.8591 39.8124 22.8591 40.2499C22.8591 40.6874 23.2748 41.2999 24.3685 41.8468C25.4513 42.3936 27.0701 42.7655 28.8748 42.7655C30.6795 42.7655 32.2982 42.3936 33.381 41.8468C34.4748 41.2999 34.8904 40.6874 34.8904 40.2499C34.8904 39.8124 34.4748 39.1999 33.381 38.653C32.2982 38.1171 30.6795 37.7343 28.8748 37.7343ZM38.6091 37.9968C38.5982 39.6155 40.2716 40.2608 41.3982 40.5889C43.356 41.1468 45.8935 41.1468 47.8513 40.5889C49.2404 40.1843 50.6295 39.4077 50.6404 37.9968C48.9123 39.0468 46.2982 39.4733 44.6248 39.4843C42.481 39.3093 40.2607 39.0905 38.6091 37.9968ZM5.36023 39.7577C5.32304 41.3546 7.05773 42.0108 8.14929 42.3389C10.1071 42.8968 12.6435 42.8968 14.6013 42.3389C15.9794 41.9343 17.3794 41.1577 17.3904 39.7577C16.756 40.1624 16.0013 40.4796 15.1482 40.7311C12.7748 41.4093 9.97586 41.4093 7.60242 40.7311C6.74929 40.4796 5.99461 40.1624 5.36023 39.7577ZM38.6091 41.5077C38.5873 43.1155 40.2935 43.7608 41.3982 44.0889C43.356 44.6468 45.8935 44.6468 47.8513 44.0889C49.2294 43.6843 50.6295 42.9077 50.6404 41.5077C50.006 41.9124 49.2513 42.2296 48.3982 42.4811C46.0248 43.1593 43.2248 43.1593 40.8513 42.4811C39.9982 42.2296 39.2435 41.9124 38.6091 41.5077ZM22.8591 43.2468C22.8045 43.903 23.0998 44.4389 23.4607 44.7561C23.9201 45.1499 24.6638 45.5546 25.6482 45.8389C27.606 46.3968 30.1435 46.3968 32.1013 45.8389C33.0857 45.5546 33.8295 45.1499 34.2888 44.7561C34.7482 44.3624 34.8904 44.0233 34.8904 43.7499L34.8904 43.2468C34.6935 43.378 34.4857 43.4983 34.267 43.6077C32.8232 44.3296 30.9419 44.7343 28.8748 44.7343C26.8076 44.7343 24.9263 44.3296 23.4826 43.6077C23.2638 43.4983 23.056 43.378 22.8591 43.2468ZM5.36023 43.2577C5.32304 44.8546 7.05773 45.5108 8.14929 45.8389C10.1071 46.3968 12.6435 46.3968 14.6013 45.8389C15.9794 45.4343 17.3794 44.6577 17.3904 43.2577C16.756 43.6624 16.0013 43.9796 15.1482 44.2311C12.7748 44.9093 9.97586 44.9093 7.60242 44.2311C6.74929 43.9796 5.99461 43.6624 5.36023 43.2577ZM38.6091 45.0077C38.5873 46.6155 40.2935 47.2608 41.3982 47.5889C43.356 48.1468 45.8935 48.1468 47.8513 47.5889C49.2294 47.1843 50.6295 46.4077 50.6404 45.0077C50.006 45.4124 49.2513 45.7296 48.3982 45.9811C46.0248 46.6593 43.2248 46.6593 40.8513 45.9811C39.9982 45.7296 39.2435 45.4124 38.6091 45.0077ZM5.36023 46.7577C5.32304 48.3546 7.05773 49.0108 8.14929 49.3389C10.1071 49.8968 12.6435 49.8968 14.6013 49.3389C15.9794 48.9343 17.3794 48.1577 17.3904 46.7577C16.756 47.1624 16.0013 47.4796 15.1482 47.7311C12.7748 48.4093 9.97586 48.4093 7.60242 47.7311C6.74929 47.4796 5.99461 47.1624 5.36023 46.7577ZM22.8591 46.7577C22.8154 47.8843 23.7341 48.5186 24.3685 48.8468C25.4513 49.3936 27.0701 49.7655 28.8748 49.7655C30.6795 49.7655 32.2982 49.3936 33.381 48.8468C34.4638 48.1686 34.8904 47.9061 34.8904 46.7577C34.256 47.1624 33.5013 47.4796 32.6482 47.7311C30.2748 48.4093 27.4748 48.4093 25.1013 47.7311C24.2482 47.4796 23.4935 47.1624 22.8591 46.7577ZM38.6091 48.5077C38.5654 49.6343 39.4841 50.2686 40.1185 50.5968C41.2013 51.1436 42.8201 51.5155 44.6248 51.5155C46.4295 51.5155 48.0482 51.1436 49.131 50.5968C50.2138 49.9186 50.6404 49.6561 50.6404 48.5077C50.006 48.9124 49.2513 49.2296 48.3982 49.4811C46.0248 50.1593 43.2248 50.1593 40.8513 49.4811C39.9982 49.2296 39.2435 48.9124 38.6091 48.5077ZM5.36023 50.2577C5.31211 51.3733 6.22211 52.0186 6.85867 52.3468C7.95242 52.8936 9.57117 53.2655 11.3748 53.2655C13.1794 53.2655 14.7982 52.8936 15.881 52.3468C16.9638 51.6686 17.3904 51.4061 17.3904 50.2577C16.756 50.6624 16.0013 50.9796 15.1482 51.2311C12.7748 51.9093 9.97586 51.9093 7.60242 51.2311C6.74929 50.9796 5.99461 50.6624 5.36023 50.2577Z" fill="#FFDD2E"/>
</svg>
