<svg width="36" height="36" viewBox="0 0 36 36" fill="none" xmlns="http://www.w3.org/2000/svg">
<g id="logos:bitcoin" clip-path="url(#clip0_2448_159)">
<path id="Vector" d="M35.4615 22.3529C33.0566 32.0009 23.2816 37.8658 13.6474 35.4607C3.99907 33.0557 -1.86583 23.2812 0.539278 13.6471C2.94425 3.99908 12.705 -1.86583 22.3533 0.539279C31.9875 2.93019 37.8666 12.7047 35.4615 22.3529Z" fill="url(#paint0_linear_2448_159)"/>
<path id="Vector_2" d="M26.5706 15.757C26.9222 13.3664 25.1081 12.0726 22.605 11.2148L23.4206 7.96636L21.4519 7.47417L20.6644 10.6382C20.144 10.5117 19.6097 10.3851 19.0753 10.2726L19.8628 7.09448L17.894 6.60229L17.0925 9.83667C16.6565 9.73823 16.2347 9.63979 15.8269 9.54136V9.52729L13.0987 8.85229L12.5784 10.9617C12.5784 10.9617 14.0409 11.2992 14.0128 11.3132C14.8144 11.5101 14.955 12.0445 14.9269 12.4664L13.9987 16.1648C14.055 16.1789 14.1253 16.1929 14.2097 16.2351C14.1394 16.221 14.069 16.207 13.9987 16.1789L12.705 21.3539C12.6065 21.5929 12.3534 21.9585 11.805 21.8179C11.819 21.846 10.3706 21.4664 10.3706 21.4664L9.38623 23.7304L11.9597 24.3773C12.4378 24.5039 12.9019 24.6164 13.3659 24.7429L12.5503 28.0195L14.519 28.5117L15.3347 25.2632C15.869 25.4039 16.4034 25.5445 16.9097 25.671L16.1081 28.9054L18.0769 29.3976L18.8925 26.121C22.2675 26.7539 24.7987 26.5007 25.8534 23.4492C26.7112 21.0023 25.8112 19.582 24.0394 18.6539C25.3472 18.3585 26.3175 17.5007 26.5706 15.757ZM22.0565 22.0851C21.4519 24.532 17.3175 23.2101 15.9815 22.8726L17.0644 18.5273C18.4003 18.8648 22.7034 19.5257 22.0565 22.0851ZM22.6753 15.7148C22.1128 17.9507 18.6815 16.8117 17.5706 16.5304L18.555 12.5929C19.6659 12.8742 23.2519 13.3945 22.6753 15.7148Z" fill="white"/>
</g>
<defs>
<linearGradient id="paint0_linear_2448_159" x1="1799.03" y1="-0.863999" x2="1799.03" y2="3599.64" gradientUnits="userSpaceOnUse">
<stop stop-color="#F9AA4B"/>
<stop offset="1" stop-color="#F7931A"/>
</linearGradient>
<clipPath id="clip0_2448_159">
<rect width="36" height="36" fill="white"/>
</clipPath>
</defs>
</svg>
