<svg width="189" height="189" viewBox="0 0 189 189" fill="none" xmlns="http://www.w3.org/2000/svg">
<circle cx="94.5" cy="94.5" r="64" stroke="#FFDD2E" stroke-opacity="0.6"/>
<circle cx="94.5" cy="94.5" r="78" stroke="#FFDD2E" stroke-opacity="0.2"/>
<circle cx="94.5" cy="94.5" r="94" stroke="#FFDD2E" stroke-opacity="0.1"/>
<g clip-path="url(#clip0_2643_2)">
<path d="M77.9596 103.628C78.412 104.286 78.8164 104.87 79.2208 105.46C80.3985 107.194 81.5735 108.929 82.7455 110.667C83.7737 112.197 84.7812 113.739 85.8128 115.264C86.8066 116.735 87.869 118.16 88.8029 119.667C89.185 120.28 89.6203 120.366 90.244 120.364C99.4823 120.351 108.72 120.351 117.957 120.364C119.8 120.373 121.632 120.084 123.382 119.507C125.082 118.942 126.581 117.989 128 116.887C129.159 115.98 130.162 114.89 130.972 113.661C131.804 112.418 132.502 111.09 132.856 109.639C133.139 108.493 133.42 107.329 133.511 106.157C133.59 105.129 133.444 104.065 133.331 103.025C133.096 100.871 132.272 98.9121 131.126 97.1026C130.387 95.8932 129.438 94.8255 128.324 93.9497C127.742 93.5041 127.142 93.0775 126.571 92.6165C126.465 92.5308 126.372 92.2567 126.429 92.1676C127.428 90.586 127.945 88.8279 128.262 87.0166C128.545 85.5042 128.518 83.9502 128.184 82.4483C127.918 81.2463 127.582 80.0608 127.178 78.8979C126.587 77.258 125.588 75.8546 124.436 74.5557C123.106 73.0667 121.485 71.9597 119.722 71.1046C118.584 70.5869 117.386 70.215 116.155 69.9977C115.007 69.7908 113.843 69.6915 112.678 69.7013C109.024 69.667 105.369 69.6927 101.711 69.7013H101.06C106.214 62.1342 111.307 54.6529 116.449 47.1133C117.788 47.8175 119.162 48.4841 120.488 49.2501C121.688 49.9355 122.873 50.6655 124.001 51.4674C125.349 52.4287 126.643 53.4705 127.942 54.5089C130.194 56.3202 132.188 58.3987 134.111 60.5509C134.81 61.3374 135.434 62.1925 136.061 63.039C136.818 64.0671 137.593 65.0815 138.27 66.1594C139.203 67.645 140.113 69.1512 140.92 70.7071C141.753 72.311 142.492 73.9628 143.196 75.6353C143.701 76.8008 144.124 77.9997 144.464 79.2234C145.064 81.4596 145.631 83.7112 146.071 85.9834C146.374 87.6405 146.571 89.3152 146.663 90.9972C146.788 92.937 146.87 94.887 146.803 96.8233C146.736 98.7596 146.503 100.728 146.274 102.672C146.121 103.965 145.898 105.256 145.621 106.529C145.116 108.947 144.391 111.313 143.455 113.599C142.715 115.364 142.022 117.156 141.171 118.868C140.394 120.387 139.536 121.864 138.6 123.291C137.663 124.756 136.676 126.204 135.624 127.575C133.911 129.85 131.973 131.945 129.837 133.829C128.324 135.154 126.78 136.452 125.168 137.652C123.692 138.747 122.13 139.73 120.564 140.697C118.288 142.102 115.851 143.206 113.367 144.191C111.64 144.859 109.881 145.439 108.096 145.928C106.498 146.385 104.877 146.757 103.24 147.044C101.58 147.332 99.9074 147.534 98.2274 147.65C96.3425 147.782 94.4439 147.854 92.5539 147.81C90.5936 147.792 88.6366 147.647 86.6953 147.375C84.2371 147.002 81.8027 146.487 79.4041 145.832C77.3719 145.267 75.4013 144.444 73.4427 143.643C71.9005 143.009 70.384 142.272 68.9052 141.502C67.6374 140.84 66.4085 140.105 65.2245 139.302C63.5795 138.176 61.9808 136.984 60.3975 135.772C59.5407 135.119 58.7679 134.365 57.9574 133.658C57.714 133.443 57.6798 133.248 57.8871 132.952C58.9495 131.427 59.9759 129.879 61.028 128.349C61.9345 127.03 62.8667 125.726 63.7697 124.408C64.9109 122.749 66.0333 121.079 67.1711 119.418C68.4426 117.561 69.7277 115.71 70.9957 113.851C71.7377 112.763 72.4471 111.654 73.1874 110.566C74.1778 109.111 75.1854 107.67 76.1792 106.219C76.671 105.501 77.1525 104.774 77.6392 104.053C77.7248 103.928 77.8105 103.816 77.9596 103.628Z" fill="#FFDD2E"/>
<path d="M55.1659 69.8366L72.1626 95.0258L51.1203 125.87C50.7244 125.318 50.3389 124.841 50.0099 124.317C49.2799 123.162 48.5362 122.011 47.8765 120.815C47.1911 119.562 46.5297 118.28 45.9556 116.969C45.1925 115.228 44.4848 113.465 43.8325 111.678C43.4184 110.515 43.075 109.328 42.8044 108.124C42.4017 106.387 42.059 104.634 41.7317 102.879C41.5878 102.103 41.533 101.309 41.4541 100.521C41.2022 97.9696 40.9898 95.4113 41.1114 92.8461C41.1954 91.1823 41.3479 89.5167 41.5827 87.8666C41.8191 86.1873 42.1601 84.52 42.5165 82.8596C43.0085 80.5468 43.7212 78.2866 44.6448 76.1099C45.5015 74.0828 46.3497 72.0368 47.359 70.0817C48.5493 67.7712 49.9562 65.5789 51.5606 63.5342C52.3266 62.5575 53.0309 61.5276 53.8345 60.5818C54.6022 59.6787 55.4452 58.8357 56.2883 57.9994C57.3164 56.985 58.3446 55.9809 59.419 55.0196C60.1939 54.3294 61.0044 53.6803 61.8471 53.0747C63.2693 52.0466 64.6915 51.0185 66.1755 50.0829C67.5052 49.2484 68.8949 48.5047 70.2983 47.8004C71.6554 47.115 73.0502 46.505 74.4536 45.9155C75.555 45.4377 76.6846 45.028 77.8362 44.6886C79.9832 44.0889 82.1423 43.52 84.3237 43.0659C85.8658 42.7437 87.4594 42.6666 89.0205 42.4199C91.0498 42.0994 93.1085 42.0068 95.1584 42.144C97.6944 42.3154 100.227 42.5981 102.749 42.9202C104.173 43.1019 105.577 43.4566 107.124 43.7582L77.9938 86.4426L76.7823 84.6537C75.7645 83.1595 74.7472 81.6652 73.7305 80.171C72.896 78.939 72.0752 77.6967 71.2424 76.4646C70.2246 74.9567 69.1965 73.4573 68.1786 71.9494C67.7948 71.3782 67.4218 70.8071 67.0597 70.2359C66.8369 69.8795 66.5884 69.6824 66.1155 69.6875C62.7038 69.7115 59.2904 69.7013 55.8788 69.7013H55.2653L55.1659 69.8366Z" fill="#FFDD2E"/>
<path d="M83.7686 95.0446C84.992 93.2522 86.1846 91.5027 87.3807 89.7532C88.5768 88.0036 89.7574 86.2986 90.9397 84.5645C91.9405 83.096 92.9549 81.6361 93.9162 80.1402C94.2589 79.5918 94.6153 79.3279 95.3247 79.3331C101.406 79.3708 107.491 79.3536 113.572 79.3622C115.219 79.3622 116.518 80.0648 117.567 81.3414C118.027 81.8761 118.374 82.499 118.586 83.1722C118.798 83.8454 118.87 84.5547 118.799 85.2568C118.612 87.1931 117.628 88.6514 115.886 89.5784C114.997 90.032 114.009 90.2559 113.012 90.2295C106.223 90.2295 99.4338 90.2295 92.6447 90.2295C92.4531 90.2114 92.2604 90.2505 92.0911 90.3421C91.9218 90.4336 91.7835 90.5733 91.6937 90.7436C90.8695 92.0322 89.9665 93.2728 89.0806 94.5134C88.9527 94.6615 88.8824 94.8506 88.8824 95.0463C88.8824 95.242 88.9527 95.4311 89.0806 95.5792C89.9956 96.8918 90.8712 98.2301 91.8051 99.5289C91.937 99.7123 92.3037 99.8048 92.5608 99.8065C96.2312 99.8254 99.9016 99.8202 103.572 99.8202C108.466 99.8202 113.36 99.8322 118.252 99.8202C119.883 99.8202 121.287 100.334 122.421 101.5C124.265 103.4 124.443 106.469 122.834 108.525C121.679 110 120.151 110.698 118.29 110.7C110.468 110.7 102.643 110.7 94.8141 110.7C94.68 110.715 94.5443 110.691 94.4239 110.63C94.3035 110.569 94.2038 110.474 94.1372 110.357C93.2685 109.031 92.3603 107.732 91.4744 106.416C89.9219 104.106 88.39 101.789 86.8238 99.4792C85.8265 98.0056 84.8001 96.5422 83.7686 95.0446Z" fill="#FFDD2E"/>
</g>
<defs>
<clipPath id="clip0_2643_2">
<rect width="106" height="106" fill="white" transform="translate(41 42)"/>
</clipPath>
</defs>
</svg>
