<svg width="189" height="189" viewBox="0 0 189 189" fill="none" xmlns="http://www.w3.org/2000/svg">
<circle cx="94.5" cy="94.5" r="64" stroke="#FFDD2E" stroke-opacity="0.6"/>
<circle cx="94.5" cy="94.5" r="78" stroke="#FFDD2E" stroke-opacity="0.2"/>
<circle cx="94.5" cy="94.5" r="94" stroke="#FFDD2E" stroke-opacity="0.1"/>
<path d="M95.8506 83.5593C95.6055 83.6311 95.3807 83.7593 95.1942 83.9335C91.4271 87.442 87.9494 90.6698 84.761 93.6169C84.6888 93.684 84.6317 93.7656 84.5933 93.8563C84.5549 93.947 84.5362 94.0448 84.5383 94.1432C84.55 94.5252 84.7629 94.7883 85.1769 94.9326C88.0409 95.9227 90.8172 96.8973 93.5058 97.8563C93.5976 97.8897 93.6793 97.9459 93.7432 98.0196C93.8072 98.0933 93.8512 98.1821 93.8712 98.2775C93.8911 98.3729 93.8863 98.4719 93.8573 98.5649C93.8282 98.658 93.7759 98.7421 93.7051 98.8094C90.2347 102.08 86.7589 105.314 83.2777 108.51C83.094 108.678 82.8498 108.664 82.5451 108.469C82.4547 108.411 82.3866 108.324 82.3515 108.222C82.3165 108.12 82.3165 108.01 82.3515 107.908L83.8286 103.54C84.028 102.955 83.8365 102.559 83.2543 102.353L70.4358 97.8039C70.33 97.767 70.2356 97.7035 70.1617 97.6195C70.0878 97.5355 70.0368 97.4339 70.0138 97.3244C69.9909 97.215 69.9966 97.1016 70.0305 96.995C70.0643 96.8885 70.1252 96.7924 70.2073 96.7163L111.436 58.3332C111.626 58.1548 111.869 58.042 112.128 58.0116C112.694 57.9453 112.896 58.1636 112.732 58.6664C110.008 67.0947 107.232 75.6866 104.403 84.4422C104.215 85.0192 104.407 85.407 104.977 85.6058C109.67 87.2703 114.117 88.8647 118.317 90.389C118.544 90.4681 118.745 90.6076 118.898 90.7925C118.971 90.8809 119.007 90.9935 118.999 91.1075C118.991 91.2215 118.941 91.3283 118.857 91.4064C104.395 104.981 90.1614 118.37 76.1565 131.573C75.7853 131.924 75.4278 132.059 75.0839 131.977C74.7516 131.899 74.6383 131.7 74.7438 131.38L78.7471 118.96C78.9055 118.468 79.188 118.025 79.5676 117.674L104.379 94.5994C104.465 94.5191 104.528 94.4182 104.564 94.3064C104.599 94.1947 104.606 94.0757 104.582 93.9607C104.559 93.8464 104.507 93.7401 104.43 93.6521C104.353 93.5641 104.255 93.4975 104.145 93.4588L95.3291 90.3312C95.1301 90.2608 94.9667 90.1156 94.8736 89.9266C94.7805 89.7376 94.7651 89.5198 94.8308 89.3196L96.4836 84.2148C96.5129 84.1259 96.5173 84.0307 96.4964 83.9395C96.4754 83.8483 96.43 83.7645 96.3649 83.6971C96.2998 83.6297 96.2175 83.5814 96.1269 83.5572C96.0362 83.533 95.9407 83.534 95.8506 83.5599V83.5593Z" fill="#FFDD2E"/>
</svg>
