<svg width="60" height="92" viewBox="0 0 60 92" fill="none" xmlns="http://www.w3.org/2000/svg">
<path d="M31.6538 31.7765C31.3537 31.8657 31.0784 32.0251 30.8501 32.2416C26.2373 36.6036 21.9788 40.6165 18.0747 44.2805C17.9863 44.3639 17.9163 44.4654 17.8693 44.5781C17.8223 44.6909 17.7994 44.8124 17.802 44.9348C17.8163 45.4097 18.077 45.7368 18.5839 45.9162C22.0909 47.1472 25.4905 48.3588 28.7826 49.551C28.895 49.5926 28.9951 49.6625 29.0734 49.7541C29.1517 49.8458 29.2056 49.9561 29.23 50.0748C29.2544 50.1934 29.2486 50.3164 29.213 50.4321C29.1774 50.5478 29.1133 50.6524 29.0267 50.736C24.7772 54.8022 20.5211 58.8225 16.2584 62.7967C16.0335 63.0047 15.7344 62.9877 15.3613 62.7458C15.2507 62.6728 15.1673 62.5645 15.1243 62.4381C15.0814 62.3116 15.0814 62.1743 15.1243 62.0478L16.933 56.6172C17.1771 55.8902 16.9427 55.3983 16.2297 55.1413L0.533623 49.486C0.404111 49.4401 0.288493 49.3611 0.197972 49.2567C0.107452 49.1522 0.0450958 49.0259 0.0169463 48.8898C-0.0112033 48.7538 -0.00419234 48.6127 0.0372997 48.4803C0.0787918 48.3478 0.153358 48.2284 0.253776 48.1337L50.7382 0.414266C50.9708 0.192404 51.2678 0.0522119 51.5851 0.0143959C52.2789 -0.0680103 52.5253 0.20337 52.3244 0.828538C48.9895 11.3069 45.5899 21.9888 42.1257 32.8741C41.896 33.5914 42.1305 34.0736 42.829 34.3207C48.5756 36.3901 54.0206 38.3723 59.1642 40.2674C59.4419 40.3658 59.6877 40.5392 59.8751 40.769C59.9639 40.8789 60.0081 41.019 59.9988 41.1607C59.9894 41.3024 59.9273 41.4352 59.8248 41.5323C42.1162 58.4084 24.6874 75.0542 7.53858 91.4695C7.0841 91.9057 6.64628 92.0729 6.22512 91.9711C5.81835 91.8742 5.67957 91.627 5.80879 91.2297L10.7107 75.7884C10.9046 75.1767 11.2506 74.6259 11.7154 74.1889L42.0966 45.5019C42.2015 45.4021 42.2795 45.2767 42.3231 45.1377C42.3667 44.9988 42.3746 44.8508 42.3459 44.7079C42.3174 44.5658 42.253 44.4336 42.159 44.3242C42.065 44.2149 41.9447 44.1321 41.8096 44.0839L31.0152 40.1956C30.7716 40.1081 30.5714 39.9275 30.4574 39.6925C30.3434 39.4576 30.3246 39.1867 30.4051 38.9379L32.4289 32.5913C32.4648 32.4808 32.4701 32.3625 32.4445 32.2491C32.4189 32.1357 32.3632 32.0315 32.2835 31.9478C32.2038 31.864 32.103 31.8039 31.9921 31.7738C31.8811 31.7438 31.7642 31.7449 31.6538 31.7772V31.7765Z" fill="#FFDD2E"/>
</svg>
