<svg width="16" height="16" viewBox="0 0 16 16" fill="none" xmlns="http://www.w3.org/2000/svg">
<g clip-path="url(#clip0_2892_117)">
<path d="M5.57868 9.30222C5.64696 9.40154 5.708 9.48974 5.76904 9.57871C5.94682 9.84046 6.12417 10.1025 6.30108 10.3647C6.45627 10.5957 6.60836 10.8285 6.76406 11.0587C6.91408 11.2806 7.07444 11.4958 7.2154 11.7232C7.27308 11.8158 7.33878 11.8287 7.43293 11.8284C8.82739 11.8265 10.2218 11.8265 11.616 11.8284C11.8942 11.8299 12.1708 11.7862 12.4349 11.6991C12.6915 11.6138 12.9178 11.4699 13.132 11.3036C13.3069 11.1666 13.4583 11.0022 13.5805 10.8166C13.7062 10.6291 13.8115 10.4286 13.865 10.2096C13.9077 10.0365 13.9501 9.8609 13.9638 9.68398C13.9757 9.52879 13.9537 9.36817 13.9366 9.21117C13.9012 8.88605 13.7768 8.59042 13.6038 8.31728C13.4922 8.13474 13.349 7.97357 13.1809 7.84137C13.0929 7.77412 13.0024 7.70972 12.9163 7.64014C12.9002 7.62721 12.8863 7.58582 12.8948 7.57237C13.0456 7.33364 13.1237 7.06827 13.1716 6.79488C13.2142 6.56658 13.2101 6.33201 13.1597 6.10532C13.1195 5.92388 13.0688 5.74494 13.0078 5.5694C12.9186 5.32187 12.7678 5.11004 12.594 4.91399C12.3933 4.68922 12.1486 4.52213 11.8825 4.39307C11.7107 4.31492 11.5298 4.25878 11.344 4.22598C11.1708 4.19475 10.9951 4.17977 10.8192 4.18123C10.2677 4.17606 9.71602 4.17994 9.1638 4.18123L9.06552 4.18123C9.84353 3.03904 10.6122 1.90978 11.3884 0.77173C11.5904 0.878035 11.7979 0.978649 11.9981 1.09426C12.1791 1.19772 12.3581 1.30791 12.5283 1.42896C12.7319 1.57406 12.9271 1.73132 13.1232 1.88806C13.4631 2.16145 13.7641 2.47519 14.0543 2.80005C14.1599 2.91877 14.254 3.04784 14.3487 3.17561C14.463 3.3308 14.5799 3.48392 14.6821 3.64661C14.823 3.87086 14.9604 4.09821 15.0822 4.33306C15.2079 4.57516 15.3194 4.82449 15.4257 5.07694C15.5019 5.25286 15.5658 5.43382 15.6171 5.61855C15.7076 5.95608 15.7932 6.29595 15.8597 6.63891C15.9054 6.88905 15.9352 7.14182 15.9489 7.39572C15.9678 7.68851 15.9802 7.98285 15.9701 8.27512C15.9601 8.5674 15.9249 8.86458 15.8902 9.15789C15.8672 9.35317 15.8336 9.54793 15.7917 9.74011C15.7155 10.1051 15.6061 10.4623 15.4647 10.8073C15.353 11.0737 15.2485 11.3442 15.12 11.6026C15.0027 11.8319 14.8732 12.0548 14.732 12.2702C14.5905 12.4914 14.4415 12.7099 14.2827 12.9168C14.0242 13.2602 13.7316 13.5765 13.4093 13.8609C13.1809 14.0608 12.9478 14.2569 12.7044 14.4379C12.4817 14.6032 12.2459 14.7517 12.0095 14.8976C11.666 15.1097 11.2982 15.2762 10.9231 15.4249C10.6626 15.5258 10.397 15.6134 10.1275 15.6872C9.8863 15.7561 9.64163 15.8123 9.39452 15.8556C9.14407 15.899 8.89155 15.9296 8.63797 15.9472C8.35346 15.9671 8.06687 15.9779 7.78158 15.9712C7.4857 15.9685 7.1903 15.9466 6.89727 15.9055C6.52623 15.8492 6.15877 15.7715 5.79672 15.6727C5.48996 15.5874 5.19251 15.4632 4.89688 15.3422C4.66409 15.2465 4.43519 15.1353 4.21198 15.0191C4.02061 14.9191 3.83511 14.8082 3.6564 14.687C3.4081 14.5171 3.16678 14.3371 2.92779 14.1542C2.79846 14.0557 2.68181 13.9419 2.55947 13.835C2.52274 13.8027 2.51757 13.7732 2.54887 13.7285C2.70923 13.4983 2.86416 13.2647 3.02297 13.0337C3.15979 12.8346 3.3005 12.6377 3.43681 12.4388C3.60907 12.1885 3.77848 11.9363 3.95022 11.6857C4.14214 11.4053 4.33613 11.1259 4.52753 10.8453C4.63952 10.6811 4.7466 10.5137 4.85834 10.3495C5.00784 10.1299 5.15992 9.91237 5.30994 9.69329C5.38417 9.58492 5.45685 9.47525 5.53031 9.36636C5.54324 9.34748 5.55617 9.33067 5.57868 9.30222Z" fill="white"/>
<path d="M2.13848 4.20175L4.70401 8.00388L1.5278 12.6596C1.46806 12.5763 1.40986 12.5044 1.3602 12.4252C1.25002 12.2509 1.13776 12.0771 1.03818 11.8965C0.934724 11.7075 0.834886 11.514 0.748239 11.3161C0.633054 11.0533 0.526232 10.7871 0.427773 10.5174C0.365256 10.3419 0.313432 10.1628 0.272584 9.98099C0.211802 9.71872 0.160072 9.45412 0.110671 9.18927C0.0889441 9.0721 0.0806667 8.95234 0.0687689 8.83337C0.0307476 8.44824 -0.00132473 8.06208 0.0170394 7.67488C0.0297132 7.42373 0.052733 7.17233 0.0881679 6.92325C0.123861 6.66977 0.175333 6.41811 0.229132 6.16748C0.303393 5.81838 0.410966 5.47721 0.550374 5.14866C0.679698 4.84268 0.807729 4.53385 0.960073 4.23874C1.13974 3.88999 1.35209 3.55907 1.59428 3.25044C1.7099 3.10301 1.8162 2.94756 1.93751 2.80479C2.05338 2.66848 2.18064 2.54123 2.30789 2.41501C2.46308 2.26189 2.61827 2.11032 2.78044 1.96522C2.89741 1.86104 3.01975 1.76305 3.14695 1.67165C3.36163 1.51646 3.5763 1.36127 3.80029 1.22005C4.001 1.09409 4.21077 0.981835 4.4226 0.87553C4.62745 0.772071 4.83799 0.679992 5.04982 0.591017C5.21606 0.518895 5.38658 0.457048 5.5604 0.405825C5.88448 0.315298 6.21038 0.229427 6.53964 0.160885C6.77242 0.112259 7.01297 0.10062 7.2486 0.0633745C7.5549 0.0149954 7.86566 0.0010278 8.17507 0.0217323C8.55787 0.0475972 8.94016 0.0902742 9.32089 0.1389C9.53582 0.166317 9.74766 0.219857 9.98122 0.265379L5.58419 6.70831L5.40133 6.43828C5.24769 6.21274 5.09414 5.9872 4.94067 5.76166C4.81471 5.57569 4.69082 5.38817 4.56512 5.2022C4.41148 4.97459 4.25629 4.74827 4.10265 4.52066C4.04472 4.43445 3.98842 4.34823 3.93376 4.26201C3.90013 4.20822 3.86263 4.17847 3.79124 4.17925C3.27627 4.18287 2.76104 4.18132 2.24607 4.18132L2.15348 4.18132L2.13848 4.20175Z" fill="white"/>
<path d="M6.45557 8.00681C6.64024 7.73627 6.82026 7.47219 7.0008 7.20811C7.18133 6.94403 7.35954 6.68667 7.53801 6.42492C7.68906 6.20326 7.84218 5.98289 7.98728 5.75709C8.03901 5.67432 8.09281 5.63449 8.19989 5.63527C9.11784 5.64096 10.0363 5.63837 10.9542 5.63966C11.2028 5.63966 11.3989 5.74571 11.5572 5.9384C11.6267 6.01911 11.679 6.11314 11.711 6.21476C11.743 6.31637 11.7539 6.42344 11.7431 6.52941C11.7149 6.82169 11.5665 7.0418 11.3034 7.18173C11.1693 7.2502 11.0202 7.28399 10.8697 7.28001C9.8449 7.28001 8.82013 7.28001 7.79537 7.28001C7.76644 7.27727 7.73736 7.28318 7.7118 7.297C7.68624 7.31081 7.66537 7.33191 7.65182 7.35761C7.52741 7.55211 7.3911 7.73937 7.25738 7.92663C7.23808 7.94899 7.22746 7.97754 7.22746 8.00707C7.22746 8.03661 7.23808 8.06515 7.25738 8.08751C7.39549 8.28564 7.52766 8.48764 7.66863 8.6837C7.68854 8.71137 7.74389 8.72534 7.78269 8.7256C8.33672 8.72844 8.89074 8.72767 9.44477 8.72767C10.1835 8.72767 10.9222 8.72948 11.6606 8.72767C11.9068 8.72767 12.1187 8.80526 12.2899 8.98114C12.5682 9.26798 12.5951 9.73122 12.3522 10.0416C12.1779 10.2643 11.9472 10.3696 11.6663 10.3698C10.4857 10.3698 9.30449 10.3698 8.12281 10.3698C8.10258 10.3722 8.0821 10.3686 8.06392 10.3594C8.04575 10.3502 8.03069 10.3358 8.02065 10.3181C7.88951 10.1179 7.75243 9.92185 7.61871 9.7232C7.38437 9.37455 7.15314 9.02485 6.91674 8.6762C6.7662 8.45376 6.61127 8.23287 6.45557 8.00681Z" fill="white"/>
</g>
<defs>
<clipPath id="clip0_2892_117">
<rect width="16" height="16" fill="white"/>
</clipPath>
</defs>
</svg>
