<svg width="16" height="16" viewBox="0 0 16 16" fill="none" xmlns="http://www.w3.org/2000/svg">
<g id="solar:check-circle-bold">
<path id="Vector" fill-rule="evenodd" clip-rule="evenodd" d="M14.6667 8.00004C14.6667 11.682 11.682 14.6667 8.00004 14.6667C4.31804 14.6667 1.33337 11.682 1.33337 8.00004C1.33337 4.31804 4.31804 1.33337 8.00004 1.33337C11.682 1.33337 14.6667 4.31804 14.6667 8.00004ZM10.6867 5.98004C10.7803 6.07379 10.8329 6.20087 10.8329 6.33337C10.8329 6.46587 10.7803 6.59296 10.6867 6.68671L7.35337 10.02C7.25962 10.1137 7.13254 10.1663 7.00004 10.1663C6.86754 10.1663 6.74046 10.1137 6.64671 10.02L5.31337 8.68671C5.26425 8.64093 5.22485 8.58573 5.19752 8.5244C5.17019 8.46307 5.1555 8.39686 5.15431 8.32972C5.15313 8.26259 5.16548 8.1959 5.19063 8.13364C5.21577 8.07138 5.2532 8.01483 5.30068 7.96735C5.34816 7.91987 5.40472 7.88244 5.46698 7.85729C5.52923 7.83214 5.59592 7.81979 5.66305 7.82098C5.73019 7.82216 5.7964 7.83686 5.85773 7.86419C5.91907 7.89151 5.97427 7.93092 6.02004 7.98004L7.00004 8.96004L8.49004 7.47004L9.98004 5.98004C10.0738 5.88641 10.2009 5.83381 10.3334 5.83381C10.4659 5.83381 10.593 5.88641 10.6867 5.98004Z" fill="#FFDD2E"/>
</g>
</svg>
