<?xml version="1.0" encoding="UTF-8"?>
<svg xmlns="http://www.w3.org/2000/svg" xmlns:xlink="http://www.w3.org/1999/xlink" width="33px" height="33px" viewBox="0 0 33 33" version="1.1">
<g id="surface1">
<path style=" stroke:none;fill-rule:nonzero;fill:rgb(0%,0%,0%);fill-opacity:1;" d="M 26.445312 1.703125 L 19.558594 11.921875 C 19.082031 12.617188 19.996094 13.460938 20.65625 12.875 L 27.433594 6.976562 C 27.617188 6.832031 27.871094 6.941406 27.871094 7.195312 L 27.871094 25.621094 C 27.871094 25.875 27.542969 25.984375 27.394531 25.804688 L 6.886719 1.261719 C 6.226562 0.457031 5.273438 0.0195312 4.210938 0.0195312 L 3.480469 0.0195312 C 1.574219 0.0195312 0 1.59375 0 3.535156 L 0 29.464844 C 0 31.40625 1.574219 32.980469 3.515625 32.980469 C 4.726562 32.980469 5.859375 32.359375 6.519531 31.296875 L 13.40625 21.078125 C 13.882812 20.382812 12.964844 19.539062 12.304688 20.125 L 5.53125 25.984375 C 5.347656 26.132812 5.089844 26.023438 5.089844 25.765625 L 5.089844 7.378906 C 5.089844 7.125 5.421875 7.015625 5.566406 7.195312 L 26.078125 31.738281 C 26.738281 32.542969 27.726562 32.980469 28.75 32.980469 L 29.484375 32.980469 C 31.425781 32.980469 33 31.40625 33 29.464844 L 33 3.535156 C 33 1.59375 31.425781 0.0195312 29.484375 0.0195312 C 28.238281 0.0195312 27.101562 0.640625 26.445312 1.703125 Z M 26.445312 1.703125 "/>
</g>
</svg>
