<?xml version="1.0" encoding="UTF-8"?>
<svg xmlns="http://www.w3.org/2000/svg" xmlns:xlink="http://www.w3.org/1999/xlink" width="70px" height="70px" viewBox="0 0 70 70" version="1.1">
<defs>
<linearGradient id="linear0" gradientUnits="userSpaceOnUse" x1="42" y1="0" x2="42" y2="84" gradientTransform="matrix(0.833333,0,0,0.833333,0,0)">
<stop offset="0" style="stop-color:rgb(65.882353%,12.54902%,42.352941%);stop-opacity:1;"/>
<stop offset="1" style="stop-color:rgb(95.294118%,49.411765%,20%);stop-opacity:1;"/>
</linearGradient>
</defs>
<g id="surface1">
<path style=" stroke:none;fill-rule:nonzero;fill:url(#linear0);" d="M 70 35 C 70 54.328125 54.328125 70 35 70 C 15.671875 70 0 54.328125 0 35 C 0 15.671875 15.671875 0 35 0 C 54.328125 0 70 15.671875 70 35 Z M 70 35 "/>
<path style=" stroke:none;fill-rule:nonzero;fill:rgb(100%,100%,100%);fill-opacity:1;" d="M 46.667969 47.496094 L 42.484375 47.496094 L 39.769531 37.410156 L 33.933594 47.496094 L 29.265625 47.496094 L 38.289062 31.882812 L 36.835938 26.464844 L 24.667969 47.5 L 20 47.5 L 35.417969 20.832031 L 39.507812 20.832031 L 41.296875 27.457031 L 45.515625 27.457031 L 42.632812 32.457031 Z M 46.667969 47.496094 "/>
</g>
</svg>
