<svg width="71" height="70" viewBox="0 0 71 70" fill="none" xmlns="http://www.w3.org/2000/svg">
<g clip-path="url(#clip0_1043_2180)">
<path d="M55.042 23.3749H48.8545C48.167 23.3749 47.4795 23.0624 46.9795 22.5624L44.4795 19.7499C43.7295 18.9374 42.542 18.8749 41.667 19.5624L41.4795 19.7499L39.3545 22.1874C38.667 22.9999 37.6045 23.4374 36.542 23.4374H2.72949C1.79199 26.1874 1.16699 29.1249 0.916992 32.0624H32.917C33.4795 32.0624 34.042 31.8124 34.417 31.4374L37.417 28.3124C37.792 27.9374 38.292 27.6874 38.8545 27.6874H38.9795C39.542 27.6874 40.1045 27.9374 40.4795 28.3749L42.9795 31.1874C43.4795 31.7499 44.167 32.0624 44.8545 32.0624H70.917C70.667 29.1249 70.042 26.1874 69.1045 23.4374H55.042V23.3749ZM34.542 40.6249L32.042 37.8124C31.292 36.9999 30.1045 36.9374 29.2295 37.6249L29.042 37.8124L26.8545 40.2499C26.167 41.0624 25.167 41.4999 24.1045 41.4999H1.41699C1.97949 44.4999 2.97949 47.4374 4.29199 50.2499H20.2295C20.792 50.2499 21.292 49.9999 21.7295 49.6249L24.7295 46.4999C25.1045 46.1249 25.6045 45.8749 26.167 45.8749H26.292C26.8545 45.8749 27.417 46.1249 27.792 46.5624L30.292 49.3749C30.792 49.9374 31.4795 50.2499 32.167 50.2499H67.542C68.8545 47.4999 69.8545 44.5624 70.417 41.4999H36.417C35.667 41.4999 34.9795 41.1874 34.542 40.6249ZM46.792 13.3749L49.792 10.2499C50.167 9.87492 50.667 9.62492 51.2295 9.62492H51.3545C51.917 9.62492 52.4795 9.87492 52.8545 10.2499L55.3545 13.0624C55.8545 13.6249 56.542 13.8749 57.2295 13.8749H63.9795C52.2295 -1.62508 30.167 -4.68758 14.6045 6.99992C12.042 8.93742 9.72949 11.2499 7.72949 13.8749H45.292C45.917 13.9999 46.417 13.7499 46.792 13.3749ZM22.6045 58.8749C21.8545 58.8749 21.167 58.5624 20.7295 58.0624L18.2295 55.2499C17.4795 54.4374 16.2295 54.3749 15.417 55.1249L15.292 55.2499L13.1045 57.6874C12.417 58.4999 11.417 58.9374 10.3545 58.9374H10.2295C23.417 73.0624 45.7295 73.7499 59.917 60.4374C60.4795 59.9374 60.9795 59.3749 61.542 58.8124H22.6045V58.8749Z" fill="black"/>
</g>
<defs>
<clipPath id="clip0_1043_2180">
<rect width="70" height="70" fill="white" transform="translate(0.916992)"/>
</clipPath>
</defs>
</svg>
