<?xml version="1.0" encoding="UTF-8"?>
<svg xmlns="http://www.w3.org/2000/svg" xmlns:xlink="http://www.w3.org/1999/xlink" width="70px" height="70px" viewBox="0 0 70 70" version="1.1">
<g id="surface1">
<path style=" stroke:none;fill-rule:nonzero;fill:rgb(9.019608%,9.019608%,9.019608%);fill-opacity:1;" d="M 70 35 C 70 54.328125 54.328125 70 35 70 C 15.671875 70 0 54.328125 0 35 C 0 15.671875 15.671875 0 35 0 C 54.328125 0 70 15.671875 70 35 Z M 70 35 "/>
<path style=" stroke:none;fill-rule:nonzero;fill:rgb(100%,100%,100%);fill-opacity:1;" d="M 55.273438 33.296875 L 54.859375 33.296875 C 50 33.296875 45.140625 33.292969 40.28125 33.300781 C 39.730469 33.304688 39.304688 33.113281 38.953125 32.699219 C 38.542969 32.21875 38.121094 31.75 37.699219 31.277344 C 37.101562 30.617188 36.390625 30.605469 35.765625 31.253906 C 35.253906 31.78125 34.75 32.3125 34.246094 32.847656 C 33.960938 33.148438 33.632812 33.300781 33.207031 33.300781 C 27.183594 33.292969 21.160156 33.296875 15.136719 33.296875 C 15.023438 33.296875 14.914062 33.285156 14.722656 33.277344 C 14.855469 32.441406 14.949219 31.628906 15.113281 30.832031 C 15.269531 30.09375 15.507812 29.371094 15.6875 28.636719 C 15.761719 28.335938 15.917969 28.257812 16.21875 28.257812 C 22.511719 28.269531 28.800781 28.261719 35.089844 28.273438 C 35.988281 28.273438 36.710938 27.996094 37.269531 27.28125 C 37.582031 26.882812 37.929688 26.511719 38.277344 26.144531 C 38.816406 25.574219 39.539062 25.59375 40.0625 26.179688 C 40.496094 26.660156 40.933594 27.132812 41.34375 27.628906 C 41.734375 28.097656 42.21875 28.269531 42.8125 28.269531 C 46.46875 28.261719 50.128906 28.269531 53.785156 28.257812 C 54.121094 28.257812 54.253906 28.351562 54.359375 28.675781 C 54.828125 30.164062 55.144531 31.675781 55.273438 33.296875 Z M 55.273438 33.296875 "/>
<path style=" stroke:none;fill-rule:nonzero;fill:rgb(100%,100%,100%);fill-opacity:1;" d="M 16.703125 43.851562 C 15.917969 42.234375 15.375 40.5625 15.035156 38.765625 C 15.214844 38.765625 15.363281 38.765625 15.511719 38.765625 C 19.660156 38.765625 23.8125 38.761719 27.964844 38.769531 C 28.789062 38.773438 29.460938 38.496094 29.992188 37.851562 C 30.328125 37.441406 30.683594 37.046875 31.042969 36.660156 C 31.578125 36.085938 32.3125 36.085938 32.835938 36.660156 C 33.277344 37.144531 33.722656 37.632812 34.144531 38.136719 C 34.523438 38.589844 35 38.769531 35.578125 38.769531 C 41.894531 38.765625 48.210938 38.765625 54.523438 38.765625 C 54.675781 38.765625 54.824219 38.765625 55 38.765625 C 54.683594 40.488281 54.152344 42.09375 53.4375 43.648438 C 53.328125 43.890625 53.152344 43.851562 52.96875 43.851562 C 49.375 43.851562 45.78125 43.851562 42.1875 43.851562 C 39.148438 43.851562 36.113281 43.84375 33.074219 43.859375 C 32.457031 43.863281 31.976562 43.664062 31.585938 43.183594 C 31.195312 42.707031 30.773438 42.25 30.359375 41.789062 C 29.816406 41.1875 29.097656 41.164062 28.535156 41.734375 C 27.984375 42.292969 27.464844 42.886719 26.886719 43.414062 C 26.65625 43.628906 26.300781 43.828125 26 43.832031 C 22.914062 43.863281 19.824219 43.847656 16.703125 43.847656 Z M 16.703125 43.851562 "/>
<path style=" stroke:none;fill-rule:nonzero;fill:rgb(100%,100%,100%);fill-opacity:1;" d="M 51.210938 22.808594 C 50.214844 22.808594 49.21875 22.808594 48.226562 22.808594 C 47.960938 22.808594 47.695312 22.808594 47.429688 22.808594 C 46.957031 22.816406 46.566406 22.640625 46.253906 22.292969 C 45.789062 21.773438 45.335938 21.25 44.867188 20.734375 C 44.324219 20.136719 43.597656 20.125 43.039062 20.699219 C 42.539062 21.214844 42.035156 21.734375 41.550781 22.265625 C 41.203125 22.644531 40.800781 22.816406 40.28125 22.816406 C 33.269531 22.804688 26.261719 22.808594 19.25 22.808594 C 19.113281 22.808594 18.976562 22.808594 18.71875 22.808594 C 22.203125 18.355469 26.621094 15.59375 32.140625 14.878906 C 39.949219 13.871094 46.292969 16.644531 51.253906 22.667969 C 51.238281 22.714844 51.226562 22.761719 51.210938 22.808594 Z M 51.210938 22.808594 "/>
<path style=" stroke:none;fill-rule:nonzero;fill:rgb(100%,100%,100%);fill-opacity:1;" d="M 20.210938 48.902344 C 21.050781 48.828125 21.648438 48.410156 22.140625 47.785156 C 22.421875 47.425781 22.742188 47.097656 23.046875 46.761719 C 23.566406 46.179688 24.304688 46.164062 24.835938 46.730469 C 25.265625 47.195312 25.6875 47.664062 26.089844 48.152344 C 26.496094 48.652344 27 48.851562 27.644531 48.851562 C 34.878906 48.839844 42.117188 48.84375 49.351562 48.84375 C 49.503906 48.84375 49.652344 48.84375 49.800781 48.84375 C 46.34375 52.5625 42.109375 54.75 37.078125 55.21875 C 30.464844 55.839844 24.851562 53.65625 20.210938 48.902344 Z M 20.210938 48.902344 "/>
</g>
</svg>
