<?xml version="1.0" encoding="UTF-8"?>
<svg xmlns="http://www.w3.org/2000/svg" xmlns:xlink="http://www.w3.org/1999/xlink" width="70px" height="70px" viewBox="0 0 70 70" version="1.1">
<g id="surface1">
<path style=" stroke:none;fill-rule:nonzero;fill:rgb(12.941176%,19.215686%,27.843137%);fill-opacity:1;" d="M 6.328125 21.28125 L 6.328125 48.71875 C 6.328125 50.484375 7.253906 52.078125 8.792969 52.976562 L 32.5625 66.695312 C 34.074219 67.5625 35.953125 67.5625 37.464844 66.695312 L 61.234375 52.976562 C 62.746094 52.109375 63.699219 50.484375 63.699219 48.71875 L 63.699219 21.28125 C 63.699219 19.515625 62.777344 17.921875 61.234375 17.023438 L 37.464844 3.304688 C 35.953125 2.4375 34.074219 2.4375 32.5625 3.304688 L 8.792969 17.023438 C 7.28125 17.890625 6.355469 19.515625 6.355469 21.28125 Z M 6.328125 21.28125 "/>
<path style=" stroke:none;fill-rule:nonzero;fill:rgb(7.058824%,66.666667%,100%);fill-opacity:1;" d="M 40.179688 40.320312 L 36.792969 49.617188 C 36.707031 49.867188 36.707031 50.148438 36.792969 50.429688 L 42.617188 66.414062 L 49.363281 62.523438 L 41.273438 40.320312 C 41.074219 39.816406 40.375 39.816406 40.179688 40.320312 Z M 40.179688 40.320312 "/>
<path style=" stroke:none;fill-rule:nonzero;fill:rgb(7.058824%,66.666667%,100%);fill-opacity:1;" d="M 46.984375 24.695312 C 46.789062 24.191406 46.089844 24.191406 45.890625 24.695312 L 42.503906 33.992188 C 42.421875 34.242188 42.421875 34.523438 42.503906 34.804688 L 52.050781 60.984375 L 58.800781 57.09375 L 46.984375 24.722656 Z M 46.984375 24.695312 "/>
<path style=" stroke:none;fill-rule:nonzero;fill:rgb(61.568627%,80%,92.941176%);fill-opacity:1;" d="M 35 4.339844 C 35.167969 4.339844 35.335938 4.394531 35.476562 4.480469 L 61.179688 19.320312 C 61.488281 19.488281 61.65625 19.824219 61.65625 20.160156 L 61.65625 49.839844 C 61.65625 50.175781 61.460938 50.511719 61.179688 50.679688 L 35.476562 65.519531 C 35.335938 65.605469 35.167969 65.660156 35 65.660156 C 34.832031 65.660156 34.664062 65.605469 34.523438 65.519531 L 8.820312 50.679688 C 8.511719 50.511719 8.34375 50.175781 8.34375 49.839844 L 8.34375 20.132812 C 8.34375 19.796875 8.539062 19.460938 8.820312 19.292969 L 34.523438 4.453125 C 34.664062 4.367188 34.832031 4.3125 35 4.3125 Z M 35 0 C 34.074219 0 33.179688 0.222656 32.339844 0.699219 L 6.636719 15.539062 C 4.984375 16.492188 3.976562 18.226562 3.976562 20.132812 L 3.976562 49.8125 C 3.976562 51.714844 4.984375 53.453125 6.636719 54.402344 L 32.339844 69.242188 C 33.152344 69.71875 34.074219 69.945312 35 69.945312 C 35.925781 69.945312 36.820312 69.71875 37.660156 69.242188 L 63.363281 54.402344 C 65.015625 53.453125 66.023438 51.714844 66.023438 49.8125 L 66.023438 20.132812 C 66.023438 18.226562 65.015625 16.492188 63.363281 15.539062 L 37.632812 0.699219 C 36.820312 0.222656 35.894531 0 34.972656 0 Z M 35 0 "/>
<path style=" stroke:none;fill-rule:nonzero;fill:rgb(12.941176%,19.215686%,27.843137%);fill-opacity:1;" d="M 17.976562 61.011719 L 20.355469 54.515625 L 25.117188 58.464844 L 20.664062 62.550781 Z M 17.976562 61.011719 "/>
<path style=" stroke:none;fill-rule:nonzero;fill:rgb(100%,100%,100%);fill-opacity:1;" d="M 32.816406 18.03125 L 26.292969 18.03125 C 25.816406 18.03125 25.367188 18.339844 25.199219 18.789062 L 11.226562 57.09375 L 17.976562 60.984375 L 33.375 18.789062 C 33.515625 18.394531 33.234375 18.003906 32.84375 18.003906 Z M 32.816406 18.03125 "/>
<path style=" stroke:none;fill-rule:nonzero;fill:rgb(100%,100%,100%);fill-opacity:1;" d="M 44.238281 18.03125 L 37.714844 18.03125 C 37.238281 18.03125 36.792969 18.339844 36.625 18.789062 L 20.664062 62.523438 L 27.410156 66.414062 L 44.773438 18.789062 C 44.910156 18.394531 44.632812 18.003906 44.238281 18.003906 Z M 44.238281 18.03125 "/>
</g>
</svg>
