<svg width="70" height="70" viewBox="0 0 70 70" fill="none" xmlns="http://www.w3.org/2000/svg">
<g clip-path="url(#clip0_1041_4757)">
<path d="M35 70C54.33 70 70 54.33 70 35C70 15.67 54.33 0 35 0C15.67 0 0 15.67 0 35C0 54.33 15.67 70 35 70Z" fill="#2E3148"/>
<path d="M35.0001 55.3088C46.2163 55.3088 55.3088 46.2163 55.3088 35.0001C55.3088 23.7839 46.2163 14.6914 35.0001 14.6914C23.7839 14.6914 14.6914 23.7839 14.6914 35.0001C14.6914 46.2163 23.7839 55.3088 35.0001 55.3088Z" fill="#1B1E36"/>
<path d="M35.072 4.46509C31.2939 4.46509 28.2305 18.1683 28.2305 35.0722C28.2305 51.9761 31.2939 65.6792 35.072 65.6792C38.85 65.6792 41.9135 51.9761 41.9135 35.0722C41.9135 18.1683 38.85 4.46509 35.072 4.46509ZM35.5443 63.9519C35.1123 64.5282 34.6803 64.0958 34.6803 64.0958C32.9403 62.0798 32.0704 58.3346 32.0704 58.3346C29.0271 48.5404 29.7514 27.5116 29.7514 27.5116C31.1817 10.8169 33.7834 6.87309 34.6688 5.99753C34.7592 5.90817 34.8782 5.85356 35.0049 5.84332C35.1317 5.83307 35.2579 5.86785 35.3615 5.94153C36.6462 6.85181 37.7236 10.6587 37.7236 10.6587C40.9052 22.4694 40.6171 33.5599 40.6171 33.5599C40.9052 43.2101 39.0228 54.0125 39.0228 54.0125C37.5738 62.2221 35.5443 63.9519 35.5443 63.9519Z" fill="#6F7390"/>
<path d="M61.6197 19.8405C59.7387 16.5623 46.3292 20.7247 31.6597 29.1365C16.9902 37.5483 6.64256 47.0254 8.5222 50.3023C10.4018 53.5791 23.8127 49.418 38.4822 41.0063C53.1517 32.5945 63.4994 23.1173 61.6197 19.8405ZM10.2576 49.8526C9.53748 49.7619 9.70016 49.1699 9.70016 49.1699C10.5836 46.6581 13.3948 44.0395 13.3948 44.0395C20.3788 36.5254 38.9809 26.6893 38.9809 26.6893C54.172 19.6215 58.8906 19.9197 60.0876 20.2493C60.2104 20.2836 60.3172 20.3603 60.3889 20.4657C60.4607 20.5712 60.4928 20.6987 60.4796 20.8255C60.3356 22.3935 57.5628 25.2215 57.5628 25.2215C48.9074 33.8621 39.1436 39.1322 39.1436 39.1322C30.9163 44.1862 20.6095 47.9267 20.6095 47.9267C12.767 50.7528 10.2579 49.8526 10.2579 49.8526H10.2576Z" fill="#6F7390"/>
<path d="M61.554 50.4115C63.4496 47.1419 53.1279 37.6214 38.51 29.1463C23.892 20.6713 10.4842 16.4573 8.5903 19.7324C6.69638 23.0076 17.0163 32.5226 31.6427 40.9976C46.2691 49.4726 59.6601 53.6869 61.554 50.4115ZM9.84638 20.9958C9.56638 20.3319 10.1575 20.172 10.1575 20.172C12.7743 19.6778 16.4502 20.804 16.4502 20.804C26.4504 23.0812 44.2822 34.251 44.2822 34.251C58.0114 43.8581 60.117 48.0897 60.4326 49.2909C60.4647 49.4141 60.4522 49.5447 60.3974 49.6596C60.3426 49.7745 60.2489 49.8664 60.133 49.919C58.7013 50.5744 54.867 49.5978 54.867 49.5978C43.0491 46.429 33.5977 40.6232 33.5977 40.6232C25.1055 36.043 16.7083 28.9954 16.7083 28.9954C10.3277 23.623 9.84834 21.0031 9.84834 21.0031L9.84638 20.9958Z" fill="#6F7390"/>
<path d="M35.0002 38.6008C36.9889 38.6008 38.601 36.9886 38.601 35C38.601 33.0113 36.9889 31.3992 35.0002 31.3992C33.0115 31.3992 31.3994 33.0113 31.3994 35C31.3994 36.9886 33.0115 38.6008 35.0002 38.6008Z" fill="#B7B9C8"/>
<path d="M49.7633 23.3332C50.9168 23.3332 51.8518 22.3659 51.8518 21.1727C51.8518 19.9795 50.9168 19.0122 49.7633 19.0122C48.6099 19.0122 47.6748 19.9795 47.6748 21.1727C47.6748 22.3659 48.6099 23.3332 49.7633 23.3332Z" fill="#B7B9C8"/>
<path d="M15.4831 30.6791C16.6365 30.6791 17.5716 29.7118 17.5716 28.5186C17.5716 27.3254 16.6365 26.3582 15.4831 26.3582C14.3296 26.3582 13.3945 27.3254 13.3945 28.5186C13.3945 29.7118 14.3296 30.6791 15.4831 30.6791Z" fill="#B7B9C8"/>
<path d="M30.7506 57.1811C31.9041 57.1811 32.8391 56.2138 32.8391 55.0206C32.8391 53.8274 31.9041 52.8601 30.7506 52.8601C29.5972 52.8601 28.6621 53.8274 28.6621 55.0206C28.6621 56.2138 29.5972 57.1811 30.7506 57.1811Z" fill="#B7B9C8"/>
</g>
<defs>
<clipPath id="clip0_1041_4757">
<rect width="70" height="70" fill="white"/>
</clipPath>
</defs>
</svg>
