<?xml version="1.0" encoding="UTF-8"?>
<svg xmlns="http://www.w3.org/2000/svg" xmlns:xlink="http://www.w3.org/1999/xlink" width="70px" height="70px" viewBox="0 0 70 70" version="1.1">
<defs>
<clipPath id="clip1">
  <path d="M 0 0 L 69.953125 0 L 69.953125 70 L 0 70 Z M 0 0 "/>
</clipPath>
</defs>
<g id="surface1">
<path style=" stroke:none;fill-rule:nonzero;fill:rgb(100%,100%,100%);fill-opacity:1;" d="M 56.550781 12.007812 L 13.359375 12.007812 L 13.359375 51.289062 L 56.550781 51.289062 Z M 56.550781 12.007812 "/>
<g clip-path="url(#clip1)" clip-rule="nonzero">
<path style=" stroke:none;fill-rule:evenodd;fill:rgb(90.980392%,25.490196%,25.882353%);fill-opacity:1;" d="M 69.929688 35 C 69.929688 54.304688 54.28125 69.953125 34.976562 69.953125 C 15.671875 69.953125 0.0234375 54.304688 0.0234375 35 C 0.0234375 15.695312 15.671875 0.046875 34.976562 0.046875 C 54.28125 0.046875 69.929688 15.695312 69.929688 35 Z M 25.070312 48.910156 L 18.289062 48.910156 C 16.863281 48.910156 16.160156 48.910156 15.730469 48.636719 C 15.265625 48.335938 14.984375 47.835938 14.949219 47.285156 C 14.921875 46.78125 15.273438 46.160156 15.976562 44.925781 L 32.726562 15.402344 C 33.441406 14.148438 33.800781 13.523438 34.257812 13.289062 C 34.746094 13.042969 35.328125 13.042969 35.820312 13.289062 C 36.273438 13.523438 36.632812 14.148438 37.347656 15.402344 L 40.789062 21.414062 L 40.808594 21.445312 C 41.578125 22.789062 41.96875 23.472656 42.140625 24.1875 C 42.328125 24.96875 42.328125 25.792969 42.140625 26.574219 C 41.96875 27.296875 41.582031 27.980469 40.800781 29.347656 L 32 44.898438 L 31.980469 44.941406 C 31.203125 46.296875 30.8125 46.984375 30.265625 47.5 C 29.675781 48.066406 28.960938 48.480469 28.179688 48.710938 C 27.46875 48.910156 26.667969 48.910156 25.070312 48.910156 Z M 42.203125 48.910156 L 51.921875 48.910156 C 53.355469 48.910156 54.078125 48.910156 54.507812 48.625 C 54.972656 48.324219 55.261719 47.820312 55.289062 47.269531 C 55.3125 46.78125 54.96875 46.1875 54.292969 45.019531 C 54.269531 44.980469 54.246094 44.941406 54.222656 44.898438 L 49.355469 36.570312 L 49.300781 36.476562 C 48.617188 35.320312 48.269531 34.734375 47.828125 34.511719 C 47.335938 34.261719 46.761719 34.261719 46.273438 34.511719 C 45.824219 34.742188 45.464844 35.351562 44.753906 36.578125 L 39.902344 44.910156 L 39.882812 44.9375 C 39.175781 46.164062 38.820312 46.777344 38.84375 47.277344 C 38.878906 47.828125 39.164062 48.335938 39.625 48.636719 C 40.046875 48.910156 40.769531 48.910156 42.203125 48.910156 Z M 42.203125 48.910156 "/>
</g>
</g>
</svg>
