<?xml version="1.0" encoding="UTF-8"?>
<svg xmlns="http://www.w3.org/2000/svg" xmlns:xlink="http://www.w3.org/1999/xlink" width="70px" height="70px" viewBox="0 0 70 70" version="1.1">
<g id="surface1">
<path style=" stroke:none;fill-rule:evenodd;fill:rgb(94.117647%,72.54902%,4.313725%);fill-opacity:1;" d="M 35 0 C 54.332031 0 70 15.667969 70 35 C 70 54.332031 54.332031 70 35 70 C 15.667969 70 0 54.332031 0 35 C 0 15.667969 15.667969 0 35 0 Z M 35 0 "/>
<path style=" stroke:none;fill-rule:nonzero;fill:rgb(100%,100%,100%);fill-opacity:1;" d="M 19.234375 35 L 19.261719 44.253906 L 27.125 48.882812 L 27.125 54.300781 L 14.65625 46.988281 L 14.65625 32.296875 Z M 19.234375 25.746094 L 19.234375 31.140625 L 14.65625 28.429688 L 14.65625 23.035156 L 19.234375 20.328125 L 23.839844 23.039062 Z M 30.40625 23.035156 L 34.988281 20.324219 L 39.59375 23.035156 L 34.988281 25.746094 Z M 30.40625 23.035156 "/>
<path style=" stroke:none;fill-rule:nonzero;fill:rgb(100%,100%,100%);fill-opacity:1;" d="M 22.546875 42.335938 L 22.546875 36.917969 L 27.125 39.628906 L 27.125 45.019531 Z M 30.40625 50.824219 L 34.988281 53.53125 L 39.59375 50.824219 L 39.59375 56.214844 L 34.988281 58.925781 L 30.40625 56.214844 Z M 46.15625 23.035156 L 50.738281 20.324219 L 55.34375 23.035156 L 55.34375 28.429688 L 50.738281 31.140625 L 50.738281 25.746094 Z M 50.738281 44.253906 L 50.765625 35 L 55.34375 32.289062 L 55.34375 46.984375 L 42.878906 54.292969 L 42.878906 48.875 Z M 50.738281 44.253906 "/>
<path style=" stroke:none;fill-rule:nonzero;fill:rgb(100%,100%,100%);fill-opacity:1;" d="M 47.453125 42.335938 L 42.875 45.019531 L 42.875 39.628906 L 47.453125 36.917969 Z M 47.453125 42.335938 "/>
<path style=" stroke:none;fill-rule:nonzero;fill:rgb(100%,100%,100%);fill-opacity:1;" d="M 47.453125 27.664062 L 47.480469 33.082031 L 39.59375 37.710938 L 39.59375 46.988281 L 35.011719 49.671875 L 30.429688 46.988281 L 30.429688 37.710938 L 22.542969 33.082031 L 22.542969 27.664062 L 27.144531 24.953125 L 34.984375 29.605469 L 42.871094 24.953125 L 47.472656 27.664062 Z M 22.546875 18.410156 L 34.988281 11.074219 L 47.453125 18.410156 L 42.875 21.121094 L 34.984375 16.46875 L 27.125 21.121094 Z M 22.546875 18.410156 "/>
</g>
</svg>
