<svg width="70" height="70" viewBox="0 0 70 70" fill="none" xmlns="http://www.w3.org/2000/svg">
<g clip-path="url(#clip0_1043_2077)">
<path d="M68.9489 43.4667C64.2744 62.2168 45.2835 73.6278 26.5311 68.9521C7.78654 64.2776 -3.62445 45.2855 1.0521 26.5369C5.72455 7.78467 24.7154 -3.62718 43.462 1.04732C62.2131 5.72182 73.6234 24.716 68.9484 43.467L68.9487 43.4667H68.9489Z" fill="#F7931A"/>
<path d="M50.4335 30.0135C51.1301 25.3557 47.584 22.852 42.735 21.1818L44.3081 14.8725L40.4674 13.9155L38.9361 20.0587C37.9264 19.8069 36.8895 19.5696 35.859 19.3343L37.4014 13.1506L33.5631 12.1936L31.9892 18.5009C31.1537 18.3106 30.333 18.1226 29.5368 17.9245L29.5413 17.9047L24.2449 16.5821L23.2232 20.6841C23.2232 20.6841 26.0727 21.3373 26.0126 21.3775C27.5679 21.7657 27.8491 22.7952 27.8024 23.6113L26.0106 30.7991C26.1177 30.8263 26.2566 30.8656 26.4099 30.9272C26.2817 30.8954 26.1454 30.8606 26.0039 30.8268L23.4923 40.8958C23.3023 41.3684 22.8198 42.0775 21.7325 41.8082C21.771 41.864 18.941 41.1116 18.941 41.1116L17.0342 45.5079L22.0322 46.7538C22.962 46.987 23.8731 47.231 24.7704 47.4604L23.1811 53.8421L27.0174 54.7991L28.5913 48.4851C29.6393 48.7696 30.6563 49.0321 31.652 49.2795L30.0834 55.5636L33.9242 56.5206L35.5134 50.1509C42.0625 51.3904 46.987 50.8907 49.0598 44.9669C50.73 40.1977 48.9766 37.4468 45.5311 35.6528C48.0406 35.0741 49.9309 33.4235 50.4349 30.014L50.4337 30.0131L50.4335 30.0135ZM41.6585 42.3183C40.4715 47.0876 32.4415 44.5095 29.8381 43.863L31.9471 35.4084C34.5504 36.0583 42.8989 37.3445 41.6586 42.3183H41.6585ZM42.8462 29.9444C41.7635 34.2825 35.08 32.0785 32.912 31.5381L34.8241 23.8703C36.9922 24.4107 43.9742 25.4194 42.8466 29.9444H42.8462Z" fill="white"/>
</g>
<defs>
<clipPath id="clip0_1043_2077">
<rect width="70" height="70" fill="white"/>
</clipPath>
</defs>
</svg>
