<?xml version="1.0" encoding="UTF-8"?>
<svg xmlns="http://www.w3.org/2000/svg" xmlns:xlink="http://www.w3.org/1999/xlink" width="70px" height="70px" viewBox="0 0 70 70" version="1.1">
<g id="surface1">
<path style=" stroke:none;fill-rule:nonzero;fill:rgb(18.039216%,19.215686%,28.235294%);fill-opacity:1;" d="M 70 35 C 70 54.328125 54.328125 70 35 70 C 15.671875 70 0 54.328125 0 35 C 0 15.671875 15.671875 0 35 0 C 54.328125 0 70 15.671875 70 35 Z M 70 35 "/>
<path style=" stroke:none;fill-rule:evenodd;fill:rgb(100%,100%,100%);fill-opacity:1;" d="M 39.089844 28.15625 L 28.308594 38.921875 C 28.171875 38.652344 28.042969 38.371094 27.933594 38.082031 C 27.554688 37.101562 27.367188 36.066406 27.367188 34.96875 C 27.367188 33.871094 27.554688 32.832031 27.933594 31.855469 C 28.308594 30.875 28.832031 30.027344 29.5 29.304688 C 30.167969 28.585938 30.96875 28.015625 31.90625 27.597656 C 32.84375 27.179688 33.871094 26.96875 34.992188 26.96875 C 36.109375 26.96875 37.144531 27.183594 38.089844 27.613281 C 38.441406 27.773438 38.777344 27.953125 39.089844 28.15625 Z M 38.140625 42.402344 C 37.203125 42.824219 36.175781 43.03125 35.054688 43.03125 C 33.933594 43.03125 32.902344 42.816406 31.953125 42.386719 C 31.601562 42.226562 31.269531 42.046875 30.953125 41.84375 L 41.734375 31.078125 C 41.875 31.347656 42 31.628906 42.113281 31.917969 C 42.488281 32.898438 42.679688 33.9375 42.679688 35.03125 C 42.679688 36.128906 42.488281 37.167969 42.113281 38.144531 C 41.734375 39.125 41.214844 39.972656 40.546875 40.695312 C 39.878906 41.414062 39.078125 41.984375 38.140625 42.402344 Z M 39.769531 45.742188 C 41.214844 45.117188 42.464844 44.273438 43.519531 43.210938 C 44.574219 42.144531 45.390625 40.902344 45.972656 39.484375 C 46.554688 38.066406 46.84375 36.558594 46.84375 34.96875 C 46.84375 33.375 46.554688 31.871094 45.972656 30.453125 C 45.628906 29.609375 45.203125 28.832031 44.699219 28.121094 L 51.710938 21.117188 L 48.925781 18.332031 L 41.890625 25.359375 C 41.261719 24.929688 40.574219 24.554688 39.835938 24.242188 C 38.394531 23.628906 36.800781 23.324219 35.054688 23.324219 C 33.3125 23.324219 31.71875 23.632812 30.273438 24.257812 C 28.832031 24.882812 27.582031 25.726562 26.527344 26.789062 C 25.472656 27.855469 24.652344 29.097656 24.070312 30.515625 C 23.492188 31.9375 23.199219 33.441406 23.199219 35.03125 C 23.199219 36.625 23.492188 38.128906 24.070312 39.546875 C 24.417969 40.390625 24.839844 41.167969 25.34375 41.882812 L 18.332031 48.882812 L 21.121094 51.667969 L 28.152344 44.644531 C 28.785156 45.074219 29.46875 45.445312 30.210938 45.757812 C 31.652344 46.371094 33.246094 46.675781 34.992188 46.675781 C 36.734375 46.675781 38.328125 46.367188 39.769531 45.742188 Z M 39.769531 45.742188 "/>
</g>
</svg>
