<svg width="70" height="70" viewBox="0 0 70 70" fill="none" xmlns="http://www.w3.org/2000/svg">
<g clip-path="url(#clip0_1041_4756)">
<path d="M34.9978 14.682C42.4114 14.682 48.4214 11.3953 48.4214 7.34099C48.4214 3.28667 42.4114 0 34.9978 0C27.5842 0 21.5742 3.28667 21.5742 7.34099C21.5742 11.3953 27.5842 14.682 34.9978 14.682Z" fill="#E6007A"/>
<path d="M34.9978 69.995C42.4114 69.995 48.4214 66.7083 48.4214 62.654C48.4214 58.5997 42.4114 55.313 34.9978 55.313C27.5842 55.313 21.5742 58.5997 21.5742 62.654C21.5742 66.7083 27.5842 69.995 34.9978 69.995Z" fill="#E6007A"/>
<path d="M16.2907 24.8437C19.9975 18.8068 19.9734 12.2684 16.2369 10.2399C12.5005 8.21138 6.46646 11.4608 2.75964 17.4977C-0.947179 23.5346 -0.923121 30.0729 2.81337 32.1014C6.54987 34.13 12.5839 30.8805 16.2907 24.8437Z" fill="#E6007A"/>
<path d="M67.2288 52.4969C70.9356 46.46 70.9136 39.9228 67.1796 37.8956C63.4457 35.8685 57.4137 39.119 53.7069 45.1559C50.0001 51.1928 50.0221 57.73 53.7561 59.7572C57.49 61.7843 63.522 58.5338 67.2288 52.4969Z" fill="#E6007A"/>
<path d="M16.2389 59.7555C19.9754 57.7269 19.9995 51.1886 16.2926 45.1517C12.5858 39.1148 6.55182 35.8654 2.81533 37.8939C-0.921168 39.9224 -0.945227 46.4608 2.76159 52.4977C6.46841 58.5346 12.5024 61.784 16.2389 59.7555Z" fill="#E6007A"/>
<path d="M67.1835 32.1032C70.9175 30.076 70.9395 23.5388 67.2327 17.5019C63.5259 11.465 57.4939 8.21446 53.76 10.2416C50.026 12.2688 50.004 18.806 53.7108 24.8429C57.4176 30.8798 63.4496 34.1303 67.1835 32.1032Z" fill="#E6007A"/>
</g>
<defs>
<clipPath id="clip0_1041_4756">
<rect width="70" height="70" fill="white"/>
</clipPath>
</defs>
</svg>
