<?xml version="1.0" encoding="UTF-8"?>
<!DOCTYPE svg PUBLIC "-//W3C//DTD SVG 1.1//EN" "http://www.w3.org/Graphics/SVG/1.1/DTD/svg11.dtd">
<svg xmlns="http://www.w3.org/2000/svg" version="1.1" width="300px" height="300px" style="shape-rendering:geometricPrecision; text-rendering:geometricPrecision; image-rendering:optimizeQuality; fill-rule:evenodd; clip-rule:evenodd" xmlns:xlink="http://www.w3.org/1999/xlink">
<g><path style="opacity:0.982" fill="#edf1f6" d="M 166.5,299.5 C 155.5,299.5 144.5,299.5 133.5,299.5C 72.136,289.64 31.3027,255.306 11,196.5C -3.15171,140.935 9.34829,92.4349 48.5,51C 92.8539,11.251 143.521,0.584287 200.5,19C 254.016,41.1996 285.182,81.0329 294,138.5C 298.424,202.496 273.258,250.663 218.5,283C 201.975,291.455 184.642,296.955 166.5,299.5 Z"/></g>
<g><path style="opacity:1" fill="#c4c4c5" d="M 143.5,22.5 C 200.976,22.8902 243.143,48.2236 270,98.5C 291.445,151.629 284.112,200.296 248,244.5C 203.257,288.045 151.757,298.211 93.5,275C 37.9516,244.833 13.1183,197.999 19,134.5C 27.5147,89.0015 52.3481,55.8349 93.5,35C 109.514,27.663 126.181,23.4964 143.5,22.5 Z"/></g>
<g><path style="opacity:1" fill="#a6a9ba" d="M 133.5,26.5 C 181.01,22.7107 220.177,38.7107 251,74.5C 282.113,117.145 287.113,162.811 266,211.5C 245.863,250.611 214.03,274.111 170.5,282C 114.824,288.351 71.3245,268.518 40,222.5C 18.0961,182.953 15.7628,142.286 33,100.5C 54.0335,58.9002 87.5335,34.2335 133.5,26.5 Z"/></g>
<g><path style="opacity:1" fill="#1da0fe" d="M 146.5,29.5 C 146.918,30.2216 147.584,30.7216 148.5,31C 147.167,31.3333 145.833,31.6667 144.5,32C 145.167,32.3333 145.833,32.6667 146.5,33C 145.167,33.3333 143.833,33.6667 142.5,34C 143.167,34.3333 143.833,34.6667 144.5,35C 142.774,36.5298 140.774,37.5298 138.5,38C 139.167,38.3333 139.833,38.6667 140.5,39C 138.774,40.5298 136.774,41.5298 134.5,42C 135.167,42.3333 135.833,42.6667 136.5,43C 131.167,48 125.833,53 120.5,58C 121.167,58.3333 121.833,58.6667 122.5,59C 121.167,59.3333 119.833,59.6667 118.5,60C 118.833,60.3333 119.167,60.6667 119.5,61C 116.456,61.3589 116.122,62.0255 118.5,63C 117.167,63.3333 115.833,63.6667 114.5,64C 114.833,64.3333 115.167,64.6667 115.5,65C 112.456,65.3589 112.122,66.0255 114.5,67C 113.28,68.6303 111.28,69.6303 108.5,70C 110.878,70.9745 110.544,71.6411 107.5,72C 107.833,72.3333 108.167,72.6667 108.5,73C 107.167,73.3333 105.833,73.6667 104.5,74C 105.167,74.3333 105.833,74.6667 106.5,75C 100.785,80.4076 95.4512,85.4076 90.5,90C 91.1667,90.3333 91.8333,90.6667 92.5,91C 90.2262,91.4702 88.2262,92.4702 86.5,94C 87.1667,94.3333 87.8333,94.6667 88.5,95C 86.2262,95.4702 84.2262,96.4702 82.5,98C 83.1667,98.3333 83.8333,98.6667 84.5,99C 83.1667,99.3333 81.8333,99.6667 80.5,100C 81.1667,100.333 81.8333,100.667 82.5,101C 81.1667,101.333 79.8333,101.667 78.5,102C 79.1667,102.333 79.8333,102.667 80.5,103C 78.7738,104.53 76.7738,105.53 74.5,106C 75.1667,106.333 75.8333,106.667 76.5,107C 75.0257,108.316 73.359,109.316 71.5,110C 71.8333,110.333 72.1667,110.667 72.5,111C 67.5488,115.592 62.2155,120.592 56.5,126C 57.1667,126.333 57.8333,126.667 58.5,127C 56.2262,127.47 54.2262,128.47 52.5,130C 53.1667,130.333 53.8333,130.667 54.5,131C 53.1667,131.333 51.8333,131.667 50.5,132C 51.1667,132.333 51.8333,132.667 52.5,133C 51.1667,133.333 49.8333,133.667 48.5,134C 49.1667,134.333 49.8333,134.667 50.5,135C 49.1667,135.333 47.8333,135.667 46.5,136C 47.1667,136.333 47.8333,136.667 48.5,137C 47.1667,137.333 45.8333,137.667 44.5,138C 45.1667,138.333 45.8333,138.667 46.5,139C 45.2801,140.63 43.2801,141.63 40.5,142C 41.1667,142.333 41.8333,142.667 42.5,143C 36.7845,148.408 31.4512,153.408 26.5,158C 26.8333,158.333 27.1667,158.667 27.5,159C 26.552,159.483 25.552,159.649 24.5,159.5C 24.5,153.5 24.5,147.5 24.5,141.5C 25.404,140.791 25.7373,139.791 25.5,138.5C 26.8734,138.657 28.2068,138.49 29.5,138C 28.8333,137.667 28.1667,137.333 27.5,137C 29.2262,135.47 31.2262,134.47 33.5,134C 31.0087,133.374 31.0087,132.541 33.5,131.5C 34.7287,130.719 36.062,130.219 37.5,130C 36.8333,129.667 36.1667,129.333 35.5,129C 37.5,127.333 39.5,125.667 41.5,124C 40.8333,123.667 40.1667,123.333 39.5,123C 41.7738,122.53 43.7738,121.53 45.5,120C 44.8333,119.667 44.1667,119.333 43.5,119C 44.8333,118.667 46.1667,118.333 47.5,118C 46.8333,117.667 46.1667,117.333 45.5,117C 46.8333,116.667 48.1667,116.333 49.5,116C 48.8333,115.667 48.1667,115.333 47.5,115C 48.8333,114.667 50.1667,114.333 51.5,114C 50.8333,113.667 50.1667,113.333 49.5,113C 50.8333,112.667 52.1667,112.333 53.5,112C 52.8333,111.667 52.1667,111.333 51.5,111C 53.5,110 55.5,109 57.5,108C 56.8333,107.667 56.1667,107.333 55.5,107C 56.8333,106.667 58.1667,106.333 59.5,106C 58.8333,105.667 58.1667,105.333 57.5,105C 58.8333,104.667 60.1667,104.333 61.5,104C 60.8333,103.667 60.1667,103.333 59.5,103C 60.8333,102.667 62.1667,102.333 63.5,102C 60.8333,101.333 60.8333,100.667 63.5,100C 62.8333,99.6667 62.1667,99.3333 61.5,99C 63.5,98.6667 65.5,98.3333 67.5,98C 64.8333,97.3333 64.8333,96.6667 67.5,96C 66.8333,95.6667 66.1667,95.3333 65.5,95C 67.7738,94.5298 69.7738,93.5298 71.5,92C 70.8333,91.6667 70.1667,91.3333 69.5,91C 71.7738,90.5298 73.7738,89.5298 75.5,88C 74.8333,87.6667 74.1667,87.3333 73.5,87C 75.7738,86.5298 77.7738,85.5298 79.5,84C 78.8333,83.6667 78.1667,83.3333 77.5,83C 79.7738,82.5298 81.7738,81.5298 83.5,80C 82.8333,79.6667 82.1667,79.3333 81.5,79C 82.8333,78.6667 84.1667,78.3333 85.5,78C 84.8333,77.6667 84.1667,77.3333 83.5,77C 85.2262,75.4702 87.2262,74.4702 89.5,74C 88.8333,73.6667 88.1667,73.3333 87.5,73C 89.2262,71.4702 91.2262,70.4702 93.5,70C 91.0087,69.3741 91.0087,68.5407 93.5,67.5C 94.7287,66.7189 96.062,66.2189 97.5,66C 96.8333,65.6667 96.1667,65.3333 95.5,65C 97.2262,63.4702 99.2262,62.4702 101.5,62C 100.833,61.6667 100.167,61.3333 99.5,61C 101.226,59.4702 103.226,58.4702 105.5,58C 102.833,57.3333 102.833,56.6667 105.5,56C 104.833,55.6667 104.167,55.3333 103.5,55C 105.774,54.5298 107.774,53.5298 109.5,52C 108.833,51.6667 108.167,51.3333 107.5,51C 108.833,50.6667 110.167,50.3333 111.5,50C 110.833,49.6667 110.167,49.3333 109.5,49C 110.833,48.6667 112.167,48.3333 113.5,48C 112.833,47.6667 112.167,47.3333 111.5,47C 112.833,46.6667 114.167,46.3333 115.5,46C 114.833,45.6667 114.167,45.3333 113.5,45C 114.833,44.6667 116.167,44.3333 117.5,44C 116.833,43.6667 116.167,43.3333 115.5,43C 117.5,42 119.5,41 121.5,40C 120.833,39.6667 120.167,39.3333 119.5,39C 120.833,38.6667 122.167,38.3333 123.5,38C 122.833,37.6667 122.167,37.3333 121.5,37C 122.833,36.6667 124.167,36.3333 125.5,36C 124.833,35.6667 124.167,35.3333 123.5,35C 124.833,34.6667 126.167,34.3333 127.5,34C 126.244,33.5831 125.577,32.7498 125.5,31.5C 132.356,29.8424 139.356,29.1758 146.5,29.5 Z"/></g>
<g><path style="opacity:1" fill="#259dfd" d="M 146.5,29.5 C 155.068,29.1019 163.401,29.7686 171.5,31.5C 169.567,31.7286 167.9,32.5619 166.5,34C 167.167,34.3333 167.833,34.6667 168.5,35C 166.226,35.4702 164.226,36.4702 162.5,38C 163.167,38.3333 163.833,38.6667 164.5,39C 162.226,39.4702 160.226,40.4702 158.5,42C 159.167,42.3333 159.833,42.6667 160.5,43C 159.167,43.3333 157.833,43.6667 156.5,44C 157.167,44.3333 157.833,44.6667 158.5,45C 157.167,45.3333 155.833,45.6667 154.5,46C 155.167,46.3333 155.833,46.6667 156.5,47C 155.167,47.3333 153.833,47.6667 152.5,48C 153.167,48.3333 153.833,48.6667 154.5,49C 153.167,49.3333 151.833,49.6667 150.5,50C 151.167,50.3333 151.833,50.6667 152.5,51C 149.5,53.3333 146.5,55.6667 143.5,58C 143.833,58.3333 144.167,58.6667 144.5,59C 141.833,61.3333 139.167,63.6667 136.5,66C 137.167,66.3333 137.833,66.6667 138.5,67C 136.226,67.4702 134.226,68.4702 132.5,70C 133.167,70.3333 133.833,70.6667 134.5,71C 132.563,71.1216 131.23,71.955 130.5,73.5C 94.6331,84.6943 73.2998,108.694 66.5,145.5C 65.7961,143.656 64.4628,143.156 62.5,144C 62.8333,144.333 63.1667,144.667 63.5,145C 60.4557,145.359 60.1224,146.026 62.5,147C 61.1667,147.333 59.8333,147.667 58.5,148C 59.1667,148.333 59.8333,148.667 60.5,149C 59.1667,149.333 57.8333,149.667 56.5,150C 58.8776,150.974 58.5443,151.641 55.5,152C 55.8333,152.333 56.1667,152.667 56.5,153C 55.1667,153.333 53.8333,153.667 52.5,154C 53.1667,154.333 53.8333,154.667 54.5,155C 49.1667,160 43.8333,165 38.5,170C 39.1667,170.333 39.8333,170.667 40.5,171C 38.2262,171.47 36.2262,172.47 34.5,174C 35.1667,174.333 35.8333,174.667 36.5,175C 34.2262,175.47 32.2262,176.47 30.5,178C 31.1667,178.333 31.8333,178.667 32.5,179C 31.1667,179.333 29.8333,179.667 28.5,180C 29.1667,180.333 29.8333,180.667 30.5,181C 29.2625,181.232 28.2625,181.732 27.5,182.5C 25.1309,175.146 24.1309,167.479 24.5,159.5C 25.552,159.649 26.552,159.483 27.5,159C 27.1667,158.667 26.8333,158.333 26.5,158C 31.4512,153.408 36.7845,148.408 42.5,143C 41.8333,142.667 41.1667,142.333 40.5,142C 43.2801,141.63 45.2801,140.63 46.5,139C 45.8333,138.667 45.1667,138.333 44.5,138C 45.8333,137.667 47.1667,137.333 48.5,137C 47.8333,136.667 47.1667,136.333 46.5,136C 47.8333,135.667 49.1667,135.333 50.5,135C 49.8333,134.667 49.1667,134.333 48.5,134C 49.8333,133.667 51.1667,133.333 52.5,133C 51.8333,132.667 51.1667,132.333 50.5,132C 51.8333,131.667 53.1667,131.333 54.5,131C 53.8333,130.667 53.1667,130.333 52.5,130C 54.2262,128.47 56.2262,127.47 58.5,127C 57.8333,126.667 57.1667,126.333 56.5,126C 62.2155,120.592 67.5488,115.592 72.5,111C 72.1667,110.667 71.8333,110.333 71.5,110C 73.359,109.316 75.0257,108.316 76.5,107C 75.8333,106.667 75.1667,106.333 74.5,106C 76.7738,105.53 78.7738,104.53 80.5,103C 79.8333,102.667 79.1667,102.333 78.5,102C 79.8333,101.667 81.1667,101.333 82.5,101C 81.8333,100.667 81.1667,100.333 80.5,100C 81.8333,99.6667 83.1667,99.3333 84.5,99C 83.8333,98.6667 83.1667,98.3333 82.5,98C 84.2262,96.4702 86.2262,95.4702 88.5,95C 87.8333,94.6667 87.1667,94.3333 86.5,94C 88.2262,92.4702 90.2262,91.4702 92.5,91C 91.8333,90.6667 91.1667,90.3333 90.5,90C 95.4512,85.4076 100.785,80.4076 106.5,75C 105.833,74.6667 105.167,74.3333 104.5,74C 105.833,73.6667 107.167,73.3333 108.5,73C 108.167,72.6667 107.833,72.3333 107.5,72C 110.544,71.6411 110.878,70.9745 108.5,70C 111.28,69.6303 113.28,68.6303 114.5,67C 112.122,66.0255 112.456,65.3589 115.5,65C 115.167,64.6667 114.833,64.3333 114.5,64C 115.833,63.6667 117.167,63.3333 118.5,63C 116.122,62.0255 116.456,61.3589 119.5,61C 119.167,60.6667 118.833,60.3333 118.5,60C 119.833,59.6667 121.167,59.3333 122.5,59C 121.833,58.6667 121.167,58.3333 120.5,58C 125.833,53 131.167,48 136.5,43C 135.833,42.6667 135.167,42.3333 134.5,42C 136.774,41.5298 138.774,40.5298 140.5,39C 139.833,38.6667 139.167,38.3333 138.5,38C 140.774,37.5298 142.774,36.5298 144.5,35C 143.833,34.6667 143.167,34.3333 142.5,34C 143.833,33.6667 145.167,33.3333 146.5,33C 145.833,32.6667 145.167,32.3333 144.5,32C 145.833,31.6667 147.167,31.3333 148.5,31C 147.584,30.7216 146.918,30.2216 146.5,29.5 Z"/></g>
<g><path style="opacity:1" fill="#2998fc" d="M 171.5,31.5 C 177.372,32.014 183.039,33.3473 188.5,35.5C 187.068,38.1023 185.068,40.2689 182.5,42C 182.833,42.3333 183.167,42.6667 183.5,43C 180.5,45.3333 177.5,47.6667 174.5,50C 175.167,50.3333 175.833,50.6667 176.5,51C 174.226,51.4702 172.226,52.4702 170.5,54C 171.167,54.3333 171.833,54.6667 172.5,55C 171.167,55.3333 169.833,55.6667 168.5,56C 169.167,56.3333 169.833,56.6667 170.5,57C 169.167,57.3333 167.833,57.6667 166.5,58C 167.167,58.3333 167.833,58.6667 168.5,59C 166.774,60.5298 164.774,61.5298 162.5,62C 164.991,62.6259 164.991,63.4593 162.5,64.5C 161.271,65.2811 159.938,65.7811 158.5,66C 159.167,66.3333 159.833,66.6667 160.5,67C 159.026,68.3161 157.359,69.3161 155.5,70C 156.056,70.3826 156.389,70.8826 156.5,71.5C 147.759,71.3271 139.093,71.9937 130.5,73.5C 131.23,71.955 132.563,71.1216 134.5,71C 133.833,70.6667 133.167,70.3333 132.5,70C 134.226,68.4702 136.226,67.4702 138.5,67C 137.833,66.6667 137.167,66.3333 136.5,66C 139.167,63.6667 141.833,61.3333 144.5,59C 144.167,58.6667 143.833,58.3333 143.5,58C 146.5,55.6667 149.5,53.3333 152.5,51C 151.833,50.6667 151.167,50.3333 150.5,50C 151.833,49.6667 153.167,49.3333 154.5,49C 153.833,48.6667 153.167,48.3333 152.5,48C 153.833,47.6667 155.167,47.3333 156.5,47C 155.833,46.6667 155.167,46.3333 154.5,46C 155.833,45.6667 157.167,45.3333 158.5,45C 157.833,44.6667 157.167,44.3333 156.5,44C 157.833,43.6667 159.167,43.3333 160.5,43C 159.833,42.6667 159.167,42.3333 158.5,42C 160.226,40.4702 162.226,39.4702 164.5,39C 163.833,38.6667 163.167,38.3333 162.5,38C 164.226,36.4702 166.226,35.4702 168.5,35C 167.833,34.6667 167.167,34.3333 166.5,34C 167.9,32.5619 169.567,31.7286 171.5,31.5 Z"/></g>
<g><path style="opacity:1" fill="#1da3fe" d="M 125.5,31.5 C 125.577,32.7498 126.244,33.5831 127.5,34C 126.167,34.3333 124.833,34.6667 123.5,35C 124.167,35.3333 124.833,35.6667 125.5,36C 124.167,36.3333 122.833,36.6667 121.5,37C 122.167,37.3333 122.833,37.6667 123.5,38C 122.167,38.3333 120.833,38.6667 119.5,39C 120.167,39.3333 120.833,39.6667 121.5,40C 119.5,41 117.5,42 115.5,43C 116.167,43.3333 116.833,43.6667 117.5,44C 116.167,44.3333 114.833,44.6667 113.5,45C 114.167,45.3333 114.833,45.6667 115.5,46C 114.167,46.3333 112.833,46.6667 111.5,47C 112.167,47.3333 112.833,47.6667 113.5,48C 112.167,48.3333 110.833,48.6667 109.5,49C 110.167,49.3333 110.833,49.6667 111.5,50C 110.167,50.3333 108.833,50.6667 107.5,51C 108.167,51.3333 108.833,51.6667 109.5,52C 107.774,53.5298 105.774,54.5298 103.5,55C 104.167,55.3333 104.833,55.6667 105.5,56C 102.833,56.6667 102.833,57.3333 105.5,58C 103.226,58.4702 101.226,59.4702 99.5,61C 100.167,61.3333 100.833,61.6667 101.5,62C 99.2262,62.4702 97.2262,63.4702 95.5,65C 96.1667,65.3333 96.8333,65.6667 97.5,66C 96.062,66.2189 94.7287,66.7189 93.5,67.5C 91.0087,68.5407 91.0087,69.3741 93.5,70C 91.2262,70.4702 89.2262,71.4702 87.5,73C 88.1667,73.3333 88.8333,73.6667 89.5,74C 87.2262,74.4702 85.2262,75.4702 83.5,77C 84.1667,77.3333 84.8333,77.6667 85.5,78C 84.1667,78.3333 82.8333,78.6667 81.5,79C 82.1667,79.3333 82.8333,79.6667 83.5,80C 81.7738,81.5298 79.7738,82.5298 77.5,83C 78.1667,83.3333 78.8333,83.6667 79.5,84C 77.7738,85.5298 75.7738,86.5298 73.5,87C 74.1667,87.3333 74.8333,87.6667 75.5,88C 73.7738,89.5298 71.7738,90.5298 69.5,91C 70.1667,91.3333 70.8333,91.6667 71.5,92C 69.7738,93.5298 67.7738,94.5298 65.5,95C 66.1667,95.3333 66.8333,95.6667 67.5,96C 64.8333,96.6667 64.8333,97.3333 67.5,98C 65.5,98.3333 63.5,98.6667 61.5,99C 62.1667,99.3333 62.8333,99.6667 63.5,100C 60.8333,100.667 60.8333,101.333 63.5,102C 62.1667,102.333 60.8333,102.667 59.5,103C 60.1667,103.333 60.8333,103.667 61.5,104C 60.1667,104.333 58.8333,104.667 57.5,105C 58.1667,105.333 58.8333,105.667 59.5,106C 58.1667,106.333 56.8333,106.667 55.5,107C 56.1667,107.333 56.8333,107.667 57.5,108C 55.5,109 53.5,110 51.5,111C 52.1667,111.333 52.8333,111.667 53.5,112C 52.1667,112.333 50.8333,112.667 49.5,113C 50.1667,113.333 50.8333,113.667 51.5,114C 50.1667,114.333 48.8333,114.667 47.5,115C 48.1667,115.333 48.8333,115.667 49.5,116C 48.1667,116.333 46.8333,116.667 45.5,117C 46.1667,117.333 46.8333,117.667 47.5,118C 46.1667,118.333 44.8333,118.667 43.5,119C 44.1667,119.333 44.8333,119.667 45.5,120C 43.7738,121.53 41.7738,122.53 39.5,123C 40.1667,123.333 40.8333,123.667 41.5,124C 39.5,125.667 37.5,127.333 35.5,129C 36.1667,129.333 36.8333,129.667 37.5,130C 36.062,130.219 34.7287,130.719 33.5,131.5C 31.0087,132.541 31.0087,133.374 33.5,134C 31.2262,134.47 29.2262,135.47 27.5,137C 28.1667,137.333 28.8333,137.667 29.5,138C 28.2068,138.49 26.8734,138.657 25.5,138.5C 25.7373,139.791 25.404,140.791 24.5,141.5C 32.2239,91.622 59.2239,56.7886 105.5,37C 112.047,34.5933 118.713,32.7599 125.5,31.5 Z"/></g>
<g><path style="opacity:1" fill="#3094fb" d="M 188.5,35.5 C 195.247,37.379 201.58,40.0456 207.5,43.5C 206.325,43.281 205.325,43.6143 204.5,44.5C 197.86,51.331 191.86,57.1643 186.5,62C 187.167,62.3333 187.833,62.6667 188.5,63C 186.226,63.4702 184.226,64.4702 182.5,66C 183.167,66.3333 183.833,66.6667 184.5,67C 183.167,67.3333 181.833,67.6667 180.5,68C 181.167,68.3333 181.833,68.6667 182.5,69C 181.167,69.3333 179.833,69.6667 178.5,70C 179.167,70.3333 179.833,70.6667 180.5,71C 179.167,71.3333 177.833,71.6667 176.5,72C 177.167,72.3333 177.833,72.6667 178.5,73C 177.167,73.3333 175.833,73.6667 174.5,74C 175.056,74.3826 175.389,74.8826 175.5,75.5C 169.195,74.06 162.861,72.7267 156.5,71.5C 156.389,70.8826 156.056,70.3826 155.5,70C 157.359,69.3161 159.026,68.3161 160.5,67C 159.833,66.6667 159.167,66.3333 158.5,66C 159.938,65.7811 161.271,65.2811 162.5,64.5C 164.991,63.4593 164.991,62.6259 162.5,62C 164.774,61.5298 166.774,60.5298 168.5,59C 167.833,58.6667 167.167,58.3333 166.5,58C 167.833,57.6667 169.167,57.3333 170.5,57C 169.833,56.6667 169.167,56.3333 168.5,56C 169.833,55.6667 171.167,55.3333 172.5,55C 171.833,54.6667 171.167,54.3333 170.5,54C 172.226,52.4702 174.226,51.4702 176.5,51C 175.833,50.6667 175.167,50.3333 174.5,50C 177.5,47.6667 180.5,45.3333 183.5,43C 183.167,42.6667 182.833,42.3333 182.5,42C 185.068,40.2689 187.068,38.1023 188.5,35.5 Z"/></g>
<g><path style="opacity:1" fill="#398efa" d="M 207.5,43.5 C 219.587,49.2083 230.253,56.8749 239.5,66.5C 235.346,66.6307 231.346,67.464 227.5,69C 227.833,69.3333 228.167,69.6667 228.5,70C 225.5,72.3333 222.5,74.6667 219.5,77C 220.167,77.3333 220.833,77.6667 221.5,78C 220.167,78.3333 218.833,78.6667 217.5,79C 218.167,79.3333 218.833,79.6667 219.5,80C 217.774,81.5298 215.774,82.5298 213.5,83C 214.167,83.3333 214.833,83.6667 215.5,84C 213.774,85.5298 211.774,86.5298 209.5,87C 210.167,87.3333 210.833,87.6667 211.5,88C 209.774,89.5298 207.774,90.5298 205.5,91C 206.167,91.3333 206.833,91.6667 207.5,92C 206.239,94.0596 204.572,95.5596 202.5,96.5C 205.3,93.6936 204.966,91.1936 201.5,89C 193.53,83.1813 184.863,78.6813 175.5,75.5C 175.389,74.8826 175.056,74.3826 174.5,74C 175.833,73.6667 177.167,73.3333 178.5,73C 177.833,72.6667 177.167,72.3333 176.5,72C 177.833,71.6667 179.167,71.3333 180.5,71C 179.833,70.6667 179.167,70.3333 178.5,70C 179.833,69.6667 181.167,69.3333 182.5,69C 181.833,68.6667 181.167,68.3333 180.5,68C 181.833,67.6667 183.167,67.3333 184.5,67C 183.833,66.6667 183.167,66.3333 182.5,66C 184.226,64.4702 186.226,63.4702 188.5,63C 187.833,62.6667 187.167,62.3333 186.5,62C 191.86,57.1643 197.86,51.331 204.5,44.5C 205.325,43.6143 206.325,43.281 207.5,43.5 Z"/></g>
<g><path style="opacity:1" fill="#4287f9" d="M 239.5,66.5 C 242.871,69.8706 245.871,73.5373 248.5,77.5C 247.127,77.3433 245.793,77.51 244.5,78C 245.167,78.3333 245.833,78.6667 246.5,79C 245.28,80.6303 243.28,81.6303 240.5,82C 241.167,82.3333 241.833,82.6667 242.5,83C 235.449,89.7382 228.782,96.0715 222.5,102C 223.167,102.333 223.833,102.667 224.5,103C 222.226,103.47 220.226,104.47 218.5,106C 220.619,106.342 220.953,107.175 219.5,108.5C 214.971,108.496 211.471,110.496 209,114.5C 208.421,115.928 208.588,117.262 209.5,118.5C 207.641,119.848 205.641,121.015 203.5,122C 203.833,122.333 204.167,122.667 204.5,123C 200.5,126.667 196.5,130.333 192.5,134C 193.167,134.333 193.833,134.667 194.5,135C 192.226,135.47 190.226,136.47 188.5,138C 189.167,138.333 189.833,138.667 190.5,139C 189.167,139.333 187.833,139.667 186.5,140C 186.833,140.333 187.167,140.667 187.5,141C 184.456,141.359 184.122,142.026 186.5,143C 185.167,143.333 183.833,143.667 182.5,144C 183.167,144.333 183.833,144.667 184.5,145C 183.167,145.333 181.833,145.667 180.5,146C 181.167,146.333 181.833,146.667 182.5,147C 181.28,148.63 179.28,149.63 176.5,150C 178.991,150.626 178.991,151.459 176.5,152.5C 175.271,153.281 173.938,153.781 172.5,154C 173.167,154.333 173.833,154.667 174.5,155C 171.833,157.333 169.167,159.667 166.5,162C 166.833,162.333 167.167,162.667 167.5,163C 165.641,163.684 163.974,164.684 162.5,166C 162.833,166.333 163.167,166.667 163.5,167C 161.641,167.684 159.974,168.684 158.5,170C 159.167,170.333 159.833,170.667 160.5,171C 158.226,171.47 156.226,172.47 154.5,174C 155.167,174.333 155.833,174.667 156.5,175C 155.167,175.333 153.833,175.667 152.5,176C 153.167,176.333 153.833,176.667 154.5,177C 153.167,177.333 151.833,177.667 150.5,178C 151.167,178.333 151.833,178.667 152.5,179C 150.817,180.286 149.151,181.453 147.5,182.5C 143.032,179.686 140.032,175.686 138.5,170.5C 143.833,169.833 149.167,169.167 154.5,168.5C 156.55,166.763 158.383,164.763 160,162.5C 160.684,161.216 160.517,160.049 159.5,159C 151.507,158.5 143.507,158.334 135.5,158.5C 135.5,156.167 135.5,153.833 135.5,151.5C 142.175,151.666 148.842,151.5 155.5,151C 157.82,148.522 159.486,145.689 160.5,142.5C 162.086,141.852 163.753,141.352 165.5,141C 164.833,140.667 164.167,140.333 163.5,140C 166.753,138.964 170.086,138.297 173.5,138C 168.167,137.333 168.167,136.667 173.5,136C 172.944,135.617 172.611,135.117 172.5,134.5C 179.26,132.464 180.26,128.797 175.5,123.5C 177.563,122.628 179.563,121.462 181.5,120C 180.833,119.667 180.167,119.333 179.5,119C 180.833,118.667 182.167,118.333 183.5,118C 182.833,117.667 182.167,117.333 181.5,117C 182.833,116.667 184.167,116.333 185.5,116C 184.833,115.667 184.167,115.333 183.5,115C 184.833,114.667 186.167,114.333 187.5,114C 186.833,113.667 186.167,113.333 185.5,113C 186.833,112.667 188.167,112.333 189.5,112C 188.833,111.667 188.167,111.333 187.5,111C 188.833,110.667 190.167,110.333 191.5,110C 190.833,109.667 190.167,109.333 189.5,109C 190.833,108.667 192.167,108.333 193.5,108C 192.833,107.667 192.167,107.333 191.5,107C 193.833,105.333 196.167,103.667 198.5,102C 197.944,101.617 197.611,101.117 197.5,100.5C 199.167,99.1667 200.833,97.8333 202.5,96.5C 204.572,95.5596 206.239,94.0596 207.5,92C 206.833,91.6667 206.167,91.3333 205.5,91C 207.774,90.5298 209.774,89.5298 211.5,88C 210.833,87.6667 210.167,87.3333 209.5,87C 211.774,86.5298 213.774,85.5298 215.5,84C 214.833,83.6667 214.167,83.3333 213.5,83C 215.774,82.5298 217.774,81.5298 219.5,80C 218.833,79.6667 218.167,79.3333 217.5,79C 218.833,78.6667 220.167,78.3333 221.5,78C 220.833,77.6667 220.167,77.3333 219.5,77C 222.5,74.6667 225.5,72.3333 228.5,70C 228.167,69.6667 227.833,69.3333 227.5,69C 231.346,67.464 235.346,66.6307 239.5,66.5 Z"/></g>
<g><path style="opacity:1" fill="#fafcfe" d="M 156.5,71.5 C 162.861,72.7267 169.195,74.06 175.5,75.5C 184.863,78.6813 193.53,83.1813 201.5,89C 204.966,91.1936 205.3,93.6936 202.5,96.5C 200.833,97.8333 199.167,99.1667 197.5,100.5C 196.127,100.657 194.793,100.49 193.5,100C 190.806,97.6535 187.806,95.8202 184.5,94.5C 170.957,86.6575 156.291,83.6575 140.5,85.5C 111.215,91.2851 91.7154,108.285 82,136.5C 80.9246,140.77 80.4246,145.103 80.5,149.5C 79.6893,162.232 82.0226,174.232 87.5,185.5C 88.9421,188.22 90.2754,191.054 91.5,194C 89.2785,197.723 86.2785,200.557 82.5,202.5C 78.1527,197.807 74.8194,192.473 72.5,186.5C 70.4511,180.251 68.7845,173.918 67.5,167.5C 66.6076,160.209 66.2743,152.876 66.5,145.5C 73.2998,108.694 94.6331,84.6943 130.5,73.5C 139.093,71.9937 147.759,71.3271 156.5,71.5 Z"/></g>
<g><path style="opacity:1" fill="#4a81f7" d="M 248.5,77.5 C 256.006,86.4972 262.006,96.4972 266.5,107.5C 264.932,106.527 263.265,106.36 261.5,107C 262.167,107.333 262.833,107.667 263.5,108C 261.774,109.53 259.774,110.53 257.5,111C 258.167,111.333 258.833,111.667 259.5,112C 257.774,113.53 255.774,114.53 253.5,115C 254.167,115.333 254.833,115.667 255.5,116C 253.5,117.667 251.5,119.333 249.5,121C 250.167,121.333 250.833,121.667 251.5,122C 249.226,122.47 247.226,123.47 245.5,125C 246.167,125.333 246.833,125.667 247.5,126C 246.167,126.333 244.833,126.667 243.5,127C 244.167,127.333 244.833,127.667 245.5,128C 244.167,128.333 242.833,128.667 241.5,129C 242.167,129.333 242.833,129.667 243.5,130C 242.167,130.333 240.833,130.667 239.5,131C 240.167,131.333 240.833,131.667 241.5,132C 240.167,132.333 238.833,132.667 237.5,133C 238.167,133.333 238.833,133.667 239.5,134C 238.167,134.333 236.833,134.667 235.5,135C 236.167,135.333 236.833,135.667 237.5,136C 235.046,136.59 233.379,137.424 232.5,138.5C 229.857,127.869 225.523,117.869 219.5,108.5C 220.953,107.175 220.619,106.342 218.5,106C 220.226,104.47 222.226,103.47 224.5,103C 223.833,102.667 223.167,102.333 222.5,102C 228.782,96.0715 235.449,89.7382 242.5,83C 241.833,82.6667 241.167,82.3333 240.5,82C 243.28,81.6303 245.28,80.6303 246.5,79C 245.833,78.6667 245.167,78.3333 244.5,78C 245.793,77.51 247.127,77.3433 248.5,77.5 Z"/></g>
<g><path style="opacity:1" fill="#3293fb" d="M 140.5,85.5 C 156.291,83.6575 170.957,86.6575 184.5,94.5C 179.755,99.3989 174.421,104.566 168.5,110C 169.167,110.333 169.833,110.667 170.5,111C 168.226,111.47 166.226,112.47 164.5,114C 165.056,114.383 165.389,114.883 165.5,115.5C 144.054,110.251 130.054,118.251 123.5,139.5C 120.215,140.324 116.882,140.824 113.5,141C 110.012,143.714 108.679,147.047 109.5,151C 113.486,151.499 117.486,151.666 121.5,151.5C 121.674,153.861 122.007,156.194 122.5,158.5C 114.485,156.655 109.818,159.655 108.5,167.5C 107.842,166.602 107.176,165.602 106.5,164.5C 105.107,165.863 103.441,166.696 101.5,167C 102.167,167.333 102.833,167.667 103.5,168C 101.774,169.53 99.7738,170.53 97.5,171C 99.9913,171.626 99.9913,172.459 97.5,173.5C 96.2713,174.281 94.938,174.781 93.5,175C 96.1667,175.667 96.1667,176.333 93.5,177C 94.1667,177.333 94.8333,177.667 95.5,178C 93.2262,178.47 91.2262,179.47 89.5,181C 90.1667,181.333 90.8333,181.667 91.5,182C 90.1667,182.333 88.8333,182.667 87.5,183C 88.1667,183.333 88.8333,183.667 89.5,184C 88.5842,184.278 87.9175,184.778 87.5,185.5C 82.0226,174.232 79.6893,162.232 80.5,149.5C 84.6087,146.231 88.6087,142.731 92.5,139C 92.1667,138.667 91.8333,138.333 91.5,138C 93.359,137.316 95.0257,136.316 96.5,135C 95.8333,134.667 95.1667,134.333 94.5,134C 96.7738,133.53 98.7738,132.53 100.5,131C 99.8333,130.667 99.1667,130.333 98.5,130C 99.8333,129.667 101.167,129.333 102.5,129C 101.833,128.667 101.167,128.333 100.5,128C 101.833,127.667 103.167,127.333 104.5,127C 103.833,126.667 103.167,126.333 102.5,126C 103.833,125.667 105.167,125.333 106.5,125C 105.833,124.667 105.167,124.333 104.5,124C 105.833,123.667 107.167,123.333 108.5,123C 107.833,122.667 107.167,122.333 106.5,122C 108.226,120.47 110.226,119.47 112.5,119C 111.833,118.667 111.167,118.333 110.5,118C 116.782,112.072 123.449,105.738 130.5,99C 129.833,98.6667 129.167,98.3333 128.5,98C 129.833,97.6667 131.167,97.3333 132.5,97C 132.167,96.6667 131.833,96.3333 131.5,96C 134.544,95.6411 134.878,94.9745 132.5,94C 133.833,93.6667 135.167,93.3333 136.5,93C 136.167,92.6667 135.833,92.3333 135.5,92C 138.544,91.6411 138.878,90.9745 136.5,90C 137.5,89.6667 138.5,89.3333 139.5,89C 139.167,88.6667 138.833,88.3333 138.5,88C 139.833,87.6667 141.167,87.3333 142.5,87C 141.584,86.7216 140.918,86.2216 140.5,85.5 Z"/></g>
<g><path style="opacity:1" fill="#2f99fc" d="M 140.5,85.5 C 140.918,86.2216 141.584,86.7216 142.5,87C 141.167,87.3333 139.833,87.6667 138.5,88C 138.833,88.3333 139.167,88.6667 139.5,89C 138.5,89.3333 137.5,89.6667 136.5,90C 138.878,90.9745 138.544,91.6411 135.5,92C 135.833,92.3333 136.167,92.6667 136.5,93C 135.167,93.3333 133.833,93.6667 132.5,94C 134.878,94.9745 134.544,95.6411 131.5,96C 131.833,96.3333 132.167,96.6667 132.5,97C 131.167,97.3333 129.833,97.6667 128.5,98C 129.167,98.3333 129.833,98.6667 130.5,99C 123.449,105.738 116.782,112.072 110.5,118C 111.167,118.333 111.833,118.667 112.5,119C 110.226,119.47 108.226,120.47 106.5,122C 107.167,122.333 107.833,122.667 108.5,123C 107.167,123.333 105.833,123.667 104.5,124C 105.167,124.333 105.833,124.667 106.5,125C 105.167,125.333 103.833,125.667 102.5,126C 103.167,126.333 103.833,126.667 104.5,127C 103.167,127.333 101.833,127.667 100.5,128C 101.167,128.333 101.833,128.667 102.5,129C 101.167,129.333 99.8333,129.667 98.5,130C 99.1667,130.333 99.8333,130.667 100.5,131C 98.7738,132.53 96.7738,133.53 94.5,134C 95.1667,134.333 95.8333,134.667 96.5,135C 95.0257,136.316 93.359,137.316 91.5,138C 91.8333,138.333 92.1667,138.667 92.5,139C 88.6087,142.731 84.6087,146.231 80.5,149.5C 80.4246,145.103 80.9246,140.77 82,136.5C 91.7154,108.285 111.215,91.2851 140.5,85.5 Z"/></g>
<g><path style="opacity:1" fill="#3e8cfa" d="M 184.5,94.5 C 187.806,95.8202 190.806,97.6535 193.5,100C 194.793,100.49 196.127,100.657 197.5,100.5C 197.611,101.117 197.944,101.617 198.5,102C 196.167,103.667 193.833,105.333 191.5,107C 192.167,107.333 192.833,107.667 193.5,108C 192.167,108.333 190.833,108.667 189.5,109C 190.167,109.333 190.833,109.667 191.5,110C 190.167,110.333 188.833,110.667 187.5,111C 188.167,111.333 188.833,111.667 189.5,112C 188.167,112.333 186.833,112.667 185.5,113C 186.167,113.333 186.833,113.667 187.5,114C 186.167,114.333 184.833,114.667 183.5,115C 184.167,115.333 184.833,115.667 185.5,116C 184.167,116.333 182.833,116.667 181.5,117C 182.167,117.333 182.833,117.667 183.5,118C 182.167,118.333 180.833,118.667 179.5,119C 180.167,119.333 180.833,119.667 181.5,120C 179.563,121.462 177.563,122.628 175.5,123.5C 172.61,120.375 169.277,117.708 165.5,115.5C 165.389,114.883 165.056,114.383 164.5,114C 166.226,112.47 168.226,111.47 170.5,111C 169.833,110.667 169.167,110.333 168.5,110C 174.421,104.566 179.755,99.3989 184.5,94.5 Z"/></g>
<g><path style="opacity:1" fill="#fafbfe" d="M 219.5,108.5 C 225.523,117.869 229.857,127.869 232.5,138.5C 233.988,149.889 233.655,161.223 231.5,172.5C 223.687,202.979 205.021,223.645 175.5,234.5C 164.062,237.586 152.396,238.919 140.5,238.5C 128.96,236.653 117.96,232.987 107.5,227.5C 103.645,224.64 99.8118,221.64 96,218.5C 95.235,216.934 95.4017,215.601 96.5,214.5C 97.5,214.167 98.1667,213.5 98.5,212.5C 100.559,209.851 103.225,209.018 106.5,210C 111.23,213.364 116.23,216.197 121.5,218.5C 122.6,219.558 123.934,220.392 125.5,221C 134.594,223.986 143.927,225.152 153.5,224.5C 186.431,221.407 207.931,204.074 218,172.5C 219.162,166.555 219.662,160.555 219.5,154.5C 219.823,148.365 219.156,142.365 217.5,136.5C 215.912,129.993 213.245,123.993 209.5,118.5C 208.588,117.262 208.421,115.928 209,114.5C 211.471,110.496 214.971,108.496 219.5,108.5 Z"/></g>
<g><path style="opacity:1" fill="#557af6" d="M 266.5,107.5 C 270.407,116.459 273.074,125.792 274.5,135.5C 273.596,134.791 273.263,133.791 273.5,132.5C 272.127,132.343 270.793,132.51 269.5,133C 270.167,133.333 270.833,133.667 271.5,134C 270.167,134.333 268.833,134.667 267.5,135C 270.167,135.667 270.167,136.333 267.5,137C 268.167,137.333 268.833,137.667 269.5,138C 265.304,137.972 261.638,139.305 258.5,142C 259.167,142.333 259.833,142.667 260.5,143C 258.226,143.47 256.226,144.47 254.5,146C 255.167,146.333 255.833,146.667 256.5,147C 255.167,147.333 253.833,147.667 252.5,148C 253.167,148.333 253.833,148.667 254.5,149C 253.167,149.333 251.833,149.667 250.5,150C 251.167,150.333 251.833,150.667 252.5,151C 251.167,151.333 249.833,151.667 248.5,152C 249.167,152.333 249.833,152.667 250.5,153C 249.167,153.333 247.833,153.667 246.5,154C 247.167,154.333 247.833,154.667 248.5,155C 246.774,156.53 244.774,157.53 242.5,158C 243.167,158.333 243.833,158.667 244.5,159C 239.994,162.683 235.661,167.183 231.5,172.5C 233.655,161.223 233.988,149.889 232.5,138.5C 233.379,137.424 235.046,136.59 237.5,136C 236.833,135.667 236.167,135.333 235.5,135C 236.833,134.667 238.167,134.333 239.5,134C 238.833,133.667 238.167,133.333 237.5,133C 238.833,132.667 240.167,132.333 241.5,132C 240.833,131.667 240.167,131.333 239.5,131C 240.833,130.667 242.167,130.333 243.5,130C 242.833,129.667 242.167,129.333 241.5,129C 242.833,128.667 244.167,128.333 245.5,128C 244.833,127.667 244.167,127.333 243.5,127C 244.833,126.667 246.167,126.333 247.5,126C 246.833,125.667 246.167,125.333 245.5,125C 247.226,123.47 249.226,122.47 251.5,122C 250.833,121.667 250.167,121.333 249.5,121C 251.5,119.333 253.5,117.667 255.5,116C 254.833,115.667 254.167,115.333 253.5,115C 255.774,114.53 257.774,113.53 259.5,112C 258.833,111.667 258.167,111.333 257.5,111C 259.774,110.53 261.774,109.53 263.5,108C 262.833,107.667 262.167,107.333 261.5,107C 263.265,106.36 264.932,106.527 266.5,107.5 Z"/></g>
<g><path style="opacity:1" fill="#fbfcfe" d="M 165.5,115.5 C 169.277,117.708 172.61,120.375 175.5,123.5C 180.26,128.797 179.26,132.464 172.5,134.5C 171.577,135.303 170.577,135.47 169.5,135C 163.666,125.282 155.666,122.948 145.5,128C 142.018,131.477 139.352,135.477 137.5,140C 144.5,140.333 151.5,140.667 158.5,141C 159.044,141.717 159.711,142.217 160.5,142.5C 159.486,145.689 157.82,148.522 155.5,151C 148.842,151.5 142.175,151.666 135.5,151.5C 135.5,153.833 135.5,156.167 135.5,158.5C 143.507,158.334 151.507,158.5 159.5,159C 160.517,160.049 160.684,161.216 160,162.5C 158.383,164.763 156.55,166.763 154.5,168.5C 148.794,168.171 143.128,168.505 137.5,169.5C 137.624,170.107 137.957,170.44 138.5,170.5C 140.032,175.686 143.032,179.686 147.5,182.5C 151.587,184.971 155.92,185.137 160.5,183C 164.367,180.298 167.7,177.131 170.5,173.5C 172.97,174.237 175.304,175.237 177.5,176.5C 179.273,177.314 179.773,178.648 179,180.5C 170.251,194.919 157.751,199.586 141.5,194.5C 136.194,191.194 131.861,186.861 128.5,181.5C 126.544,177.803 124.878,173.969 123.5,170C 118.833,169.667 114.167,169.333 109.5,169C 108.944,168.617 108.611,168.117 108.5,167.5C 109.818,159.655 114.485,156.655 122.5,158.5C 122.007,156.194 121.674,153.861 121.5,151.5C 117.486,151.666 113.486,151.499 109.5,151C 108.679,147.047 110.012,143.714 113.5,141C 116.882,140.824 120.215,140.324 123.5,139.5C 130.054,118.251 144.054,110.251 165.5,115.5 Z"/></g>
<g><path style="opacity:1" fill="#4983f8" d="M 209.5,118.5 C 213.245,123.993 215.912,129.993 217.5,136.5C 216.85,136.196 216.183,135.863 215.5,135.5C 212.371,138.779 208.704,142.279 204.5,146C 205.167,146.333 205.833,146.667 206.5,147C 204.226,147.47 202.226,148.47 200.5,150C 201.167,150.333 201.833,150.667 202.5,151C 201.167,151.333 199.833,151.667 198.5,152C 198.833,152.333 199.167,152.667 199.5,153C 196.456,153.359 196.122,154.026 198.5,155C 197.167,155.333 195.833,155.667 194.5,156C 195.167,156.333 195.833,156.667 196.5,157C 195.167,157.333 193.833,157.667 192.5,158C 193.167,158.333 193.833,158.667 194.5,159C 193.28,160.63 191.28,161.63 188.5,162C 190.891,162.691 190.891,163.691 188.5,165C 187.167,165.333 185.833,165.667 184.5,166C 185.167,166.333 185.833,166.667 186.5,167C 182.958,169.707 179.958,172.874 177.5,176.5C 175.304,175.237 172.97,174.237 170.5,173.5C 167.7,177.131 164.367,180.298 160.5,183C 155.92,185.137 151.587,184.971 147.5,182.5C 149.151,181.453 150.817,180.286 152.5,179C 151.833,178.667 151.167,178.333 150.5,178C 151.833,177.667 153.167,177.333 154.5,177C 153.833,176.667 153.167,176.333 152.5,176C 153.833,175.667 155.167,175.333 156.5,175C 155.833,174.667 155.167,174.333 154.5,174C 156.226,172.47 158.226,171.47 160.5,171C 159.833,170.667 159.167,170.333 158.5,170C 159.974,168.684 161.641,167.684 163.5,167C 163.167,166.667 162.833,166.333 162.5,166C 163.974,164.684 165.641,163.684 167.5,163C 167.167,162.667 166.833,162.333 166.5,162C 169.167,159.667 171.833,157.333 174.5,155C 173.833,154.667 173.167,154.333 172.5,154C 173.938,153.781 175.271,153.281 176.5,152.5C 178.991,151.459 178.991,150.626 176.5,150C 179.28,149.63 181.28,148.63 182.5,147C 181.833,146.667 181.167,146.333 180.5,146C 181.833,145.667 183.167,145.333 184.5,145C 183.833,144.667 183.167,144.333 182.5,144C 183.833,143.667 185.167,143.333 186.5,143C 184.122,142.026 184.456,141.359 187.5,141C 187.167,140.667 186.833,140.333 186.5,140C 187.833,139.667 189.167,139.333 190.5,139C 189.833,138.667 189.167,138.333 188.5,138C 190.226,136.47 192.226,135.47 194.5,135C 193.833,134.667 193.167,134.333 192.5,134C 196.5,130.333 200.5,126.667 204.5,123C 204.167,122.667 203.833,122.333 203.5,122C 205.641,121.015 207.641,119.848 209.5,118.5 Z"/></g>
<g><path style="opacity:1" fill="#3f8dfa" d="M 172.5,134.5 C 172.611,135.117 172.944,135.617 173.5,136C 168.167,136.667 168.167,137.333 173.5,138C 170.086,138.297 166.753,138.964 163.5,140C 164.167,140.333 164.833,140.667 165.5,141C 163.753,141.352 162.086,141.852 160.5,142.5C 159.711,142.217 159.044,141.717 158.5,141C 151.5,140.667 144.5,140.333 137.5,140C 139.352,135.477 142.018,131.477 145.5,128C 155.666,122.948 163.666,125.282 169.5,135C 170.577,135.47 171.577,135.303 172.5,134.5 Z"/></g>
<g><path style="opacity:1" fill="#5b75f5" d="M 274.5,135.5 C 275.098,140.813 275.431,146.146 275.5,151.5C 273.567,151.729 271.9,152.562 270.5,154C 271.167,154.333 271.833,154.667 272.5,155C 270.226,155.47 268.226,156.47 266.5,158C 267.167,158.333 267.833,158.667 268.5,159C 267.167,159.333 265.833,159.667 264.5,160C 265.167,160.333 265.833,160.667 266.5,161C 265.167,161.333 263.833,161.667 262.5,162C 263.167,162.333 263.833,162.667 264.5,163C 262.774,164.53 260.774,165.53 258.5,166C 259.167,166.333 259.833,166.667 260.5,167C 258.774,168.53 256.774,169.53 254.5,170C 255.167,170.333 255.833,170.667 256.5,171C 251.549,175.592 246.215,180.592 240.5,186C 241.167,186.333 241.833,186.667 242.5,187C 241.167,187.333 239.833,187.667 238.5,188C 238.833,188.333 239.167,188.667 239.5,189C 236.456,189.359 236.122,190.026 238.5,191C 237.167,191.333 235.833,191.667 234.5,192C 234.833,192.333 235.167,192.667 235.5,193C 232.456,193.359 232.122,194.026 234.5,195C 232.5,196 230.5,197 228.5,198C 230.878,198.974 230.544,199.641 227.5,200C 227.833,200.333 228.167,200.667 228.5,201C 227.167,201.333 225.833,201.667 224.5,202C 225.167,202.333 225.833,202.667 226.5,203C 219.449,209.738 212.782,216.072 206.5,222C 207.167,222.333 207.833,222.667 208.5,223C 206.226,223.47 204.226,224.47 202.5,226C 203.167,226.333 203.833,226.667 204.5,227C 203.167,227.333 201.833,227.667 200.5,228C 201.167,228.333 201.833,228.667 202.5,229C 201.167,229.333 199.833,229.667 198.5,230C 199.167,230.333 199.833,230.667 200.5,231C 199.167,231.333 197.833,231.667 196.5,232C 197.167,232.333 197.833,232.667 198.5,233C 197.167,233.333 195.833,233.667 194.5,234C 195.167,234.333 195.833,234.667 196.5,235C 194.774,236.53 192.774,237.53 190.5,238C 192.991,238.626 192.991,239.459 190.5,240.5C 185.445,245.7 179.445,251.534 172.5,258C 173.167,258.333 173.833,258.667 174.5,259C 173.167,259.333 171.833,259.667 170.5,260C 170.833,260.333 171.167,260.667 171.5,261C 168.456,261.359 168.122,262.026 170.5,263C 169.167,263.333 167.833,263.667 166.5,264C 167.167,264.333 167.833,264.667 168.5,265C 167.167,265.333 165.833,265.667 164.5,266C 165.167,266.333 165.833,266.667 166.5,267C 165.28,268.63 163.28,269.63 160.5,270C 161.167,270.333 161.833,270.667 162.5,271C 160.774,272.53 158.774,273.53 156.5,274C 157.167,274.333 157.833,274.667 158.5,275C 156.304,276.699 154.304,278.533 152.5,280.5C 145.142,280.582 137.809,280.248 130.5,279.5C 134.871,273.947 140.204,268.447 146.5,263C 145.833,262.667 145.167,262.333 144.5,262C 146.774,261.53 148.774,260.53 150.5,259C 149.833,258.667 149.167,258.333 148.5,258C 149.833,257.667 151.167,257.333 152.5,257C 152.167,256.667 151.833,256.333 151.5,256C 154.544,255.641 154.878,254.974 152.5,254C 153.833,253.667 155.167,253.333 156.5,253C 154.122,252.026 154.456,251.359 157.5,251C 157.167,250.667 156.833,250.333 156.5,250C 158.167,249 159.833,248 161.5,247C 161.167,246.667 160.833,246.333 160.5,246C 164.089,243.853 167.756,241.853 171.5,240C 170.833,239.667 170.167,239.333 169.5,239C 172.496,238.684 174.496,237.184 175.5,234.5C 205.021,223.645 223.687,202.979 231.5,172.5C 235.661,167.183 239.994,162.683 244.5,159C 243.833,158.667 243.167,158.333 242.5,158C 244.774,157.53 246.774,156.53 248.5,155C 247.833,154.667 247.167,154.333 246.5,154C 247.833,153.667 249.167,153.333 250.5,153C 249.833,152.667 249.167,152.333 248.5,152C 249.833,151.667 251.167,151.333 252.5,151C 251.833,150.667 251.167,150.333 250.5,150C 251.833,149.667 253.167,149.333 254.5,149C 253.833,148.667 253.167,148.333 252.5,148C 253.833,147.667 255.167,147.333 256.5,147C 255.833,146.667 255.167,146.333 254.5,146C 256.226,144.47 258.226,143.47 260.5,143C 259.833,142.667 259.167,142.333 258.5,142C 261.638,139.305 265.304,137.972 269.5,138C 268.833,137.667 268.167,137.333 267.5,137C 270.167,136.333 270.167,135.667 267.5,135C 268.833,134.667 270.167,134.333 271.5,134C 270.833,133.667 270.167,133.333 269.5,133C 270.793,132.51 272.127,132.343 273.5,132.5C 273.263,133.791 273.596,134.791 274.5,135.5 Z"/></g>
<g><path style="opacity:1" fill="#4d7ff7" d="M 217.5,136.5 C 219.156,142.365 219.823,148.365 219.5,154.5C 218.069,155.082 216.736,155.915 215.5,157C 216.167,157.333 216.833,157.667 217.5,158C 215.226,158.47 213.226,159.47 211.5,161C 212.167,161.333 212.833,161.667 213.5,162C 211.226,162.47 209.226,163.47 207.5,165C 208.167,165.333 208.833,165.667 209.5,166C 208.167,166.333 206.833,166.667 205.5,167C 206.167,167.333 206.833,167.667 207.5,168C 205.774,169.53 203.774,170.53 201.5,171C 202.167,171.333 202.833,171.667 203.5,172C 202.167,172.333 200.833,172.667 199.5,173C 200.167,173.333 200.833,173.667 201.5,174C 200.167,174.333 198.833,174.667 197.5,175C 198.167,175.333 198.833,175.667 199.5,176C 197.774,177.53 195.774,178.53 193.5,179C 194.167,179.333 194.833,179.667 195.5,180C 193.774,181.53 191.774,182.53 189.5,183C 190.167,183.333 190.833,183.667 191.5,184C 189.774,185.53 187.774,186.53 185.5,187C 188.167,187.667 188.167,188.333 185.5,189C 186.167,189.333 186.833,189.667 187.5,190C 185.226,190.47 183.226,191.47 181.5,193C 182.167,193.333 182.833,193.667 183.5,194C 182.167,194.333 180.833,194.667 179.5,195C 180.167,195.333 180.833,195.667 181.5,196C 180.167,196.333 178.833,196.667 177.5,197C 178.167,197.333 178.833,197.667 179.5,198C 178.167,198.333 176.833,198.667 175.5,199C 176.167,199.333 176.833,199.667 177.5,200C 176.167,200.333 174.833,200.667 173.5,201C 174.167,201.333 174.833,201.667 175.5,202C 174.167,202.333 172.833,202.667 171.5,203C 172.167,203.333 172.833,203.667 173.5,204C 172.167,204.333 170.833,204.667 169.5,205C 170.167,205.333 170.833,205.667 171.5,206C 170.167,206.333 168.833,206.667 167.5,207C 168.167,207.333 168.833,207.667 169.5,208C 168.167,208.333 166.833,208.667 165.5,209C 166.167,209.333 166.833,209.667 167.5,210C 166.167,210.333 164.833,210.667 163.5,211C 164.167,211.333 164.833,211.667 165.5,212C 163.774,213.53 161.774,214.53 159.5,215C 162.167,215.667 162.167,216.333 159.5,217C 160.167,217.333 160.833,217.667 161.5,218C 159.226,218.47 157.226,219.47 155.5,221C 156.167,221.333 156.833,221.667 157.5,222C 155.563,222.122 154.23,222.955 153.5,224.5C 143.927,225.152 134.594,223.986 125.5,221C 123.934,220.392 122.6,219.558 121.5,218.5C 121.577,217.25 122.244,216.417 123.5,216C 122.833,215.667 122.167,215.333 121.5,215C 123.774,214.53 125.774,213.53 127.5,212C 126.833,211.667 126.167,211.333 125.5,211C 127.774,210.53 129.774,209.53 131.5,208C 130.833,207.667 130.167,207.333 129.5,207C 130.833,206.667 132.167,206.333 133.5,206C 132.833,205.667 132.167,205.333 131.5,205C 133.5,204 135.5,203 137.5,202C 136.833,201.667 136.167,201.333 135.5,201C 136.833,200.667 138.167,200.333 139.5,200C 138.833,199.667 138.167,199.333 137.5,199C 138.833,198.667 140.167,198.333 141.5,198C 140.833,197.667 140.167,197.333 139.5,197C 140.756,196.583 141.423,195.75 141.5,194.5C 157.751,199.586 170.251,194.919 179,180.5C 179.773,178.648 179.273,177.314 177.5,176.5C 179.958,172.874 182.958,169.707 186.5,167C 185.833,166.667 185.167,166.333 184.5,166C 185.833,165.667 187.167,165.333 188.5,165C 190.891,163.691 190.891,162.691 188.5,162C 191.28,161.63 193.28,160.63 194.5,159C 193.833,158.667 193.167,158.333 192.5,158C 193.833,157.667 195.167,157.333 196.5,157C 195.833,156.667 195.167,156.333 194.5,156C 195.833,155.667 197.167,155.333 198.5,155C 196.122,154.026 196.456,153.359 199.5,153C 199.167,152.667 198.833,152.333 198.5,152C 199.833,151.667 201.167,151.333 202.5,151C 201.833,150.667 201.167,150.333 200.5,150C 202.226,148.47 204.226,147.47 206.5,147C 205.833,146.667 205.167,146.333 204.5,146C 208.704,142.279 212.371,138.779 215.5,135.5C 216.183,135.863 216.85,136.196 217.5,136.5 Z"/></g>
<g><path style="opacity:1" fill="#2998fc" d="M 66.5,145.5 C 66.2743,152.876 66.6076,160.209 67.5,167.5C 65.2017,168.31 62.8684,169.144 60.5,170C 61.1667,170.333 61.8333,170.667 62.5,171C 59.8333,173.333 57.1667,175.667 54.5,178C 54.8333,178.333 55.1667,178.667 55.5,179C 53.641,179.684 51.9743,180.684 50.5,182C 50.8333,182.333 51.1667,182.667 51.5,183C 49.641,183.684 47.9743,184.684 46.5,186C 47.1667,186.333 47.8333,186.667 48.5,187C 46.2262,187.47 44.2262,188.47 42.5,190C 43.1667,190.333 43.8333,190.667 44.5,191C 43.1667,191.333 41.8333,191.667 40.5,192C 41.1667,192.333 41.8333,192.667 42.5,193C 41.1667,193.333 39.8333,193.667 38.5,194C 39.1667,194.333 39.8333,194.667 40.5,195C 38.7738,196.53 36.7738,197.53 34.5,198C 35.1667,198.333 35.8333,198.667 36.5,199C 35.3094,199.698 34.3094,200.531 33.5,201.5C 30.7238,195.501 28.7238,189.167 27.5,182.5C 28.2625,181.732 29.2625,181.232 30.5,181C 29.8333,180.667 29.1667,180.333 28.5,180C 29.8333,179.667 31.1667,179.333 32.5,179C 31.8333,178.667 31.1667,178.333 30.5,178C 32.2262,176.47 34.2262,175.47 36.5,175C 35.8333,174.667 35.1667,174.333 34.5,174C 36.2262,172.47 38.2262,171.47 40.5,171C 39.8333,170.667 39.1667,170.333 38.5,170C 43.8333,165 49.1667,160 54.5,155C 53.8333,154.667 53.1667,154.333 52.5,154C 53.8333,153.667 55.1667,153.333 56.5,153C 56.1667,152.667 55.8333,152.333 55.5,152C 58.5443,151.641 58.8776,150.974 56.5,150C 57.8333,149.667 59.1667,149.333 60.5,149C 59.8333,148.667 59.1667,148.333 58.5,148C 59.8333,147.667 61.1667,147.333 62.5,147C 60.1224,146.026 60.4557,145.359 63.5,145C 63.1667,144.667 62.8333,144.333 62.5,144C 64.4628,143.156 65.7961,143.656 66.5,145.5 Z"/></g>
<g><path style="opacity:1" fill="#6071f4" d="M 275.5,151.5 C 275.946,161.466 274.946,171.132 272.5,180.5C 272.44,179.957 272.107,179.624 271.5,179.5C 265.172,185.971 257.505,193.471 248.5,202C 249.167,202.333 249.833,202.667 250.5,203C 249.167,203.333 247.833,203.667 246.5,204C 246.833,204.333 247.167,204.667 247.5,205C 244.456,205.359 244.122,206.026 246.5,207C 245.167,207.333 243.833,207.667 242.5,208C 242.833,208.333 243.167,208.667 243.5,209C 240.456,209.359 240.122,210.026 242.5,211C 241.28,212.63 239.28,213.63 236.5,214C 238.878,214.974 238.544,215.641 235.5,216C 235.833,216.333 236.167,216.667 236.5,217C 235.167,217.333 233.833,217.667 232.5,218C 233.167,218.333 233.833,218.667 234.5,219C 228.785,224.408 223.451,229.408 218.5,234C 219.167,234.333 219.833,234.667 220.5,235C 218.226,235.47 216.226,236.47 214.5,238C 215.167,238.333 215.833,238.667 216.5,239C 214.226,239.47 212.226,240.47 210.5,242C 211.167,242.333 211.833,242.667 212.5,243C 211.167,243.333 209.833,243.667 208.5,244C 209.167,244.333 209.833,244.667 210.5,245C 209.167,245.333 207.833,245.667 206.5,246C 207.167,246.333 207.833,246.667 208.5,247C 206.774,248.53 204.774,249.53 202.5,250C 203.167,250.333 203.833,250.667 204.5,251C 201.5,253.333 198.5,255.667 195.5,258C 195.833,258.333 196.167,258.667 196.5,259C 193.833,261.333 191.167,263.667 188.5,266C 189.167,266.333 189.833,266.667 190.5,267C 188.226,267.47 186.226,268.47 184.5,270C 185.167,270.333 185.833,270.667 186.5,271C 183.72,271.37 181.72,272.37 180.5,274C 182.025,275.009 183.692,275.509 185.5,275.5C 174.892,278.832 163.892,280.499 152.5,280.5C 154.304,278.533 156.304,276.699 158.5,275C 157.833,274.667 157.167,274.333 156.5,274C 158.774,273.53 160.774,272.53 162.5,271C 161.833,270.667 161.167,270.333 160.5,270C 163.28,269.63 165.28,268.63 166.5,267C 165.833,266.667 165.167,266.333 164.5,266C 165.833,265.667 167.167,265.333 168.5,265C 167.833,264.667 167.167,264.333 166.5,264C 167.833,263.667 169.167,263.333 170.5,263C 168.122,262.026 168.456,261.359 171.5,261C 171.167,260.667 170.833,260.333 170.5,260C 171.833,259.667 173.167,259.333 174.5,259C 173.833,258.667 173.167,258.333 172.5,258C 179.445,251.534 185.445,245.7 190.5,240.5C 192.991,239.459 192.991,238.626 190.5,238C 192.774,237.53 194.774,236.53 196.5,235C 195.833,234.667 195.167,234.333 194.5,234C 195.833,233.667 197.167,233.333 198.5,233C 197.833,232.667 197.167,232.333 196.5,232C 197.833,231.667 199.167,231.333 200.5,231C 199.833,230.667 199.167,230.333 198.5,230C 199.833,229.667 201.167,229.333 202.5,229C 201.833,228.667 201.167,228.333 200.5,228C 201.833,227.667 203.167,227.333 204.5,227C 203.833,226.667 203.167,226.333 202.5,226C 204.226,224.47 206.226,223.47 208.5,223C 207.833,222.667 207.167,222.333 206.5,222C 212.782,216.072 219.449,209.738 226.5,203C 225.833,202.667 225.167,202.333 224.5,202C 225.833,201.667 227.167,201.333 228.5,201C 228.167,200.667 227.833,200.333 227.5,200C 230.544,199.641 230.878,198.974 228.5,198C 230.5,197 232.5,196 234.5,195C 232.122,194.026 232.456,193.359 235.5,193C 235.167,192.667 234.833,192.333 234.5,192C 235.833,191.667 237.167,191.333 238.5,191C 236.122,190.026 236.456,189.359 239.5,189C 239.167,188.667 238.833,188.333 238.5,188C 239.833,187.667 241.167,187.333 242.5,187C 241.833,186.667 241.167,186.333 240.5,186C 246.215,180.592 251.549,175.592 256.5,171C 255.833,170.667 255.167,170.333 254.5,170C 256.774,169.53 258.774,168.53 260.5,167C 259.833,166.667 259.167,166.333 258.5,166C 260.774,165.53 262.774,164.53 264.5,163C 263.833,162.667 263.167,162.333 262.5,162C 263.833,161.667 265.167,161.333 266.5,161C 265.833,160.667 265.167,160.333 264.5,160C 265.833,159.667 267.167,159.333 268.5,159C 267.833,158.667 267.167,158.333 266.5,158C 268.226,156.47 270.226,155.47 272.5,155C 271.833,154.667 271.167,154.333 270.5,154C 271.9,152.562 273.567,151.729 275.5,151.5 Z"/></g>
<g><path style="opacity:1" fill="#547bf6" d="M 219.5,154.5 C 219.662,160.555 219.162,166.555 218,172.5C 207.931,204.074 186.431,221.407 153.5,224.5C 154.23,222.955 155.563,222.122 157.5,222C 156.833,221.667 156.167,221.333 155.5,221C 157.226,219.47 159.226,218.47 161.5,218C 160.833,217.667 160.167,217.333 159.5,217C 162.167,216.333 162.167,215.667 159.5,215C 161.774,214.53 163.774,213.53 165.5,212C 164.833,211.667 164.167,211.333 163.5,211C 164.833,210.667 166.167,210.333 167.5,210C 166.833,209.667 166.167,209.333 165.5,209C 166.833,208.667 168.167,208.333 169.5,208C 168.833,207.667 168.167,207.333 167.5,207C 168.833,206.667 170.167,206.333 171.5,206C 170.833,205.667 170.167,205.333 169.5,205C 170.833,204.667 172.167,204.333 173.5,204C 172.833,203.667 172.167,203.333 171.5,203C 172.833,202.667 174.167,202.333 175.5,202C 174.833,201.667 174.167,201.333 173.5,201C 174.833,200.667 176.167,200.333 177.5,200C 176.833,199.667 176.167,199.333 175.5,199C 176.833,198.667 178.167,198.333 179.5,198C 178.833,197.667 178.167,197.333 177.5,197C 178.833,196.667 180.167,196.333 181.5,196C 180.833,195.667 180.167,195.333 179.5,195C 180.833,194.667 182.167,194.333 183.5,194C 182.833,193.667 182.167,193.333 181.5,193C 183.226,191.47 185.226,190.47 187.5,190C 186.833,189.667 186.167,189.333 185.5,189C 188.167,188.333 188.167,187.667 185.5,187C 187.774,186.53 189.774,185.53 191.5,184C 190.833,183.667 190.167,183.333 189.5,183C 191.774,182.53 193.774,181.53 195.5,180C 194.833,179.667 194.167,179.333 193.5,179C 195.774,178.53 197.774,177.53 199.5,176C 198.833,175.667 198.167,175.333 197.5,175C 198.833,174.667 200.167,174.333 201.5,174C 200.833,173.667 200.167,173.333 199.5,173C 200.833,172.667 202.167,172.333 203.5,172C 202.833,171.667 202.167,171.333 201.5,171C 203.774,170.53 205.774,169.53 207.5,168C 206.833,167.667 206.167,167.333 205.5,167C 206.833,166.667 208.167,166.333 209.5,166C 208.833,165.667 208.167,165.333 207.5,165C 209.226,163.47 211.226,162.47 213.5,162C 212.833,161.667 212.167,161.333 211.5,161C 213.226,159.47 215.226,158.47 217.5,158C 216.833,157.667 216.167,157.333 215.5,157C 216.736,155.915 218.069,155.082 219.5,154.5 Z"/></g>
<g><path style="opacity:1" fill="#9ec2fb" d="M 154.5,168.5 C 149.167,169.167 143.833,169.833 138.5,170.5C 137.957,170.44 137.624,170.107 137.5,169.5C 143.128,168.505 148.794,168.171 154.5,168.5 Z"/></g>
<g><path style="opacity:1" fill="#3b8cfa" d="M 108.5,167.5 C 108.611,168.117 108.944,168.617 109.5,169C 114.167,169.333 118.833,169.667 123.5,170C 124.878,173.969 126.544,177.803 128.5,181.5C 126.181,180.833 123.847,180.666 121.5,181C 122.167,181.333 122.833,181.667 123.5,182C 122.167,182.333 120.833,182.667 119.5,183C 120.167,183.333 120.833,183.667 121.5,184C 120.167,184.333 118.833,184.667 117.5,185C 118.167,185.333 118.833,185.667 119.5,186C 118.167,186.333 116.833,186.667 115.5,187C 116.167,187.333 116.833,187.667 117.5,188C 116.167,188.333 114.833,188.667 113.5,189C 114.167,189.333 114.833,189.667 115.5,190C 114.167,190.333 112.833,190.667 111.5,191C 112.167,191.333 112.833,191.667 113.5,192C 111.774,193.53 109.774,194.53 107.5,195C 110.167,195.667 110.167,196.333 107.5,197C 107.833,197.333 108.167,197.667 108.5,198C 106.641,198.684 104.974,199.684 103.5,201C 103.833,201.333 104.167,201.667 104.5,202C 100.683,204.939 97.0168,208.105 93.5,211.5C 94.7886,211.832 96.4553,212.166 98.5,212.5C 98.1667,213.5 97.5,214.167 96.5,214.5C 96.2648,213.903 95.7648,213.57 95,213.5C 93.1886,214.078 91.3553,214.578 89.5,215C 90.1667,215.333 90.8333,215.667 91.5,216C 90.1667,216.333 88.8333,216.667 87.5,217C 88.1667,217.333 88.8333,217.667 89.5,218C 88.1667,218.333 86.8333,218.667 85.5,219C 86.1667,219.333 86.8333,219.667 87.5,220C 85.7738,221.53 83.7738,222.53 81.5,223C 82.1667,223.333 82.8333,223.667 83.5,224C 81.7738,225.53 79.7738,226.53 77.5,227C 79.9913,227.626 79.9913,228.459 77.5,229.5C 76.2713,230.281 74.938,230.781 73.5,231C 76.1667,231.667 76.1667,232.333 73.5,233C 73.8333,233.333 74.1667,233.667 74.5,234C 72.8333,234.333 71.1667,234.667 69.5,235C 72.1667,235.667 72.1667,236.333 69.5,237C 69.8333,237.333 70.1667,237.667 70.5,238C 69.5,238.333 68.5,238.667 67.5,239C 67.8333,239.333 68.1667,239.667 68.5,240C 66.8333,241 65.1667,242 63.5,243C 64.1667,243.333 64.8333,243.667 65.5,244C 64.2625,244.232 63.2625,244.732 62.5,245.5C 59.1951,241.859 55.8617,238.192 52.5,234.5C 53.64,233.199 54.9733,232.032 56.5,231C 56.1667,230.667 55.8333,230.333 55.5,230C 57.359,229.316 59.0257,228.316 60.5,227C 59.8333,226.667 59.1667,226.333 58.5,226C 59.8333,225.667 61.1667,225.333 62.5,225C 61.8333,224.667 61.1667,224.333 60.5,224C 61.8333,223.667 63.1667,223.333 64.5,223C 63.8333,222.667 63.1667,222.333 62.5,222C 63.8333,221.667 65.1667,221.333 66.5,221C 65.8333,220.667 65.1667,220.333 64.5,220C 65.8333,219.667 67.1667,219.333 68.5,219C 67.8333,218.667 67.1667,218.333 66.5,218C 68.2262,216.47 70.2262,215.47 72.5,215C 71.8333,214.667 71.1667,214.333 70.5,214C 74.3126,210.703 78.3126,206.87 82.5,202.5C 86.2785,200.557 89.2785,197.723 91.5,194C 90.2754,191.054 88.9421,188.22 87.5,185.5C 87.9175,184.778 88.5842,184.278 89.5,184C 88.8333,183.667 88.1667,183.333 87.5,183C 88.8333,182.667 90.1667,182.333 91.5,182C 90.8333,181.667 90.1667,181.333 89.5,181C 91.2262,179.47 93.2262,178.47 95.5,178C 94.8333,177.667 94.1667,177.333 93.5,177C 96.1667,176.333 96.1667,175.667 93.5,175C 94.938,174.781 96.2713,174.281 97.5,173.5C 99.9913,172.459 99.9913,171.626 97.5,171C 99.7738,170.53 101.774,169.53 103.5,168C 102.833,167.667 102.167,167.333 101.5,167C 103.441,166.696 105.107,165.863 106.5,164.5C 107.176,165.602 107.842,166.602 108.5,167.5 Z"/></g>
<g><path style="opacity:1" fill="#3094fb" d="M 67.5,167.5 C 68.7845,173.918 70.4511,180.251 72.5,186.5C 71.8826,186.389 71.3826,186.056 71,185.5C 66.7723,190.396 62.6057,194.563 58.5,198C 59.1667,198.333 59.8333,198.667 60.5,199C 58.2262,199.47 56.2262,200.47 54.5,202C 55.1667,202.333 55.8333,202.667 56.5,203C 55.1667,203.333 53.8333,203.667 52.5,204C 53.1667,204.333 53.8333,204.667 54.5,205C 53.1667,205.333 51.8333,205.667 50.5,206C 51.1667,206.333 51.8333,206.667 52.5,207C 51.1667,207.333 49.8333,207.667 48.5,208C 49.1667,208.333 49.8333,208.667 50.5,209C 49.1667,209.333 47.8333,209.667 46.5,210C 47.1667,210.333 47.8333,210.667 48.5,211C 46.7738,212.53 44.7738,213.53 42.5,214C 43.1667,214.333 43.8333,214.667 44.5,215C 42.9443,215.72 41.9443,216.887 41.5,218.5C 38.0506,213.265 35.384,207.598 33.5,201.5C 34.3094,200.531 35.3094,199.698 36.5,199C 35.8333,198.667 35.1667,198.333 34.5,198C 36.7738,197.53 38.7738,196.53 40.5,195C 39.8333,194.667 39.1667,194.333 38.5,194C 39.8333,193.667 41.1667,193.333 42.5,193C 41.8333,192.667 41.1667,192.333 40.5,192C 41.8333,191.667 43.1667,191.333 44.5,191C 43.8333,190.667 43.1667,190.333 42.5,190C 44.2262,188.47 46.2262,187.47 48.5,187C 47.8333,186.667 47.1667,186.333 46.5,186C 47.9743,184.684 49.641,183.684 51.5,183C 51.1667,182.667 50.8333,182.333 50.5,182C 51.9743,180.684 53.641,179.684 55.5,179C 55.1667,178.667 54.8333,178.333 54.5,178C 57.1667,175.667 59.8333,173.333 62.5,171C 61.8333,170.667 61.1667,170.333 60.5,170C 62.8684,169.144 65.2017,168.31 67.5,167.5 Z"/></g>
<g><path style="opacity:1" fill="#666df3" d="M 272.5,180.5 C 264.767,217.811 244.434,245.978 211.5,265C 203.169,269.387 194.503,272.887 185.5,275.5C 183.692,275.509 182.025,275.009 180.5,274C 181.72,272.37 183.72,271.37 186.5,271C 185.833,270.667 185.167,270.333 184.5,270C 186.226,268.47 188.226,267.47 190.5,267C 189.833,266.667 189.167,266.333 188.5,266C 191.167,263.667 193.833,261.333 196.5,259C 196.167,258.667 195.833,258.333 195.5,258C 198.5,255.667 201.5,253.333 204.5,251C 203.833,250.667 203.167,250.333 202.5,250C 204.774,249.53 206.774,248.53 208.5,247C 207.833,246.667 207.167,246.333 206.5,246C 207.833,245.667 209.167,245.333 210.5,245C 209.833,244.667 209.167,244.333 208.5,244C 209.833,243.667 211.167,243.333 212.5,243C 211.833,242.667 211.167,242.333 210.5,242C 212.226,240.47 214.226,239.47 216.5,239C 215.833,238.667 215.167,238.333 214.5,238C 216.226,236.47 218.226,235.47 220.5,235C 219.833,234.667 219.167,234.333 218.5,234C 223.451,229.408 228.785,224.408 234.5,219C 233.833,218.667 233.167,218.333 232.5,218C 233.833,217.667 235.167,217.333 236.5,217C 236.167,216.667 235.833,216.333 235.5,216C 238.544,215.641 238.878,214.974 236.5,214C 239.28,213.63 241.28,212.63 242.5,211C 240.122,210.026 240.456,209.359 243.5,209C 243.167,208.667 242.833,208.333 242.5,208C 243.833,207.667 245.167,207.333 246.5,207C 244.122,206.026 244.456,205.359 247.5,205C 247.167,204.667 246.833,204.333 246.5,204C 247.833,203.667 249.167,203.333 250.5,203C 249.833,202.667 249.167,202.333 248.5,202C 257.505,193.471 265.172,185.971 271.5,179.5C 272.107,179.624 272.44,179.957 272.5,180.5 Z"/></g>
<g><path style="opacity:1" fill="#4387f9" d="M 128.5,181.5 C 131.861,186.861 136.194,191.194 141.5,194.5C 141.423,195.75 140.756,196.583 139.5,197C 140.167,197.333 140.833,197.667 141.5,198C 140.167,198.333 138.833,198.667 137.5,199C 138.167,199.333 138.833,199.667 139.5,200C 138.167,200.333 136.833,200.667 135.5,201C 136.167,201.333 136.833,201.667 137.5,202C 135.5,203 133.5,204 131.5,205C 132.167,205.333 132.833,205.667 133.5,206C 132.167,206.333 130.833,206.667 129.5,207C 130.167,207.333 130.833,207.667 131.5,208C 129.774,209.53 127.774,210.53 125.5,211C 126.167,211.333 126.833,211.667 127.5,212C 125.774,213.53 123.774,214.53 121.5,215C 122.167,215.333 122.833,215.667 123.5,216C 122.244,216.417 121.577,217.25 121.5,218.5C 116.23,216.197 111.23,213.364 106.5,210C 103.225,209.018 100.559,209.851 98.5,212.5C 96.4553,212.166 94.7886,211.832 93.5,211.5C 97.0168,208.105 100.683,204.939 104.5,202C 104.167,201.667 103.833,201.333 103.5,201C 104.974,199.684 106.641,198.684 108.5,198C 108.167,197.667 107.833,197.333 107.5,197C 110.167,196.333 110.167,195.667 107.5,195C 109.774,194.53 111.774,193.53 113.5,192C 112.833,191.667 112.167,191.333 111.5,191C 112.833,190.667 114.167,190.333 115.5,190C 114.833,189.667 114.167,189.333 113.5,189C 114.833,188.667 116.167,188.333 117.5,188C 116.833,187.667 116.167,187.333 115.5,187C 116.833,186.667 118.167,186.333 119.5,186C 118.833,185.667 118.167,185.333 117.5,185C 118.833,184.667 120.167,184.333 121.5,184C 120.833,183.667 120.167,183.333 119.5,183C 120.833,182.667 122.167,182.333 123.5,182C 122.833,181.667 122.167,181.333 121.5,181C 123.847,180.666 126.181,180.833 128.5,181.5 Z"/></g>
<g><path style="opacity:1" fill="#378ffa" d="M 72.5,186.5 C 74.8194,192.473 78.1527,197.807 82.5,202.5C 78.3126,206.87 74.3126,210.703 70.5,214C 71.1667,214.333 71.8333,214.667 72.5,215C 70.2262,215.47 68.2262,216.47 66.5,218C 67.1667,218.333 67.8333,218.667 68.5,219C 67.1667,219.333 65.8333,219.667 64.5,220C 65.1667,220.333 65.8333,220.667 66.5,221C 65.1667,221.333 63.8333,221.667 62.5,222C 63.1667,222.333 63.8333,222.667 64.5,223C 63.1667,223.333 61.8333,223.667 60.5,224C 61.1667,224.333 61.8333,224.667 62.5,225C 61.1667,225.333 59.8333,225.667 58.5,226C 59.1667,226.333 59.8333,226.667 60.5,227C 59.0257,228.316 57.359,229.316 55.5,230C 55.8333,230.333 56.1667,230.667 56.5,231C 54.9733,232.032 53.64,233.199 52.5,234.5C 48.3523,229.552 44.6856,224.218 41.5,218.5C 41.9443,216.887 42.9443,215.72 44.5,215C 43.8333,214.667 43.1667,214.333 42.5,214C 44.7738,213.53 46.7738,212.53 48.5,211C 47.8333,210.667 47.1667,210.333 46.5,210C 47.8333,209.667 49.1667,209.333 50.5,209C 49.8333,208.667 49.1667,208.333 48.5,208C 49.8333,207.667 51.1667,207.333 52.5,207C 51.8333,206.667 51.1667,206.333 50.5,206C 51.8333,205.667 53.1667,205.333 54.5,205C 53.8333,204.667 53.1667,204.333 52.5,204C 53.8333,203.667 55.1667,203.333 56.5,203C 55.8333,202.667 55.1667,202.333 54.5,202C 56.2262,200.47 58.2262,199.47 60.5,199C 59.8333,198.667 59.1667,198.333 58.5,198C 62.6057,194.563 66.7723,190.396 71,185.5C 71.3826,186.056 71.8826,186.389 72.5,186.5 Z"/></g>
<g><path style="opacity:1" fill="#4287f8" d="M 96.5,214.5 C 95.4017,215.601 95.235,216.934 96,218.5C 99.8118,221.64 103.645,224.64 107.5,227.5C 106.325,227.281 105.325,227.614 104.5,228.5C 102.65,230.518 100.65,232.351 98.5,234C 98.8333,234.333 99.1667,234.667 99.5,235C 97.641,235.684 95.9743,236.684 94.5,238C 95.1667,238.333 95.8333,238.667 96.5,239C 94.2262,239.47 92.2262,240.47 90.5,242C 91.1667,242.333 91.8333,242.667 92.5,243C 91.1667,243.333 89.8333,243.667 88.5,244C 89.1667,244.333 89.8333,244.667 90.5,245C 89.1667,245.333 87.8333,245.667 86.5,246C 87.1667,246.333 87.8333,246.667 88.5,247C 87.1667,247.333 85.8333,247.667 84.5,248C 85.1667,248.333 85.8333,248.667 86.5,249C 85.1667,249.333 83.8333,249.667 82.5,250C 83.1667,250.333 83.8333,250.667 84.5,251C 82.7738,252.53 80.7738,253.53 78.5,254C 79.1667,254.333 79.8333,254.667 80.5,255C 79.0267,255.71 78.3601,256.876 78.5,258.5C 72.5869,254.924 67.2535,250.591 62.5,245.5C 63.2625,244.732 64.2625,244.232 65.5,244C 64.8333,243.667 64.1667,243.333 63.5,243C 65.1667,242 66.8333,241 68.5,240C 68.1667,239.667 67.8333,239.333 67.5,239C 68.5,238.667 69.5,238.333 70.5,238C 70.1667,237.667 69.8333,237.333 69.5,237C 72.1667,236.333 72.1667,235.667 69.5,235C 71.1667,234.667 72.8333,234.333 74.5,234C 74.1667,233.667 73.8333,233.333 73.5,233C 76.1667,232.333 76.1667,231.667 73.5,231C 74.938,230.781 76.2713,230.281 77.5,229.5C 79.9913,228.459 79.9913,227.626 77.5,227C 79.7738,226.53 81.7738,225.53 83.5,224C 82.8333,223.667 82.1667,223.333 81.5,223C 83.7738,222.53 85.7738,221.53 87.5,220C 86.8333,219.667 86.1667,219.333 85.5,219C 86.8333,218.667 88.1667,218.333 89.5,218C 88.8333,217.667 88.1667,217.333 87.5,217C 88.8333,216.667 90.1667,216.333 91.5,216C 90.8333,215.667 90.1667,215.333 89.5,215C 91.3553,214.578 93.1886,214.078 95,213.5C 95.7648,213.57 96.2648,213.903 96.5,214.5 Z"/></g>
<g><path style="opacity:1" fill="#4a81f7" d="M 107.5,227.5 C 117.96,232.987 128.96,236.653 140.5,238.5C 137.402,238.413 137.068,238.913 139.5,240C 137.774,241.53 135.774,242.53 133.5,243C 134.167,243.333 134.833,243.667 135.5,244C 133.774,245.53 131.774,246.53 129.5,247C 131.991,247.626 131.991,248.459 129.5,249.5C 128.271,250.281 126.938,250.781 125.5,251C 126.167,251.333 126.833,251.667 127.5,252C 125.5,253.667 123.5,255.333 121.5,257C 122.167,257.333 122.833,257.667 123.5,258C 121.5,258.333 119.5,258.667 117.5,259C 120.167,259.667 120.167,260.333 117.5,261C 118.167,261.333 118.833,261.667 119.5,262C 118.167,262.333 116.833,262.667 115.5,263C 116.167,263.333 116.833,263.667 117.5,264C 116.167,264.333 114.833,264.667 113.5,265C 114.167,265.333 114.833,265.667 115.5,266C 114.167,266.333 112.833,266.667 111.5,267C 112.167,267.333 112.833,267.667 113.5,268C 112.167,268.333 110.833,268.667 109.5,269C 110.167,269.333 110.833,269.667 111.5,270C 110.167,270.333 108.833,270.667 107.5,271C 108.167,271.333 108.833,271.667 109.5,272C 108.584,272.278 107.918,272.778 107.5,273.5C 97.1065,269.804 87.4399,264.804 78.5,258.5C 78.3601,256.876 79.0267,255.71 80.5,255C 79.8333,254.667 79.1667,254.333 78.5,254C 80.7738,253.53 82.7738,252.53 84.5,251C 83.8333,250.667 83.1667,250.333 82.5,250C 83.8333,249.667 85.1667,249.333 86.5,249C 85.8333,248.667 85.1667,248.333 84.5,248C 85.8333,247.667 87.1667,247.333 88.5,247C 87.8333,246.667 87.1667,246.333 86.5,246C 87.8333,245.667 89.1667,245.333 90.5,245C 89.8333,244.667 89.1667,244.333 88.5,244C 89.8333,243.667 91.1667,243.333 92.5,243C 91.8333,242.667 91.1667,242.333 90.5,242C 92.2262,240.47 94.2262,239.47 96.5,239C 95.8333,238.667 95.1667,238.333 94.5,238C 95.9743,236.684 97.641,235.684 99.5,235C 99.1667,234.667 98.8333,234.333 98.5,234C 100.65,232.351 102.65,230.518 104.5,228.5C 105.325,227.614 106.325,227.281 107.5,227.5 Z"/></g>
<g><path style="opacity:1" fill="#557af6" d="M 175.5,234.5 C 174.496,237.184 172.496,238.684 169.5,239C 170.167,239.333 170.833,239.667 171.5,240C 167.756,241.853 164.089,243.853 160.5,246C 160.833,246.333 161.167,246.667 161.5,247C 159.833,248 158.167,249 156.5,250C 156.833,250.333 157.167,250.667 157.5,251C 154.456,251.359 154.122,252.026 156.5,253C 155.167,253.333 153.833,253.667 152.5,254C 154.878,254.974 154.544,255.641 151.5,256C 151.833,256.333 152.167,256.667 152.5,257C 151.167,257.333 149.833,257.667 148.5,258C 149.167,258.333 149.833,258.667 150.5,259C 148.774,260.53 146.774,261.53 144.5,262C 145.167,262.333 145.833,262.667 146.5,263C 140.204,268.447 134.871,273.947 130.5,279.5C 122.619,278.258 114.952,276.258 107.5,273.5C 107.918,272.778 108.584,272.278 109.5,272C 108.833,271.667 108.167,271.333 107.5,271C 108.833,270.667 110.167,270.333 111.5,270C 110.833,269.667 110.167,269.333 109.5,269C 110.833,268.667 112.167,268.333 113.5,268C 112.833,267.667 112.167,267.333 111.5,267C 112.833,266.667 114.167,266.333 115.5,266C 114.833,265.667 114.167,265.333 113.5,265C 114.833,264.667 116.167,264.333 117.5,264C 116.833,263.667 116.167,263.333 115.5,263C 116.833,262.667 118.167,262.333 119.5,262C 118.833,261.667 118.167,261.333 117.5,261C 120.167,260.333 120.167,259.667 117.5,259C 119.5,258.667 121.5,258.333 123.5,258C 122.833,257.667 122.167,257.333 121.5,257C 123.5,255.333 125.5,253.667 127.5,252C 126.833,251.667 126.167,251.333 125.5,251C 126.938,250.781 128.271,250.281 129.5,249.5C 131.991,248.459 131.991,247.626 129.5,247C 131.774,246.53 133.774,245.53 135.5,244C 134.833,243.667 134.167,243.333 133.5,243C 135.774,242.53 137.774,241.53 139.5,240C 137.068,238.913 137.402,238.413 140.5,238.5C 152.396,238.919 164.062,237.586 175.5,234.5 Z"/></g>
</svg>
