<?xml version="1.0" encoding="UTF-8"?>
<svg xmlns="http://www.w3.org/2000/svg" xmlns:xlink="http://www.w3.org/1999/xlink" width="70px" height="70px" viewBox="0 0 70 70" version="1.1">
<g id="surface1">
<path style=" stroke:none;fill-rule:nonzero;fill:rgb(9.803922%,41.176471%,93.333333%);fill-opacity:1;" d="M 70 35 C 70 54.328125 54.328125 70 35 70 C 15.671875 70 0 54.328125 0 35 C 0 15.671875 15.671875 0 35 0 C 54.328125 0 70 15.671875 70 35 Z M 70 35 "/>
<path style=" stroke:none;fill-rule:nonzero;fill:rgb(100%,100%,100%);fill-opacity:1;" d="M 32.71875 9.253906 C 33.996094 8.582031 35.945312 8.582031 37.226562 9.253906 L 50.289062 16.097656 C 51.0625 16.5 51.488281 17.101562 51.5625 17.722656 L 51.574219 17.722656 L 51.574219 52.117188 C 51.554688 52.792969 51.128906 53.464844 50.289062 53.90625 L 37.226562 60.75 C 35.945312 61.421875 33.996094 61.421875 32.71875 60.75 L 19.65625 53.90625 C 18.820312 53.46875 18.421875 52.792969 18.402344 52.117188 C 18.398438 52.050781 18.398438 51.992188 18.402344 51.949219 L 18.402344 17.941406 C 18.402344 17.90625 18.402344 17.867188 18.402344 17.832031 L 18.402344 17.722656 L 18.40625 17.722656 C 18.464844 17.09375 18.871094 16.507812 19.65625 16.09375 Z M 49.515625 36.910156 L 37.226562 43.347656 C 35.945312 44.015625 33.996094 44.015625 32.71875 43.347656 L 20.453125 36.921875 L 20.453125 52.046875 L 32.71875 58.4375 C 33.410156 58.804688 34.128906 59.160156 34.832031 59.207031 L 34.972656 59.210938 C 35.703125 59.214844 36.414062 58.84375 37.136719 58.496094 L 49.515625 51.992188 Z M 16.273438 51.367188 C 16.273438 52.683594 16.425781 53.550781 16.734375 54.160156 C 16.992188 54.667969 17.371094 55.054688 18.066406 55.523438 L 18.105469 55.550781 C 18.257812 55.652344 18.425781 55.757812 18.632812 55.886719 L 18.871094 56.03125 L 19.613281 56.476562 L 18.550781 58.21875 L 17.71875 57.722656 L 17.578125 57.636719 C 17.335938 57.488281 17.140625 57.363281 16.953125 57.242188 C 14.96875 55.914062 14.230469 54.46875 14.214844 51.457031 L 14.214844 51.367188 Z M 33.945312 27.691406 C 33.847656 27.726562 33.757812 27.761719 33.679688 27.804688 L 20.617188 34.648438 C 20.601562 34.652344 20.589844 34.660156 20.578125 34.667969 L 20.566406 34.675781 L 20.585938 34.6875 L 20.617188 34.703125 L 33.679688 41.546875 C 33.761719 41.589844 33.851562 41.628906 33.945312 41.660156 Z M 36 27.691406 L 36 41.65625 C 36.09375 41.621094 36.183594 41.585938 36.265625 41.542969 L 49.332031 34.699219 C 49.34375 34.691406 49.355469 34.6875 49.371094 34.679688 L 49.378906 34.671875 L 49.359375 34.660156 L 49.332031 34.644531 L 36.265625 27.804688 C 36.183594 27.761719 36.09375 27.722656 36 27.691406 Z M 49.515625 20.164062 L 37.796875 26.300781 L 49.515625 32.4375 Z M 20.457031 20.175781 L 20.457031 32.425781 L 32.148438 26.300781 Z M 36.265625 11.054688 C 35.585938 10.699219 34.355469 10.699219 33.679688 11.054688 L 20.617188 17.898438 C 20.601562 17.902344 20.589844 17.910156 20.578125 17.921875 L 20.566406 17.925781 L 20.585938 17.9375 L 20.617188 17.953125 L 33.679688 24.796875 C 34.359375 25.152344 35.589844 25.152344 36.265625 24.796875 L 49.328125 17.953125 C 49.339844 17.949219 49.351562 17.941406 49.367188 17.929688 L 49.378906 17.925781 L 49.359375 17.914062 L 49.328125 17.898438 Z M 51.445312 11.804688 L 52.277344 12.304688 L 52.417969 12.386719 C 52.660156 12.535156 52.859375 12.660156 53.042969 12.785156 C 55.027344 14.113281 55.769531 15.558594 55.78125 18.566406 L 55.78125 18.660156 L 53.726562 18.660156 C 53.726562 17.339844 53.574219 16.476562 53.265625 15.863281 C 53.007812 15.359375 52.628906 14.972656 51.929688 14.5 L 51.890625 14.472656 C 51.738281 14.371094 51.570312 14.261719 51.367188 14.136719 L 51.125 13.992188 L 50.382812 13.546875 Z M 51.445312 11.804688 "/>
</g>
</svg>
