<?xml version="1.0" encoding="UTF-8"?>
<svg xmlns="http://www.w3.org/2000/svg" xmlns:xlink="http://www.w3.org/1999/xlink" width="70px" height="70px" viewBox="0 0 70 70" version="1.1">
<g id="surface1">
<path style=" stroke:none;fill-rule:nonzero;fill:rgb(0%,93.72549%,54.509804%);fill-opacity:1;" d="M 35 70 C 54.320312 70 70 54.320312 70 35 C 70 15.679688 54.320312 0 35 0 C 15.679688 0 0 15.679688 0 35 C 0 54.320312 15.679688 70 35 70 Z M 35 70 "/>
<path style=" stroke:none;fill-rule:nonzero;fill:rgb(100%,100%,100%);fill-opacity:1;" d="M 50.371094 29.539062 L 40.488281 29.539062 L 40.488281 39.425781 L 50.371094 39.425781 Z M 50.371094 29.539062 "/>
<path style=" stroke:none;fill-rule:nonzero;fill:rgb(100%,100%,100%);fill-opacity:1;" d="M 30.605469 43.121094 C 30.605469 43.847656 30.378906 44.574219 29.988281 45.191406 C 29.566406 45.808594 29.007812 46.285156 28.335938 46.5625 C 27.664062 46.84375 26.90625 46.929688 26.179688 46.789062 C 25.453125 46.648438 24.808594 46.285156 24.277344 45.78125 C 23.742188 45.246094 23.40625 44.605469 23.269531 43.875 C 23.128906 43.148438 23.210938 42.421875 23.492188 41.71875 C 23.773438 41.046875 24.246094 40.460938 24.863281 40.066406 C 25.480469 39.648438 26.179688 39.453125 26.9375 39.453125 L 30.632812 39.453125 L 30.632812 29.566406 L 26.9375 29.566406 C 24.246094 29.566406 21.617188 30.351562 19.375 31.863281 C 17.136719 33.347656 15.398438 35.476562 14.363281 37.96875 C 13.328125 40.460938 13.074219 43.175781 13.578125 45.808594 C 14.113281 48.441406 15.398438 50.875 17.304688 52.753906 C 19.207031 54.65625 21.617188 55.945312 24.246094 56.476562 C 26.878906 57.007812 29.625 56.726562 32.089844 55.691406 C 34.578125 54.65625 36.679688 52.921875 38.191406 50.679688 C 39.675781 48.441406 40.488281 45.808594 40.488281 43.121094 L 40.488281 39.394531 L 30.605469 39.394531 Z M 30.605469 43.121094 "/>
<path style=" stroke:none;fill-rule:nonzero;fill:rgb(100%,100%,100%);fill-opacity:1;" d="M 44.183594 24.585938 L 55.300781 24.585938 L 55.300781 14.699219 L 44.183594 14.699219 C 40.570312 14.699219 37.128906 16.128906 34.578125 18.675781 C 32.03125 21.222656 30.605469 24.667969 30.605469 28.28125 L 30.605469 29.511719 L 40.488281 29.511719 L 40.488281 28.28125 C 40.488281 27.300781 40.878906 26.347656 41.578125 25.648438 C 42.28125 24.949219 43.230469 24.554688 44.210938 24.554688 Z M 44.183594 24.585938 "/>
<path style=" stroke:none;fill-rule:nonzero;fill:rgb(0%,93.72549%,54.509804%);fill-opacity:1;" d="M 30.605469 39.394531 L 40.488281 39.394531 L 40.488281 29.539062 L 30.605469 29.539062 Z M 30.605469 39.394531 "/>
</g>
</svg>
