<?xml version="1.0" encoding="UTF-8"?>
<svg xmlns="http://www.w3.org/2000/svg" xmlns:xlink="http://www.w3.org/1999/xlink" width="70px" height="70px" viewBox="0 0 70 70" version="1.1">
<g id="surface1">
<path style=" stroke:none;fill-rule:nonzero;fill:rgb(90.980392%,90.588235%,90.196078%);fill-opacity:1;" d="M 70 35 C 70 54.328125 54.328125 70 35 70 C 15.671875 70 0 54.328125 0 35 C 0 15.671875 15.671875 0 35 0 C 54.328125 0 70 15.671875 70 35 Z M 70 35 "/>
<path style=" stroke:none;fill-rule:nonzero;fill:rgb(1.568627%,7.843137%,15.294118%);fill-opacity:1;" d="M 26.410156 37.886719 C 27.65625 37.886719 28.800781 37.464844 29.722656 36.757812 L 22.125 29.160156 C 21.410156 30.074219 20.996094 31.226562 20.996094 32.472656 C 20.996094 35.453125 23.421875 37.886719 26.410156 37.886719 Z M 26.410156 37.886719 "/>
<path style=" stroke:none;fill-rule:nonzero;fill:rgb(1.568627%,7.843137%,15.294118%);fill-opacity:1;" d="M 48.996094 32.46875 C 48.996094 31.222656 48.574219 30.074219 47.871094 29.15625 L 40.273438 36.746094 C 41.183594 37.460938 42.335938 37.871094 43.585938 37.871094 C 46.570312 37.886719 48.996094 35.453125 48.996094 32.46875 Z M 48.996094 32.46875 "/>
<path style=" stroke:none;fill-rule:nonzero;fill:rgb(1.568627%,7.843137%,15.294118%);fill-opacity:1;" d="M 52.820312 24.195312 L 49.460938 27.554688 C 50.574219 28.886719 51.242188 30.59375 51.242188 32.460938 C 51.242188 36.6875 47.800781 40.125 43.578125 40.125 C 41.71875 40.125 40.003906 39.453125 38.671875 38.34375 L 34.992188 42.023438 L 31.316406 38.34375 C 29.980469 39.457031 28.277344 40.125 26.410156 40.125 C 22.183594 40.125 18.746094 36.6875 18.746094 32.460938 C 18.746094 30.601562 19.417969 28.886719 20.523438 27.554688 L 17.171875 24.203125 C 15.265625 27.355469 14.167969 31.046875 14.167969 35 C 14.167969 46.503906 23.492188 55.832031 35 55.832031 C 46.507812 55.832031 55.832031 46.507812 55.832031 35 C 55.828125 31.042969 54.726562 27.355469 52.820312 24.195312 Z M 52.820312 24.195312 "/>
<path style=" stroke:none;fill-rule:nonzero;fill:rgb(1.568627%,7.843137%,15.294118%);fill-opacity:1;" d="M 50.0625 20.617188 C 46.277344 16.644531 40.917969 14.167969 34.992188 14.167969 C 29.070312 14.167969 23.710938 16.644531 19.925781 20.617188 C 19.410156 21.164062 18.925781 21.730469 18.464844 22.324219 L 34.992188 38.867188 L 51.519531 22.324219 C 51.074219 21.722656 50.582031 21.164062 50.0625 20.617188 Z M 34.992188 16.890625 C 39.871094 16.890625 44.398438 18.773438 47.800781 22.199219 L 34.992188 35.007812 L 22.183594 22.199219 C 25.589844 18.765625 30.121094 16.890625 34.992188 16.890625 Z M 34.992188 16.890625 "/>
</g>
</svg>
