<?xml version="1.0" encoding="UTF-8"?>
<svg xmlns="http://www.w3.org/2000/svg" xmlns:xlink="http://www.w3.org/1999/xlink" width="70px" height="70px" viewBox="0 0 70 70" version="1.1">
<defs>
<linearGradient id="linear0" gradientUnits="userSpaceOnUse" x1="1571.989" y1="1762.8311" x2="2397.219" y2="915.8611" gradientTransform="matrix(0.028,0,0,-0.028,0,69.940917)">
<stop offset="0" style="stop-color:rgb(94.509804%,35.294118%,14.117647%);stop-opacity:1;"/>
<stop offset="0.2118" style="stop-color:rgb(94.509804%,35.294118%,14.117647%);stop-opacity:1;"/>
<stop offset="0.6784" style="stop-color:rgb(98.431373%,69.019608%,23.137255%);stop-opacity:1;"/>
<stop offset="1" style="stop-color:rgb(98.431373%,69.019608%,23.137255%);stop-opacity:1;"/>
</linearGradient>
<linearGradient id="linear1" gradientUnits="userSpaceOnUse" x1="919.7728" y1="741.4427" x2="94.5427" y2="1588.4027" gradientTransform="matrix(0.028,0,0,-0.028,0,69.940917)">
<stop offset="0" style="stop-color:rgb(92.941176%,11.764706%,47.45098%);stop-opacity:1;"/>
<stop offset="0.2118" style="stop-color:rgb(92.941176%,11.764706%,47.45098%);stop-opacity:1;"/>
<stop offset="0.8902" style="stop-color:rgb(32.156863%,15.294118%,52.156863%);stop-opacity:1;"/>
<stop offset="1" style="stop-color:rgb(32.156863%,15.294118%,52.156863%);stop-opacity:1;"/>
</linearGradient>
</defs>
<g id="surface1">
<path style=" stroke:none;fill-rule:nonzero;fill:url(#linear0);" d="M 53 18.441406 C 49.089844 18.441406 44.824219 20.449219 40.3125 24.40625 C 38.179688 26.285156 36.328125 28.289062 34.941406 29.898438 C 34.945312 29.902344 34.945312 29.902344 34.949219 29.90625 C 34.953125 29.902344 34.957031 29.902344 34.957031 29.898438 C 34.957031 29.894531 37.144531 32.285156 39.558594 34.847656 C 40.859375 33.300781 42.730469 31.191406 44.886719 29.300781 C 48.894531 25.78125 51.511719 25.039062 53 25.039062 C 58.625 25.039062 63.195312 29.507812 63.195312 34.996094 C 63.195312 40.457031 58.621094 44.921875 52.992188 44.953125 C 52.738281 44.953125 52.40625 44.921875 52 44.832031 C 53.640625 45.542969 55.402344 46.058594 57.082031 46.058594 C 67.386719 46.058594 69.398438 39.320312 69.535156 38.84375 C 69.84375 37.59375 70.003906 36.300781 70.003906 35.007812 C 70.003906 35.003906 70.003906 35.003906 70.003906 35.003906 C 69.996094 25.871094 62.371094 18.441406 53 18.441406 Z M 53 18.441406 "/>
<path style=" stroke:none;fill-rule:nonzero;fill:url(#linear1);" d="M 17 51.558594 C 20.910156 51.558594 25.175781 49.550781 29.6875 45.59375 C 31.820312 43.714844 33.671875 41.710938 35.058594 40.101562 C 35.054688 40.097656 35.054688 40.097656 35.054688 40.09375 C 35.050781 40.097656 35.046875 40.101562 35.046875 40.101562 C 35.046875 40.101562 32.859375 37.714844 30.445312 35.152344 C 29.148438 36.695312 27.273438 38.804688 25.117188 40.699219 C 21.109375 44.21875 18.492188 44.957031 17 44.957031 C 11.378906 44.957031 6.808594 40.492188 6.808594 35 C 6.808594 29.539062 11.382812 25.078125 17.007812 25.042969 C 17.261719 25.042969 17.59375 25.074219 18 25.164062 C 16.359375 24.453125 14.597656 23.941406 12.921875 23.941406 C 2.617188 23.941406 0.605469 30.675781 0.46875 31.152344 C 0.160156 32.40625 0 33.699219 0 34.988281 C 0 34.992188 0 34.996094 0 34.996094 C 0 44.128906 7.628906 51.558594 17 51.558594 Z M 17 51.558594 "/>
<path style=" stroke:none;fill-rule:nonzero;fill:rgb(16.078431%,67.058824%,88.627451%);fill-opacity:1;" d="M 57.058594 45.890625 C 51.78125 45.761719 46.300781 41.589844 45.179688 40.554688 C 42.292969 37.878906 35.621094 30.628906 35.097656 30.0625 C 30.210938 24.574219 23.585938 18.441406 17 18.441406 L 16.984375 18.441406 C 8.980469 18.480469 2.257812 23.910156 0.46875 31.15625 C 0.605469 30.675781 3.234375 23.8125 12.914062 24.050781 C 18.1875 24.183594 23.699219 28.40625 24.816406 29.441406 C 27.707031 32.117188 34.378906 39.371094 34.898438 39.9375 C 39.789062 45.421875 46.414062 51.554688 52.996094 51.554688 L 53.011719 51.554688 C 61.015625 51.515625 67.742188 46.089844 69.53125 38.839844 C 69.394531 39.320312 66.742188 46.128906 57.058594 45.890625 Z M 57.058594 45.890625 "/>
</g>
</svg>
