<svg width="70" height="70" viewBox="0 0 70 70" fill="none" xmlns="http://www.w3.org/2000/svg">
<g clip-path="url(#clip0_1041_4608)">
<path d="M69.9204 0.0793457H0.0791016V69.9206H69.9204V0.0793457Z" fill="black" stroke="black" stroke-miterlimit="10"/>
<path d="M59.3012 20.2223C58.4758 19.5715 57.4917 18.6826 55.698 18.4604C54.0155 18.2382 52.3012 19.3651 51.1425 20.1112C49.9837 20.8572 47.7932 23.0477 46.8885 23.7144C45.9837 24.381 43.6663 25.0001 39.9361 27.2382C36.2059 29.4763 21.571 38.8731 21.571 38.8731L25.3806 38.9207L8.39642 47.6667H10.0948L7.65039 49.5239C7.65039 49.5239 9.80912 50.0953 11.6186 48.9524V49.4763C11.6186 49.4763 31.8409 41.508 35.7456 43.5715L33.3647 44.2699C33.571 44.2699 37.4123 44.5239 37.4123 44.5239C37.5055 45.3193 37.7729 46.0844 38.1954 46.7648C38.6179 47.4452 39.1851 48.0241 39.8567 48.4604C42.1742 49.9842 42.2218 50.8255 42.2218 50.8255C42.2218 50.8255 41.0155 51.3175 41.0155 51.9366C41.0155 51.9366 42.7933 51.3969 44.444 51.4445C45.4917 51.4842 46.5309 51.6494 47.5393 51.9366C47.5393 51.9366 47.4123 51.2699 45.8091 50.8255C44.2059 50.381 42.6186 48.635 41.8409 47.6826C41.3645 47.0764 41.054 46.3567 40.9399 45.5941C40.8258 44.8316 40.912 44.0525 41.1901 43.3334C41.7456 41.889 43.6821 41.0953 47.6821 39.0318C52.3964 36.5874 53.4758 34.7778 54.1425 33.3651C54.8091 31.9525 55.7932 29.1429 56.3488 27.8255C57.0472 26.1271 57.9044 25.2223 58.6186 24.6826C59.3329 24.1429 62.5075 22.9525 62.5075 22.9525C62.5075 22.9525 60.079 20.8413 59.3012 20.2223Z" fill="white"/>
</g>
<defs>
<clipPath id="clip0_1041_4608">
<rect width="70" height="70" rx="35" fill="white"/>
</clipPath>
</defs>
</svg>
