<?xml version="1.0" encoding="UTF-8"?>
<svg xmlns="http://www.w3.org/2000/svg" xmlns:xlink="http://www.w3.org/1999/xlink" width="70px" height="70px" viewBox="0 0 70 70" version="1.1">
<g id="surface1">
<path style=" stroke:none;fill-rule:evenodd;fill:rgb(0%,0%,0%);fill-opacity:1;" d="M 35 0 C 54.320312 0 70 15.679688 70 35 C 70 54.320312 54.320312 70 35 70 C 15.679688 70 0 54.320312 0 35 C 0 15.679688 15.679688 0 35 0 Z M 35 0 "/>
<path style=" stroke:none;fill-rule:nonzero;fill:rgb(100%,100%,100%);fill-opacity:1;" d="M 56.222656 21.953125 C 55.328125 21.167969 54.320312 20.550781 53.144531 20.355469 C 51.660156 20.160156 50.148438 21.140625 49.167969 21.839844 C 48.160156 22.539062 46.171875 24.332031 45.386719 25.03125 C 44.605469 25.730469 42.589844 26.125 39.3125 28.113281 C 36.035156 30.101562 23.269531 38.277344 23.269531 38.277344 L 26.542969 38.277344 L 11.703125 45.949219 L 13.1875 45.949219 L 11.089844 47.542969 C 12.292969 47.851562 13.46875 47.65625 14.589844 47.039062 L 14.589844 47.542969 C 14.589844 47.542969 32.226562 40.570312 35.617188 42.363281 L 33.515625 42.953125 C 33.710938 42.953125 37.015625 43.148438 37.015625 43.148438 C 37.210938 44.546875 38.023438 45.835938 39.199219 46.535156 C 41.1875 47.824219 41.300781 48.636719 41.300781 48.636719 C 41.300781 48.636719 40.292969 49.027344 40.292969 49.644531 C 42.195312 49.054688 44.183594 49.054688 45.976562 49.644531 C 45.976562 49.644531 45.863281 49.054688 44.492188 48.636719 C 43.09375 48.046875 41.886719 47.152344 40.992188 45.835938 C 40.207031 44.742188 39.898438 43.34375 40.402344 42.054688 C 40.90625 40.769531 42.589844 40.066406 46.089844 38.277344 C 50.175781 36.175781 51.183594 34.578125 51.660156 33.292969 C 52.164062 32.003906 53.144531 29.597656 53.5625 28.421875 C 53.957031 27.328125 54.65625 26.433594 55.550781 25.621094 C 56.644531 25.03125 57.847656 24.527344 58.941406 24.136719 C 59.136719 24.246094 56.953125 22.429688 56.253906 21.953125 Z M 56.222656 21.953125 "/>
</g>
</svg>
