<svg width="70" height="70" viewBox="0 0 70 70" fill="none" xmlns="http://www.w3.org/2000/svg">
<g clip-path="url(#clip0_1043_1961)">
<path d="M8.75 1.53101H61.25C65.1875 1.53101 68.4688 4.81226 68.4688 8.74976V61.2498C68.4688 65.1873 65.1875 68.4685 61.25 68.4685H8.75C4.8125 68.4685 1.53125 65.1873 1.53125 61.2498V8.74976C1.53125 4.81226 4.8125 1.53101 8.75 1.53101Z" fill="#2D2D2D" stroke="white" stroke-width="2.91659" stroke-miterlimit="5.3333"/>
<path d="M35 52.5C35.6562 52.5 36.0938 52.2812 36.5313 52.0625C36.9688 51.625 37.1875 51.1875 37.1875 50.5312L37.625 47.9062C35.875 48.3438 34.125 48.3438 32.375 47.9062L32.8125 50.5312C32.8125 51.1875 33.0312 51.625 33.4688 52.0625C33.9062 52.2812 34.3438 52.5 35 52.5ZM50.0938 52.0625H54.25V28.2187C54.25 24.9375 52.7188 22.75 50.0938 21.875V52.0625ZM15.75 52.0625H19.9063V21.875C17.2813 22.75 15.75 24.9375 15.75 28.2187V52.0625ZM37.625 47.9062C40.25 47.25 42.2188 45.2812 42.6562 41.7812L45.2813 21.6562C42.2188 22.3125 40.6875 24.7188 40.0312 28.4375L37.625 47.9062ZM32.375 47.9062L29.9688 28.4375C29.5312 24.7188 27.7812 22.3125 24.9375 21.6562L27.5625 41.7812C28 45.2812 29.75 47.25 32.375 47.9062ZM50.0938 21.875V20.125C50.0938 18.375 49.2188 17.5 47.9062 17.5C46.5938 17.5 45.7187 18.375 45.5 19.9063L45.2813 21.6562C46.8125 21.4375 48.5625 21.4375 50.0938 21.875ZM19.9063 21.875C20.7813 21.6562 21.875 21.4375 22.75 21.4375C23.4062 21.4375 24.0625 21.4375 24.9375 21.6562L24.7188 19.9063C24.2813 18.1563 23.4063 17.5 22.0938 17.5C20.7813 17.5 19.9063 18.375 19.9063 20.125V21.875Z" fill="#2D2D2D"/>
<path d="M37.625 47.9062L37.1875 50.5313C37.1875 51.1875 36.9688 51.625 36.5313 52.0625C36.0938 52.2812 35.6563 52.5 35 52.5C34.3438 52.5 33.9063 52.2812 33.4688 52.0625C33.0313 51.625 32.8125 51.1875 32.8125 50.5313L32.375 47.9062M37.625 47.9062C35.875 48.3437 34.125 48.3437 32.375 47.9062M37.625 47.9062C40.25 47.25 42.2188 45.2813 42.6563 41.7813L45.2813 21.6562M37.625 47.9062L40.0312 28.4375C40.6875 24.7187 42.2188 22.3125 45.2813 21.6562M32.375 47.9062L29.9688 28.4375C29.5312 24.7187 27.7812 22.3125 24.9375 21.6562M32.375 47.9062C29.75 47.25 28 45.2813 27.5625 41.7813L24.9375 21.6562M50.0937 21.875C52.7187 22.75 54.25 24.9375 54.25 28.2187V52.0625H50.0937V21.875ZM50.0937 21.875V20.125C50.0937 18.375 49.2187 17.5 47.9062 17.5C46.5937 17.5 45.7187 18.375 45.5 19.9063L45.2813 21.6562M50.0937 21.875C48.5625 21.4375 46.8125 21.4375 45.2813 21.6562M19.9063 21.875V52.0625H15.75V28.2187C15.75 24.9375 17.2813 22.75 19.9063 21.875ZM19.9063 21.875C20.7813 21.6562 21.875 21.4375 22.75 21.4375C23.4062 21.4375 24.0625 21.4375 24.9375 21.6562M19.9063 21.875V20.125C19.9063 18.375 20.7813 17.5 22.0938 17.5C23.4063 17.5 24.2813 18.1563 24.7188 19.9063L24.9375 21.6562" stroke="white" stroke-width="2.91659" stroke-miterlimit="5.3333"/>
</g>
<defs>
<clipPath id="clip0_1043_1961">
<rect width="70" height="70" fill="white"/>
</clipPath>
</defs>
</svg>
