<?xml version="1.0" encoding="UTF-8"?>
<svg xmlns="http://www.w3.org/2000/svg" xmlns:xlink="http://www.w3.org/1999/xlink" width="70px" height="70px" viewBox="0 0 70 70" version="1.1">
<g id="surface1">
<path style=" stroke:none;fill-rule:nonzero;fill:rgb(100%,1.568627%,12.54902%);fill-opacity:1;" d="M 70 35 C 70 15.679688 54.320312 0 35 0 C 15.679688 0 0 15.679688 0 35 C 0 54.320312 15.679688 70 35 70 C 54.320312 70 70 54.320312 70 35 Z M 70 35 "/>
<path style=" stroke:none;fill-rule:nonzero;fill:rgb(100%,100%,100%);fill-opacity:1;" d="M 24.808594 44.296875 C 22.707031 44.296875 21 43.792969 19.683594 42.8125 C 18.367188 41.804688 17.695312 40.375 17.695312 38.554688 C 17.695312 38.164062 17.753906 37.6875 17.835938 37.128906 C 18.058594 35.867188 18.394531 34.355469 18.816406 32.5625 C 20.019531 27.746094 23.101562 25.339844 28.054688 25.339844 C 29.398438 25.339844 30.632812 25.5625 31.695312 26.039062 C 32.761719 26.488281 33.601562 27.160156 34.214844 28.054688 C 34.832031 28.953125 35.140625 29.988281 35.140625 31.21875 C 35.140625 31.585938 35.085938 32.058594 35 32.621094 C 34.71875 34.1875 34.410156 35.699219 34.046875 37.183594 C 33.433594 39.59375 32.367188 41.382812 30.855469 42.589844 C 29.34375 43.765625 27.328125 44.351562 24.808594 44.351562 Z M 25.199219 40.515625 C 26.179688 40.515625 27.019531 40.207031 27.691406 39.648438 C 28.390625 39.058594 28.894531 38.191406 29.203125 36.988281 C 29.625 35.335938 29.933594 33.90625 30.128906 32.675781 C 30.210938 32.3125 30.238281 31.921875 30.238281 31.527344 C 30.238281 29.933594 29.398438 29.121094 27.746094 29.121094 C 26.769531 29.121094 25.929688 29.429688 25.226562 29.988281 C 24.527344 30.574219 24.050781 31.445312 23.742188 32.648438 C 23.40625 33.824219 23.101562 35.253906 22.792969 36.960938 C 22.707031 37.324219 22.679688 37.6875 22.679688 38.078125 C 22.652344 39.703125 23.519531 40.515625 25.199219 40.515625 Z M 25.199219 40.515625 "/>
<path style=" stroke:none;fill-rule:nonzero;fill:rgb(100%,100%,100%);fill-opacity:1;" d="M 36.316406 44.042969 C 36.121094 44.042969 35.980469 43.988281 35.867188 43.847656 C 35.785156 43.707031 35.757812 43.539062 35.785156 43.371094 L 39.425781 26.292969 C 39.453125 26.097656 39.5625 25.929688 39.730469 25.816406 C 39.898438 25.675781 40.066406 25.621094 40.234375 25.621094 L 47.234375 25.621094 C 49.195312 25.621094 50.734375 26.039062 51.910156 26.824219 C 53.117188 27.636719 53.703125 28.8125 53.703125 30.324219 C 53.703125 30.773438 53.648438 31.21875 53.535156 31.695312 C 53.089844 33.710938 52.21875 35.195312 50.875 36.175781 C 49.558594 37.15625 47.738281 37.632812 45.445312 37.632812 L 41.886719 37.632812 L 40.683594 43.398438 C 40.628906 43.597656 40.542969 43.765625 40.375 43.875 C 40.207031 44.015625 40.039062 44.070312 39.871094 44.070312 L 36.289062 44.070312 Z M 45.613281 33.992188 C 46.367188 33.992188 46.984375 33.796875 47.542969 33.375 C 48.105469 32.957031 48.46875 32.394531 48.664062 31.640625 C 48.71875 31.332031 48.746094 31.078125 48.746094 30.855469 C 48.746094 30.351562 48.578125 29.960938 48.300781 29.679688 C 47.992188 29.398438 47.488281 29.261719 46.761719 29.261719 L 43.597656 29.261719 L 42.589844 33.964844 L 45.613281 33.964844 Z M 45.613281 33.992188 "/>
</g>
</svg>
