<?xml version="1.0" encoding="UTF-8"?>
<svg xmlns="http://www.w3.org/2000/svg" xmlns:xlink="http://www.w3.org/1999/xlink" width="70px" height="70px" viewBox="0 0 70 70" version="1.1">
<defs>
<clipPath id="clip1">
  <path d="M 26 49 L 44 49 L 44 59.125 L 26 59.125 Z M 26 49 "/>
</clipPath>
<clipPath id="clip2">
  <path d="M 26 11.667969 L 44 11.667969 L 44 22 L 26 22 Z M 26 11.667969 "/>
</clipPath>
</defs>
<g id="surface1">
<path style=" stroke:none;fill-rule:nonzero;fill:rgb(100%,100%,100%);fill-opacity:1;" d="M 0 35 C 0 15.671875 15.671875 0 35 0 C 54.328125 0 70 15.671875 70 35 C 70 54.328125 54.328125 70 35 70 C 15.671875 70 0 54.328125 0 35 Z M 0 35 "/>
<g clip-path="url(#clip1)" clip-rule="nonzero">
<path style=" stroke:none;fill-rule:nonzero;fill:rgb(90.196078%,0%,47.843137%);fill-opacity:1;" d="M 35 59.097656 C 39.757812 59.097656 43.617188 56.871094 43.617188 54.121094 C 43.617188 51.375 39.757812 49.148438 35 49.148438 C 30.242188 49.148438 26.382812 51.375 26.382812 54.121094 C 26.382812 56.871094 30.242188 59.097656 35 59.097656 Z M 35 59.097656 "/>
</g>
<path style=" stroke:none;fill-rule:nonzero;fill:rgb(90.196078%,0%,47.843137%);fill-opacity:1;" d="M 55.691406 47.238281 C 58.070312 43.148438 58.054688 38.71875 55.65625 37.347656 C 53.261719 35.972656 49.390625 38.175781 47.011719 42.265625 C 44.632812 46.355469 44.644531 50.785156 47.042969 52.160156 C 49.4375 53.535156 53.308594 51.332031 55.691406 47.238281 Z M 55.691406 47.238281 "/>
<g clip-path="url(#clip2)" clip-rule="nonzero">
<path style=" stroke:none;fill-rule:nonzero;fill:rgb(90.196078%,0%,47.843137%);fill-opacity:1;" d="M 35 21.617188 C 39.757812 21.617188 43.617188 19.386719 43.617188 16.640625 C 43.617188 13.894531 39.757812 11.667969 35 11.667969 C 30.242188 11.667969 26.382812 13.894531 26.382812 16.640625 C 26.382812 19.386719 30.242188 21.617188 35 21.617188 Z M 35 21.617188 "/>
</g>
<path style=" stroke:none;fill-rule:nonzero;fill:rgb(90.196078%,0%,47.843137%);fill-opacity:1;" d="M 22.992188 28.5 C 25.371094 24.410156 25.355469 19.980469 22.960938 18.605469 C 20.5625 17.230469 16.6875 19.433594 14.308594 23.523438 C 11.929688 27.613281 11.945312 32.042969 14.34375 33.417969 C 16.742188 34.792969 20.613281 32.59375 22.992188 28.5 Z M 22.992188 28.5 "/>
<path style=" stroke:none;fill-rule:nonzero;fill:rgb(90.196078%,0%,47.843137%);fill-opacity:1;" d="M 22.960938 52.160156 C 25.359375 50.785156 25.375 46.355469 22.996094 42.261719 C 20.617188 38.171875 16.742188 35.96875 14.34375 37.34375 C 11.945312 38.71875 11.929688 43.148438 14.308594 47.242188 C 16.6875 51.332031 20.5625 53.535156 22.960938 52.160156 Z M 22.960938 52.160156 "/>
<path style=" stroke:none;fill-rule:nonzero;fill:rgb(90.196078%,0%,47.843137%);fill-opacity:1;" d="M 55.660156 33.421875 C 58.058594 32.046875 58.070312 27.617188 55.691406 23.527344 C 53.3125 19.433594 49.441406 17.234375 47.042969 18.605469 C 44.648438 19.980469 44.632812 24.410156 47.011719 28.5 C 49.390625 32.589844 53.261719 34.792969 55.660156 33.421875 Z M 55.660156 33.421875 "/>
</g>
</svg>
