<svg width="70" height="56" viewBox="0 0 70 56" fill="none" xmlns="http://www.w3.org/2000/svg">
<g clip-path="url(#clip0_1041_4630)">
<path d="M11.37 42.4418C11.7924 42.0194 12.3733 41.7729 12.9893 41.7729H68.8556C69.8764 41.7729 70.3869 43.005 69.6652 43.7267L58.6293 54.7626C58.2068 55.1851 57.626 55.4315 57.0099 55.4315H1.14372C0.12285 55.4315 -0.387585 54.1994 0.334065 53.4778L11.37 42.4418Z" fill="url(#paint0_linear_1041_4630)"/>
<path d="M11.37 1.23745C11.8101 0.81502 12.3909 0.568604 12.9893 0.568604H68.8556C69.8764 0.568604 70.3869 1.80069 69.6652 2.52234L58.6293 13.5583C58.2068 13.9807 57.626 14.2271 57.0099 14.2271H1.14372C0.12285 14.2271 -0.387585 12.9951 0.334065 12.2734L11.37 1.23745Z" fill="url(#paint1_linear_1041_4630)"/>
<path d="M58.6293 21.7077C58.2068 21.2852 57.626 21.0388 57.0099 21.0388H1.14372C0.12285 21.0388 -0.387585 22.2709 0.334065 22.9926L11.37 34.0285C11.7924 34.4509 12.3733 34.6974 12.9893 34.6974H68.8556C69.8764 34.6974 70.3869 33.4653 69.6652 32.7436L58.6293 21.7077Z" fill="url(#paint2_linear_1041_4630)"/>
</g>
<defs>
<linearGradient id="paint0_linear_1041_4630" x1="63.5187" y1="-6.02406" x2="24.8548" y2="68.0328" gradientUnits="userSpaceOnUse">
<stop stop-color="#00FFA3"/>
<stop offset="1" stop-color="#DC1FFF"/>
</linearGradient>
<linearGradient id="paint1_linear_1041_4630" x1="46.6128" y1="-14.8503" x2="7.94887" y2="59.2066" gradientUnits="userSpaceOnUse">
<stop stop-color="#00FFA3"/>
<stop offset="1" stop-color="#DC1FFF"/>
</linearGradient>
<linearGradient id="paint2_linear_1041_4630" x1="55.0119" y1="-10.4652" x2="16.348" y2="63.5917" gradientUnits="userSpaceOnUse">
<stop stop-color="#00FFA3"/>
<stop offset="1" stop-color="#DC1FFF"/>
</linearGradient>
<clipPath id="clip0_1041_4630">
<rect width="70" height="54.863" fill="white" transform="translate(0 0.568604)"/>
</clipPath>
</defs>
</svg>
