<svg width="71" height="70" viewBox="0 0 71 70" fill="none" xmlns="http://www.w3.org/2000/svg">
<g clip-path="url(#clip0_1043_2181)">
<path d="M35.917 70C55.247 70 70.917 54.33 70.917 35C70.917 15.67 55.247 0 35.917 0C16.587 0 0.916992 15.67 0.916992 35C0.916992 54.33 16.587 70 35.917 70Z" fill="#0088CC"/>
<path fill-rule="evenodd" clip-rule="evenodd" d="M26.1673 23.125H45.7923C46.5423 23.125 47.1673 23.25 47.9173 23.625C48.7923 24 49.2923 24.625 49.5423 25.125C49.5423 25.125 49.5423 25.25 49.6673 25.25C50.0423 25.875 50.2923 26.625 50.2923 27.5C50.2923 28.25 50.1673 29 49.6673 29.75L37.2923 51C37.0423 51.5 36.5423 51.75 35.9173 51.75C35.4173 51.75 34.9173 51.5 34.5423 51L22.4173 29.75C22.1673 29.25 21.6673 28.625 21.6673 27.625C21.5423 26.75 21.7923 26 22.1673 25.25C22.5423 24.5 23.1673 23.875 24.0423 23.625C24.7923 23.125 25.6673 23.125 26.1673 23.125ZM34.4173 26.125H26.1673C25.6673 26.125 25.4173 26.125 25.2923 26.25C25.0423 26.375 24.9173 26.5 24.7923 26.75C24.6673 26.875 24.6673 27.125 24.6673 27.375C24.6673 27.5 24.7923 27.625 25.0423 28.125L34.4173 44.375V26.125ZM37.4173 26.125V44.5L46.9173 28.125C47.0423 27.875 47.0423 27.625 47.0423 27.375C47.0423 27.125 47.0423 26.875 46.9173 26.75C46.7923 26.625 46.7923 26.5 46.6673 26.5L46.5423 26.375C46.2923 26.25 46.0423 26.25 45.6673 26.25H37.4173V26.125Z" fill="white"/>
</g>
<defs>
<clipPath id="clip0_1043_2181">
<rect width="70" height="70" fill="white" transform="translate(0.916992)"/>
</clipPath>
</defs>
</svg>
