<svg width="71" height="70" viewBox="0 0 71 70" fill="none" xmlns="http://www.w3.org/2000/svg">
<g clip-path="url(#clip0_1043_2031)">
<path d="M67.7686 21.0875C64.4873 18.0578 59.9482 13.4312 56.2514 10.15L56.0326 9.99683C55.6687 9.70455 55.2583 9.47534 54.8186 9.3187C45.9045 7.6562 4.41855 -0.0984852 3.60918 -4.76782e-05C3.38239 0.0317149 3.16561 0.113941 2.9748 0.240577L2.76699 0.40464C2.5111 0.664516 2.31675 0.978469 2.19824 1.32339L2.14355 1.46558V2.24214V2.36245C6.81387 15.3671 25.2545 57.9687 28.8857 67.9656C29.1045 68.6437 29.5201 69.9343 30.2967 69.9999H30.4717C30.8873 69.9999 32.6592 67.6593 32.6592 67.6593C32.6592 67.6593 64.3342 29.2468 67.5389 25.1562C67.9537 24.6523 68.3199 24.1103 68.6326 23.5375C68.7124 23.0892 68.6748 22.628 68.5234 22.1986C68.3719 21.7693 68.1119 21.3864 67.7686 21.0875ZM40.7857 25.5609L54.3045 14.35L62.2342 21.6562L40.7857 25.5609ZM35.5357 24.8281L12.2607 5.75308L49.9186 12.6984L35.5357 24.8281ZM37.6357 29.8265L61.4576 25.9875L34.2232 58.8L37.6357 29.8265ZM9.0998 7.6562L33.5889 28.4375L30.0451 58.8218L9.0998 7.6562Z" fill="#FF060A"/>
</g>
<defs>
<clipPath id="clip0_1043_2031">
<rect width="70" height="70" fill="white" transform="translate(0.448242)"/>
</clipPath>
</defs>
</svg>
