<svg width="70" height="70" viewBox="0 0 70 70" fill="none" xmlns="http://www.w3.org/2000/svg">
<g clip-path="url(#clip0_1043_2029)">
<path d="M35 70C54.396 70 70 54.396 70 35C70 15.6041 54.396 0 35 0C15.6041 0 0 15.6041 0 35C0 54.396 15.6041 70 35 70Z" fill="#2775CA"/>
<path d="M44.6246 40.5415C44.6246 35.4375 41.5621 33.6875 35.4371 32.9584C31.0621 32.375 30.1871 31.2084 30.1871 29.1665C30.1871 27.1246 31.6455 25.8125 34.5621 25.8125C37.1871 25.8125 38.6455 26.6875 39.3746 28.875C39.5205 29.3125 39.958 29.604 40.3955 29.604H42.7286C43.3121 29.604 43.7496 29.1665 43.7496 28.5834V28.4375C43.1661 25.229 40.5411 22.75 37.1871 22.4584V18.9584C37.1871 18.375 36.7496 17.9375 36.0205 17.7915H33.833C33.2496 17.7915 32.8121 18.229 32.6661 18.9584V22.3125C28.2911 22.8959 25.5205 25.8125 25.5205 29.4584C25.5205 34.2709 28.4371 36.1665 34.5621 36.8959C38.6455 37.625 39.958 38.5 39.958 40.8334C39.958 43.1669 37.9161 44.7709 35.1455 44.7709C31.3536 44.7709 30.0411 43.1665 29.6036 40.979C29.458 40.3959 29.0205 40.104 28.583 40.104H26.1036C25.5205 40.104 25.083 40.5415 25.083 41.125V41.2709C25.6661 44.9165 27.9996 47.5415 32.8121 48.2709V51.7709C32.8121 52.354 33.2496 52.7915 33.9786 52.9375H36.1661C36.7496 52.9375 37.1871 52.5 37.333 51.7709V48.2709C41.708 47.5415 44.6246 44.479 44.6246 40.5415Z" fill="white"/>
<path d="M27.5624 55.8541C16.1874 51.771 10.354 39.0835 14.5834 27.8541C16.7709 21.7291 21.5834 17.0625 27.5624 14.875C28.1459 14.5835 28.4374 14.146 28.4374 13.4166V11.375C28.4374 10.7916 28.1459 10.3541 27.5624 10.2085C27.4165 10.2085 27.1249 10.2085 26.979 10.3541C13.1249 14.7291 5.54146 29.4585 9.91646 43.3125C12.5415 51.4791 18.8124 57.75 26.979 60.375C27.5624 60.6666 28.1459 60.375 28.2915 59.7916C28.4374 59.646 28.4374 59.5 28.4374 59.2085V57.1666C28.4374 56.7291 27.9999 56.146 27.5624 55.8541ZM43.0209 10.3541C42.4374 10.0625 41.854 10.3541 41.7084 10.9375C41.5624 11.0835 41.5624 11.2291 41.5624 11.521V13.5625C41.5624 14.146 41.9999 14.7291 42.4374 15.021C53.8124 19.1041 59.6459 31.7916 55.4165 43.021C53.229 49.146 48.4165 53.8125 42.4374 56C41.854 56.2916 41.5624 56.7291 41.5624 57.4585V59.5C41.5624 60.0835 41.854 60.521 42.4374 60.6666C42.5834 60.6666 42.8749 60.6666 43.0209 60.521C56.8749 56.146 64.4584 41.4166 60.0834 27.5625C57.4584 19.25 51.0415 12.9791 43.0209 10.3541Z" fill="white"/>
</g>
<defs>
<clipPath id="clip0_1043_2029">
<rect width="70" height="70" fill="white"/>
</clipPath>
</defs>
</svg>
