<?xml version="1.0" encoding="UTF-8"?>
<svg xmlns="http://www.w3.org/2000/svg" xmlns:xlink="http://www.w3.org/1999/xlink" width="70px" height="70px" viewBox="0 0 70 70" version="1.1">
<g id="surface1">
<path style=" stroke:none;fill-rule:evenodd;fill:rgb(100%,100%,100%);fill-opacity:1;" d="M 35 0 C 54.324219 0 70 15.667969 70 35 C 70 54.324219 54.324219 70 35 70 C 15.667969 70 0 54.328125 0 35 C 0 15.667969 15.667969 0 35 0 Z M 35 0 "/>
<path style=" stroke:none;fill-rule:evenodd;fill:rgb(35.294118%,33.333333%,39.215686%);fill-opacity:1;" d="M 57.078125 14.691406 L 55.15625 16.613281 C 64.664062 27.011719 64.664062 42.941406 55.15625 53.335938 L 57.078125 55.257812 C 67.652344 43.785156 67.652344 26.117188 57.078125 14.644531 Z M 57.078125 14.691406 "/>
<path style=" stroke:none;fill-rule:evenodd;fill:rgb(35.294118%,33.333333%,39.215686%);fill-opacity:1;" d="M 16.652344 14.859375 C 27.046875 5.355469 42.980469 5.355469 53.375 14.859375 L 55.296875 12.9375 C 43.824219 2.359375 26.152344 2.359375 14.683594 12.9375 Z M 16.652344 14.859375 "/>
<path style=" stroke:none;fill-rule:evenodd;fill:rgb(35.294118%,33.333333%,39.215686%);fill-opacity:1;" d="M 14.859375 53.355469 C 5.363281 42.964844 5.363281 27.046875 14.859375 16.648438 L 12.9375 14.726562 C 2.359375 26.203125 2.359375 43.871094 12.9375 55.339844 Z M 14.859375 53.355469 "/>
<path style=" stroke:none;fill-rule:evenodd;fill:rgb(35.294118%,33.333333%,39.215686%);fill-opacity:1;" d="M 53.355469 55.128906 C 42.960938 64.636719 27.027344 64.636719 16.632812 55.128906 L 14.707031 57.054688 C 26.179688 67.632812 43.855469 67.632812 55.324219 57.054688 Z M 53.355469 55.128906 "/>
<path style=" stroke:none;fill-rule:evenodd;fill:rgb(94.117647%,57.254902%,25.882353%);fill-opacity:1;" d="M 40.824219 30.105469 C 40.824219 33.945312 34.816406 33.480469 32.902344 33.480469 L 32.902344 26.710938 C 34.816406 26.710938 40.824219 26.109375 40.824219 30.105469 Z M 42.390625 40.621094 C 42.390625 44.820312 35.191406 44.339844 32.898438 44.339844 L 32.898438 36.886719 C 35.191406 36.886719 42.390625 36.230469 42.390625 40.621094 Z M 47.136719 28.589844 C 46.75 24.574219 43.292969 23.230469 38.914062 22.820312 L 38.914062 17.292969 L 35.53125 17.292969 L 35.53125 22.714844 C 34.640625 22.714844 33.730469 22.714844 32.828125 22.742188 L 32.828125 17.292969 L 29.464844 17.292969 L 29.464844 22.855469 L 22.609375 22.855469 L 22.609375 26.472656 C 22.609375 26.472656 25.109375 26.429688 25.070312 26.472656 C 26.007812 26.375 26.855469 27.03125 26.992188 27.960938 L 26.992188 43.191406 C 26.96875 43.507812 26.824219 43.804688 26.585938 44.019531 C 26.34375 44.226562 26.027344 44.328125 25.710938 44.3125 C 25.753906 44.347656 23.25 44.3125 23.25 44.3125 L 22.578125 48.351562 L 29.410156 48.351562 L 29.410156 54.003906 L 32.792969 54.003906 L 32.792969 48.433594 L 35.496094 48.433594 L 35.496094 53.976562 L 38.882812 53.976562 L 38.882812 48.390625 C 44.597656 48.042969 48.585938 46.636719 49.085938 41.28125 C 49.488281 36.980469 47.460938 35.054688 44.230469 34.28125 C 46.195312 33.285156 47.429688 31.519531 47.136719 28.589844 Z M 47.136719 28.589844 "/>
<path style=" stroke:none;fill-rule:evenodd;fill:rgb(15.686275%,12.941176%,21.960784%);fill-opacity:1;" d="M 34.996094 2.730469 C 17.183594 2.742188 2.757812 17.179688 2.761719 34.988281 C 2.761719 52.796875 17.199219 67.230469 35.011719 67.230469 C 52.820312 67.234375 67.261719 52.800781 67.265625 34.992188 C 67.242188 17.183594 52.804688 2.753906 34.996094 2.746094 Z M 34.996094 70 C 15.664062 69.996094 -0.00390625 54.324219 0 35 C 0 15.667969 15.667969 0.00390625 34.996094 0 C 54.324219 0 69.996094 15.664062 70 34.996094 C 69.976562 54.320312 54.316406 69.976562 34.996094 70 Z M 34.996094 70 "/>
</g>
</svg>
