<svg width="50" height="70" viewBox="0 0 50 70" fill="none" xmlns="http://www.w3.org/2000/svg">
<g clip-path="url(#clip0_1043_2030)">
<path d="M49.447 28.9253L39.368 33.4191L12.6299 47.0289L39.368 59.8845V38.6351L49.447 34.0932V65.4857L39.368 69.9795L-0.000976562 51.1376V41.1228L27.2508 27.7537L-0.000976562 14.6574V4.49821L10.2385 0.00439453L49.447 18.8784V28.9253Z" fill="#49C1BF"/>
<path d="M-0.000976562 4.49821L39.368 23.3722L49.447 18.8784L10.2385 0.00439453L-0.000976562 4.49821Z" fill="#077A8F"/>
<path d="M39.3682 23.3298L49.4471 18.8359V28.8828L39.3682 33.3766V23.3298Z" fill="#298E97"/>
<path d="M-0.000976562 4.50732V14.6666L27.2508 27.7628L-0.000976562 41.1319V51.1467L39.368 69.9886V59.9096L12.6299 47.0381L39.368 33.4282V23.3813L-0.000976562 4.50732Z" fill="#49C1BF"/>
<path d="M39.3682 69.9137L49.4471 65.4198V34.0273L39.3682 38.5693V69.9137Z" fill="#298E97"/>
</g>
<defs>
<clipPath id="clip0_1043_2030">
<rect width="49.448" height="70" fill="white"/>
</clipPath>
</defs>
</svg>
