<svg width="22" height="22" viewBox="0 0 22 22" fill="none" xmlns="http://www.w3.org/2000/svg">
<g id="Group 855132">
<path id="Vector" d="M14.2984 15.6894C14.4945 15.8863 14.7578 16.0019 15.0356 16.0131C15.1806 16.0174 15.325 15.993 15.4606 15.9413C15.5962 15.8897 15.7202 15.8118 15.8257 15.7122C15.9311 15.6125 16.0158 15.4931 16.0751 15.3606C16.1343 15.2282 16.1668 15.0854 16.1708 14.9404L16.5257 6.37023C16.5371 6.07745 16.4317 5.79214 16.2327 5.57706C16.0338 5.36199 15.7575 5.23477 15.4647 5.22339C15.1719 5.21201 14.8866 5.3174 14.6715 5.51638C14.4565 5.71536 14.3292 5.99163 14.3179 6.28441L13.9746 14.8663C13.9689 15.0184 13.9947 15.17 14.0504 15.3117C14.1061 15.4533 14.1905 15.5819 14.2984 15.6894Z" fill="white"/>
<path id="Vector_2" d="M6.05947 7.45096C6.16691 7.55878 6.2955 7.64321 6.43715 7.69893C6.5788 7.75465 6.73045 7.78046 6.88255 7.77473L15.4644 7.43145C15.7572 7.42007 16.0335 7.29285 16.2324 7.07778C16.4314 6.8627 16.5368 6.57739 16.5254 6.28461C16.5141 5.99182 16.3868 5.71555 16.1718 5.51657C15.9567 5.31759 15.6714 5.21219 15.3786 5.22357L6.80844 5.57855C6.6634 5.584 6.52087 5.61801 6.389 5.67863C6.25713 5.73925 6.13852 5.82529 6.03996 5.93182C5.9414 6.03836 5.86482 6.16329 5.81462 6.29947C5.76442 6.43564 5.74158 6.58038 5.74741 6.7254C5.75833 6.99748 5.86948 7.2559 6.05947 7.45096Z" fill="white"/>
<path id="Vector_3" d="M4.88878 16.8594C5.09569 17.0663 5.38619 17.1727 5.69636 17.1551C6.00654 17.1375 6.31099 16.9975 6.54273 16.7657L15.7175 7.59095C15.9493 7.35921 16.0893 7.05476 16.1069 6.74458C16.1244 6.43441 16.0181 6.14391 15.8111 5.93699C15.6042 5.73008 15.3137 5.6237 15.0035 5.64126C14.6934 5.65882 14.3889 5.79887 14.1572 6.03061L4.9824 15.2054C4.75065 15.4371 4.6106 15.7416 4.59304 16.0518C4.57548 16.3619 4.68186 16.6524 4.88878 16.8594Z" fill="white"/>
</g>
</svg>
