<svg width="13" height="15" viewBox="0 0 13 15" fill="none" xmlns="http://www.w3.org/2000/svg">
<path d="M0.993852 6.78015C0.741895 6.77967 0.49904 6.87431 0.313852 7.04515C0.218203 7.13537 0.141285 7.24356 0.0874984 7.36354C0.0337123 7.48352 0.00411469 7.61293 0.000399342 7.74436C-0.003316 7.87579 0.0189238 8.00666 0.0658462 8.12949C0.112769 8.25231 0.183453 8.36468 0.273852 8.46015L5.53885 14.1802C5.7192 14.3751 5.9696 14.4904 6.23496 14.5007C6.50033 14.511 6.75892 14.4155 6.95385 14.2352C7.14879 14.0548 7.26409 13.8044 7.27441 13.539C7.28472 13.2737 7.1892 13.0151 7.00885 12.8202L1.72885 7.10015C1.63504 6.999 1.52131 6.91835 1.39482 6.86328C1.26833 6.80821 1.13181 6.77991 0.993852 6.78015Z" fill="white"/>
<path d="M11.5538 6.78015C11.4158 6.77991 11.2793 6.80821 11.1528 6.86328C11.0263 6.91835 10.9126 6.999 10.8188 7.10015L5.53877 12.8202C5.35843 13.0151 5.2629 13.2737 5.27322 13.539C5.28353 13.8044 5.39884 14.0548 5.59377 14.2352C5.78871 14.4155 6.0473 14.511 6.31266 14.5007C6.57803 14.4904 6.82843 14.3751 7.00877 14.1802L12.2738 8.46015C12.3632 8.36371 12.4328 8.25057 12.4784 8.12721C12.5241 8.00384 12.545 7.87268 12.5399 7.74124C12.5348 7.6098 12.5038 7.48065 12.4487 7.36121C12.3936 7.24176 12.3154 7.13436 12.2188 7.04515C12.0374 6.87779 11.8005 6.7834 11.5538 6.78015Z" fill="white"/>
<path d="M6.27393 0C6.00871 0 5.75436 0.117999 5.56682 0.328039C5.37928 0.53808 5.27393 0.822957 5.27393 1.12V12.88C5.27393 13.177 5.37928 13.4619 5.56682 13.672C5.75436 13.882 6.00871 14 6.27393 14C6.53914 14 6.7935 13.882 6.98103 13.672C7.16857 13.4619 7.27393 13.177 7.27393 12.88V1.12C7.27393 0.822957 7.16857 0.53808 6.98103 0.328039C6.7935 0.117999 6.53914 0 6.27393 0Z" fill="white"/>
</svg>
