<svg width="12" height="12" viewBox="0 0 12 12" fill="none" xmlns="http://www.w3.org/2000/svg">
<g id="mingcute:check-fill" clip-path="url(#clip0_2477_91)">
<g id="Group">
<path id="Vector" fill-rule="evenodd" clip-rule="evenodd" d="M10.773 2.55553C10.9136 2.69618 10.9926 2.88691 10.9926 3.08578C10.9926 3.28466 10.9136 3.47539 10.773 3.61603L5.15151 9.23753C5.07722 9.31184 4.98902 9.37078 4.89195 9.411C4.79488 9.45121 4.69084 9.47191 4.58576 9.47191C4.48069 9.47191 4.37665 9.45121 4.27957 9.411C4.1825 9.37078 4.0943 9.31184 4.02001 9.23753L1.22701 6.44503C1.15538 6.37585 1.09824 6.29309 1.05894 6.20159C1.01963 6.11008 0.998941 6.01167 0.998075 5.91208C0.99721 5.8125 1.01619 5.71374 1.0539 5.62157C1.09161 5.5294 1.1473 5.44566 1.21772 5.37524C1.28814 5.30482 1.37188 5.24913 1.46405 5.21142C1.55622 5.17371 1.65498 5.15473 1.75456 5.1556C1.85415 5.15646 1.95256 5.17715 2.04407 5.21646C2.13557 5.25576 2.21833 5.3129 2.28751 5.38453L4.58551 7.68253L9.71201 2.55553C9.78166 2.48584 9.86436 2.43055 9.95539 2.39283C10.0464 2.35511 10.144 2.33569 10.2425 2.33569C10.341 2.33569 10.4386 2.35511 10.5296 2.39283C10.6207 2.43055 10.7034 2.48584 10.773 2.55553Z" fill="black"/>
</g>
</g>
<defs>
<clipPath id="clip0_2477_91">
<rect width="12" height="12" fill="white"/>
</clipPath>
</defs>
</svg>
