<svg width="12" height="12" viewBox="0 0 12 12" fill="none" xmlns="http://www.w3.org/2000/svg">
<g id="fluent:ios-arrow-24-filled">
<path id="Vector" d="M1.84362 5.63645C1.79589 5.59134 1.73974 5.55608 1.67837 5.53267C1.61701 5.50926 1.55163 5.49817 1.48598 5.50003C1.42033 5.50188 1.35569 5.51665 1.29575 5.54349C1.2358 5.57033 1.18173 5.60872 1.13662 5.65645C1.09152 5.70419 1.05625 5.76034 1.03284 5.8217C1.00943 5.88307 0.998343 5.94844 1.0002 6.01409C1.00206 6.07974 1.01683 6.14439 1.04367 6.20433C1.07051 6.26427 1.10889 6.31834 1.15662 6.36345L5.65662 10.6135C5.74946 10.7012 5.87237 10.7501 6.00012 10.7501C6.12788 10.7501 6.25079 10.7012 6.34362 10.6135L10.8441 6.36345C10.8929 6.31864 10.9323 6.26458 10.96 6.20442C10.9877 6.14425 11.0032 6.07919 11.0056 6.01299C11.0079 5.94679 10.9971 5.88079 10.9737 5.81881C10.9503 5.75683 10.9149 5.70011 10.8694 5.65195C10.8239 5.60379 10.7693 5.56515 10.7088 5.53826C10.6483 5.51138 10.583 5.4968 10.5168 5.49535C10.4505 5.49391 10.3847 5.50564 10.323 5.52986C10.2614 5.55408 10.2052 5.59032 10.1576 5.63645L6.00012 9.56245L1.84362 5.63645Z" fill="white"/>
</g>
</svg>
