<svg width="12" height="12" viewBox="0 0 12 12" fill="none" xmlns="http://www.w3.org/2000/svg">
<g id="fluent:ios-arrow-24-filled">
<path id="Vector" d="M1.8435 5.63645C1.79577 5.59134 1.73961 5.55608 1.67825 5.53267C1.61689 5.50926 1.55151 5.49817 1.48586 5.50003C1.42021 5.50188 1.35557 5.51665 1.29562 5.54349C1.23568 5.57033 1.18161 5.60872 1.1365 5.65645C1.09139 5.70419 1.05613 5.76034 1.03272 5.8217C1.00931 5.88307 0.998221 5.94844 1.00008 6.01409C1.00193 6.07974 1.0167 6.14439 1.04354 6.20433C1.07038 6.26427 1.10877 6.31834 1.1565 6.36345L5.6565 10.6135C5.74934 10.7012 5.87225 10.7501 6 10.7501C6.12776 10.7501 6.25067 10.7012 6.3435 10.6135L10.844 6.36345C10.8928 6.31864 10.9322 6.26458 10.9599 6.20442C10.9876 6.14425 11.0031 6.07919 11.0054 6.01299C11.0078 5.94679 10.997 5.88079 10.9736 5.81881C10.9502 5.75683 10.9148 5.70011 10.8693 5.65195C10.8238 5.60379 10.7692 5.56515 10.7087 5.53826C10.6481 5.51138 10.5829 5.4968 10.5166 5.49535C10.4504 5.49391 10.3846 5.50564 10.3229 5.52986C10.2613 5.55408 10.205 5.59032 10.1575 5.63645L6 9.56245L1.8435 5.63645Z" fill="white"/>
</g>
</svg>
