<svg width="20" height="20" viewBox="0 0 20 20" fill="none" xmlns="http://www.w3.org/2000/svg">
<g id="solar:link-outline">
<path id="Vector" d="M13.1075 3.2367C14.3025 2.0367 16.0509 2.0117 17.0184 2.98337C17.9884 3.9567 17.9625 5.7167 16.7659 6.9167L14.7467 8.9442C14.633 9.06223 14.5702 9.2202 14.5719 9.38408C14.5735 9.54796 14.6395 9.70463 14.7555 9.82035C14.8716 9.93607 15.0284 10.0016 15.1923 10.0028C15.3562 10.004 15.514 9.94073 15.6317 9.8267L17.6517 7.7992C19.2442 6.20003 19.4442 3.64753 17.9042 2.10087C16.3625 0.553367 13.815 0.755033 12.2209 2.3542L8.18254 6.41003C6.59004 8.0092 6.39004 10.5617 7.93004 12.1075C7.98755 12.1673 8.05641 12.2151 8.13258 12.248C8.20875 12.281 8.29071 12.2984 8.37369 12.2993C8.45667 12.3002 8.539 12.2846 8.61587 12.2533C8.69275 12.2221 8.76263 12.1758 8.82144 12.1173C8.88026 12.0588 8.92683 11.9891 8.95843 11.9124C8.99004 11.8357 9.00605 11.7534 9.00553 11.6704C9.00501 11.5874 8.98798 11.5054 8.95541 11.4291C8.92285 11.3527 8.87541 11.2837 8.81587 11.2259C7.84587 10.2525 7.87254 8.49253 9.06837 7.29253L13.1075 3.2367Z" fill="#FFDD2E"/>
<path id="Vector_2" d="M12.0711 7.89172C11.9539 7.77425 11.7949 7.70812 11.629 7.70789C11.4631 7.70765 11.3039 7.77333 11.1865 7.89046C11.069 8.0076 11.0029 8.16661 11.0026 8.3325C11.0024 8.49839 11.0681 8.65758 11.1852 8.77505C12.1552 9.74838 12.1294 11.5075 10.9327 12.7084L6.89355 16.7634C5.69772 17.9634 3.94939 17.9884 2.98189 17.0167C2.01189 16.0434 2.03855 14.2834 3.23439 13.0834L5.25439 11.0559C5.31233 10.9977 5.35825 10.9287 5.38953 10.8528C5.42081 10.7769 5.43683 10.6956 5.43667 10.6135C5.43652 10.5314 5.42019 10.4501 5.38863 10.3743C5.35707 10.2985 5.31088 10.2297 5.25272 10.1717C5.19456 10.1138 5.12555 10.0678 5.04963 10.0366C4.97372 10.0053 4.89239 9.98928 4.81029 9.98943C4.72819 9.98959 4.64692 10.0059 4.57113 10.0375C4.49533 10.069 4.4265 10.1152 4.36855 10.1734L2.34855 12.2009C0.756053 13.8009 0.556053 16.3525 2.09605 17.8992C3.63772 19.4475 6.18522 19.245 7.77939 17.6459L11.8186 13.59C13.4111 11.9917 13.6111 9.43755 12.0711 7.89172Z" fill="#FFDD2E"/>
</g>
</svg>
