<svg width="20" height="20" viewBox="0 0 20 20" fill="none" xmlns="http://www.w3.org/2000/svg">
<g id="ic:round-lock">
<path id="Vector" d="M15.0002 6.66671H14.1668V5.00004C14.1668 2.70004 12.3002 0.833374 10.0002 0.833374C7.70016 0.833374 5.8335 2.70004 5.8335 5.00004V6.66671H5.00016C4.0835 6.66671 3.3335 7.41671 3.3335 8.33337V16.6667C3.3335 17.5834 4.0835 18.3334 5.00016 18.3334H15.0002C15.9168 18.3334 16.6668 17.5834 16.6668 16.6667V8.33337C16.6668 7.41671 15.9168 6.66671 15.0002 6.66671ZM10.0002 14.1667C9.0835 14.1667 8.3335 13.4167 8.3335 12.5C8.3335 11.5834 9.0835 10.8334 10.0002 10.8334C10.9168 10.8334 11.6668 11.5834 11.6668 12.5C11.6668 13.4167 10.9168 14.1667 10.0002 14.1667ZM7.50016 6.66671V5.00004C7.50016 3.61671 8.61683 2.50004 10.0002 2.50004C11.3835 2.50004 12.5002 3.61671 12.5002 5.00004V6.66671H7.50016Z" fill="#FFDD2E"/>
</g>
</svg>
