<svg xmlns="http://www.w3.org/2000/svg" xmlns:xlink="http://www.w3.org/1999/xlink" width="24" height="24" viewBox="0 0 24 24">
  <defs>
    <clipPath id="clip-Web_1920_1">
      <rect width="24" height="24"/>
    </clipPath>
  </defs>
  <g id="Web_1920_1" data-name="Web 1920 – 1" clip-path="url(#clip-Web_1920_1)">
    <path id="password-svgrepo-com" d="M17.408,3.412a1.974,1.974,0,0,0,0-2.82,1.973,1.973,0,0,0-2.819,0l-.29.29-.59-.59a1.009,1.009,0,0,0-1.65.35l-.35-.35a1,1,0,1,0-1.42,1.42l.35.35a1.033,1.033,0,0,0-.58.58l-.35-.35a1,1,0,0,0-1.42,1.42L9.879,5.3,6.859,8.31c-.01.01-.02.03-.03.04A4.885,4.885,0,0,0,5,8a5,5,0,1,0,5,5,4.885,4.885,0,0,0-.35-1.83c.01-.01.03-.02.04-.03l7.718-7.728ZM5,15a2,2,0,1,1,2-2A2,2,0,0,1,5,15Z" transform="translate(3 3.001)" fill="#ffdd2e" fill-rule="evenodd"/>
  </g>
</svg>
