<svg width="16" height="16" viewBox="0 0 16 16" fill="none" xmlns="http://www.w3.org/2000/svg">
<g id="Group 855131">
<path id="Vector" d="M10.3335 4.38322C10.4753 4.24088 10.6656 4.15731 10.8663 4.14922C10.9711 4.14615 11.0755 4.16379 11.1735 4.20111C11.2715 4.23843 11.3611 4.29471 11.4373 4.36673C11.5135 4.43874 11.5748 4.52507 11.6176 4.62078C11.6604 4.7165 11.6839 4.81971 11.6867 4.92452L11.9433 11.1184C11.9515 11.33 11.8753 11.5362 11.7315 11.6917C11.5877 11.8471 11.3881 11.9391 11.1764 11.9473C10.9648 11.9555 10.7586 11.8794 10.6032 11.7355C10.4478 11.5917 10.3558 11.3921 10.3476 11.1805L10.0995 4.97808C10.0954 4.86815 10.114 4.75855 10.1543 4.65617C10.1945 4.5538 10.2556 4.46087 10.3335 4.38322Z" fill="#FF0000"/>
<path id="Vector_2" d="M4.379 10.3372C4.45665 10.2593 4.54958 10.1983 4.65195 10.158C4.75433 10.1177 4.86393 10.0991 4.97386 10.1032L11.1762 10.3513C11.3878 10.3595 11.5875 10.4515 11.7313 10.6069C11.8751 10.7624 11.9513 10.9686 11.9431 11.1802C11.9349 11.3918 11.8429 11.5915 11.6875 11.7353C11.532 11.8791 11.3258 11.9552 11.1142 11.947L4.92029 11.6905C4.81547 11.6865 4.71246 11.662 4.61716 11.6181C4.52185 11.5743 4.43613 11.5121 4.36489 11.4351C4.29366 11.3582 4.23832 11.2679 4.20203 11.1694C4.16575 11.071 4.14924 10.9664 4.15345 10.8616C4.16135 10.665 4.24168 10.4782 4.379 10.3372Z" fill="#FF0000"/>
<path id="Vector_3" d="M3.53293 3.53759C3.68247 3.38805 3.89243 3.31116 4.1166 3.32385C4.34078 3.33654 4.56081 3.43776 4.7283 3.60525L11.3592 10.2362C11.5267 10.4036 11.6279 10.6237 11.6406 10.8479C11.6533 11.072 11.5764 11.282 11.4269 11.4315C11.2773 11.5811 11.0674 11.658 10.8432 11.6453C10.619 11.6326 10.399 11.5314 10.2315 11.3639L3.60059 4.73296C3.43311 4.56547 3.33188 4.34544 3.31919 4.12126C3.3065 3.89709 3.38339 3.68713 3.53293 3.53759Z" fill="#FF0000"/>
</g>
</svg>
